<svg width="177" height="275" viewBox="0 0 177 275" fill="none" xmlns="http://www.w3.org/2000/svg">
<path d="M9.93561 216.915L168.06 216.915L168.06 3.86517L9.93561 3.86517L9.93561 216.915Z" fill="#CBE1FD"/>
<path opacity="0.35" d="M10.9846 133.972V113.717L165.845 4.99707H167.01V24.4354L10.9846 133.972Z" fill="white"/>
<path opacity="0.35" d="M10.9846 104.785V4.99707H153.123L10.9846 104.785Z" fill="white"/>
<path d="M171.512 0.442871H6.48083V220.337H171.512V0.442871Z" stroke="#CBE1FD" stroke-width="0.886581" stroke-miterlimit="10"/>
<path d="M176.557 3.86523H0.443237V8.02034H176.557V3.86523Z" fill="white" stroke="#CBE1FD" stroke-width="0.886581" stroke-miterlimit="10"/>
<path d="M176.557 10.7925H0.443237V14.9476H176.557V10.7925Z" fill="white" stroke="#CBE1FD" stroke-width="0.886581" stroke-miterlimit="10"/>
<path d="M176.557 17.7178H0.443237V21.8729H176.557V17.7178Z" fill="white" stroke="#CBE1FD" stroke-width="0.886581" stroke-miterlimit="10"/>
<path d="M176.557 24.645H0.443237V28.8001H176.557V24.645Z" fill="white" stroke="#CBE1FD" stroke-width="0.886581" stroke-miterlimit="10"/>
<path d="M176.557 31.5723H0.443237V35.7274H176.557V31.5723Z" fill="white" stroke="#CBE1FD" stroke-width="0.886581" stroke-miterlimit="10"/>
<path d="M99.8792 268.399H123.527C123.74 268.399 123.913 268.227 123.913 268.014V267.396C123.913 267.183 123.74 267.01 123.527 267.01H99.8792C99.6662 267.01 99.4936 267.183 99.4936 267.396V268.014C99.4936 268.227 99.6662 268.399 99.8792 268.399Z" fill="#88BED7"/>
<path d="M120.817 259.348H112.3C112.3 259.348 111.281 261.536 105.713 262.106C99.4965 262.745 99.9384 267.012 99.9384 267.012H123.235C123.235 267.012 124.358 263.782 120.817 259.348Z" fill="#40465C"/>
<path d="M83.1185 259.348H74.6044C74.6044 259.348 73.5848 261.675 68.0171 262.25C61.8317 262.887 62.2425 267.012 62.2425 267.012H85.5389C85.5389 267.012 86.6589 263.782 83.1185 259.348Z" fill="#40465C"/>
<path d="M62.0429 268.399H85.9747C86.1877 268.399 86.3604 268.227 86.3604 268.014V267.396C86.3604 267.183 86.1877 267.01 85.9747 267.01H62.0429C61.8299 267.01 61.6572 267.183 61.6572 267.396V268.014C61.6572 268.227 61.8299 268.399 62.0429 268.399Z" fill="#88BED7"/>
<path d="M113.434 138.821C113.643 145.676 114.512 198.72 120.628 213.617C126.827 228.716 123.276 259.424 123.276 259.424C114.783 260.766 111.332 259.276 111.332 259.276C111.332 259.276 99.0916 208.326 90.4785 172.659C89.6096 186.507 88.7053 207.104 90.1637 217.156C92.4881 233.144 87.4316 259.48 87.4316 259.48C80.0996 260.618 71.6918 259.48 71.6918 259.48C71.6918 259.48 70.0354 234.124 69.0823 205.199C68.639 191.762 66.0354 142.377 66.1463 139.103L113.434 138.821Z" fill="#88BED7"/>
<path d="M97.9361 72.505C99.8466 72.505 117.965 76.1148 117.949 84.0054C117.931 92.6481 108.754 121.104 109.507 126.322C110.261 131.539 115.18 138.439 112.916 139.43C106.817 142.105 86.4534 144.228 66.1004 139.037C66.1004 139.037 68.2238 134.244 64.5651 113.422C62.5674 102.061 62.1019 80.3231 63.8042 78.0594C65.5064 75.7957 75.7568 73.4551 79.5129 72.7591C83.2691 72.0631 97.9361 72.505 97.9361 72.505Z" fill="#88BED7"/>
<path d="M97.3363 72.4409C96.8826 75.0563 91.869 134.373 98.3381 163.887C98.3381 163.887 108.829 165.319 119.553 161.288C119.553 161.288 113.463 124.191 113.083 118.011C112.704 111.832 117.442 80.0153 114.574 78.2628C105.047 72.4409 97.3363 72.4409 97.3363 72.4409Z" fill="white"/>
<path d="M78.8244 72.8472C78.8244 72.8472 80.2622 129.189 80.5814 163.599C80.5814 163.599 70.2379 166.188 61.313 162.157C61.313 162.157 64.8194 120.507 64.8697 115.202C64.9199 109.897 62.17 78.5095 65.1829 76.9121C71.6653 73.4737 78.8244 72.8472 78.8244 72.8472Z" fill="white"/>
<path d="M126.45 125.256C134.057 115.529 125.222 79.1153 112.374 77.5165C111.016 77.3481 108.158 78.3765 107.966 86.9113C107.807 94.0188 110.786 107.573 112.251 113.785C101.446 115.01 85.1029 119.196 82.6633 119.419C79.9149 119.67 81.5891 128.635 84.3848 128.977C88.8768 129.525 117.414 131.904 126.45 125.256Z" fill="white"/>
<path d="M81.5492 120.687C81.2891 118.828 101.03 115.675 111.841 114.018C110.305 107.4 108.825 96.2866 108.825 96.2866" stroke="#E4EFFD" stroke-width="0.738818" stroke-miterlimit="10"/>
<path d="M66.6561 126.79L78.1905 110.867" stroke="black" stroke-width="0.738818" stroke-miterlimit="10"/>
<path d="M83.1405 121.348C81.8003 120.166 73.7694 118.289 72.9079 118.849C72.0465 119.409 65.1991 120.935 65.1991 120.935C65.1991 120.935 65.3853 122.581 68.1115 122.217C71.2796 121.791 71.9711 122.438 71.9711 122.438C71.9711 122.438 71.5825 124.189 72.5888 124.822C73.595 125.454 72.3183 126.429 73.7295 127.675C74.557 128.403 74.6161 129.337 75.6741 129.504C76.732 129.671 82.4933 126.79 83.4967 124.776C84.3448 123.065 83.9296 122.052 83.1405 121.348Z" fill="#E18C32"/>
<path d="M39.0184 119.483C36.7931 117.516 32.6557 106.673 39.6316 106.685C41.1816 106.685 45.0028 107.231 49.3456 108.229C50.8646 99.0962 53.9647 84.7882 58.9664 80.5785C61.6971 78.2793 65.6823 76.6465 67.0388 76.1914C75.6283 73.3129 73.3084 132.624 59.9609 130.298C55.4896 129.512 43.1351 123.118 39.0184 119.483Z" fill="white"/>
<path d="M63.8056 116.8C64.4321 112.887 63.1939 106.484 62.9382 97.1885" stroke="#E4EFFD" stroke-width="0.738818" stroke-miterlimit="10"/>
<path d="M54.6384 138.782H79.6223C79.8306 138.782 80.0352 138.727 80.2154 138.623C80.3956 138.518 80.5449 138.368 80.6482 138.187C80.7516 138.006 80.8053 137.801 80.8039 137.592C80.8025 137.384 80.7461 137.18 80.6404 137L60.8962 103.442C60.7067 103.12 60.4365 102.853 60.1123 102.668C59.7881 102.483 59.4211 102.385 59.0477 102.385H34.0638C33.8554 102.385 33.6506 102.44 33.4702 102.545C33.2899 102.649 33.1403 102.799 33.0368 102.98C32.9333 103.161 32.8794 103.366 32.8808 103.575C32.8821 103.783 32.9385 103.988 33.0443 104.167L52.7899 137.724C52.979 138.047 53.2491 138.314 53.5734 138.499C53.8977 138.685 54.2648 138.782 54.6384 138.782Z" fill="#6562CE"/>
<path d="M51.0478 119.153L52.6938 122.005C52.7548 122.107 52.8388 122.193 52.9391 122.257C53.0395 122.321 53.1533 122.36 53.2716 122.372H55.559C55.6772 122.383 55.7911 122.422 55.8914 122.486C55.9918 122.55 56.0758 122.636 56.1367 122.738L57.4518 125.017C57.5128 125.118 57.5969 125.205 57.6972 125.268C57.7975 125.332 57.9114 125.371 58.0296 125.383H60.8785C61.0809 125.383 61.1503 125.219 61.0262 125.017L59.7096 122.738C59.5929 122.536 59.6624 122.372 59.8648 122.372H62.1448C62.3472 122.372 62.4167 122.208 62.2926 122.005L60.6465 119.153C60.5855 119.051 60.5015 118.965 60.4012 118.901C60.3008 118.838 60.187 118.798 60.0687 118.787H57.7976C57.6794 118.775 57.5657 118.735 57.4654 118.672C57.3651 118.608 57.281 118.522 57.2198 118.42L55.9047 116.142C55.8436 116.04 55.7594 115.954 55.6591 115.891C55.5588 115.827 55.4451 115.788 55.327 115.777H52.4751C52.2727 115.777 52.2033 115.941 52.32 116.142L53.638 118.42C53.7548 118.623 53.6853 118.787 53.4829 118.787H51.2014C50.999 118.787 50.931 118.949 51.0478 119.153Z" fill="#8281D8"/>
<path d="M41.1299 115.134C40.9083 116.088 40.824 116.528 40.0394 116.803C39.1972 117.418 37.6752 117.57 35.7543 117.622C34.2663 117.663 34.5722 114.993 34.5722 114.993C34.0639 114.63 33.9013 113.516 34.2013 112.533C34.2013 112.533 33.2098 111.638 33.7196 110.055C33.7196 110.055 32.9216 109.068 33.2305 107.892C33.4048 107.233 35.41 107.153 36.8462 107.128C37.8422 107.064 38.6445 107.042 39.0627 107.021C39.506 106.999 40.0468 107.917 39.9833 109.213C40.2626 109.532 40.4333 109.931 40.4709 110.353C40.5625 111.468 41.0811 113.161 40.8831 114.284C40.7989 114.665 41.1713 114.961 41.1299 115.134Z" fill="#E18C32"/>
<path d="M34.0963 107.585C35.0701 107.47 38.278 107.071 39.0479 107.021C40.1354 106.95 40.623 109.172 39.237 109.338C37.4869 109.763 35.6972 110.005 33.8969 110.06" stroke="#D97802" stroke-width="0.295527" stroke-miterlimit="10" stroke-linecap="round"/>
<path d="M34.454 112.495C39.1011 112.128 40.0188 111.743 40.0188 111.743C40.697 111.686 40.8758 109.186 39.2371 109.338" stroke="#D97802" stroke-width="0.295527" stroke-miterlimit="10" stroke-linecap="round"/>
<path d="M34.7791 114.96C39.1735 114.69 40.5773 114.175 40.5773 114.175C41.2097 114.075 41.3161 111.532 40.0187 111.74" stroke="#D97802" stroke-width="0.295527" stroke-miterlimit="10" stroke-linecap="round"/>
<path d="M39.4099 114.48C39.4099 114.48 40.8506 113.921 41.09 114.848C41.5155 116.495 39.6123 117.055 35.6744 117.437" stroke="#D97802" stroke-width="0.295527" stroke-miterlimit="10" stroke-linecap="round"/>
<path d="M76.7438 98.1948H65.8537C65.5256 98.1948 65.2596 98.4608 65.2596 98.7888V104.779C65.2596 105.107 65.5256 105.373 65.8537 105.373H76.7438C77.0719 105.373 77.3378 105.107 77.3378 104.779V98.7888C77.3378 98.4608 77.0719 98.1948 76.7438 98.1948Z" fill="#E4EFFD"/>
<path d="M72.0213 95.6074H70.5762V98.938H72.0213V95.6074Z" fill="#85C3D3"/>
<path d="M69.3438 99.5986H66.7255V102.74H69.3438V99.5986Z" fill="white"/>
<path d="M75.7879 99.5986H70.1743V100.326H75.7879V99.5986Z" fill="white"/>
<path d="M75.7879 100.806H70.1743V101.533H75.7879V100.806Z" fill="white"/>
<path d="M75.7879 102.013H70.1743V102.74H75.7879V102.013Z" fill="white"/>
<path d="M75.7878 103.242H66.7255V103.969H75.7878V103.242Z" fill="white"/>
<path d="M91.2542 99.136C90.6439 98.9291 90.1302 98.5062 89.8099 97.947C89.4895 97.3877 89.3847 96.7307 89.5151 96.0995L91.306 87.9193C92.2221 83.8721 96.5457 81.5655 100.566 82.981C104.588 84.3951 106.515 88.9004 104.695 92.63L100.968 100.13C100.674 100.702 100.182 101.148 99.5839 101.383C98.9854 101.618 98.3218 101.626 97.7174 101.407" stroke="#6562CE" stroke-width="0.738818" stroke-miterlimit="10"/>
<path d="M92.2925 98.3437L91.7633 98.1579C91.4212 98.0378 91.0464 98.2178 90.9263 98.5599L90.9258 98.5613C90.8057 98.9034 90.9857 99.2782 91.3278 99.3983L91.857 99.584C92.1992 99.7042 92.5739 99.5242 92.694 99.182L92.6945 99.1807C92.8146 98.8385 92.6346 98.4638 92.2925 98.3437Z" stroke="#6562CE" stroke-width="0.736042" stroke-miterlimit="10"/>
<path d="M97.526 100.657L96.9949 100.47C96.6516 100.349 96.2753 100.529 96.1545 100.873L96.154 100.874C96.0332 101.217 96.2135 101.594 96.5569 101.714L97.0879 101.901C97.4312 102.022 97.8075 101.842 97.9283 101.499L97.9288 101.497C98.0497 101.154 97.8693 100.778 97.526 100.657Z" stroke="#6562CE" stroke-width="0.738818" stroke-miterlimit="10"/>
<path d="M91.0887 88.915C91.0887 88.915 94.3765 84.3624 99.4522 86.1489C104.448 87.9058 104.24 93.5371 104.24 93.5371" stroke="#6562CE" stroke-width="0.738818" stroke-miterlimit="10"/>
<path d="M74.5821 86.5494C74.5821 86.5494 71.2988 71.3844 81.4458 69.6733" stroke="#6562CE" stroke-width="0.738818" stroke-miterlimit="10" stroke-linecap="round"/>
<path d="M75.7021 92.8293C77.4673 92.8293 78.8982 91.3983 78.8982 89.6331C78.8982 87.868 77.4673 86.437 75.7021 86.437C73.9369 86.437 72.506 87.868 72.506 89.6331C72.506 91.3983 73.9369 92.8293 75.7021 92.8293Z" fill="white"/>
<path d="M75.6696 92.8429C77.4348 92.8429 78.8658 91.412 78.8658 89.6468C78.8658 87.8816 77.4348 86.4507 75.6696 86.4507C73.9045 86.4507 72.4735 87.8816 72.4735 89.6468C72.4735 91.412 73.9045 92.8429 75.6696 92.8429Z" stroke="#EFAF00" stroke-width="0.591054" stroke-miterlimit="10"/>
<path d="M75.6607 91.7521C76.8334 91.7521 77.7841 90.8014 77.7841 89.6287C77.7841 88.456 76.8334 87.5054 75.6607 87.5054C74.488 87.5054 73.5374 88.456 73.5374 89.6287C73.5374 90.8014 74.488 91.7521 75.6607 91.7521Z" fill="#EFAF00"/>
<path d="M100.702 82.9219C100.702 82.9219 106.022 69.8551 95.733 68.8208" stroke="#6562CE" stroke-width="0.738818" stroke-miterlimit="10" stroke-linecap="round"/>
<path d="M94.1106 60.0601C94.1106 60.0601 92.797 66.2174 97.3363 72.4412C97.3363 72.4412 89.493 76.4544 78.8245 72.8475C78.8245 72.8475 85.1103 70.6828 82.424 60.3157L94.1106 60.0601Z" fill="#E18C32"/>
<path d="M93.8566 60.0649C93.864 60.4742 93.864 60.8156 93.8566 61.0623C93.8566 61.0623 93.3941 65.7332 90.9885 68.0338C89.1193 69.8203 83.327 71.6452 81.4459 70.7364C82.9881 67.4863 83.3345 63.7965 82.4241 60.3161L93.8566 60.0649Z" fill="#D97802"/>
<path d="M94.0116 60.988L93.9939 60.4635L93.917 58.1244C93.917 58.1244 91.4553 58.2189 92.3315 54.516C93.289 50.4732 91.6843 48.5818 87.5115 50.1865C84.4927 51.3465 81.6216 52.2715 79.615 50.6431C79.2462 50.339 78.9267 49.9796 78.6678 49.5777C77.5448 47.874 78.0398 47.7218 79.85 46.6033C82.1181 45.2054 84.6198 42.3403 90.2392 43.5268C94.7283 44.4755 94.9588 48.2479 94.9588 48.2479C94.9588 48.2479 97.651 47.645 98.2554 50.4643C99.0223 54.0032 94.0116 60.988 94.0116 60.988Z" fill="#40465C"/>
<path d="M94.8287 48.3841C94.8287 48.3841 96.2502 46.9995 97.7249 47.9127" stroke="#40465C" stroke-width="0.591054" stroke-miterlimit="10"/>
<path d="M93.7827 61.2762C93.1576 62.2958 91.3121 65.2067 90.393 65.5525C87.6239 66.5987 83.191 67.5118 81.7133 66.7494C80.7026 66.2292 80.6465 66.1967 79.4599 61.0501C78.798 58.1747 79.1644 52.9497 79.6225 50.6431C81.6291 52.2685 84.4987 51.3465 87.519 50.1866C91.6918 48.5818 93.2965 50.4732 92.339 54.516C91.5825 57.7122 93.3128 58.0786 93.8004 58.12C93.892 58.0165 95.0165 56.7901 96.0626 57.7018C96.7941 58.3416 94.2732 60.8048 93.7827 61.2762Z" fill="#E18C32"/>
<path d="M80.8532 57.505C81.2776 57.505 81.6216 57.161 81.6216 56.7366C81.6216 56.3123 81.2776 55.9683 80.8532 55.9683C80.4289 55.9683 80.0848 56.3123 80.0848 56.7366C80.0848 57.161 80.4289 57.505 80.8532 57.505Z" fill="#40465C"/>
<path d="M87.2115 57.505C87.6358 57.505 87.9799 57.161 87.9799 56.7366C87.9799 56.3123 87.6358 55.9683 87.2115 55.9683C86.7871 55.9683 86.4431 56.3123 86.4431 56.7366C86.4431 57.161 86.7871 57.505 87.2115 57.505Z" fill="#40465C"/>
<path d="M83.7878 56.0483L82.7195 60.4724H84.4986" stroke="#40465C" stroke-width="0.710742" stroke-linecap="round" stroke-linejoin="round"/>
<path d="M87.0383 62.8656C87.0383 62.8656 85.5624 61.2494 83.6205 62.4338" stroke="#40465C" stroke-width="0.710742" stroke-linecap="round" stroke-linejoin="round"/>
</svg>
