<svg width="273" height="359" viewBox="0 0 273 359" fill="none" xmlns="http://www.w3.org/2000/svg">
<path d="M253.021 228.668L243.857 258.608C241.952 264.835 236.647 269.028 230.676 269.028H178.829C172.858 269.028 167.553 264.835 165.646 258.608L158.11 233.982C156.796 229.691 159.698 225.246 163.815 225.246H169.62C172.354 225.246 174.671 223.036 175.053 220.051L178.442 193.636C179.249 187.329 184.155 182.64 189.944 182.64H236.631C243.686 182.64 249.114 189.504 248.134 197.193L245.23 219.982C244.877 222.763 246.839 225.246 249.392 225.246H250.793C252.398 225.246 253.535 226.987 253.021 228.668Z" fill="#6464C8"/>
<path d="M208.345 268.223H200.746V324.713H208.345V268.223Z" fill="white" stroke="#6464C8" stroke-width="1.09023" stroke-miterlimit="10"/>
<path d="M225.266 332.233V329.614C225.266 326.907 222.154 324.712 218.316 324.712H191.233C187.402 324.712 184.283 326.907 184.283 329.614V332.233" stroke="#6464C6" stroke-width="1.30828" stroke-miterlimit="10"/>
<path d="M184.428 342.894C187.372 342.894 189.758 340.507 189.758 337.563C189.758 334.619 187.372 332.233 184.428 332.233C181.484 332.233 179.097 334.619 179.097 337.563C179.097 340.507 181.484 342.894 184.428 342.894Z" fill="white" stroke="#E3B03D" stroke-width="1.09023" stroke-miterlimit="10"/>
<path d="M225.17 342.894C228.114 342.894 230.5 340.507 230.5 337.563C230.5 334.619 228.114 332.233 225.17 332.233C222.226 332.233 219.839 334.619 219.839 337.563C219.839 340.507 222.226 342.894 225.17 342.894Z" fill="white" stroke="#E3B03D" stroke-width="1.09023" stroke-miterlimit="10"/>
<path d="M137.752 316.471C137.07 319.031 134.594 327.787 135.482 330.928C136.37 334.069 138.86 336.379 138.174 339.582C137.437 342.993 117.434 340.836 116.82 340.699C116.206 340.562 127.444 334.323 127.575 329.68C127.706 325.038 126.225 316.471 126.225 316.471H137.752Z" fill="#D28E46"/>
<path d="M113.62 343.145H138.348C138.936 343.145 139.413 342.668 139.413 342.079V342.078C139.413 341.49 138.936 341.013 138.348 341.013H113.62C113.032 341.013 112.555 341.49 112.555 342.078V342.079C112.555 342.668 113.032 343.145 113.62 343.145Z" fill="#94BCD3"/>
<path d="M131.329 341.15C131.329 341.15 128.73 337.982 125.069 337.051C121.056 336.03 119.11 336.574 116.945 337.668C114.849 338.728 113.676 341.014 113.676 341.014L131.329 341.15Z" fill="#CFE0F9"/>
<path d="M131.417 341.101C131.417 341.101 131.196 333.677 136.105 332.712C136.105 332.712 140.82 336.92 138.212 341.101H131.417Z" fill="#CFE0F9"/>
<path d="M137.752 316.471H126.227C126.227 316.471 126.511 318.118 126.816 320.357C131.009 320.752 135.318 319.361 137.156 318.666C137.399 317.75 137.605 316.985 137.752 316.471Z" fill="#C97C2D"/>
<path d="M164.883 266.052C158.515 266.041 151.987 265.988 143.373 265.859C144.429 273.275 145.528 282.491 145.36 290.049C145.201 297.171 143.74 298.131 143.799 301.131C143.899 305.953 140.686 307.551 141.724 311.002C143.472 316.777 137.746 316.475 137.746 316.475C137.746 316.475 130.252 317.856 124.569 316.475L118.765 256.807C117.095 251.261 124.419 244.579 131.651 241.337C144.102 235.761 191.345 214.441 197.534 233.93C199.175 239.114 193.892 266.102 164.883 266.052Z" fill="#C5D7F9"/>
<path d="M172.865 316.471C172.183 319.031 169.708 327.787 170.595 330.928C171.482 334.069 173.973 336.379 173.288 339.582C172.552 342.993 152.549 340.836 151.934 340.699C151.32 340.562 162.557 334.323 162.689 329.68C162.822 325.038 161.341 316.471 161.341 316.471H172.865Z" fill="#D28E46"/>
<path d="M148.74 343.144H173.468C174.056 343.144 174.533 342.667 174.533 342.079V342.078C174.533 341.489 174.056 341.012 173.468 341.012H148.74C148.152 341.012 147.675 341.489 147.675 342.078V342.079C147.675 342.667 148.152 343.144 148.74 343.144Z" fill="#94BCD3"/>
<path d="M166.449 341.15C166.449 341.15 163.849 337.982 160.188 337.051C156.176 336.03 154.228 336.574 152.064 337.668C149.968 338.728 148.795 341.014 148.795 341.014L166.449 341.15Z" fill="#CFE0F9"/>
<path d="M166.538 341.101C166.538 341.101 166.315 333.677 171.224 332.712C171.224 332.712 175.939 336.92 173.331 341.101H166.538Z" fill="#CFE0F9"/>
<path d="M172.865 316.471H161.346C161.346 316.471 161.632 318.118 161.935 320.357C166.129 320.752 170.439 319.361 172.276 318.666C172.522 317.75 172.728 316.985 172.865 316.471Z" fill="#C97C2D"/>
<path d="M195.64 266.052C189.272 266.042 182.744 265.988 174.13 265.859C175.186 273.275 176.285 282.491 176.117 290.049C175.958 297.171 176.674 298.131 176.737 301.131C176.837 305.953 175.805 307.551 176.843 311.002C178.591 316.777 172.865 316.475 172.865 316.475C172.865 316.475 165.371 317.856 159.688 316.475L149.523 256.807C147.855 251.262 150.815 244.579 158.047 241.337C170.499 235.761 216.186 209.635 223.712 238.946C225.057 244.209 224.65 266.102 195.64 266.052Z" fill="#25352F"/>
<path d="M177.641 162.503C178.433 167.455 182.229 170.123 168.301 204.435C163.018 217.453 152.31 211.242 153.098 204.561C153.886 197.879 159.604 171.668 162.613 165.58C165.875 158.977 176.983 158.378 177.641 162.503Z" fill="#25352F"/>
<path d="M163.34 210.01C153.257 215.039 113.965 212.127 113.851 209.602C113.72 206.656 147.484 197.251 154.898 196.441C163.742 195.475 169.351 207.014 163.34 210.01Z" fill="#FFCCAF"/>
<path d="M120.79 207.973C120.538 207.068 113.53 207.191 111.23 207.825C108.93 208.46 105.779 211.129 105.337 211.716C104.895 212.304 103.864 215.372 103.864 215.372C103.864 215.372 104.765 216.512 106.06 214.76C107.355 213.009 110.65 211.154 111.444 211.685C113.228 212.88 109.119 213.773 108.622 214.485C108.126 215.196 108.341 215.663 108.341 215.663C108.341 215.663 112.602 214.813 113.263 214.768C113.925 214.722 116.164 213.801 117.477 212.739C118.79 211.677 121.162 209.306 120.79 207.973Z" fill="#E38E32"/>
<path d="M190.506 132.226C190.506 132.226 189.485 148.602 198.815 158.459C198.815 158.459 191.173 167.608 179.824 161.426L177.564 132.226H190.506Z" fill="#FFCCAF"/>
<path d="M223.231 243.79C229.566 251.238 228.645 216.196 226.115 207.718C224.928 200.596 225.095 191.694 223.231 178.637C221.367 165.581 222.809 159.259 214.839 157.272C205.949 155.053 192.628 159.285 189.913 159.646C181.328 160.783 172.161 158.71 168.208 160.833C166.244 161.887 166.097 161.426 166.098 172.702C166.098 176.857 167.742 206.948 171.099 209.168C172.058 209.803 174.529 206.903 174.482 214.839C174.435 222.776 175.563 222.413 172.374 226.877C172.374 226.877 205.19 222.599 223.231 243.79Z" fill="#9F4A4A"/>
<path d="M218.4 158.459C222.119 161.829 222.656 174.01 233.237 209.498C237.249 222.961 224.763 219.954 221.202 214.246C217.642 208.537 208.01 181.192 206.501 174.572C203.875 163.045 215.304 155.648 218.4 158.459Z" fill="#25352F"/>
<path d="M232.605 218.083C222.145 223.346 179.398 217.713 179.272 215.091C179.125 212.025 211.887 205.622 219.587 204.75C228.768 203.711 238.839 214.952 232.605 218.083Z" fill="#FFCCAF"/>
<path d="M185.096 215.613C185.149 216.552 178.474 218.691 176.09 218.824C173.706 218.956 169.865 217.449 169.255 217.037C168.646 216.624 166.679 214.05 166.679 214.05C166.679 214.05 167.166 212.682 168.955 213.924C170.744 215.166 174.461 215.862 175.041 215.102C176.345 213.396 172.17 213.874 171.468 213.358C170.767 212.842 170.825 212.327 170.825 212.327C170.825 212.327 175.131 211.761 175.772 211.59C176.413 211.419 178.829 211.574 180.414 212.156C181.999 212.738 185.02 214.232 185.096 215.613Z" fill="#E38E32"/>
<path d="M161.444 196.8H96.7273C95.6694 196.799 94.6375 196.471 93.7738 195.861C92.91 195.25 92.2567 194.386 91.9037 193.389L78.681 156.043C78.4912 155.507 78.4327 154.934 78.5105 154.371C78.5883 153.808 78.8001 153.272 79.128 152.808C79.456 152.344 79.8906 151.965 80.3953 151.704C80.9 151.442 81.46 151.306 82.0283 151.306H147.276C148.179 151.306 149.06 151.586 149.797 152.107C150.535 152.629 151.093 153.366 151.394 154.217L164.8 192.062C164.99 192.598 165.049 193.172 164.971 193.736C164.892 194.3 164.68 194.836 164.351 195.301C164.022 195.765 163.586 196.144 163.08 196.405C162.575 196.666 162.013 196.801 161.444 196.8Z" fill="white"/>
<path d="M159.432 198.812H94.7131C93.6554 198.812 92.6236 198.485 91.7598 197.874C90.896 197.264 90.2426 196.4 89.8896 195.403L76.6669 158.057C76.477 157.521 76.4186 156.947 76.4965 156.384C76.5744 155.821 76.7863 155.285 77.1144 154.821C77.4425 154.357 77.8772 153.978 78.3821 153.716C78.8869 153.455 79.4471 153.319 80.0156 153.319H145.266C146.17 153.318 147.052 153.598 147.791 154.119C148.53 154.64 149.089 155.378 149.391 156.23L162.789 194.076C162.979 194.612 163.038 195.187 162.959 195.75C162.881 196.314 162.668 196.851 162.339 197.315C162.01 197.78 161.574 198.158 161.068 198.419C160.562 198.679 160.001 198.814 159.432 198.812Z" fill="#E7F0FD"/>
<path d="M161.444 196.598H96.7272C95.6694 196.598 94.6376 196.27 93.7738 195.66C92.91 195.049 92.2566 194.186 91.9036 193.189L78.6809 155.843C78.4911 155.307 78.4327 154.733 78.5105 154.17C78.5883 153.607 78.8 153.071 79.128 152.607C79.4559 152.143 79.8905 151.764 80.3952 151.503C80.8998 151.241 81.4598 151.105 82.0282 151.104H147.276C148.179 151.105 149.06 151.385 149.797 151.906C150.535 152.427 151.092 153.164 151.393 154.016L164.8 191.86C164.99 192.396 165.049 192.971 164.97 193.534C164.892 194.098 164.68 194.635 164.351 195.099C164.022 195.564 163.586 195.942 163.08 196.203C162.574 196.464 162.013 196.599 161.444 196.598V196.598Z" stroke="#96BED5" stroke-width="1.09023" stroke-miterlimit="10"/>
<path d="M127.685 206.918H108.447L114.486 181.349H133.726L127.685 206.918Z" fill="white" stroke="#96BED5" stroke-width="1.09023" stroke-miterlimit="10"/>
<path d="M24.791 341.384V208.536H201.82V353.294" fill="white"/>
<path d="M24.791 341.384V208.536H201.82V353.294" stroke="#6464C8" stroke-width="1.09171" stroke-miterlimit="10"/>
<path d="M226.865 80.6489H178.054V90.078H226.865V80.6489Z" fill="white" stroke="#E5B21A" stroke-width="1.01509" stroke-miterlimit="10"/>
<path d="M234.995 76.3704H185.696V80.0624H234.995V76.3704Z" fill="#9F4A4A"/>
<path d="M230.394 70.9092H181.095V75.7504H230.394V70.9092Z" fill="white" stroke="#96BED5" stroke-width="1.01509" stroke-miterlimit="10"/>
<path d="M221.626 64.7744H178.138V70.2757H221.626V64.7744Z" fill="#E7F0FD"/>
<path d="M235.151 98.0264H143.436L125.369 71.7179H41.0559V64.7861H128.929L146.995 91.0931H235.151V98.0264Z" fill="white" stroke="#96BED5" stroke-width="1.01509" stroke-miterlimit="10"/>
<path d="M145.245 76.1794H170.21V78.1654C170.21 81.4758 168.895 84.6505 166.554 86.9913C164.214 89.3321 161.039 90.6471 157.729 90.6471C154.418 90.6471 151.243 89.3321 148.903 86.9913C146.562 84.6505 145.247 81.4758 145.247 78.1654V76.1794H145.245Z" fill="#D1E2FB"/>
<path d="M149.204 76.1794C149.204 76.1794 143.793 80.589 140.706 76.9736C138.47 74.354 147.326 74.3511 147.326 74.3511C147.326 74.3511 142.655 70.6119 144.136 69.9312C147.775 68.2767 149.911 73.8399 149.911 73.8399C149.911 73.8399 144.902 64.4801 149.242 62.8712C152.811 61.5453 152.811 71.1924 152.811 71.1924C152.811 71.1924 153.566 67.2837 155.585 67.5357C157.603 67.7876 156.152 71.9555 156.152 71.9555C156.152 71.9555 157.92 70.7578 158.042 73.4686C158.042 73.4686 158.384 63.1556 162.708 64.1383C166.302 64.9574 161.51 72.0189 161.51 72.0189C161.51 72.0189 164.285 68.5508 166.742 69.6233C169.2 70.6959 164.532 73.9091 164.532 73.9091C164.532 73.9091 171.214 67.6683 173.634 69.3419C175.474 70.6178 170.798 73.7397 170.798 73.7397C170.798 73.7397 174.139 72.81 174.895 74.4483C175.651 76.0866 170.206 76.1765 170.206 76.1765L149.204 76.1794Z" fill="#91882A"/>
<path d="M152.043 76.1794C152.043 76.1794 152.236 67.2866 155.579 67.5415C158.922 67.7964 154.253 76.1794 154.253 76.1794H152.043Z" fill="#CBC253"/>
<path d="M152.043 76.1794C152.043 76.1794 148.687 67.7816 144.134 69.937C139.69 72.0365 149.254 76.1794 149.254 76.1794H152.043Z" fill="#CBC253"/>
<path d="M158.948 76.1795C158.948 76.1795 161.961 68.6185 166.742 69.3375C171.523 70.0565 160.849 76.1795 160.849 76.1795H158.948Z" fill="#CBC253"/>
<path d="M163.865 76.1795C163.865 76.1795 173.216 71.465 174.9 74.3099C176.584 77.1548 163.865 76.1795 163.865 76.1795Z" fill="#CBC253"/>
<path d="M65.5995 16.8057H52.7908V64.7847H65.5995V16.8057Z" fill="white" stroke="#96BED5" stroke-width="1.01509" stroke-miterlimit="10"/>
<path d="M62.1372 33.2908H56.2515V34.8038H62.1372V33.2908Z" fill="#96BED5"/>
<path d="M62.1372 37.3394H56.2515V38.8524H62.1372V37.3394Z" fill="#96BED5"/>
<path d="M62.1372 41.3879H56.2515V42.901H62.1372V41.3879Z" fill="#96BED5"/>
<path d="M62.1372 45.4375H56.2515V46.9506H62.1372V45.4375Z" fill="#96BED5"/>
<path d="M59.1952 59.3913C60.7924 59.3913 62.0872 58.0965 62.0872 56.4992C62.0872 54.902 60.7924 53.6072 59.1952 53.6072C57.5979 53.6072 56.3031 54.902 56.3031 56.4992C56.3031 58.0965 57.5979 59.3913 59.1952 59.3913Z" fill="#96BED5"/>
<path d="M79.5325 16.8057H66.7238V64.7847H79.5325V16.8057Z" fill="white" stroke="#E5B21A" stroke-width="1.01509" stroke-miterlimit="10"/>
<path d="M76.0716 33.2908H70.1858V34.8038H76.0716V33.2908Z" fill="#E5B21A"/>
<path d="M76.0716 37.3394H70.1858V38.8524H76.0716V37.3394Z" fill="#E5B21A"/>
<path d="M76.0716 41.3879H70.1858V42.901H76.0716V41.3879Z" fill="#E5B21A"/>
<path d="M76.0716 45.4375H70.1858V46.9506H76.0716V45.4375Z" fill="#E5B21A"/>
<path d="M73.1279 59.3913C74.7251 59.3913 76.02 58.0965 76.02 56.4992C76.02 54.902 74.7251 53.6072 73.1279 53.6072C71.5307 53.6072 70.2358 54.902 70.2358 56.4992C70.2358 58.0965 71.5307 59.3913 73.1279 59.3913Z" fill="#E5B21A"/>
<path d="M93.4666 16.8057H80.6578V64.7847H93.4666V16.8057Z" fill="#E7F0FD" stroke="#96BED5" stroke-width="1.01509" stroke-miterlimit="10"/>
<path d="M90.0045 33.0872H84.1188V34.6002H90.0045V33.0872Z" fill="white"/>
<path d="M90.0045 37.1357H84.1188V38.6488H90.0045V37.1357Z" fill="white"/>
<path d="M90.0045 41.1843H84.1188V42.6974H90.0045V41.1843Z" fill="white"/>
<path d="M90.0045 45.2341H84.1188V46.7472H90.0045V45.2341Z" fill="white"/>
<path d="M87.0624 59.1879C88.6596 59.1879 89.9544 57.8931 89.9544 56.2959C89.9544 54.6986 88.6596 53.4038 87.0624 53.4038C85.4651 53.4038 84.1703 54.6986 84.1703 56.2959C84.1703 57.8931 85.4651 59.1879 87.0624 59.1879Z" fill="white"/>
<path d="M107.4 16.8057H94.5908V64.7847H107.4V16.8057Z" fill="white" stroke="#25352F" stroke-width="1.01509" stroke-miterlimit="10"/>
<path d="M103.939 33.2908H98.0531V34.8038H103.939V33.2908Z" fill="#25352F"/>
<path d="M103.939 37.3394H98.0531V38.8524H103.939V37.3394Z" fill="#25352F"/>
<path d="M103.939 41.3879H98.0531V42.901H103.939V41.3879Z" fill="#25352F"/>
<path d="M103.939 45.4375H98.0531V46.9506H103.939V45.4375Z" fill="#25352F"/>
<path d="M100.995 59.3913C102.592 59.3913 103.887 58.0965 103.887 56.4992C103.887 54.902 102.592 53.6072 100.995 53.6072C99.398 53.6072 98.1031 54.902 98.1031 56.4992C98.1031 58.0965 99.398 59.3913 100.995 59.3913Z" fill="#25352F"/>
<path d="M162.749 128.782C162.749 128.782 165.524 135.565 164.525 148.08C163.526 160.594 183.404 154.07 183.74 145.419C184.076 136.767 182.728 128.886 180.481 128.769C178.233 128.652 162.749 128.782 162.749 128.782Z" fill="#FFCCAF"/>
<path d="M159.052 131.17C165.219 134.488 178.045 130.325 179.192 129.573L159.052 131.17Z" fill="#331A1A"/>
<path d="M187.751 118.717C185.593 118.547 183.249 119.395 182.167 121.399L187.751 118.717Z" fill="#4E2556"/>
<path d="M172.335 139.64C171.817 139.64 171.397 139.114 171.397 138.465C171.397 137.816 171.817 137.29 172.335 137.29C172.852 137.29 173.272 137.816 173.272 138.465C173.272 139.114 172.852 139.64 172.335 139.64Z" fill="#242854"/>
<path d="M165.669 139.64C165.276 139.64 164.957 139.114 164.957 138.465C164.957 137.816 165.276 137.29 165.669 137.29C166.062 137.29 166.381 137.816 166.381 138.465C166.381 139.114 166.062 139.64 165.669 139.64Z" fill="#242854"/>
<path d="M172.721 142.224C170.71 142.224 169.079 140.467 169.079 138.299C169.079 136.132 170.71 134.374 172.721 134.374C174.732 134.374 176.362 136.132 176.362 138.299C176.362 140.467 174.732 142.224 172.721 142.224Z" stroke="#D5BFBF" stroke-width="0.924971" stroke-miterlimit="10"/>
<path d="M164.248 142.224C162.55 142.224 161.174 140.467 161.174 138.299C161.174 136.132 162.55 134.374 164.248 134.374C165.946 134.374 167.322 136.132 167.322 138.299C167.322 140.467 165.946 142.224 164.248 142.224Z" stroke="#D5BFBF" stroke-width="0.924971" stroke-miterlimit="10"/>
<path d="M169.079 138.13H167.325" stroke="#D5BFBF" stroke-width="0.924971" stroke-miterlimit="10"/>
<path d="M176.553 137.935L186.953 137.791C187.614 137.791 188.268 137.929 188.874 138.194C189.48 138.459 190.024 138.847 190.474 139.332" stroke="#D5BFBF" stroke-width="0.924971" stroke-miterlimit="10"/>
<path d="M175.013 130.615C174.26 130.705 161.918 133.273 157.964 128.911C154.009 124.548 159.91 120.468 165.756 120.978C165.756 120.978 166.172 116.721 173.295 115.464C180.418 114.206 183.62 116.793 183.649 119.218C183.649 119.218 188.781 117.397 192.61 120.19C196.44 122.983 194.968 125.097 194.806 127.927C194.644 130.758 197.051 130.011 197.035 132.969C197.035 136.122 195.924 136.595 192.88 142.823C191.712 145.211 186.988 145.77 186.909 144.678C186.83 143.585 186.743 143.443 186.232 142.823C184.397 140.226 183.37 137.231 183.258 134.151C183.084 129.485 181.641 129.838 175.013 130.615Z" fill="#612C2C"/>
<path d="M184.442 143.363C186.665 143.363 188.467 141.561 188.467 139.338C188.467 137.115 186.665 135.313 184.442 135.313C182.219 135.313 180.417 137.115 180.417 139.338C180.417 141.561 182.219 143.363 184.442 143.363Z" fill="#FFCCAF"/>
<path d="M167.361 138.874L164.987 143.501L166.999 144.809" fill="#FFCCAF"/>
<path d="M167.361 138.874L164.987 143.501L166.999 144.809" stroke="#25352F" stroke-width="0.940553" stroke-linecap="round" stroke-linejoin="round"/>
</svg>
