<svg width="158" height="270" viewBox="0 0 158 270" fill="none" xmlns="http://www.w3.org/2000/svg">
<path d="M19.3612 252.258C19.3612 252.258 16.4799 258.251 18.4576 260.417H43.8794C43.8794 260.417 43.7379 256.223 37.6165 255.56C32.122 254.966 28.7706 252.258 28.7706 252.258H19.3612Z" fill="#41465A"/>
<path d="M44.0791 261.924H18.1556C17.9155 261.924 17.7209 261.73 17.7209 261.49V260.853C17.7209 260.613 17.9155 260.418 18.1556 260.418H44.0791C44.3192 260.418 44.5138 260.613 44.5138 260.853V261.49C44.5138 261.73 44.3192 261.924 44.0791 261.924Z" fill="#6464C8"/>
<path d="M31.8618 255.948L32.6895 253.973C32.7328 253.875 32.7958 253.786 32.8745 253.713C32.9533 253.639 33.0462 253.583 33.1475 253.546C33.2489 253.51 33.3566 253.495 33.464 253.502C33.5714 253.508 33.6764 253.537 33.7725 253.585V253.585C33.9444 253.672 34.0789 253.818 34.151 253.997C34.2231 254.175 34.2278 254.374 34.1642 254.556L34.0934 254.83" stroke="#6464C8" stroke-width="0.83404" stroke-miterlimit="10"/>
<path d="M35.4845 257.06L36.0279 255.064C36.0581 254.96 36.109 254.864 36.1775 254.781C36.2461 254.698 36.3308 254.63 36.4266 254.58C36.5224 254.531 36.6272 254.502 36.7347 254.495C36.8421 254.487 36.9499 254.502 37.0515 254.538V254.538C37.4306 254.664 37.6745 255.032 37.6164 255.56" stroke="#6464C8" stroke-width="0.83404" stroke-miterlimit="10"/>
<path d="M56.6036 252.258C56.6036 252.258 53.7236 258.251 55.7 260.417H81.1231C81.1231 260.417 80.9803 256.223 74.8602 255.56C69.3644 254.966 66.0143 252.258 66.0143 252.258H56.6036Z" fill="#41465A"/>
<path d="M81.3227 261.924H55.3992C55.1591 261.924 54.9645 261.73 54.9645 261.49V260.853C54.9645 260.613 55.1591 260.418 55.3992 260.418H81.3227C81.5627 260.418 81.7574 260.613 81.7574 260.853V261.49C81.7574 261.73 81.5627 261.924 81.3227 261.924Z" fill="#6464C8"/>
<path d="M69.104 255.948L69.9317 253.973C69.9751 253.875 70.038 253.786 70.1168 253.713C70.1956 253.639 70.2884 253.583 70.3898 253.546C70.4911 253.51 70.5988 253.495 70.7063 253.502C70.8137 253.508 70.9187 253.537 71.0147 253.585V253.585C71.1868 253.672 71.3215 253.818 71.3936 253.997C71.4657 254.175 71.4703 254.374 71.4065 254.556L71.3357 254.83" stroke="#6464C8" stroke-width="0.83404" stroke-miterlimit="10"/>
<path d="M72.7269 257.06L73.2703 255.064C73.3006 254.96 73.3516 254.864 73.4202 254.781C73.4887 254.698 73.5735 254.63 73.6692 254.581C73.765 254.532 73.8697 254.503 73.9771 254.495C74.0845 254.488 74.1923 254.502 74.2939 254.538C74.673 254.664 74.9169 255.032 74.86 255.56" stroke="#6464C8" stroke-width="0.83404" stroke-miterlimit="10"/>
<path d="M25.5998 121.381C25.3724 128.816 24.4297 186.348 17.7965 202.511C11.0737 218.886 17.9482 252.197 17.9482 252.197C27.1618 253.65 30.9036 252.032 30.9036 252.032C30.9036 252.032 43.5304 181.475 50.4909 144L52.4243 142.997C52.4243 142.997 53.3468 189.059 50.8321 206.349C48.3135 223.69 53.7967 252.254 53.7967 252.254C61.7504 253.488 69.3566 252.254 69.3566 252.254C69.3566 252.254 71.0575 219.758 73.705 193.377C75.1608 178.869 77.0083 125.239 76.8882 121.69L25.5998 121.381Z" fill="#96BED5"/>
<path d="M42.4082 49.4566C40.337 49.4566 20.6853 53.374 20.703 61.9293C20.7232 71.3008 30.6862 102.168 29.8584 107.827C29.0307 113.486 23.7068 120.969 26.1621 122.043C32.7776 124.95 54.8632 127.246 76.9387 121.616C76.9387 121.616 74.635 116.417 78.6043 93.8338C80.769 81.5115 81.2745 57.9448 79.4282 55.4806C77.5819 53.0164 66.4652 50.4865 62.3911 49.7308C58.3169 48.9751 42.4082 49.4566 42.4082 49.4566Z" fill="#96BED5"/>
<path d="M43.0605 49.3875C43.5521 52.2245 48.9822 116.558 41.9725 148.569C41.9725 148.569 30.5992 150.123 18.9643 145.752C18.9643 145.752 25.5697 105.515 25.9817 98.8132C26.3936 92.1118 21.2529 57.6027 24.3641 55.7009C34.6974 49.3875 43.0605 49.3875 43.0605 49.3875Z" fill="#E7F0FD"/>
<path d="M63.1367 49.8289C63.1367 49.8289 61.5798 110.937 61.231 148.257C61.231 148.257 72.4514 151.066 82.1301 146.694C82.1301 146.694 78.3276 101.52 78.272 95.7668C78.2164 90.0132 81.2012 55.9704 77.9333 54.2379C70.8971 50.5075 63.1367 49.8289 63.1367 49.8289Z" fill="#E7F0FD"/>
<path d="M87.967 111.505C75.3148 104.761 67.3384 50.5722 75.9189 53.4547C77.3911 53.9475 81.7129 55.718 84.6763 58.2112C91.5647 64.0116 98.4215 87.4721 100.398 94.6739C111.723 95.2552 130.772 99.6542 133.689 100.434C136.738 101.248 136.216 112.889 132.995 112.944C131.528 112.975 95.3748 114.704 87.967 111.505Z" fill="#E7F0FD"/>
<path d="M79.1061 99.1011C78.4262 94.8576 79.7708 87.9123 80.0475 77.8306" stroke="white" stroke-width="1.00085" stroke-miterlimit="10"/>
<path d="M133.028 112.432C131.605 112.432 130.451 109.928 130.451 106.84C130.451 103.752 131.605 101.248 133.028 101.248C134.451 101.248 135.605 103.752 135.605 106.84C135.605 109.928 134.451 112.432 133.028 112.432Z" fill="#D1E2FB"/>
<path d="M133.935 109.854C135.277 110.305 141.032 111.244 142.781 110.865C144.53 110.486 148.192 107.152 148.455 106.704C148.718 106.255 150.468 103.762 150.468 103.762C150.468 103.762 148.176 102.705 147.08 104.52C145.782 106.668 142.839 106.668 141.394 106.242C140.792 106.068 139.53 104.907 139.901 103.991C140.273 103.074 142.878 103.657 143.557 103.359C144.595 102.908 144.813 101.552 144.813 101.552C144.813 101.552 141.137 100.793 140.432 100.648C139.727 100.503 134.945 100.787 132.65 103.115C131.244 104.54 131.493 109.034 133.935 109.854Z" fill="#D49046"/>
<path d="M46.4467 86.7171L69.5973 93.207C70.7364 93.5263 71.4009 94.7086 71.0816 95.8476L61.2823 130.804C60.963 131.943 59.7807 132.607 58.6416 132.288L35.491 125.798C34.352 125.479 33.6874 124.296 34.0067 123.157L43.8061 88.2013C44.1254 87.0623 45.3077 86.3978 46.4467 86.7171Z" fill="#6464C8"/>
<path d="M10.9752 106.984C1.44566 98.1304 12.3728 56.6799 26.7487 54.8917C28.2221 54.7085 31.322 55.8244 31.5305 65.0809C31.7276 73.8535 27.517 91.678 26.3278 96.5217C35.3595 101.007 49.5356 113.293 52.1388 114.737C54.7421 116.18 50.8271 124.015 48.0382 122.765C46.5546 122.101 18.9934 113.11 10.9752 106.984Z" fill="#E7F0FD"/>
<path d="M52.9196 116.161C52.9196 116.161 41.3605 104.635 26.3605 96.5041C26.3605 96.5041 29.4123 85.2635 30.4333 76.6868" stroke="white" stroke-width="1.00085" stroke-miterlimit="10"/>
<path d="M51.0545 122.843C52.3625 123.348 58.341 125.061 60.0963 124.832C61.8516 124.603 64.964 122.488 65.2446 122.097C65.5251 121.707 66.5361 118.392 66.5361 118.392C66.5361 118.392 65.3078 117.436 64.135 119.011C62.7526 120.877 60.1645 120.503 58.7492 120.022C58.1603 119.822 56.9598 119.011 57.368 118.198C57.7761 117.384 60.1708 118.102 60.857 117.879C61.9059 117.541 62.1826 116.317 62.1826 116.317C62.1826 116.317 58.7391 115.376 58.0415 115.188C57.3439 114.999 53.0663 115.164 50.3418 116.704C47.6173 118.244 48.0229 121.658 51.0545 122.843Z" fill="#D49046"/>
<path d="M65.5732 70.2117H77.3306C77.7012 70.2117 78.0016 70.5121 78.0016 70.8827V77.3263C78.0016 77.6969 77.7012 77.9973 77.3306 77.9973H65.5732C65.2026 77.9973 64.9022 77.6969 64.9022 77.3263V70.8827C64.9022 70.5121 65.2026 70.2117 65.5732 70.2117Z" fill="white"/>
<path d="M70.6685 67.4062H72.2355V71.0179H70.6685V67.4062Z" fill="#96C3D2"/>
<path d="M73.5711 71.7346H76.4106V75.1415H73.5711V71.7346Z" fill="#D1E2FB"/>
<path d="M66.5816 71.7346H72.6701V72.5232H66.5816V71.7346Z" fill="#D1E2FB"/>
<path d="M66.5816 73.0432H72.6701V73.8318H66.5816V73.0432Z" fill="#D1E2FB"/>
<path d="M66.5816 74.353H72.6701V75.1416H66.5816V74.353Z" fill="#D1E2FB"/>
<path d="M66.5816 75.6865H76.4106V76.4751H66.5816V75.6865Z" fill="#D1E2FB"/>
<path d="M46.5583 35.958C46.5583 35.958 47.9825 42.6366 43.0604 49.3873C43.0604 49.3873 51.5664 53.7395 63.1368 49.8283C63.1368 49.8283 56.3204 47.4804 59.2345 36.236L46.5583 35.958Z" fill="#D49046"/>
<path d="M46.834 35.9641C46.8264 36.4077 46.8264 36.7767 46.834 37.0458C46.834 37.0458 47.3394 42.1107 49.9452 44.6053C51.9671 46.5438 58.2553 48.5227 60.2949 47.537C58.6227 44.0121 58.2472 40.0103 59.2346 36.2358L46.834 35.9641Z" fill="#CB7C2D"/>
<path d="M46.6861 36.9006C46.6861 36.9006 49.3803 41.4626 50.5859 41.9188C53.5935 43.0561 58.4006 44.0405 60.0068 43.2128C61.1024 42.6479 61.1656 42.6138 62.452 37.0308C63.372 33.0388 62.4621 24.8626 61.8543 24.5202C61.2465 24.1777 48.4414 23.2995 47.7931 24.6314C47.1449 25.9633 46.6356 34.8067 46.6861 36.9006Z" fill="#D49046"/>
<path d="M46.7681 33.8586C46.7681 33.8586 49.1553 34.0178 48.4868 29.9411C47.8928 26.3181 48.8659 25.5738 53.7159 26.9424C57.6625 28.0545 63.4755 27.8434 65.6237 24.5881C66.8419 22.7406 66.152 22.2667 64.1831 21.0498C61.7227 19.5333 56.8537 16.7343 50.7551 18.0169C45.8848 19.0468 45.6359 23.1374 45.6359 23.1374C45.6359 23.1374 42.7167 22.4828 42.0609 25.5384C41.2344 29.3889 46.6683 36.9648 46.6683 36.9648L46.7681 33.8586Z" fill="#41465A"/>
<path d="M52.2817 26.23C55.0921 27.989 62.3609 29.1504 64.6659 26.8618" stroke="#41465A" stroke-width="0.500424" stroke-miterlimit="10"/>
<path d="M45.7838 23.2948C45.7838 23.2948 44.2421 21.9477 42.6435 22.9385" stroke="#41465A" stroke-width="0.500424" stroke-miterlimit="10"/>
<path d="M48.5172 31.325C49.0125 34.0217 50.6326 39.7563 53.4709 37.6662C55.9553 35.8363 59.5619 34.9164 62.4911 36.8764C62.4911 36.8764 62.0539 40.186 62.4911 42.8537C63.0434 46.2252 50.5631 44.7328 48.5905 41.4952C46.6178 38.2576 47.0361 35.6278 46.7556 33.8612C46.475 32.0945 48.5172 31.325 48.5172 31.325Z" fill="#41465A"/>
<path d="M46.9097 33.8675C46.9097 33.8675 45.6321 32.3776 44.4468 33.4063C43.5622 34.1746 46.6835 37.0483 46.6835 37.0483L46.9097 33.8675Z" fill="#D49046"/>
<path d="M61.3676 32.8102C60.8888 32.8102 60.5007 32.4221 60.5007 31.9433C60.5007 31.4645 60.8888 31.0764 61.3676 31.0764C61.8464 31.0764 62.2345 31.4645 62.2345 31.9433C62.2345 32.4221 61.8464 32.8102 61.3676 32.8102Z" fill="#40465C"/>
<path d="M54.1924 32.8102C53.7136 32.8102 53.3255 32.4221 53.3255 31.9433C53.3255 31.4645 53.7136 31.0764 54.1924 31.0764C54.6711 31.0764 55.0593 31.4645 55.0593 31.9433C55.0593 32.4221 54.6711 32.8102 54.1924 32.8102Z" fill="#40465C"/>
<path d="M58.0556 31.1648L59.2612 35.3072H57.2557" stroke="#40465C" stroke-width="0.802447" stroke-linecap="round" stroke-linejoin="round"/>
</svg>
