<svg width="342" height="374" viewBox="0 0 342 374" fill="none" xmlns="http://www.w3.org/2000/svg">
<g clip-path="url(#clip0_140_690)">
<path d="M213.925 184.251H53.5956C28.8415 184.251 8.77441 204.319 8.77441 229.073V303.021C8.77441 327.776 28.8415 347.843 53.5956 347.843H213.925C238.679 347.843 258.746 327.776 258.746 303.021V229.073C258.746 204.319 238.679 184.251 213.925 184.251Z" fill="white"/>
<path d="M216.637 187.761H56.3076C31.5535 187.761 11.4864 207.829 11.4864 232.583V306.531C11.4864 331.286 31.5535 351.353 56.3076 351.353H216.637C241.391 351.353 261.458 331.286 261.458 306.531V232.583C261.458 207.829 241.391 187.761 216.637 187.761Z" fill="#D9D9F4"/>
<path d="M213.287 184.411H52.9572C28.2031 184.411 8.13599 204.478 8.13599 229.232V303.181C8.13599 327.935 28.2031 348.002 52.9572 348.002H213.287C238.041 348.002 258.108 327.935 258.108 303.181V229.232C258.108 204.478 238.041 184.411 213.287 184.411Z" stroke="#6562CE" stroke-width="0.8508" stroke-miterlimit="10"/>
<path d="M273.536 265.09C273.536 290.86 268.073 311.747 261.332 311.747C260.689 311.738 260.06 311.559 259.508 311.228C253.628 307.868 249.128 288.49 249.128 265.09C249.128 241.69 253.633 222.317 259.508 218.952C260.06 218.621 260.689 218.442 261.332 218.434C268.073 218.434 273.536 239.323 273.536 265.09Z" fill="#6562CE"/>
<path d="M261.332 311.746C268.072 311.746 273.536 290.857 273.536 265.09C273.536 239.322 268.072 218.434 261.332 218.434C254.592 218.434 249.128 239.322 249.128 265.09C249.128 290.857 254.592 311.746 261.332 311.746Z" fill="#8281D8"/>
<path d="M261.332 311.746C268.072 311.746 273.536 290.857 273.536 265.09C273.536 239.322 268.072 218.434 261.332 218.434C254.592 218.434 249.128 239.322 249.128 265.09C249.128 290.857 254.592 311.746 261.332 311.746Z" fill="#6562CE"/>
<path d="M257.439 295.76C263.955 289.265 266.529 281.283 263.189 277.932C259.849 274.582 251.859 277.131 245.343 283.626C238.827 290.121 236.253 298.103 239.593 301.454C242.934 304.805 250.924 302.256 257.439 295.76Z" fill="#B4B3E8"/>
<path d="M257.156 296.22C263.672 289.725 266.246 281.743 262.906 278.393C259.565 275.042 251.576 277.591 245.06 284.086C238.544 290.581 235.97 298.563 239.31 301.914C242.65 305.265 250.64 302.716 257.156 296.22Z" stroke="#EFAF00" stroke-width="0.8508" stroke-miterlimit="10"/>
<g opacity="0.7">
<path opacity="0.7" d="M164.513 210.771C164.513 211.477 164.374 212.175 164.105 212.827C163.835 213.479 163.439 214.071 162.941 214.569C162.442 215.068 161.85 215.464 161.198 215.733C160.547 216.003 159.848 216.142 159.143 216.141H152.345C151.633 216.152 150.926 216.021 150.265 215.756C149.604 215.491 149.002 215.097 148.495 214.597C147.988 214.097 147.585 213.502 147.31 212.845C147.035 212.188 146.893 211.483 146.893 210.771C146.893 210.059 147.035 209.354 147.31 208.697C147.585 208.04 147.988 207.444 148.495 206.945C149.002 206.445 149.604 206.051 150.265 205.786C150.926 205.521 151.633 205.39 152.345 205.4H159.143C159.848 205.4 160.546 205.539 161.198 205.809C161.85 206.079 162.442 206.475 162.94 206.974C163.439 207.472 163.835 208.064 164.104 208.716C164.374 209.368 164.513 210.066 164.513 210.771Z" fill="white"/>
<path opacity="0.7" d="M137.614 210.771C137.614 211.477 137.475 212.175 137.206 212.827C136.936 213.478 136.54 214.07 136.042 214.569C135.543 215.068 134.951 215.463 134.3 215.733C133.648 216.003 132.95 216.142 132.245 216.141H43.158C42.4459 216.152 41.7389 216.021 41.078 215.756C40.4171 215.491 39.8154 215.097 39.3082 214.597C38.8009 214.097 38.398 213.502 38.1231 212.845C37.8481 212.188 37.7065 211.483 37.7065 210.771C37.7065 210.059 37.8481 209.354 38.1231 208.697C38.398 208.04 38.8009 207.444 39.3082 206.945C39.8154 206.445 40.4171 206.051 41.078 205.786C41.7389 205.521 42.4459 205.39 43.158 205.4H132.24C132.946 205.4 133.644 205.538 134.297 205.808C134.949 206.077 135.541 206.473 136.04 206.972C136.539 207.471 136.935 208.063 137.205 208.715C137.475 209.367 137.614 210.066 137.614 210.771Z" fill="white"/>
</g>
<path d="M249.128 265.089C249.128 288.489 253.633 307.865 259.508 311.228V321.169H241.32C232.05 321.169 224.534 296.063 224.534 265.089C224.534 234.116 232.05 209.01 241.32 209.01H259.506V218.952C253.633 222.317 249.128 241.692 249.128 265.089Z" fill="#6562CE"/>
<path d="M259.508 209.01C250.238 209.01 242.723 234.119 242.723 265.089C242.723 296.06 250.238 321.169 259.508 321.169C268.778 321.169 276.294 296.063 276.294 265.089C276.294 234.116 268.78 209.01 259.508 209.01ZM261.332 311.747C260.689 311.738 260.06 311.559 259.508 311.228C253.628 307.868 249.128 288.489 249.128 265.089C249.128 241.689 253.633 222.317 259.508 218.952C260.06 218.621 260.689 218.442 261.332 218.433C268.073 218.433 273.536 239.323 273.536 265.089C273.536 290.856 268.073 311.747 261.332 311.747Z" fill="#8281D8"/>
<path d="M289.988 331.83C290.187 327.511 283.54 323.696 275.142 323.309C266.743 322.921 259.773 326.109 259.574 330.428C259.375 334.747 266.022 338.562 274.421 338.95C282.819 339.337 289.789 336.15 289.988 331.83Z" fill="white" stroke="#EFAF00" stroke-width="0.8508" stroke-miterlimit="10"/>
<path opacity="0.5" d="M191.623 337.738C200.408 337.738 207.53 334.076 207.53 329.558C207.53 325.04 200.408 321.378 191.623 321.378C182.838 321.378 175.716 325.04 175.716 329.558C175.716 334.076 182.838 337.738 191.623 337.738Z" fill="white"/>
<path d="M191.623 337.738C200.408 337.738 207.53 334.076 207.53 329.558C207.53 325.04 200.408 321.378 191.623 321.378C182.838 321.378 175.716 325.04 175.716 329.558C175.716 334.076 182.838 337.738 191.623 337.738Z" stroke="#EFAF00" stroke-width="0.8508" stroke-miterlimit="10"/>
<path opacity="0.5" d="M201.799 303.809C206.805 296.589 207.854 288.65 204.142 286.075C200.429 283.501 193.361 287.266 188.355 294.485C183.348 301.705 182.299 309.644 186.012 312.219C189.725 314.793 196.793 311.028 201.799 303.809Z" fill="white"/>
<path d="M201.799 303.809C206.805 296.589 207.854 288.65 204.142 286.075C200.429 283.501 193.361 287.266 188.355 294.485C183.348 301.705 182.299 309.644 186.012 312.219C189.725 314.793 196.793 311.028 201.799 303.809Z" stroke="#EFAF00" stroke-width="0.8508" stroke-miterlimit="10"/>
<path opacity="0.5" d="M144.25 328.742C147.2 325.32 144.197 317.896 137.542 312.16C130.888 306.425 123.102 304.549 120.153 307.971C117.203 311.393 120.206 318.817 126.861 324.553C133.515 330.289 141.301 332.164 144.25 328.742Z" fill="white"/>
<path d="M144.25 328.742C147.2 325.32 144.197 317.896 137.542 312.16C130.888 306.425 123.102 304.549 120.153 307.971C117.203 311.393 120.206 318.817 126.861 324.553C133.515 330.289 141.301 332.164 144.25 328.742Z" stroke="#EFAF00" stroke-width="0.8508" stroke-miterlimit="10"/>
<path opacity="0.5" d="M75.8897 290.119C77.2053 285.797 71.4586 280.219 63.0541 277.661C54.6495 275.103 46.7697 276.533 45.4541 280.855C44.1385 285.177 49.8852 290.755 58.2897 293.313C66.6943 295.871 74.5741 294.441 75.8897 290.119Z" fill="white"/>
<path d="M75.8897 290.119C77.2053 285.797 71.4586 280.219 63.0541 277.661C54.6495 275.103 46.7697 276.533 45.4541 280.855C44.1385 285.177 49.8852 290.755 58.2897 293.313C66.6943 295.871 74.5741 294.441 75.8897 290.119Z" stroke="#EFAF00" stroke-width="0.8508" stroke-miterlimit="10"/>
<path d="M81.9946 332.595C88.5408 326.736 91.4049 319.257 88.3918 315.89C85.3787 312.524 77.6294 314.545 71.0832 320.404C64.5371 326.263 61.6729 333.742 64.686 337.108C67.6991 340.475 75.4485 338.454 81.9946 332.595Z" fill="#F5CF66"/>
<path d="M81.9946 332.595C88.5408 326.736 91.4049 319.257 88.3918 315.89C85.3787 312.524 77.6294 314.545 71.0832 320.404C64.5371 326.263 61.6729 333.742 64.686 337.108C67.6991 340.475 75.4485 338.454 81.9946 332.595Z" stroke="#EFAF00" stroke-width="0.8508" stroke-miterlimit="10"/>
<path opacity="0.5" d="M51.4582 338.731C54.4079 335.309 51.4046 327.885 44.7502 322.149C38.0957 316.413 30.31 314.538 27.3603 317.96C24.4106 321.382 27.4139 328.806 34.0683 334.542C40.7228 340.278 48.5085 342.153 51.4582 338.731Z" fill="white"/>
<path d="M51.4582 338.731C54.4079 335.309 51.4046 327.885 44.7502 322.149C38.0957 316.413 30.31 314.538 27.3603 317.96C24.4106 321.382 27.4139 328.806 34.0683 334.542C40.7228 340.278 48.5085 342.153 51.4582 338.731Z" stroke="#EFAF00" stroke-width="0.8508" stroke-miterlimit="10"/>
<g style="mix-blend-mode:multiply">
<path d="M122.53 332.057C123.113 327.577 116.523 323.027 107.811 321.894C99.0992 320.76 91.5644 323.474 90.9818 327.954C90.3991 332.434 96.9892 336.985 105.701 338.118C114.413 339.251 121.948 336.537 122.53 332.057Z" fill="#E8E8F8"/>
</g>
<path d="M122.53 332.057C123.113 327.577 116.523 323.027 107.811 321.894C99.0992 320.76 91.5644 323.474 90.9818 327.954C90.3991 332.434 96.9892 336.985 105.701 338.118C114.413 339.251 121.948 336.537 122.53 332.057Z" stroke="#EFAF00" stroke-width="0.8508" stroke-miterlimit="10"/>
<g style="mix-blend-mode:multiply">
<path d="M34.8196 309.72C43.4292 308.051 49.7127 303.109 48.8543 298.681C47.9959 294.254 40.3206 292.018 31.711 293.687C23.1014 295.356 16.8178 300.298 17.6762 304.726C18.5346 309.154 26.21 311.39 34.8196 309.72Z" fill="#E8E8F8"/>
</g>
<path d="M34.8196 309.72C43.4292 308.051 49.7127 303.109 48.8543 298.681C47.9959 294.254 40.3206 292.018 31.711 293.687C23.1014 295.356 16.8178 300.298 17.6762 304.726C18.5346 309.154 26.21 311.39 34.8196 309.72Z" stroke="#EFAF00" stroke-width="0.84931" stroke-miterlimit="10"/>
<path opacity="0.5" d="M72.7087 314.814C79.5343 309.283 82.7616 301.953 79.9171 298.443C77.0727 294.933 69.2336 296.571 62.4081 302.103C55.5826 307.634 52.3552 314.963 55.1997 318.473C58.0441 321.983 65.8832 320.345 72.7087 314.814Z" fill="white"/>
<path d="M72.7087 314.814C79.5343 309.283 82.7616 301.953 79.9171 298.443C77.0727 294.933 69.2336 296.571 62.4081 302.103C55.5826 307.634 52.3552 314.963 55.1997 318.473C58.0441 321.983 65.8832 320.345 72.7087 314.814Z" stroke="#EFAF00" stroke-width="0.8508" stroke-miterlimit="10"/>
<g style="mix-blend-mode:multiply">
<path d="M169.405 327.792C174.647 320.741 175.957 312.841 172.331 310.145C168.706 307.45 161.517 310.98 156.276 318.03C151.034 325.08 149.724 332.981 153.349 335.676C156.975 338.372 164.164 334.842 169.405 327.792Z" fill="#E8E8F8"/>
</g>
<path d="M169.405 327.792C174.647 320.741 175.957 312.841 172.331 310.145C168.706 307.45 161.517 310.98 156.276 318.03C151.034 325.08 149.724 332.981 153.349 335.676C156.975 338.372 164.164 334.842 169.405 327.792Z" stroke="#EFAF00" stroke-width="0.8508" stroke-miterlimit="10"/>
<path d="M321.624 340.4C329.072 336.499 333.484 330.232 331.478 326.402C329.472 322.572 321.808 322.629 314.36 326.529C306.912 330.429 302.5 336.696 304.506 340.527C306.512 344.357 314.176 344.3 321.624 340.4Z" fill="#F5CF66"/>
<path d="M321.478 340.4C328.926 336.499 333.338 330.232 331.332 326.402C329.326 322.572 321.663 322.629 314.214 326.529C306.766 330.429 302.355 336.696 304.36 340.527C306.366 344.357 314.03 344.3 321.478 340.4Z" stroke="#EFAF00" stroke-width="0.8508" stroke-miterlimit="10"/>
<path d="M111.483 305.945C119.265 301.87 123.875 295.321 121.779 291.319C119.683 287.316 111.675 287.376 103.893 291.451C96.1098 295.527 91.4997 302.076 93.5957 306.078C95.6916 310.08 103.7 310.021 111.483 305.945Z" fill="#F5CF66"/>
<path d="M111.33 305.945C119.112 301.869 123.722 295.321 121.626 291.318C119.53 287.316 111.522 287.376 103.74 291.451C95.9568 295.527 91.3467 302.075 93.4426 306.078C95.5386 310.08 103.547 310.021 111.33 305.945Z" stroke="#EFAF00" stroke-width="0.8508" stroke-miterlimit="10"/>
<path d="M226.785 329.356C229.895 326.078 227.248 318.52 220.875 312.473C214.501 306.427 206.814 304.183 203.704 307.46C200.595 310.738 203.241 318.297 209.615 324.343C215.988 330.389 223.676 332.634 226.785 329.356Z" fill="#F5CF66"/>
<path d="M226.737 329.212C229.846 325.934 227.2 318.376 220.826 312.33C214.453 306.283 206.765 304.039 203.656 307.317C200.546 310.594 203.193 318.153 209.566 324.199C215.94 330.246 223.628 332.49 226.737 329.212Z" stroke="#EFAF00" stroke-width="0.8508" stroke-miterlimit="10"/>
<path d="M261.709 361.785C270.114 361.606 276.854 357.956 276.762 353.633C276.67 349.311 269.781 345.951 261.375 346.13C252.97 346.309 246.23 349.959 246.322 354.282C246.414 358.604 253.303 361.964 261.709 361.785Z" fill="#D9D9F4"/>
<path d="M261.231 361.911C269.636 361.732 276.376 358.083 276.284 353.76C276.192 349.437 269.303 346.078 260.897 346.257C252.491 346.436 245.752 350.085 245.844 354.408C245.936 358.731 252.825 362.09 261.231 361.911Z" stroke="#EFAF00" stroke-width="0.8508" stroke-miterlimit="10"/>
<path d="M282.472 318.073C284.976 314.549 281.451 307.743 274.598 302.873C267.745 298.003 260.159 296.912 257.654 300.436C255.149 303.96 258.674 310.766 265.528 315.636C272.381 320.506 279.967 321.597 282.472 318.073Z" fill="#F5CF66"/>
<path d="M282.472 318.073C284.976 314.549 281.451 307.743 274.598 302.873C267.745 298.003 260.159 296.912 257.654 300.436C255.149 303.96 258.674 310.766 265.528 315.636C272.381 320.506 279.967 321.597 282.472 318.073Z" stroke="#EFAF00" stroke-width="0.8508" stroke-miterlimit="10"/>
<path d="M72.7821 351.55C72.7821 351.55 69.574 358.213 71.7778 360.616H100.046C100.046 360.616 99.888 355.952 93.0812 355.215C86.9718 354.556 83.2504 351.544 83.2504 351.544L72.7821 351.55Z" fill="#6562CE"/>
<path d="M100.315 362.297H71.3973C71.1554 362.297 70.9593 362.101 70.9593 361.859V361.06C70.9593 360.818 71.1554 360.622 71.3973 360.622H100.315C100.557 360.622 100.753 360.818 100.753 361.06V361.859C100.753 362.101 100.557 362.297 100.315 362.297Z" fill="#88BED7"/>
<path d="M87.0584 355.811L87.979 353.614C88.0048 353.556 88.0421 353.505 88.0886 353.462C88.1351 353.419 88.1899 353.386 88.2496 353.366C88.334 353.336 88.4251 353.33 88.5125 353.35C88.5998 353.37 88.6799 353.414 88.7434 353.477C88.8069 353.54 88.8514 353.619 88.8716 353.707C88.8918 353.794 88.887 353.885 88.8577 353.97L88.848 354.002L88.7684 354.306L89.5579 354.512L89.6332 354.222C89.7309 353.928 89.7197 353.608 89.6017 353.322C89.4837 353.035 89.2667 352.8 88.9902 352.66C88.8339 352.581 88.6633 352.535 88.4886 352.524C88.314 352.514 88.139 352.539 87.9742 352.598C87.8095 352.656 87.6584 352.748 87.5303 352.867C87.4021 352.986 87.2994 353.13 87.2285 353.29L86.3052 355.496L87.0584 355.811Z" fill="#88BED7"/>
<path d="M91.1048 356.996L91.7088 354.776C91.7278 354.715 91.7589 354.659 91.8001 354.61C91.8413 354.562 91.8918 354.522 91.9487 354.493C92.0055 354.465 92.0675 354.448 92.131 354.444C92.1945 354.439 92.2582 354.448 92.3183 354.469C92.5889 354.564 92.7158 354.815 92.6768 355.177L93.4872 355.265C93.5681 354.521 93.2236 353.921 92.5875 353.699C92.4223 353.641 92.2471 353.617 92.0724 353.629C91.8978 353.641 91.7274 353.689 91.5717 353.769C91.416 353.849 91.2782 353.96 91.1667 354.095C91.0553 354.23 90.9725 354.386 90.9235 354.554L90.3167 356.786L91.1048 356.996Z" fill="#88BED7"/>
<path d="M114.195 351.55C114.195 351.55 110.987 358.213 113.191 360.616H141.458C141.458 360.616 141.301 355.952 134.495 355.215C128.385 354.556 124.663 351.544 124.663 351.544L114.195 351.55Z" fill="#6562CE"/>
<path d="M141.726 362.297H112.808C112.567 362.297 112.37 362.101 112.37 361.859V361.06C112.37 360.818 112.567 360.622 112.808 360.622H141.726C141.968 360.622 142.164 360.818 142.164 361.06V361.859C142.164 362.101 141.968 362.297 141.726 362.297Z" fill="#88BED7"/>
<path d="M128.471 355.811L129.392 353.614C129.442 353.501 129.533 353.412 129.647 353.366C129.762 353.32 129.889 353.32 130.003 353.366C130.117 353.412 130.209 353.501 130.259 353.614C130.309 353.726 130.313 353.854 130.27 353.97L130.261 354.002L130.181 354.306L130.971 354.512L131.046 354.222C131.151 353.908 131.131 353.564 130.99 353.264C130.849 352.964 130.598 352.73 130.289 352.61C129.98 352.49 129.636 352.494 129.329 352.62C129.023 352.747 128.777 352.987 128.643 353.29L127.719 355.496L128.471 355.811Z" fill="#88BED7"/>
<path d="M132.518 356.997L133.122 354.776C133.141 354.715 133.172 354.659 133.213 354.611C133.254 354.562 133.305 354.523 133.362 354.494C133.418 354.466 133.48 354.449 133.544 354.444C133.607 354.44 133.671 354.449 133.731 354.469C134.002 354.564 134.129 354.815 134.09 355.178L134.901 355.266C134.982 354.521 134.636 353.921 134 353.699C133.835 353.641 133.66 353.617 133.485 353.629C133.311 353.641 133.14 353.689 132.984 353.769C132.829 353.849 132.691 353.96 132.579 354.095C132.468 354.23 132.385 354.386 132.336 354.554L131.731 356.786L132.518 356.997Z" fill="#88BED7"/>
<path d="M71.2116 351.475C81.4567 353.094 85.6175 351.295 85.6175 351.295C85.6175 351.295 99.7765 270.215 107.504 227.751L109.554 226.687C109.554 226.687 110.578 277.905 107.784 297.133C104.981 316.415 111.075 351.535 111.075 351.535C119.919 352.909 128.378 351.535 128.378 351.535C128.378 351.535 130.262 312.038 133.205 282.706C134.826 266.574 136.881 206.941 136.745 202.993L112.245 202.839L101.365 202.771L83.1975 202.669L79.7104 202.649C79.4593 210.917 78.4104 274.891 71.0331 292.859C63.5679 311.073 71.2116 351.475 71.2116 351.475Z" fill="#88BED7"/>
<path d="M98.411 122.676C96.1067 122.676 74.2538 127.03 74.2803 136.545C74.3026 146.967 85.3734 181.289 84.4626 187.582C83.5518 193.876 77.6209 202.193 80.352 203.391C87.707 206.616 112.266 209.177 136.814 202.916C136.814 202.916 134.251 197.134 138.666 172.023C141.064 158.321 141.622 132.114 139.576 129.374C137.529 126.635 125.163 123.821 120.629 122.982C116.096 122.142 98.411 122.676 98.411 122.676Z" fill="#88BED7"/>
<path d="M99.4613 122.598C100.008 125.753 105.72 197.292 97.927 232.887C97.927 232.887 85.2842 234.615 72.3415 229.754C72.3415 229.754 79.6867 185.012 80.1442 177.559C80.6017 170.106 74.8857 131.734 78.3463 129.62C89.8356 122.598 99.4613 122.598 99.4613 122.598Z" fill="#E4EFFD"/>
<path d="M121.133 123.089C121.133 123.089 119.723 191.04 119.341 232.539C119.341 232.539 131.817 235.662 142.58 230.801C142.58 230.801 138.351 180.569 138.29 174.171C138.228 167.773 141.548 129.918 137.913 127.992C130.088 123.844 121.133 123.089 121.133 123.089Z" fill="#E4EFFD"/>
<path d="M153.461 192.201C137.13 191.704 125.315 123.641 135.674 127.115C137.31 127.663 142.117 129.634 145.41 132.405C151.723 137.718 157.22 156.367 159.988 167.246C171.543 162.238 187.706 157.371 190.535 156.621C193.927 155.721 198.731 165.925 196.722 168.896C195.065 171.339 175.981 192.885 153.461 192.201Z" fill="#E4EFFD"/>
<path d="M139.217 177.877C138.461 173.158 139.956 165.435 140.265 154.225" stroke="white" stroke-width="1.00847" stroke-miterlimit="10"/>
<path d="M194.301 165.58C195.845 165.273 201.916 162.998 203.395 161.658C204.873 160.317 206.564 155.085 206.568 154.508C206.572 153.93 206.886 150.563 206.886 150.563C206.886 150.563 204.325 150.597 203.193 152.655C201.686 155.399 200.621 156.561 198.994 156.957C198.318 157.12 196.962 157.706 196.814 156.617C196.666 155.527 199.335 154.65 199.826 153.99C200.577 152.982 200.208 151.552 200.208 151.552C200.208 151.552 196.242 152.855 195.481 153.102C194.719 153.349 190.263 156.27 189.335 159.783C188.767 161.941 191.49 166.138 194.301 165.58Z" fill="#E18C32"/>
<path d="M183.357 143.285L65.3812 196.472L76.8091 221.82L194.785 168.635C195.133 168.481 195.445 168.255 195.701 167.973C195.957 167.691 196.151 167.359 196.27 166.997L199.229 157.589L194.577 147.267L185.563 143.26C185.214 143.11 184.837 143.034 184.457 143.039C184.077 143.043 183.702 143.127 183.357 143.285Z" fill="white" stroke="#88BED7" stroke-width="0.841088" stroke-miterlimit="10"/>
<path d="M210.825 143.26L213 148.083L202.062 153.015L199.888 148.192L210.825 143.26Z" fill="white" stroke="#88BED7" stroke-width="0.841088" stroke-miterlimit="10"/>
<path d="M202.836 154.595L199.216 146.566C199.026 146.145 198.677 145.817 198.245 145.654C197.813 145.49 197.334 145.505 196.913 145.695L194.19 146.923L199.241 158.125L201.964 156.897C202.385 156.707 202.713 156.358 202.877 155.926C203.04 155.495 203.026 155.016 202.836 154.595Z" fill="white" stroke="#88BED7" stroke-width="0.841088" stroke-miterlimit="10"/>
<path d="M182.085 149.77L189.09 165.305L63.5941 221.889L56.5897 206.354L182.085 149.77Z" fill="#CBE1FD" stroke="#88BED7" stroke-width="0.841088" stroke-miterlimit="10"/>
<path d="M64.5611 194.676L77.6227 223.645C77.8843 224.225 77.6261 224.907 77.046 225.169L76.484 225.422C75.9039 225.684 75.2216 225.426 74.9601 224.846L61.8985 195.877C61.6369 195.297 61.8951 194.615 62.4752 194.353L63.0372 194.1C63.6173 193.838 64.2996 194.096 64.5611 194.676Z" fill="white" stroke="#88BED7" stroke-width="0.841088" stroke-miterlimit="10"/>
<path d="M194.402 161.305L188.599 148.436C188.395 147.982 188.019 147.629 187.554 147.453C187.089 147.277 186.573 147.293 186.12 147.497L181.924 149.389L189.269 165.68L193.465 163.788C193.69 163.687 193.893 163.542 194.061 163.363C194.23 163.183 194.362 162.972 194.449 162.741C194.536 162.51 194.576 162.265 194.568 162.018C194.56 161.772 194.504 161.53 194.402 161.305Z" fill="#88BED7"/>
<path d="M54.9785 202.632L65.3151 225.557C65.6168 226.226 65.3189 227.013 64.6496 227.315L64.0012 227.607C63.3319 227.909 62.5447 227.611 62.243 226.942L51.9064 204.017C51.6046 203.348 51.9025 202.561 52.5718 202.259L53.2203 201.966C53.8896 201.665 54.6767 201.963 54.9785 202.632Z" fill="white" stroke="#88BED7" stroke-width="0.841088" stroke-miterlimit="10"/>
<path d="M176.016 158.408L171.591 148.594" stroke="#88BED7" stroke-width="0.841088" stroke-miterlimit="10"/>
<path d="M168.938 158.776L165.571 151.308" stroke="#88BED7" stroke-width="0.841088" stroke-miterlimit="10"/>
<path d="M163.975 163.837L159.551 154.021" stroke="#88BED7" stroke-width="0.841088" stroke-miterlimit="10"/>
<path d="M156.899 164.205L153.532 156.735" stroke="#88BED7" stroke-width="0.841088" stroke-miterlimit="10"/>
<path d="M151.937 169.264L147.512 159.45" stroke="#88BED7" stroke-width="0.841088" stroke-miterlimit="10"/>
<path d="M144.859 169.632L141.492 162.163" stroke="#88BED7" stroke-width="0.841088" stroke-miterlimit="10"/>
<path d="M139.898 174.691L135.472 164.877" stroke="#88BED7" stroke-width="0.841088" stroke-miterlimit="10"/>
<path d="M132.82 175.059L129.453 167.591" stroke="#88BED7" stroke-width="0.841088" stroke-miterlimit="10"/>
<path d="M127.857 180.12L123.433 170.304" stroke="#88BED7" stroke-width="0.841088" stroke-miterlimit="10"/>
<path d="M120.78 180.487L117.413 173.019" stroke="#88BED7" stroke-width="0.841088" stroke-miterlimit="10"/>
<path d="M115.819 185.547L111.394 175.733" stroke="#88BED7" stroke-width="0.841088" stroke-miterlimit="10"/>
<path d="M108.741 185.915L105.374 178.446" stroke="#88BED7" stroke-width="0.841088" stroke-miterlimit="10"/>
<path d="M103.778 190.975L99.3539 181.161" stroke="#88BED7" stroke-width="0.841088" stroke-miterlimit="10"/>
<path d="M63.4632 186.653C52.8555 176.815 65.0101 130.709 80.9977 128.72C82.6353 128.516 86.0819 129.756 86.3135 140.05C86.5338 149.804 81.85 169.621 80.5305 175.01C90.5733 180 106.335 193.661 109.229 195.268C112.124 196.875 107.974 204.963 104.67 204.195C102.116 203.598 74.2746 196.847 63.4632 186.653Z" fill="#E4EFFD"/>
<path d="M110.098 196.847C110.098 196.847 97.2518 184.032 80.5653 174.987C80.5653 174.987 83.959 162.488 85.0944 152.948" stroke="white" stroke-width="1.00847" stroke-miterlimit="10"/>
<path d="M108.024 204.281C109.479 204.85 116.127 206.747 118.08 206.492C120.032 206.237 123.49 203.885 123.799 203.451C124.107 203.017 125.235 199.331 125.235 199.331C125.235 199.331 123.87 198.268 122.572 200.019C121.038 202.094 118.158 201.678 116.583 201.134C115.929 200.911 114.593 200.006 115.049 199.106C115.505 198.207 118.165 198.998 118.928 198.751C120.095 198.374 120.404 197.015 120.404 197.015C120.404 197.015 116.569 195.965 115.801 195.76C115.032 195.555 110.269 195.732 107.239 197.449C104.209 199.166 104.659 202.962 108.024 204.281Z" fill="#E18C32"/>
<path d="M103.372 108.381C103.372 108.381 104.891 115.494 99.644 122.694C99.644 122.694 108.71 127.334 121.044 123.165C121.044 123.165 113.776 120.662 116.883 108.678L103.372 108.381Z" fill="#E18C32"/>
<path d="M103.667 108.387C103.658 108.86 103.658 109.254 103.667 109.54C103.667 109.54 104.202 114.938 106.982 117.598C109.144 119.665 115.841 121.774 118.014 120.723C116.233 116.966 115.833 112.701 116.884 108.678L103.667 108.387Z" fill="#D97802"/>
<path d="M103.509 109.39C103.509 109.39 106.38 114.255 107.671 114.741C110.88 115.946 116 117.002 117.714 116.12C118.883 115.519 118.949 115.481 120.32 109.531C121.296 105.275 120.332 96.5591 119.684 96.1894C119.035 95.8198 105.388 94.8881 104.696 96.308C104.004 97.728 103.455 107.158 103.509 109.39Z" fill="#E18C32"/>
<path d="M118.467 104.711C117.984 104.711 117.593 104.319 117.593 103.836C117.593 103.353 117.984 102.961 118.467 102.961C118.95 102.961 119.342 103.353 119.342 103.836C119.342 104.319 118.95 104.711 118.467 104.711Z" fill="#40465C"/>
<path d="M111.232 104.711C110.749 104.711 110.358 104.319 110.358 103.836C110.358 103.353 110.749 102.961 111.232 102.961C111.715 102.961 112.107 103.353 112.107 103.836C112.107 104.319 111.715 104.711 111.232 104.711Z" fill="#40465C"/>
<path d="M115.127 103.052L116.343 108.085H114.321" stroke="#40465C" stroke-width="0.809007" stroke-linecap="round" stroke-linejoin="round"/>
<path d="M103.596 106.143C103.596 106.143 106.14 106.312 105.429 101.971C104.795 98.1103 105.827 97.318 111.008 98.7756C115.219 99.9612 121.409 99.7325 123.701 96.2649C125 94.2968 124.259 93.7905 122.167 92.4989C119.544 90.8836 114.355 87.8959 107.854 89.2726C102.664 90.3689 102.398 94.7306 102.398 94.7306C102.398 94.7306 99.2856 94.0332 98.5868 97.2846C97.7067 101.384 103.498 109.459 103.498 109.459L103.596 106.143Z" fill="#6562CE"/>
<path d="M109.472 98.0127C112.468 99.8874 120.212 101.125 122.666 98.6822" stroke="#6562CE" stroke-width="0.672313" stroke-miterlimit="10"/>
<path d="M102.542 94.8841C102.542 94.8841 100.899 93.1127 99.1949 94.1686" stroke="#6562CE" stroke-width="0.672313" stroke-miterlimit="10"/>
<path d="M102.597 108.626C102.806 109.463 103.392 110.636 104.165 111.724C104.504 112.205 105.217 113.134 106.052 113.77C106.68 116.087 117.696 118.234 119.374 115.077C120.908 112.207 120.68 106.91 120.68 106.91C117.437 105.009 110.079 105.99 107.478 106.936C105.927 106.583 104.405 106.111 102.928 105.524C103.287 105.773 103.606 106.076 103.872 106.424C105.016 106.819 106.18 107.153 107.359 107.425C107.059 108.648 106.286 111.845 106.083 113.136C105.515 112.63 105.011 112.058 104.58 111.432C104.141 110.816 103.76 110.159 103.442 109.471C103.299 109.343 102.971 109.028 102.597 108.626Z" fill="#E4EFFD"/>
<path d="M103.909 106.472C103.909 106.472 102.35 104.301 101.12 105.655C100.283 106.58 103.504 109.536 103.504 109.536L103.909 106.472Z" fill="#E18C32"/>
<path d="M192.745 361.496L194.648 346.271L202.612 347.267C203.389 347.364 204.094 347.765 204.575 348.383C205.055 349 205.27 349.784 205.173 350.56L204.002 359.931C203.905 360.707 203.503 361.413 202.886 361.893C202.268 362.374 201.485 362.589 200.709 362.492L192.745 361.496Z" fill="#FFBF00"/>
<path d="M195.187 350.917L194.411 357.126C193.727 362.598 188.871 366.633 183.207 366.436L115.715 364.089L120.628 324.793L186.62 339.135C192.158 340.338 195.871 345.445 195.187 350.917Z" fill="white" stroke="#6562CE" stroke-width="0.516864" stroke-miterlimit="10"/>
<path d="M158.367 333.242L154.376 365.166L136.322 364.471L140.711 329.367L158.367 333.242Z" fill="#D9D9F4"/>
<path d="M156.264 332.562L152.17 365.306L134.118 364.612L138.609 328.688L156.264 332.562Z" stroke="#6562CE" stroke-width="0.516864" stroke-miterlimit="10"/>
<path d="M124.908 325.955L127.66 345.603L120.153 363.987L115.826 363.863L120.683 325.01L124.908 325.955Z" fill="#EFAF00"/>
<path d="M114.648 324.044L109.735 363.341L115.715 364.089L120.628 324.792L114.648 324.044Z" fill="white" stroke="#EFAF00" stroke-width="0.620632" stroke-miterlimit="10"/>
<path d="M110.163 360.729L115.811 361.435" stroke="#EFAF00" stroke-width="0.620632" stroke-miterlimit="10"/>
<path d="M110.518 357.89L116.165 358.596" stroke="#EFAF00" stroke-width="0.620632" stroke-miterlimit="10"/>
<path d="M110.873 355.05L116.521 355.756" stroke="#EFAF00" stroke-width="0.620632" stroke-miterlimit="10"/>
<path d="M111.228 352.209L116.875 352.916" stroke="#EFAF00" stroke-width="0.620632" stroke-miterlimit="10"/>
<path d="M111.583 349.371L117.23 350.077" stroke="#EFAF00" stroke-width="0.620632" stroke-miterlimit="10"/>
<path d="M111.938 346.531L117.586 347.237" stroke="#EFAF00" stroke-width="0.620632" stroke-miterlimit="10"/>
<path d="M112.293 343.691L117.941 344.397" stroke="#EFAF00" stroke-width="0.620632" stroke-miterlimit="10"/>
<path d="M112.648 340.852L118.296 341.558" stroke="#EFAF00" stroke-width="0.620632" stroke-miterlimit="10"/>
<path d="M113.003 338.012L118.651 338.718" stroke="#EFAF00" stroke-width="0.620632" stroke-miterlimit="10"/>
<path d="M113.358 335.172L119.006 335.878" stroke="#EFAF00" stroke-width="0.620632" stroke-miterlimit="10"/>
<path d="M113.713 332.333L119.361 333.039" stroke="#EFAF00" stroke-width="0.620632" stroke-miterlimit="10"/>
<path d="M114.068 329.493L119.716 330.199" stroke="#EFAF00" stroke-width="0.620632" stroke-miterlimit="10"/>
<path d="M114.423 326.653L120.071 327.359" stroke="#EFAF00" stroke-width="0.620632" stroke-miterlimit="10"/>
<path d="M126.741 326.436L129.519 345.878L122.039 364.04L121.142 364.031L128.634 345.768L125.869 326.222L126.741 326.436Z" fill="#EFAF00"/>
<path d="M43.8246 367.462H8.36062C7.59202 367.462 6.83274 367.294 6.13615 366.969C5.43956 366.644 4.82257 366.17 4.32853 365.582C3.83449 364.993 3.4754 364.303 3.27648 363.561C3.07757 362.818 3.04367 362.041 3.17716 361.284L19.6447 267.893C19.9048 266.414 20.6775 265.075 21.8271 264.109C22.9767 263.143 24.4297 262.614 25.931 262.613H61.399C62.1676 262.613 62.9269 262.781 63.6235 263.106C64.3201 263.431 64.937 263.904 65.4311 264.493C65.9251 265.082 66.2842 265.771 66.4831 266.514C66.682 267.256 66.7159 268.033 66.5825 268.79L50.114 362.182C49.8539 363.661 49.0808 365.001 47.9306 365.967C46.7803 366.932 45.3265 367.462 43.8246 367.462Z" fill="white" stroke="#EFAF00" stroke-width="0.664116" stroke-miterlimit="10"/>
<path d="M27.6684 355.937C27.1209 355.937 26.7553 355.493 26.8511 354.948L40.9251 275.13C40.9802 274.858 41.1252 274.613 41.3368 274.434C41.5483 274.254 41.8141 274.151 42.0912 274.142C42.6387 274.142 43.0044 274.585 42.9085 275.13L28.8346 354.945C28.7801 355.218 28.6353 355.464 28.4237 355.644C28.2121 355.823 27.946 355.927 27.6684 355.937Z" fill="white" stroke="#EFAF00" stroke-width="0.664116" stroke-miterlimit="10"/>
<path d="M57.6947 284.261C60.0516 282.103 60.4954 278.751 58.6859 276.775C56.8764 274.799 53.499 274.947 51.1421 277.105C48.7852 279.263 48.3415 282.615 50.1509 284.591C51.9604 286.567 55.3379 286.419 57.6947 284.261Z" fill="#E4EFFD"/>
<path d="M33.9126 284.261C36.2694 282.103 36.7132 278.751 34.9037 276.775C33.0943 274.799 29.7168 274.947 27.3599 277.105C25.0031 279.263 24.5593 282.615 26.3688 284.591C28.1782 286.567 31.5557 286.419 33.9126 284.261Z" fill="#E4EFFD"/>
<path d="M56.3249 283.015C58.6818 280.857 59.1256 277.506 57.3161 275.53C55.5066 273.554 52.1292 273.701 49.7723 275.859C47.4154 278.018 46.9717 281.369 48.7811 283.345C50.5906 285.321 53.9681 285.174 56.3249 283.015Z" stroke="#EFAF00" stroke-width="0.664116" stroke-miterlimit="10"/>
<path d="M32.5428 283.016C34.8996 280.857 35.3434 277.506 33.5339 275.53C31.7245 273.554 28.347 273.701 25.9901 275.86C23.6333 278.018 23.1895 281.369 24.999 283.345C26.8084 285.321 30.1859 285.174 32.5428 283.016Z" stroke="#EFAF00" stroke-width="0.664116" stroke-miterlimit="10"/>
<path d="M53.2593 307.995C55.6162 305.836 56.0599 302.485 54.2505 300.509C52.441 298.533 49.0636 298.681 46.7067 300.839C44.3498 302.997 43.9061 306.348 45.7155 308.324C47.525 310.3 50.9025 310.153 53.2593 307.995Z" fill="#E4EFFD"/>
<path d="M29.4781 307.995C31.8349 305.837 32.2787 302.485 30.4692 300.509C28.6598 298.533 25.2823 298.681 22.9254 300.839C20.5686 302.997 20.1248 306.349 21.9343 308.325C23.7437 310.301 27.1212 310.153 29.4781 307.995Z" fill="#E4EFFD"/>
<path d="M52.1394 306.75C54.4962 304.592 54.94 301.241 53.1306 299.265C51.3211 297.288 47.9436 297.436 45.5868 299.594C43.2299 301.752 42.7861 305.104 44.5956 307.08C46.4051 309.056 49.7825 308.908 52.1394 306.75Z" stroke="#EFAF00" stroke-width="0.664116" stroke-miterlimit="10"/>
<path d="M28.3572 306.749C30.714 304.591 31.1578 301.24 29.3483 299.264C27.5389 297.288 24.1614 297.435 21.8045 299.593C19.4477 301.751 19.0039 305.103 20.8134 307.079C22.6228 309.055 26.0003 308.907 28.3572 306.749Z" stroke="#EFAF00" stroke-width="0.664116" stroke-miterlimit="10"/>
<path d="M49.324 331.728C51.6809 329.57 52.1246 326.219 50.3152 324.243C48.5057 322.267 45.1282 322.414 42.7714 324.572C40.4145 326.73 39.9708 330.082 41.7802 332.058C43.5897 334.034 46.9671 333.886 49.324 331.728Z" fill="#E4EFFD"/>
<path d="M25.5429 331.728C27.8998 329.57 28.3435 326.219 26.5341 324.243C24.7246 322.267 21.3471 322.414 18.9903 324.572C16.6334 326.73 16.1896 330.082 17.9991 332.058C19.8086 334.034 23.186 333.886 25.5429 331.728Z" fill="#E4EFFD"/>
<path d="M47.9542 330.484C50.3111 328.326 50.7548 324.974 48.9454 322.998C47.1359 321.022 43.7584 321.17 41.4016 323.328C39.0447 325.486 38.6009 328.838 40.4104 330.814C42.2199 332.79 45.5973 332.642 47.9542 330.484Z" stroke="#EFAF00" stroke-width="0.664116" stroke-miterlimit="10"/>
<path d="M24.173 330.483C26.5299 328.325 26.9736 324.973 25.1642 322.997C23.3547 321.021 19.9772 321.169 17.6204 323.327C15.2635 325.485 14.8198 328.837 16.6292 330.813C18.4387 332.789 21.8161 332.641 24.173 330.483Z" stroke="#EFAF00" stroke-width="0.664116" stroke-miterlimit="10"/>
<path d="M44.6413 355.463C46.9982 353.305 47.442 349.954 45.6325 347.977C43.823 346.001 40.4456 346.149 38.0887 348.307C35.7318 350.465 35.2881 353.817 37.0975 355.793C38.907 357.769 42.2845 357.621 44.6413 355.463Z" fill="#E4EFFD"/>
<path d="M20.8592 355.463C23.216 353.305 23.6598 349.954 21.8503 347.977C20.0409 346.001 16.6634 346.149 14.3065 348.307C11.9497 350.465 11.5059 353.817 13.3154 355.793C15.1248 357.769 18.5023 357.621 20.8592 355.463Z" fill="#E4EFFD"/>
<path d="M43.7693 354.218C46.1261 352.06 46.5699 348.709 44.7604 346.733C42.951 344.757 39.5735 344.904 37.2166 347.062C34.8598 349.22 34.416 352.572 36.2255 354.548C38.0349 356.524 41.4124 356.376 43.7693 354.218Z" stroke="#EFAF00" stroke-width="0.664116" stroke-miterlimit="10"/>
<path d="M19.9871 354.218C22.344 352.06 22.7877 348.709 20.9783 346.733C19.1688 344.757 15.7913 344.904 13.4345 347.063C11.0776 349.221 10.6339 352.572 12.4433 354.548C14.2528 356.524 17.6302 356.377 19.9871 354.218Z" stroke="#EFAF00" stroke-width="0.664116" stroke-miterlimit="10"/>
<path d="M26.8363 275.197L31.4248 283.847" stroke="#EFAF00" stroke-width="0.664116" stroke-miterlimit="10"/>
<path d="M50.867 275.197L55.4555 283.847" stroke="#EFAF00" stroke-width="0.664116" stroke-miterlimit="10"/>
<path d="M22.8516 298.854L27.4411 307.504" stroke="#EFAF00" stroke-width="0.664116" stroke-miterlimit="10"/>
<path d="M46.6332 298.854L51.2218 307.504" stroke="#EFAF00" stroke-width="0.664116" stroke-miterlimit="10"/>
<path d="M18.6179 322.636L23.2074 331.285" stroke="#EFAF00" stroke-width="0.664116" stroke-miterlimit="10"/>
<path d="M42.3995 322.636L46.9891 331.285" stroke="#EFAF00" stroke-width="0.664116" stroke-miterlimit="10"/>
<path d="M14.3851 346.292L18.9736 354.943" stroke="#EFAF00" stroke-width="0.664116" stroke-miterlimit="10"/>
<path d="M38.1668 346.292L42.7553 354.943" stroke="#EFAF00" stroke-width="0.664116" stroke-miterlimit="10"/>
</g>
<defs>
<clipPath id="clip0_140_690">
<rect width="342" height="373.2" fill="white"/>
</clipPath>
</defs>
</svg>
