<svg width="327" height="309" viewBox="0 0 327 309" fill="none" xmlns="http://www.w3.org/2000/svg">
<path d="M183.757 212.558V213.667C183.757 214.057 183.68 214.442 183.531 214.802C183.382 215.162 183.163 215.489 182.888 215.764C182.612 216.039 182.285 216.257 181.925 216.406C181.565 216.555 181.18 216.631 180.79 216.631H100.168C95.9336 216.631 91.8253 215.188 88.5208 212.54C85.2163 209.892 82.9129 206.197 81.9904 202.064L67.5633 137.615C67.2205 136.082 67.2265 134.493 67.5809 132.963C67.9352 131.433 68.6289 130.003 69.6105 128.777C70.5922 127.551 71.8367 126.562 73.2522 125.882C74.6676 125.202 76.2178 124.849 77.788 124.849H105.741C108.925 124.848 112.014 125.932 114.499 127.922C116.984 129.912 118.717 132.69 119.411 135.798L132.596 194.713C133.541 198.935 135.896 202.71 139.274 205.414C142.651 208.119 146.849 209.592 151.175 209.592H180.79C181.577 209.592 182.332 209.904 182.888 210.461C183.444 211.017 183.757 211.771 183.757 212.558Z" fill="#D6EAF2"/>
<path d="M97.0408 216.971H131.849C135.359 216.975 138.723 218.374 141.202 220.858C143.681 223.343 145.072 226.71 145.069 230.22V275.464C145.071 277.202 144.73 278.923 144.067 280.53C143.404 282.136 142.431 283.597 141.203 284.827C139.975 286.057 138.517 287.034 136.912 287.7C135.307 288.367 133.587 288.711 131.849 288.713H90.5272" stroke="#639AD6" stroke-width="0.792407" stroke-miterlimit="10"/>
<path d="M114.682 216.971H161.073C164.58 216.978 167.942 218.378 170.418 220.862C172.895 223.346 174.284 226.712 174.279 230.22V275.464C174.284 278.972 172.896 282.338 170.419 284.823C167.943 287.308 164.581 288.707 161.073 288.713H127.918" stroke="#639AD6" stroke-width="0.792407" stroke-miterlimit="10"/>
<path d="M145.069 263.398H174.29" stroke="#639AD6" stroke-width="0.792407" stroke-miterlimit="10"/>
<path d="M152.206 103.232C152.206 103.232 165.7 104.133 172.28 116.484C178.86 128.835 187.072 145.686 187.072 145.686C187.072 145.686 210.252 145.037 227.402 155.742V163.439H178.102C171.976 163.439 152.216 140.052 151.062 124.902C149.908 109.751 152.206 103.232 152.206 103.232Z" fill="#F9C543"/>
<path d="M223.551 163.373C222.561 163.167 223.287 159.989 223.866 158.029C224.188 156.949 224.962 156.399 225.979 155.932C228.023 155.002 231.557 153.951 233.554 154.4C236.481 155.06 238.361 156.909 240.192 159.102C240.72 159.73 243.29 162.744 243.29 163.55L223.551 163.373Z" fill="#A57574"/>
<path d="M126.785 98.1606C118.214 98.1897 100.448 116.069 103.576 161.524C105.881 194.993 116.31 209.069 118.615 208.083C120.921 207.098 148.753 182.708 152.541 169.533C156.329 156.358 176.451 111.13 149.947 102.442C131.452 96.383 129.527 98.1527 126.785 98.1606Z" fill="#F9C543"/>
<path d="M213.369 288.93H183.175C183.144 288.468 183.133 288.029 183.141 287.609H213.403C213.437 288.05 213.426 288.492 213.369 288.93Z" fill="white"/>
<path d="M186.251 275.419C186.359 278.713 183.176 280.8 183.176 287.607H213.37C213.37 287.607 213.808 281.896 207.77 280.581C201.732 279.265 196.24 277.506 195.691 275.419H186.251Z" fill="#A1CBE2"/>
<path d="M195.904 281.574L198.659 277.493" stroke="white" stroke-width="0.792407" stroke-miterlimit="10" stroke-linecap="round"/>
<path d="M198.054 282.067L200.645 278.319" stroke="white" stroke-width="0.792407" stroke-miterlimit="10" stroke-linecap="round"/>
<path d="M200.867 282.234L202.962 278.816" stroke="white" stroke-width="0.792407" stroke-miterlimit="10" stroke-linecap="round"/>
<path d="M153.78 171.976C153.78 171.976 199.864 169.094 211.063 182.277C222.262 195.46 200.521 242.442 198.326 270.987C198.326 270.987 187.299 272.086 182.821 270.987C178.344 269.889 174.446 221.087 185.727 207.69C185.727 207.69 142.837 217.555 126.117 205.112C109.397 192.669 146.822 172.216 153.78 171.976Z" fill="#242854"/>
<path d="M182.927 276.47C184.512 276.938 189.237 278.206 198.585 276.719C199.068 276.642 199.425 275.895 199.425 275.398V271.772C199.425 271.629 199.394 271.489 199.335 271.36C199.276 271.231 199.19 271.116 199.082 271.023C198.975 270.93 198.849 270.861 198.712 270.821C198.576 270.781 198.433 270.771 198.292 270.792C190.204 271.964 184.892 271.32 182.671 270.823C182.516 270.79 182.356 270.793 182.203 270.834C182.051 270.874 181.91 270.951 181.792 271.056C181.675 271.162 181.584 271.295 181.528 271.442C181.472 271.59 181.452 271.749 181.469 271.906L182.225 275.623C182.246 275.817 182.323 276.001 182.448 276.152C182.573 276.303 182.74 276.414 182.927 276.47Z" fill="#4E577D"/>
<path d="M281.601 243.218L257.649 261.6C257.311 261.188 257.004 260.781 256.729 260.387L280.586 242.075C280.967 242.416 281.307 242.8 281.601 243.218Z" fill="white"/>
<path d="M251.676 248.903C253.768 251.457 252.514 255.044 256.655 260.437L280.607 242.053C280.607 242.053 277.48 237.259 271.891 239.89C266.302 242.521 260.874 244.47 259.167 243.15L251.676 248.903Z" fill="#A1CBE2"/>
<path d="M263.143 247.616L262.847 242.859" stroke="white" stroke-width="0.792407" stroke-miterlimit="10" stroke-linecap="round"/>
<path d="M264.962 246.457L264.667 242.199" stroke="white" stroke-width="0.792407" stroke-miterlimit="10" stroke-linecap="round"/>
<path d="M266.782 245.3L266.487 241.536" stroke="white" stroke-width="0.792407" stroke-miterlimit="10" stroke-linecap="round"/>
<path d="M118.452 206.43C119.141 210.146 158.363 219.158 200.083 192.808C200.083 192.808 203.76 223.276 245.918 246.333C245.918 246.333 255.203 242.371 257.725 237.051C257.725 237.051 230.783 204.885 220.192 175.349C215.746 162.948 159.802 169.44 151.614 171.976C143.426 174.512 115.377 189.858 118.452 206.43Z" fill="#242854"/>
<path d="M121.767 208.511C119.733 207.792 118.578 207.037 118.465 206.427C115.705 191.556 138.029 177.668 148.545 173.146C138.143 179.199 120.393 194.778 121.767 208.511Z" fill="#383C4D"/>
<path d="M248.974 250.839C250.52 250.242 254.836 248.11 261.347 241.24C261.509 241.068 261.605 240.844 261.617 240.608C261.63 240.372 261.557 240.139 261.413 239.951L259.204 237.075C259.118 236.962 259.008 236.869 258.883 236.802C258.757 236.736 258.619 236.697 258.477 236.688C258.336 236.68 258.194 236.702 258.061 236.753C257.929 236.804 257.809 236.883 257.709 236.985C252.007 242.841 247.656 245.353 245.599 246.322C245.456 246.389 245.332 246.49 245.236 246.614C245.14 246.739 245.075 246.885 245.046 247.039C245.018 247.194 245.026 247.354 245.071 247.504C245.116 247.655 245.197 247.793 245.306 247.907L247.907 250.599C248.042 250.739 248.215 250.837 248.405 250.879C248.594 250.922 248.793 250.908 248.974 250.839Z" fill="#6874A7"/>
<path d="M129.086 107.997C137.998 110.955 148.92 142.195 148.92 142.195C148.92 142.195 164.578 145.161 185.825 154.054C185.825 154.054 186.963 159.651 184.163 163.439C184.163 163.439 142.002 163.769 137.887 163.439C133.772 163.109 114.421 147.187 109.645 129.574C104.87 111.962 118.201 104.381 129.086 107.997Z" fill="#F9C543"/>
<path d="M189.269 140.185L198.215 162.338H199.753L190.556 139.664C190.489 139.501 190.364 139.369 190.204 139.295C190.044 139.221 189.862 139.21 189.694 139.265C189.605 139.296 189.522 139.344 189.451 139.407C189.381 139.47 189.324 139.547 189.284 139.633C189.244 139.719 189.222 139.813 189.22 139.907C189.217 140.002 189.234 140.096 189.269 140.185Z" fill="#41465A"/>
<path d="M185.727 155.718C185.727 155.718 191.958 152.424 194.887 153.077C197.817 153.729 201.327 156.368 201.694 157.107C202.061 157.847 204.621 161.426 204.621 162.232C204.621 163.037 196.34 162.744 195.175 162.744C194.01 162.744 186.353 162.866 184.874 162.559C183.395 162.253 185.727 155.718 185.727 155.718Z" fill="#A57574"/>
<path d="M195.175 162.744C196.34 162.744 204.621 163.037 204.621 162.232C204.621 161.426 202.058 157.839 201.694 157.107C201.329 156.376 197.814 153.74 194.887 153.082C194.887 153.082 198.501 158.101 195.175 162.744Z" fill="#A57574"/>
<path d="M184.163 163.439C184.163 163.439 142.002 163.769 137.887 163.439C133.771 163.109 114.421 147.187 109.645 129.574" stroke="#E59E38" stroke-width="0.792407" stroke-miterlimit="10"/>
<path d="M129.086 107.998C137.998 110.956 148.92 142.195 148.92 142.195C148.92 142.195 159.43 144.187 174.913 149.797" stroke="#E59E38" stroke-width="0.792407" stroke-miterlimit="10"/>
<path d="M236.053 163.499V162.179C236.054 161.816 235.98 161.457 235.836 161.125C235.692 160.792 235.482 160.492 235.217 160.245C234.952 159.997 234.639 159.806 234.298 159.684C233.956 159.563 233.594 159.513 233.232 159.537L185.025 162.543C184.78 162.561 184.552 162.671 184.386 162.85C184.219 163.03 184.126 163.265 184.126 163.51L236.053 163.499Z" fill="#A1CBE2"/>
<path d="M131.907 78.0352C131.907 78.0352 130.85 91.3661 122.858 99.8105C122.858 99.8105 131.809 106.908 141.532 101.612L142.588 78.0853L131.907 78.0352Z" fill="#A57574"/>
<path d="M155.28 75.1351C155.28 75.1351 152.903 80.9461 153.759 91.6674C154.615 102.389 137.586 96.7995 137.298 89.3879C137.01 81.9762 138.164 75.2249 140.09 75.1245C142.015 75.0242 155.28 75.1351 155.28 75.1351Z" fill="#A57574"/>
<path d="M129.332 86.7387C129.332 86.7387 131.902 80.6424 130.095 73.8488C128.774 68.8831 134.12 65.9961 138.645 68.6454C138.645 68.6454 155.684 59.258 159.528 69.5144C164.161 81.8759 141.725 75.6212 141.339 76.1046C140.954 76.5879 139.673 86.2078 142.079 89.4804C144.485 92.753 147.148 89.4619 150.61 89.2374C154.197 89.0023 153.759 91.3769 153.759 91.3769C153.759 91.3769 154.831 97.143 155.217 99.3564C155.603 101.57 141.881 105.307 138.259 99.6866C134.974 94.5888 137.071 84.2796 135.726 83.4211C132.937 81.6435 130.676 84.7867 132.224 86.0387C132.224 86.0387 130.526 87.0662 129.332 86.7387Z" fill="#242854"/>
<path d="M158.447 77.1817C153.164 80.0238 142.176 76.458 141.194 75.8135L158.447 77.1817Z" fill="#242854"/>
<path d="M133.861 66.5132C135.71 66.3679 137.718 67.0943 138.645 68.8112L133.861 66.5132Z" fill="#4E2556"/>
<path d="M147.068 84.437C147.512 84.437 147.871 83.9865 147.871 83.4307C147.871 82.8749 147.512 82.4243 147.068 82.4243C146.625 82.4243 146.265 82.8749 146.265 83.4307C146.265 83.9865 146.625 84.437 147.068 84.437Z" fill="#242854"/>
<path d="M152.779 84.437C153.116 84.437 153.389 83.9865 153.389 83.4307C153.389 82.8749 153.116 82.4243 152.779 82.4243C152.442 82.4243 152.169 82.8749 152.169 83.4307C152.169 83.9865 152.442 84.437 152.779 84.437Z" fill="#242854"/>
<path d="M146.738 86.6517C148.461 86.6517 149.857 85.1462 149.857 83.2892C149.857 81.4322 148.461 79.9268 146.738 79.9268C145.015 79.9268 143.619 81.4322 143.619 83.2892C143.619 85.1462 145.015 86.6517 146.738 86.6517Z" stroke="white" stroke-width="0.792407" stroke-miterlimit="10"/>
<path d="M153.996 86.6517C155.451 86.6517 156.63 85.1462 156.63 83.2892C156.63 81.4322 155.451 79.9268 153.996 79.9268C152.542 79.9268 151.363 81.4322 151.363 83.2892C151.363 85.1462 152.542 86.6517 153.996 86.6517Z" stroke="white" stroke-width="0.792407" stroke-miterlimit="10"/>
<path d="M149.857 83.144H151.36" stroke="white" stroke-width="0.792407" stroke-miterlimit="10"/>
<path d="M143.455 82.9777L134.545 82.8535C133.979 82.8543 133.419 82.972 132.9 83.1992C132.38 83.4265 131.914 83.7584 131.529 84.1742" stroke="white" stroke-width="0.792407" stroke-miterlimit="10"/>
<path d="M305.238 163.68V288.935H296.812V171.952H24.8155V288.935H16.3896V163.68H305.238Z" fill="#FFF4DE"/>
<path d="M295.642 144.35H206.723C206.069 144.35 205.423 144.199 204.836 143.909C204.249 143.618 203.737 143.197 203.34 142.677C202.942 142.157 202.67 141.552 202.544 140.909C202.418 140.267 202.442 139.604 202.613 138.972L217.365 84.6396C218.158 81.7684 220.749 79.4414 223.723 79.4414H312.642C315.449 79.4414 317.488 82.4446 316.752 85.1547L302 139.487C301.621 140.884 300.793 142.116 299.644 142.995C298.495 143.874 297.088 144.35 295.642 144.35Z" fill="white"/>
<path d="M295.644 144.35H209.272C208.635 144.349 208.007 144.202 207.437 143.919C206.867 143.636 206.369 143.226 205.983 142.72C205.596 142.214 205.332 141.626 205.21 141.001C205.088 140.376 205.111 139.732 205.278 139.117L219.597 86.2399C219.965 84.8826 220.769 83.6839 221.885 82.8289C223.002 81.974 224.369 81.5102 225.775 81.5093H312.148C312.784 81.5102 313.412 81.6577 313.983 81.9403C314.553 82.223 315.051 82.6332 315.437 83.1391C315.824 83.6451 316.088 84.2333 316.211 84.858C316.334 85.4828 316.311 86.1273 316.144 86.7418L301.812 139.619C301.445 140.975 300.642 142.172 299.528 143.027C298.413 143.882 297.049 144.347 295.644 144.35Z" fill="#D4D1F4"/>
<path d="M295.644 144.35H209.272C208.635 144.349 208.007 144.202 207.437 143.919C206.867 143.636 206.369 143.226 205.983 142.72C205.596 142.214 205.332 141.626 205.21 141.001C205.088 140.376 205.111 139.732 205.278 139.117L219.597 86.2399C219.965 84.8826 220.769 83.6839 221.885 82.8289C223.002 81.974 224.369 81.5102 225.775 81.5093H312.148C312.784 81.5102 313.412 81.6577 313.983 81.9403C314.553 82.223 315.051 82.6332 315.437 83.1391C315.824 83.6451 316.088 84.2333 316.211 84.858C316.334 85.4828 316.311 86.1273 316.144 86.7418L301.812 139.619C301.445 140.975 300.642 142.172 299.528 143.027C298.413 143.882 297.049 144.347 295.644 144.35Z" fill="#EBF4F7"/>
<path d="M215.817 100.189L219.597 86.2399C219.965 84.8826 220.769 83.6839 221.885 82.8289C223.002 81.974 224.369 81.5102 225.775 81.5093H277.53" stroke="#639AD6" stroke-width="0.792407" stroke-linecap="round" stroke-linejoin="round"/>
<path d="M301.822 139.619C301.455 140.977 300.651 142.175 299.534 143.03C298.418 143.885 297.051 144.349 295.644 144.35H209.272C208.635 144.349 208.007 144.202 207.437 143.919C206.867 143.636 206.369 143.226 205.983 142.72C205.596 142.214 205.332 141.626 205.21 141.001C205.088 140.376 205.111 139.732 205.278 139.117L212.833 111.243" stroke="#639AD6" stroke-width="0.792407" stroke-linecap="round" stroke-linejoin="round"/>
<path d="M276.154 158.877L267.57 129.067H247.471L255.469 156.825C256.122 159.086 254.225 161.291 251.632 161.291H246.085C245.916 161.283 245.751 161.341 245.625 161.454C245.499 161.567 245.423 161.725 245.414 161.894V163.053C245.423 163.222 245.499 163.38 245.625 163.493C245.751 163.606 245.916 163.664 246.085 163.655H272.16C274.862 163.655 276.83 161.223 276.154 158.877Z" fill="#D6EAF2"/>
<path d="M253.237 162.612H245.424V161.894C245.434 161.725 245.51 161.567 245.636 161.454C245.761 161.341 245.927 161.283 246.095 161.291H251.629C254.225 161.291 256.119 159.086 255.469 156.825L247.471 129.067H248.908L257.07 157.631C257.226 158.218 257.246 158.833 257.126 159.429C257.007 160.024 256.752 160.584 256.382 161.066C256.011 161.548 255.535 161.937 254.99 162.206C254.445 162.474 253.845 162.613 253.237 162.612Z" fill="white"/>
<path d="M247.471 129.067V144.379H251.882L247.471 129.067Z" fill="#A1CBE2"/>
<path d="M221.639 138.972H217.225L216.887 140.198H221.301L221.639 138.972Z" fill="#A1CBE2"/>
<path d="M230.762 138.972H226.687L226.351 140.198H230.424L230.762 138.972Z" fill="#A1CBE2"/>
<path d="M272.34 163.235C275.031 163.235 276.999 161.236 276.323 158.89L267.731 129.08" stroke="#639AD6" stroke-width="0.792407" stroke-miterlimit="10"/>
<path d="M228.557 139.585H230.712C231.07 139.585 231.413 139.727 231.666 139.98C231.92 140.233 232.062 140.577 232.062 140.935V181.577C232.062 182.549 232.448 183.481 233.135 184.168C233.822 184.855 234.754 185.241 235.725 185.241C236.696 185.24 237.628 184.854 238.314 184.167C239.001 183.48 239.386 182.548 239.386 181.577V163.413C239.386 163.236 239.351 163.06 239.283 162.897C239.216 162.733 239.116 162.584 238.991 162.459C238.865 162.334 238.717 162.235 238.553 162.167C238.389 162.1 238.214 162.065 238.036 162.066H236.053" stroke="#639AD6" stroke-width="0.792407" stroke-miterlimit="10"/>
<path d="M58.25 147.782H47.3412C46.0297 147.782 44.9666 148.845 44.9666 150.156V161.065C44.9666 162.377 46.0297 163.44 47.3412 163.44H58.25C59.5614 163.44 60.6246 162.377 60.6246 161.065V150.156C60.6246 148.845 59.5614 147.782 58.25 147.782Z" fill="#F9C543"/>
<path d="M51.9952 147.781C51.9952 147.781 50.0512 133.286 64.2537 129.176C64.2537 129.176 58.1231 135.217 56.2557 147.781H51.9952Z" fill="#A1CBE2"/>
<path d="M54.4859 147.781C54.4859 147.781 52.7955 135.079 41.4535 134.229C41.4535 134.229 48.5852 137.216 48.667 147.781H54.4859Z" fill="#A1CBE2"/>
<path d="M50.6481 147.781C50.6481 147.781 49.1822 137.451 54.0819 132.538C54.0819 132.538 52.8616 141.421 54.4808 147.781H50.6481Z" fill="#D6EAF2"/>
<path d="M52.7955 147.781C52.7955 147.781 57.6001 145.098 57.2858 140.161C57.2858 140.161 59.9905 144.556 57.8405 147.781H52.7955Z" fill="#D6EAF2"/>
<path d="M47.7505 147.781C47.7505 147.781 46.3875 143.901 43.0251 142.705C43.0251 142.705 49.153 142.544 50.648 147.781H47.7505Z" fill="#D6EAF2"/>
<path d="M151.138 83.7466L153.307 87.9728L151.469 89.1666" fill="#A57574"/>
<path d="M151.138 83.7466L153.307 87.9728L151.469 89.1666" stroke="#4E2556" stroke-width="0.792407" stroke-linecap="round" stroke-linejoin="round"/>
<path d="M23.1541 73.6489H111.201V81.7104L23.1383 74.2696C22.9032 74.2459 22.919 73.6489 23.1541 73.6489Z" fill="#FFF4DE"/>
<path d="M101.705 33.7769H98.0022C97.2509 33.7769 96.6419 34.3859 96.6419 35.1372V65.4731C96.6419 66.2244 97.2509 66.8334 98.0022 66.8334H101.705C102.457 66.8334 103.066 66.2244 103.066 65.4731V35.1372C103.066 34.3859 102.457 33.7769 101.705 33.7769Z" fill="white" stroke="#F1B104" stroke-width="0.792407" stroke-miterlimit="10"/>
<path d="M94.9171 36.5742H90.4955C89.7617 36.5742 89.1669 37.1691 89.1669 37.9028V66.1601C89.1669 66.8938 89.7617 67.4887 90.4955 67.4887H94.9171C95.6509 67.4887 96.2457 66.8938 96.2457 66.1601V37.9028C96.2457 37.1691 95.6509 36.5742 94.9171 36.5742Z" fill="#F1B104"/>
<path d="M87.928 29.0674H86.7341C86.0499 29.0674 85.4953 29.622 85.4953 30.3062V66.2498C85.4953 66.9339 86.0499 67.4886 86.7341 67.4886H87.928C88.6122 67.4886 89.1668 66.9339 89.1668 66.2498V30.3062C89.1668 29.622 88.6122 29.0674 87.928 29.0674Z" fill="#D6EAF2"/>
<path d="M83.8736 38.8115H80.6934C79.9435 38.8115 79.3357 39.4194 79.3357 40.1692V65.7375C79.3357 66.4873 79.9435 67.0952 80.6934 67.0952H83.8736C84.6234 67.0952 85.2312 66.4873 85.2312 65.7375V40.1692C85.2312 39.4194 84.6234 38.8115 83.8736 38.8115Z" fill="white" stroke="#F1B104" stroke-width="0.792407" stroke-miterlimit="10"/>
<path d="M68.3714 67.4883H63.2261L76.0974 33.0001C76.1472 32.8662 76.2365 32.7505 76.3534 32.6684C76.4704 32.5864 76.6096 32.5417 76.7525 32.5405H80.4028C80.517 32.5425 80.6291 32.5719 80.7296 32.6263C80.8301 32.6806 80.916 32.7583 80.9802 32.8528C81.0444 32.9473 81.085 33.0558 81.0985 33.1692C81.112 33.2827 81.0981 33.3977 81.0579 33.5046L68.3714 67.4883Z" fill="#F1B104"/>
<path d="M110.948 67.4888H23.3469V73.2681H110.948V67.4888Z" fill="white" stroke="#F1B104" stroke-width="0.792407" stroke-miterlimit="10"/>
<path d="M32.2008 54.6743H54.3116V57.1017C54.3116 59.8569 53.2171 62.4993 51.2689 64.4475C49.3206 66.3957 46.6783 67.4902 43.9231 67.4902H42.5866C39.8314 67.4902 37.189 66.3957 35.2408 64.4475C33.2926 62.4993 32.1981 59.8569 32.1981 57.1017V54.6743H32.2008Z" fill="#F1B104"/>
<path d="M52.0928 54.6753H35.7164C35.7164 54.6753 30.9276 58.5818 28.1911 55.3779C26.2101 53.0588 35.6899 52.9531 35.6899 52.9531L35.9752 52.8554C35.9752 52.8554 31.9075 44.3185 35.7507 42.8948C38.4053 41.9069 39.0471 49.1416 39.1845 51.4898C40.5817 50.9061 43.3103 50.0635 43.5427 52.2822C43.5427 52.2822 43.8465 43.1457 47.6738 44.0174C50.8434 44.7438 46.1365 53.3308 46.1365 53.3308L46.4693 53.5316C46.4693 53.5316 55.2122 47.1448 57.357 48.6292C58.9788 49.7518 52.0928 54.6753 52.0928 54.6753Z" fill="#A1CBE2"/>
<path d="M38.223 54.6746C38.223 54.6746 38.3921 46.798 41.3583 47.0146C44.3246 47.2312 40.1908 54.6746 40.1908 54.6746H38.223Z" fill="#D6EAF2"/>
<path d="M38.2231 54.6745C38.2231 54.6745 35.2489 47.2417 31.2182 49.1461C27.2799 50.9951 35.7508 54.6745 35.7508 54.6745H38.2231Z" fill="#D6EAF2"/>
<path d="M44.3377 54.6752C44.3377 54.6752 47.016 47.9793 51.2422 48.6159C55.4684 49.2525 46.0123 54.6752 46.0123 54.6752H44.3377Z" fill="#D6EAF2"/>
<path d="M48.6907 54.6752C48.6907 54.6752 56.974 50.5045 58.4637 53.0191C59.9534 55.5337 48.6907 54.6752 48.6907 54.6752Z" fill="#D6EAF2"/>
</svg>
