<svg width="393" height="244" viewBox="0 0 393 244" fill="none" xmlns="http://www.w3.org/2000/svg">
<g clip-path="url(#clip0_62_3321)">
<path d="M223.828 9.63232V196.586C223.828 198.226 231.786 199.552 241.603 199.552C251.42 199.552 259.377 198.221 259.377 196.586V9.63232C259.377 11.2729 251.42 12.5987 241.603 12.5987C231.786 12.5987 223.828 11.2729 223.828 9.63232Z" fill="white" stroke="#CBE1FD" stroke-width="0.774013" stroke-miterlimit="10"/>
<path d="M259.313 9.63232V196.586C259.313 198.226 267.272 199.552 277.089 199.552C286.906 199.552 294.863 198.221 294.863 196.586V9.63232C294.863 11.2729 286.905 12.5987 277.089 12.5987C267.273 12.5987 259.313 11.2729 259.313 9.63232Z" fill="white" stroke="#CBE1FD" stroke-width="0.774013" stroke-miterlimit="10"/>
<path d="M188.274 9.63232V196.586C188.274 198.226 196.232 199.552 206.049 199.552C215.866 199.552 223.823 198.221 223.823 196.586V9.63232C223.823 11.2729 215.866 12.5987 206.049 12.5987C196.232 12.5987 188.274 11.2729 188.274 9.63232Z" fill="white" stroke="#CBE1FD" stroke-width="0.774013" stroke-miterlimit="10"/>
<path d="M152.73 9.63232V196.586C152.73 198.226 160.688 199.552 170.505 199.552C180.322 199.552 188.274 198.231 188.274 196.586V9.63232C188.274 11.2729 180.316 12.5987 170.5 12.5987C160.684 12.5987 152.73 11.2729 152.73 9.63232Z" fill="white" stroke="#CBE1FD" stroke-width="0.774013" stroke-miterlimit="10"/>
<path d="M117.179 9.63232V196.586C117.179 198.226 125.139 199.552 134.956 199.552C144.773 199.552 152.73 198.221 152.73 196.586V9.63232C152.73 11.2729 144.771 12.5987 134.956 12.5987C125.14 12.5987 117.179 11.2729 117.179 9.63232Z" fill="white" stroke="#CBE1FD" stroke-width="0.774013" stroke-miterlimit="10"/>
<path d="M98.6713 3.04443H307.123C307.98 3.04443 308.675 3.73909 308.675 4.59599V4.59728C308.675 5.45419 307.98 6.14884 307.123 6.14884H98.6713C97.8142 6.14884 97.1194 5.45419 97.1194 4.59728V4.59599C97.1194 3.73909 97.8142 3.04443 98.6713 3.04443Z" stroke="#EFAF00" stroke-width="0.645011" stroke-miterlimit="10"/>
<path d="M256.583 5.53097C256.583 8.56186 257.81 10.9363 259.377 10.9363C260.761 10.9363 261.889 9.09969 262.126 6.5202H261.502C261.289 8.67794 260.386 10.3159 259.377 10.3159C258.199 10.3159 257.203 8.12335 257.203 5.53226C257.203 2.94117 258.193 0.747319 259.377 0.747319C260.032 0.747319 260.681 1.4786 261.097 2.64711H261.751C261.248 1.06202 260.372 0.126953 259.377 0.126953C257.806 0.126953 256.583 2.50137 256.583 5.53097Z" fill="#EFAF00"/>
<path d="M291.855 5.53097C291.855 8.56186 293.083 10.9363 294.65 10.9363C296.033 10.9363 297.16 9.09969 297.398 6.5202H296.773C296.561 8.67794 295.659 10.3159 294.65 10.3159C293.471 10.3159 292.476 8.12335 292.476 5.53226C292.476 2.94117 293.471 0.747319 294.65 0.747319C295.304 0.747319 295.954 1.4786 296.368 2.64711H297.022C296.521 1.06202 295.645 0.126953 294.65 0.126953C293.083 0.126953 291.855 2.50137 291.855 5.53097Z" fill="#EFAF00"/>
<path d="M223.828 0.126953C224.846 0.126953 225.72 1.12908 226.209 2.66259H225.555C225.155 1.50827 224.523 0.747319 223.83 0.747319C222.653 0.747319 221.657 2.93988 221.657 5.53097C221.657 8.12206 222.65 10.3159 223.828 10.3159C224.86 10.3159 225.741 8.65602 225.953 6.51504H226.578C226.346 9.06228 225.221 10.9376 223.828 10.9376C222.262 10.9376 221.034 8.56315 221.034 5.53226C221.034 2.50137 222.262 0.126953 223.828 0.126953Z" fill="#EFAF00"/>
<path d="M188.274 0.126953C189.294 0.126953 190.171 1.13553 190.658 2.67677H190.004C189.604 1.51601 188.972 0.74216 188.274 0.74216C187.096 0.74216 186.1 2.93472 186.1 5.52581C186.1 8.1169 187.101 10.3159 188.274 10.3159C189.298 10.3159 190.185 8.65989 190.398 6.52149H191.021C190.788 9.06486 189.666 10.9376 188.274 10.9376C186.706 10.9376 185.479 8.56315 185.479 5.53226C185.479 2.50137 186.711 0.126953 188.274 0.126953Z" fill="#EFAF00"/>
<path d="M152.73 0.126953C153.747 0.126953 154.622 1.12908 155.11 2.66259H154.454C154.054 1.50827 153.422 0.747319 152.73 0.747319C151.551 0.747319 150.556 2.93988 150.556 5.53097C150.556 8.12206 151.551 10.3159 152.73 10.3159C153.762 10.3159 154.644 8.65215 154.856 6.5086H155.479C155.249 9.05842 154.124 10.9376 152.73 10.9376C151.162 10.9376 149.934 8.56315 149.934 5.53226C149.934 2.50137 151.162 0.126953 152.73 0.126953Z" fill="#EFAF00"/>
<path d="M117.179 0.126953C118.197 0.126953 119.073 1.12908 119.561 2.66259H118.905C118.504 1.50827 117.873 0.747319 117.179 0.747319C116.002 0.747319 115.007 2.93988 115.007 5.53097C115.007 8.12206 116.002 10.3159 117.179 10.3159C118.204 10.3159 119.09 8.65989 119.305 6.52149H119.928C119.695 9.06486 118.571 10.9376 117.179 10.9376C115.612 10.9376 114.385 8.56315 114.385 5.53226C114.385 2.50137 115.612 0.126953 117.179 0.126953Z" fill="#EFAF00"/>
<path d="M289.824 147.662H219.502C215.739 147.662 212.13 149.157 209.468 151.817C206.807 154.478 205.312 158.087 205.312 161.849V194.609H304.01V161.849C304.01 158.087 302.516 154.479 299.856 151.819C297.195 149.158 293.587 147.663 289.824 147.662V147.662Z" stroke="#6562CE" stroke-width="0.774013" stroke-miterlimit="10"/>
<path d="M304.315 167.903H205.316" stroke="#6562CE" stroke-width="0.774013" stroke-miterlimit="10"/>
<path d="M248.55 195.595H264.661L302.259 122.179L301.549 121.817C299.619 120.826 297.478 120.316 295.308 120.331H295.271C292.795 120.35 290.372 121.047 288.266 122.346C286.159 123.646 284.449 125.498 283.322 127.702L248.55 195.595Z" fill="white" stroke="#88BED7" stroke-width="0.645011" stroke-miterlimit="10"/>
<path d="M161.139 194.477H247.184L281.956 126.58C283.083 124.377 284.793 122.524 286.9 121.225C289.006 119.926 291.429 119.229 293.904 119.21H207.86C205.384 119.229 202.961 119.926 200.854 121.225C198.747 122.524 197.037 124.376 195.909 126.58L161.139 194.477Z" fill="#E4EFFD"/>
<path d="M83.3767 194.204V194.477H263.295L263.364 194.342L300.892 121.062L300.183 120.7C298.253 119.708 296.112 119.197 293.942 119.21H293.904C291.429 119.229 289.006 119.925 286.9 121.225C284.793 122.524 283.083 124.376 281.956 126.58L254.092 180.98C252.553 180.422 250.929 180.137 249.293 180.139H97.4444C93.7134 180.139 90.1353 181.621 87.4971 184.258C84.8588 186.896 83.3767 190.473 83.3767 194.204Z" fill="#CBE1FD"/>
<path d="M119.773 207.578V224.12C119.773 225.044 119.406 225.93 118.753 226.583C118.1 227.236 117.214 227.603 116.29 227.603V227.603C114.197 227.603 112.19 228.434 110.71 229.914C109.231 231.394 108.399 233.401 108.399 235.493V236.254" stroke="#6562CE" stroke-width="0.774013" stroke-miterlimit="10"/>
<path d="M118.18 243.301C114.698 243.301 111.876 240.479 111.876 236.998C111.876 233.517 114.698 230.695 118.18 230.695C121.662 230.695 124.485 233.517 124.485 236.998C124.485 240.479 121.662 243.301 118.18 243.301Z" fill="#E4EFFD"/>
<path d="M116.814 242.06C113.332 242.06 110.51 239.238 110.51 235.757C110.51 232.276 113.332 229.454 116.814 229.454C120.296 229.454 123.118 232.276 123.118 235.757C123.118 239.238 120.296 242.06 116.814 242.06Z" stroke="#6562CE" stroke-width="0.774013" stroke-miterlimit="10"/>
<path d="M15.1785 207.578V224.12C15.1785 225.044 14.8115 225.93 14.1583 226.583C13.5051 227.236 12.6192 227.603 11.6954 227.603V227.603C10.6588 227.602 9.6324 227.806 8.67464 228.202C7.71688 228.599 6.84659 229.18 6.11345 229.912C5.38032 230.645 4.79871 231.515 4.40184 232.472C4.00497 233.43 3.80062 234.456 3.80045 235.492V236.253" stroke="#6562CE" stroke-width="0.774013" stroke-miterlimit="10"/>
<path d="M13.579 243.301C10.0972 243.301 7.27463 240.479 7.27463 236.998C7.27463 233.517 10.0972 230.695 13.579 230.695C17.0608 230.695 19.8833 233.517 19.8833 236.998C19.8833 240.479 17.0608 243.301 13.579 243.301Z" fill="#E4EFFD"/>
<path d="M12.2127 242.06C8.73095 242.06 5.90842 239.238 5.90842 235.757C5.90842 232.276 8.73095 229.454 12.2127 229.454C15.6945 229.454 18.5171 232.276 18.5171 235.757C18.5171 239.238 15.6945 242.06 12.2127 242.06Z" stroke="#6562CE" stroke-width="0.774013" stroke-miterlimit="10"/>
<path d="M119.78 217.714H15.1784" stroke="#6562CE" stroke-width="0.774013" stroke-miterlimit="10"/>
<path d="M298.158 207.578V224.12C298.158 225.044 298.525 225.93 299.178 226.583C299.831 227.236 300.717 227.603 301.641 227.603V227.603C302.677 227.602 303.704 227.806 304.661 228.202C305.619 228.599 306.49 229.18 307.223 229.912C307.956 230.645 308.537 231.515 308.934 232.472C309.331 233.43 309.535 234.456 309.536 235.492V236.253" stroke="#6562CE" stroke-width="0.774013" stroke-miterlimit="10"/>
<path d="M302.49 243.301C299.008 243.301 296.185 240.479 296.185 236.998C296.185 233.517 299.008 230.695 302.49 230.695C305.971 230.695 308.794 233.517 308.794 236.998C308.794 240.479 305.971 243.301 302.49 243.301Z" fill="#E4EFFD"/>
<path d="M301.124 242.06C297.642 242.06 294.819 239.238 294.819 235.757C294.819 232.276 297.642 229.454 301.124 229.454C304.605 229.454 307.428 232.276 307.428 235.757C307.428 239.238 304.605 242.06 301.124 242.06Z" stroke="#6562CE" stroke-width="0.774013" stroke-miterlimit="10"/>
<path d="M210.57 207.578V224.12C210.57 225.044 210.937 225.93 211.591 226.583C212.244 227.236 213.13 227.603 214.053 227.603V227.603C216.146 227.603 218.153 228.435 219.632 229.914C221.112 231.394 221.943 233.4 221.943 235.492V236.253" stroke="#6562CE" stroke-width="0.774013" stroke-miterlimit="10"/>
<path d="M214.904 243.301C211.422 243.301 208.599 240.479 208.599 236.998C208.599 233.517 211.422 230.695 214.904 230.695C218.385 230.695 221.208 233.517 221.208 236.998C221.208 240.479 218.385 243.301 214.904 243.301Z" fill="#E4EFFD"/>
<path d="M213.537 242.06C210.056 242.06 207.233 239.238 207.233 235.757C207.233 232.276 210.056 229.454 213.537 229.454C217.019 229.454 219.842 232.276 219.842 235.757C219.842 239.238 217.019 242.06 213.537 242.06Z" stroke="#6562CE" stroke-width="0.774013" stroke-miterlimit="10"/>
<path d="M210.57 217.714H298.158" stroke="#6562CE" stroke-width="0.774013" stroke-miterlimit="10"/>
<path d="M234.585 131.719C239.219 133.419 247.256 136.749 250.346 140.959C253.435 145.168 256.774 158.874 256.774 158.874C256.774 158.874 251.585 164.807 234.714 164.068C234.714 164.068 225.874 180.138 204.363 180.138C204.363 180.138 196.143 163.672 179.483 159.919C179.483 159.919 183.75 161.624 190.018 159.326C194.222 157.786 195.463 153.068 195.463 153.068C195.463 153.068 190.605 149.412 189.4 145.531C189.4 145.531 199.043 133.665 203.617 132.43C208.192 131.194 218.445 130.839 218.445 130.839L234.585 131.719Z" fill="white"/>
<path d="M231.679 136.44C231.239 136.44 230.882 136.083 230.882 135.643C230.882 135.203 231.239 134.846 231.679 134.846C232.119 134.846 232.476 135.203 232.476 135.643C232.476 136.083 232.119 136.44 231.679 136.44Z" fill="#E4EFFD"/>
<path d="M228.136 136.256C227.696 136.256 227.339 135.899 227.339 135.459C227.339 135.019 227.696 134.662 228.136 134.662C228.577 134.662 228.934 135.019 228.934 135.459C228.934 135.899 228.577 136.256 228.136 136.256Z" fill="#E4EFFD"/>
<path d="M224.595 136.072C224.155 136.072 223.798 135.715 223.798 135.275C223.798 134.835 224.155 134.478 224.595 134.478C225.036 134.478 225.393 134.835 225.393 135.275C225.393 135.715 225.036 136.072 224.595 136.072Z" fill="#E4EFFD"/>
<path d="M221.054 135.889C220.614 135.889 220.257 135.532 220.257 135.092C220.257 134.652 220.614 134.295 221.054 134.295C221.495 134.295 221.851 134.652 221.851 135.092C221.851 135.532 221.495 135.889 221.054 135.889Z" fill="#E4EFFD"/>
<path d="M217.513 135.704C217.073 135.704 216.716 135.347 216.716 134.907C216.716 134.467 217.073 134.11 217.513 134.11C217.953 134.11 218.31 134.467 218.31 134.907C218.31 135.347 217.953 135.704 217.513 135.704Z" fill="#E4EFFD"/>
<path d="M213.972 135.522C213.532 135.522 213.175 135.165 213.175 134.725C213.175 134.285 213.532 133.928 213.972 133.928C214.412 133.928 214.769 134.285 214.769 134.725C214.769 135.165 214.412 135.522 213.972 135.522Z" fill="#E4EFFD"/>
<path d="M210.431 135.337C209.991 135.337 209.634 134.98 209.634 134.54C209.634 134.1 209.991 133.743 210.431 133.743C210.871 133.743 211.228 134.1 211.228 134.54C211.228 134.98 210.871 135.337 210.431 135.337Z" fill="#E4EFFD"/>
<path d="M206.888 135.154C206.448 135.154 206.091 134.797 206.091 134.357C206.091 133.916 206.448 133.56 206.888 133.56C207.329 133.56 207.686 133.916 207.686 134.357C207.686 134.797 207.329 135.154 206.888 135.154Z" fill="#E4EFFD"/>
<path d="M203.347 134.97C202.907 134.97 202.55 134.613 202.55 134.173C202.55 133.733 202.907 133.376 203.347 133.376C203.788 133.376 204.145 133.733 204.145 134.173C204.145 134.613 203.788 134.97 203.347 134.97Z" fill="#E4EFFD"/>
<path d="M235.22 136.624C234.78 136.624 234.423 136.267 234.423 135.827C234.423 135.387 234.78 135.03 235.22 135.03C235.66 135.03 236.017 135.387 236.017 135.827C236.017 136.267 235.66 136.624 235.22 136.624Z" fill="#E4EFFD"/>
<path d="M238.761 136.807C238.321 136.807 237.964 136.451 237.964 136.01C237.964 135.57 238.321 135.213 238.761 135.213C239.201 135.213 239.558 135.57 239.558 136.01C239.558 136.451 239.201 136.807 238.761 136.807Z" fill="#E4EFFD"/>
<path d="M241.962 137.112C241.521 137.112 241.164 136.755 241.164 136.315C241.164 135.875 241.521 135.518 241.962 135.518C242.402 135.518 242.759 135.875 242.759 136.315C242.759 136.755 242.402 137.112 241.962 137.112Z" fill="#E4EFFD"/>
<path d="M229.997 134.342C229.556 134.342 229.199 133.985 229.199 133.545C229.199 133.104 229.556 132.748 229.997 132.748C230.437 132.748 230.794 133.104 230.794 133.545C230.794 133.985 230.437 134.342 229.997 134.342Z" fill="#E4EFFD"/>
<path d="M226.456 134.157C226.015 134.157 225.658 133.8 225.658 133.36C225.658 132.919 226.015 132.562 226.456 132.562C226.896 132.562 227.253 132.919 227.253 133.36C227.253 133.8 226.896 134.157 226.456 134.157Z" fill="#E4EFFD"/>
<path d="M222.914 133.974C222.474 133.974 222.117 133.618 222.117 133.177C222.117 132.737 222.474 132.38 222.914 132.38C223.355 132.38 223.712 132.737 223.712 133.177C223.712 133.618 223.355 133.974 222.914 133.974Z" fill="#E4EFFD"/>
<path d="M219.373 133.789C218.933 133.789 218.576 133.433 218.576 132.992C218.576 132.552 218.933 132.195 219.373 132.195C219.814 132.195 220.171 132.552 220.171 132.992C220.171 133.433 219.814 133.789 219.373 133.789Z" fill="#E4EFFD"/>
<path d="M215.831 133.606C215.391 133.606 215.034 133.249 215.034 132.809C215.034 132.369 215.391 132.012 215.831 132.012C216.271 132.012 216.628 132.369 216.628 132.809C216.628 133.249 216.271 133.606 215.831 133.606Z" fill="#E4EFFD"/>
<path d="M212.29 133.422C211.85 133.422 211.493 133.065 211.493 132.625C211.493 132.185 211.85 131.828 212.29 131.828C212.73 131.828 213.087 132.185 213.087 132.625C213.087 133.065 212.73 133.422 212.29 133.422Z" fill="#E4EFFD"/>
<path d="M208.749 133.239C208.308 133.239 207.951 132.882 207.951 132.442C207.951 132.001 208.308 131.645 208.749 131.645C209.189 131.645 209.546 132.001 209.546 132.442C209.546 132.882 209.189 133.239 208.749 133.239Z" fill="#E4EFFD"/>
<path d="M204.412 132.234C204.408 132.353 204.431 132.471 204.48 132.58C204.528 132.689 204.601 132.786 204.691 132.863C204.782 132.94 204.889 132.996 205.004 133.026C205.12 133.057 205.24 133.061 205.357 133.038C205.474 133.016 205.585 132.968 205.681 132.897C205.776 132.826 205.855 132.734 205.911 132.629C205.967 132.524 205.998 132.407 206.003 132.288C206.007 132.169 205.985 132.05 205.938 131.941C205.397 132.031 204.884 132.128 204.412 132.234Z" fill="#E4EFFD"/>
<path d="M233.538 134.524C233.098 134.524 232.741 134.167 232.741 133.727C232.741 133.287 233.098 132.93 233.538 132.93C233.978 132.93 234.335 133.287 234.335 133.727C234.335 134.167 233.978 134.524 233.538 134.524Z" fill="#E4EFFD"/>
<path d="M237.079 134.709C236.639 134.709 236.282 134.352 236.282 133.912C236.282 133.472 236.639 133.115 237.079 133.115C237.519 133.115 237.876 133.472 237.876 133.912C237.876 134.352 237.519 134.709 237.079 134.709Z" fill="#E4EFFD"/>
<path d="M230.919 141.435C230.479 141.435 230.122 141.078 230.122 140.638C230.122 140.198 230.479 139.841 230.919 139.841C231.359 139.841 231.716 140.198 231.716 140.638C231.716 141.078 231.359 141.435 230.919 141.435Z" fill="#E4EFFD"/>
<path d="M227.378 141.251C226.938 141.251 226.581 140.894 226.581 140.454C226.581 140.014 226.938 139.657 227.378 139.657C227.818 139.657 228.175 140.014 228.175 140.454C228.175 140.894 227.818 141.251 227.378 141.251Z" fill="#E4EFFD"/>
<path d="M223.837 141.067C223.397 141.067 223.04 140.71 223.04 140.27C223.04 139.83 223.397 139.473 223.837 139.473C224.277 139.473 224.634 139.83 224.634 140.27C224.634 140.71 224.277 141.067 223.837 141.067Z" fill="#E4EFFD"/>
<path d="M220.294 140.883C219.854 140.883 219.497 140.526 219.497 140.086C219.497 139.646 219.854 139.289 220.294 139.289C220.735 139.289 221.092 139.646 221.092 140.086C221.092 140.526 220.735 140.883 220.294 140.883Z" fill="#E4EFFD"/>
<path d="M216.753 140.7C216.313 140.7 215.956 140.343 215.956 139.903C215.956 139.463 216.313 139.106 216.753 139.106C217.194 139.106 217.551 139.463 217.551 139.903C217.551 140.343 217.194 140.7 216.753 140.7Z" fill="#E4EFFD"/>
<path d="M213.212 140.516C212.772 140.516 212.415 140.159 212.415 139.718C212.415 139.278 212.772 138.921 213.212 138.921C213.652 138.921 214.009 139.278 214.009 139.718C214.009 140.159 213.652 140.516 213.212 140.516Z" fill="#E4EFFD"/>
<path d="M209.671 140.332C209.231 140.332 208.874 139.976 208.874 139.535C208.874 139.095 209.231 138.738 209.671 138.738C210.111 138.738 210.468 139.095 210.468 139.535C210.468 139.976 210.111 140.332 209.671 140.332Z" fill="#E4EFFD"/>
<path d="M206.13 140.148C205.69 140.148 205.333 139.791 205.333 139.351C205.333 138.911 205.69 138.554 206.13 138.554C206.57 138.554 206.927 138.911 206.927 139.351C206.927 139.791 206.57 140.148 206.13 140.148Z" fill="#E4EFFD"/>
<path d="M202.588 139.965C202.147 139.965 201.79 139.608 201.79 139.168C201.79 138.727 202.147 138.371 202.588 138.371C203.028 138.371 203.385 138.727 203.385 139.168C203.385 139.608 203.028 139.965 202.588 139.965Z" fill="#E4EFFD"/>
<path d="M234.46 141.618C234.02 141.618 233.663 141.261 233.663 140.821C233.663 140.381 234.02 140.024 234.46 140.024C234.9 140.024 235.257 140.381 235.257 140.821C235.257 141.261 234.9 141.618 234.46 141.618Z" fill="#E4EFFD"/>
<path d="M238.001 141.803C237.561 141.803 237.204 141.446 237.204 141.006C237.204 140.565 237.561 140.208 238.001 140.208C238.442 140.208 238.798 140.565 238.798 141.006C238.798 141.446 238.442 141.803 238.001 141.803Z" fill="#E4EFFD"/>
<path d="M241.202 142.107C240.761 142.107 240.405 141.75 240.405 141.31C240.405 140.87 240.761 140.513 241.202 140.513C241.642 140.513 241.999 140.87 241.999 141.31C241.999 141.75 241.642 142.107 241.202 142.107Z" fill="#E4EFFD"/>
<path d="M195.149 139.064C195.209 139.173 195.294 139.265 195.396 139.335C195.498 139.405 195.615 139.45 195.737 139.467C195.86 139.484 195.985 139.472 196.102 139.432C196.219 139.392 196.325 139.325 196.412 139.237C196.499 139.149 196.564 139.042 196.602 138.924C196.641 138.807 196.651 138.682 196.632 138.559C196.614 138.437 196.567 138.321 196.496 138.22C196.424 138.119 196.33 138.035 196.221 137.977C195.859 138.337 195.498 138.701 195.149 139.064Z" fill="#E4EFFD"/>
<path d="M199.387 139.659C198.947 139.659 198.59 139.302 198.59 138.862C198.59 138.421 198.947 138.064 199.387 138.064C199.827 138.064 200.184 138.421 200.184 138.862C200.184 139.302 199.827 139.659 199.387 139.659Z" fill="#E4EFFD"/>
<path d="M248.373 142.414C247.933 142.414 247.576 142.057 247.576 141.617C247.576 141.177 247.933 140.82 248.373 140.82C248.813 140.82 249.17 141.177 249.17 141.617C249.17 142.057 248.813 142.414 248.373 142.414Z" fill="#E4EFFD"/>
<path d="M244.831 142.229C244.39 142.229 244.033 141.872 244.033 141.432C244.033 140.992 244.39 140.635 244.831 140.635C245.271 140.635 245.628 140.992 245.628 141.432C245.628 141.872 245.271 142.229 244.831 142.229Z" fill="#E4EFFD"/>
<path d="M229.237 138.964C228.797 138.964 228.44 138.607 228.44 138.167C228.44 137.726 228.797 137.37 229.237 137.37C229.677 137.37 230.034 137.726 230.034 138.167C230.034 138.607 229.677 138.964 229.237 138.964Z" fill="#E4EFFD"/>
<path d="M225.696 138.78C225.255 138.78 224.898 138.423 224.898 137.983C224.898 137.542 225.255 137.186 225.696 137.186C226.136 137.186 226.493 137.542 226.493 137.983C226.493 138.423 226.136 138.78 225.696 138.78Z" fill="#E4EFFD"/>
<path d="M222.155 138.596C221.714 138.596 221.357 138.239 221.357 137.799C221.357 137.359 221.714 137.002 222.155 137.002C222.595 137.002 222.952 137.359 222.952 137.799C222.952 138.239 222.595 138.596 222.155 138.596Z" fill="#E4EFFD"/>
<path d="M218.614 138.412C218.173 138.412 217.816 138.056 217.816 137.615C217.816 137.175 218.173 136.818 218.614 136.818C219.054 136.818 219.411 137.175 219.411 137.615C219.411 138.056 219.054 138.412 218.614 138.412Z" fill="#E4EFFD"/>
<path d="M215.072 138.229C214.632 138.229 214.275 137.872 214.275 137.432C214.275 136.992 214.632 136.635 215.072 136.635C215.513 136.635 215.87 136.992 215.87 137.432C215.87 137.872 215.513 138.229 215.072 138.229Z" fill="#E4EFFD"/>
<path d="M211.53 138.044C211.09 138.044 210.733 137.687 210.733 137.247C210.733 136.807 211.09 136.45 211.53 136.45C211.97 136.45 212.327 136.807 212.327 137.247C212.327 137.687 211.97 138.044 211.53 138.044Z" fill="#E4EFFD"/>
<path d="M207.989 137.861C207.549 137.861 207.192 137.504 207.192 137.064C207.192 136.624 207.549 136.267 207.989 136.267C208.429 136.267 208.786 136.624 208.786 137.064C208.786 137.504 208.429 137.861 207.989 137.861Z" fill="#E4EFFD"/>
<path d="M204.448 137.677C204.007 137.677 203.65 137.32 203.65 136.88C203.65 136.439 204.007 136.083 204.448 136.083C204.888 136.083 205.245 136.439 205.245 136.88C205.245 137.32 204.888 137.677 204.448 137.677Z" fill="#E4EFFD"/>
<path d="M200.907 137.494C200.466 137.494 200.109 137.137 200.109 136.696C200.109 136.256 200.466 135.899 200.907 135.899C201.347 135.899 201.704 136.256 201.704 136.696C201.704 137.137 201.347 137.494 200.907 137.494Z" fill="#E4EFFD"/>
<path d="M232.779 139.147C232.339 139.147 231.982 138.79 231.982 138.35C231.982 137.91 232.339 137.553 232.779 137.553C233.219 137.553 233.576 137.91 233.576 138.35C233.576 138.79 233.219 139.147 232.779 139.147Z" fill="#E4EFFD"/>
<path d="M236.32 139.331C235.88 139.331 235.523 138.975 235.523 138.534C235.523 138.094 235.88 137.737 236.32 137.737C236.761 137.737 237.118 138.094 237.118 138.534C237.118 138.975 236.761 139.331 236.32 139.331Z" fill="#E4EFFD"/>
<path d="M246.986 139.903C246.546 139.903 246.189 139.546 246.189 139.106C246.189 138.665 246.546 138.309 246.986 138.309C247.427 138.309 247.784 138.665 247.784 139.106C247.784 139.546 247.427 139.903 246.986 139.903Z" fill="#E4EFFD"/>
<path d="M243.445 139.719C243.005 139.719 242.648 139.362 242.648 138.922C242.648 138.482 243.005 138.125 243.445 138.125C243.885 138.125 244.242 138.482 244.242 138.922C244.242 139.362 243.885 139.719 243.445 139.719Z" fill="#E4EFFD"/>
<path d="M239.904 139.535C239.464 139.535 239.107 139.178 239.107 138.738C239.107 138.298 239.464 137.941 239.904 137.941C240.344 137.941 240.701 138.298 240.701 138.738C240.701 139.178 240.344 139.535 239.904 139.535Z" fill="#E4EFFD"/>
<path d="M223.219 146.031C222.779 146.031 222.422 145.674 222.422 145.234C222.422 144.793 222.779 144.437 223.219 144.437C223.659 144.437 224.016 144.793 224.016 145.234C224.016 145.674 223.659 146.031 223.219 146.031Z" fill="#E4EFFD"/>
<path d="M219.676 145.846C219.236 145.846 218.879 145.489 218.879 145.049C218.879 144.609 219.236 144.252 219.676 144.252C220.117 144.252 220.474 144.609 220.474 145.049C220.474 145.489 220.117 145.846 219.676 145.846Z" fill="#E4EFFD"/>
<path d="M216.135 145.663C215.695 145.663 215.338 145.306 215.338 144.866C215.338 144.426 215.695 144.069 216.135 144.069C216.576 144.069 216.933 144.426 216.933 144.866C216.933 145.306 216.576 145.663 216.135 145.663Z" fill="#E4EFFD"/>
<path d="M212.594 145.478C212.154 145.478 211.797 145.122 211.797 144.681C211.797 144.241 212.154 143.884 212.594 143.884C213.035 143.884 213.391 144.241 213.391 144.681C213.391 145.122 213.035 145.478 212.594 145.478Z" fill="#E4EFFD"/>
<path d="M209.053 145.295C208.613 145.295 208.256 144.938 208.256 144.498C208.256 144.058 208.613 143.701 209.053 143.701C209.493 143.701 209.85 144.058 209.85 144.498C209.85 144.938 209.493 145.295 209.053 145.295Z" fill="#E4EFFD"/>
<path d="M205.512 145.111C205.072 145.111 204.715 144.754 204.715 144.314C204.715 143.873 205.072 143.517 205.512 143.517C205.952 143.517 206.309 143.873 206.309 144.314C206.309 144.754 205.952 145.111 205.512 145.111Z" fill="#E4EFFD"/>
<path d="M201.97 144.928C201.529 144.928 201.172 144.571 201.172 144.131C201.172 143.69 201.529 143.333 201.97 143.333C202.41 143.333 202.767 143.69 202.767 144.131C202.767 144.571 202.41 144.928 201.97 144.928Z" fill="#E4EFFD"/>
<path d="M198.429 144.743C197.988 144.743 197.631 144.386 197.631 143.946C197.631 143.506 197.988 143.149 198.429 143.149C198.869 143.149 199.226 143.506 199.226 143.946C199.226 144.386 198.869 144.743 198.429 144.743Z" fill="#E4EFFD"/>
<path d="M194.887 144.56C194.447 144.56 194.09 144.203 194.09 143.763C194.09 143.323 194.447 142.966 194.887 142.966C195.328 142.966 195.685 143.323 195.685 143.763C195.685 144.203 195.328 144.56 194.887 144.56Z" fill="#E4EFFD"/>
<path d="M226.76 146.214C226.32 146.214 225.963 145.857 225.963 145.417C225.963 144.976 226.32 144.62 226.76 144.62C227.2 144.62 227.557 144.976 227.557 145.417C227.557 145.857 227.2 146.214 226.76 146.214Z" fill="#E4EFFD"/>
<path d="M230.301 146.398C229.861 146.398 229.504 146.041 229.504 145.601C229.504 145.161 229.861 144.804 230.301 144.804C230.741 144.804 231.098 145.161 231.098 145.601C231.098 146.041 230.741 146.398 230.301 146.398Z" fill="#E4EFFD"/>
<path d="M233.502 146.703C233.061 146.703 232.704 146.346 232.704 145.905C232.704 145.465 233.061 145.108 233.502 145.108C233.942 145.108 234.299 145.465 234.299 145.905C234.299 146.346 233.942 146.703 233.502 146.703Z" fill="#E4EFFD"/>
<path d="M190.931 143.703C190.972 143.831 191.044 143.946 191.142 144.038C191.24 144.13 191.359 144.196 191.489 144.229C191.591 144.255 191.697 144.261 191.801 144.246C191.904 144.231 192.004 144.196 192.095 144.142C192.185 144.089 192.264 144.018 192.326 143.934C192.389 143.85 192.435 143.754 192.461 143.653C192.487 143.551 192.492 143.445 192.477 143.342C192.462 143.238 192.427 143.138 192.374 143.048C192.32 142.958 192.249 142.879 192.165 142.816C192.081 142.753 191.986 142.707 191.884 142.682L191.827 142.67C191.498 143.044 191.2 143.388 190.931 143.703Z" fill="#E4EFFD"/>
<path d="M251.296 147.56C250.856 147.56 250.499 147.203 250.499 146.763C250.499 146.323 250.856 145.966 251.296 145.966C251.736 145.966 252.093 146.323 252.093 146.763C252.093 147.203 251.736 147.56 251.296 147.56Z" fill="#E4EFFD"/>
<path d="M247.755 147.377C247.315 147.377 246.958 147.02 246.958 146.58C246.958 146.14 247.315 145.783 247.755 145.783C248.195 145.783 248.552 146.14 248.552 146.58C248.552 147.02 248.195 147.377 247.755 147.377Z" fill="#E4EFFD"/>
<path d="M244.213 147.193C243.772 147.193 243.415 146.836 243.415 146.396C243.415 145.955 243.772 145.599 244.213 145.599C244.653 145.599 245.01 145.955 245.01 146.396C245.01 146.836 244.653 147.193 244.213 147.193Z" fill="#E4EFFD"/>
<path d="M240.672 147.009C240.231 147.009 239.874 146.652 239.874 146.212C239.874 145.772 240.231 145.415 240.672 145.415C241.112 145.415 241.469 145.772 241.469 146.212C241.469 146.652 241.112 147.009 240.672 147.009Z" fill="#E4EFFD"/>
<path d="M237.131 146.825C236.69 146.825 236.333 146.468 236.333 146.028C236.333 145.588 236.69 145.231 237.131 145.231C237.571 145.231 237.928 145.588 237.928 146.028C237.928 146.468 237.571 146.825 237.131 146.825Z" fill="#E4EFFD"/>
<path d="M221.537 143.559C221.096 143.559 220.74 143.202 220.74 142.762C220.74 142.322 221.096 141.965 221.537 141.965C221.977 141.965 222.334 142.322 222.334 142.762C222.334 143.202 221.977 143.559 221.537 143.559Z" fill="#E4EFFD"/>
<path d="M217.995 143.375C217.555 143.375 217.198 143.018 217.198 142.578C217.198 142.138 217.555 141.781 217.995 141.781C218.436 141.781 218.793 142.138 218.793 142.578C218.793 143.018 218.436 143.375 217.995 143.375Z" fill="#E4EFFD"/>
<path d="M214.454 143.192C214.014 143.192 213.657 142.835 213.657 142.395C213.657 141.955 214.014 141.598 214.454 141.598C214.895 141.598 215.252 141.955 215.252 142.395C215.252 142.835 214.895 143.192 214.454 143.192Z" fill="#E4EFFD"/>
<path d="M210.912 143.007C210.472 143.007 210.115 142.65 210.115 142.21C210.115 141.769 210.472 141.413 210.912 141.413C211.352 141.413 211.709 141.769 211.709 142.21C211.709 142.65 211.352 143.007 210.912 143.007Z" fill="#E4EFFD"/>
<path d="M207.371 142.824C206.931 142.824 206.574 142.467 206.574 142.027C206.574 141.587 206.931 141.23 207.371 141.23C207.811 141.23 208.168 141.587 208.168 142.027C208.168 142.467 207.811 142.824 207.371 142.824Z" fill="#E4EFFD"/>
<path d="M203.83 142.64C203.39 142.64 203.033 142.283 203.033 141.842C203.033 141.402 203.39 141.045 203.83 141.045C204.27 141.045 204.627 141.402 204.627 141.842C204.627 142.283 204.27 142.64 203.83 142.64Z" fill="#E4EFFD"/>
<path d="M200.289 142.456C199.849 142.456 199.492 142.099 199.492 141.659C199.492 141.219 199.849 140.862 200.289 140.862C200.729 140.862 201.086 141.219 201.086 141.659C201.086 142.099 200.729 142.456 200.289 142.456Z" fill="#E4EFFD"/>
<path d="M196.748 142.272C196.307 142.272 195.95 141.915 195.95 141.475C195.95 141.035 196.307 140.678 196.748 140.678C197.188 140.678 197.545 141.035 197.545 141.475C197.545 141.915 197.188 142.272 196.748 142.272Z" fill="#E4EFFD"/>
<path d="M192.6 141.806C192.705 141.933 192.848 142.023 193.008 142.064C193.187 142.106 193.375 142.086 193.541 142.005C193.706 141.925 193.839 141.79 193.916 141.623C193.993 141.455 194.01 141.267 193.964 141.089C193.918 140.91 193.812 140.754 193.663 140.645C193.293 141.038 192.936 141.429 192.6 141.806Z" fill="#E4EFFD"/>
<path d="M225.078 143.742C224.638 143.742 224.281 143.385 224.281 142.945C224.281 142.505 224.638 142.148 225.078 142.148C225.518 142.148 225.875 142.505 225.875 142.945C225.875 143.385 225.518 143.742 225.078 143.742Z" fill="#E4EFFD"/>
<path d="M228.619 143.927C228.179 143.927 227.822 143.57 227.822 143.13C227.822 142.69 228.179 142.333 228.619 142.333C229.059 142.333 229.416 142.69 229.416 143.13C229.416 143.57 229.059 143.927 228.619 143.927Z" fill="#E4EFFD"/>
<path d="M249.911 145.05C249.47 145.05 249.114 144.693 249.114 144.253C249.114 143.813 249.47 143.456 249.911 143.456C250.351 143.456 250.708 143.813 250.708 144.253C250.708 144.693 250.351 145.05 249.911 145.05Z" fill="#E4EFFD"/>
<path d="M246.368 144.865C245.928 144.865 245.571 144.508 245.571 144.068C245.571 143.628 245.928 143.271 246.368 143.271C246.809 143.271 247.166 143.628 247.166 144.068C247.166 144.508 246.809 144.865 246.368 144.865Z" fill="#E4EFFD"/>
<path d="M242.827 144.682C242.387 144.682 242.03 144.325 242.03 143.885C242.03 143.445 242.387 143.088 242.827 143.088C243.267 143.088 243.624 143.445 243.624 143.885C243.624 144.325 243.267 144.682 242.827 144.682Z" fill="#E4EFFD"/>
<path d="M239.286 144.498C238.846 144.498 238.489 144.141 238.489 143.701C238.489 143.261 238.846 142.904 239.286 142.904C239.727 142.904 240.083 143.261 240.083 143.701C240.083 144.141 239.727 144.498 239.286 144.498Z" fill="#E4EFFD"/>
<path d="M235.745 144.314C235.305 144.314 234.948 143.957 234.948 143.517C234.948 143.077 235.305 142.72 235.745 142.72C236.185 142.72 236.542 143.077 236.542 143.517C236.542 143.957 236.185 144.314 235.745 144.314Z" fill="#E4EFFD"/>
<path d="M232.204 144.131C231.763 144.131 231.407 143.774 231.407 143.334C231.407 142.893 231.763 142.537 232.204 142.537C232.644 142.537 233.001 142.893 233.001 143.334C233.001 143.774 232.644 144.131 232.204 144.131Z" fill="#E4EFFD"/>
<path d="M222.392 151.059C221.952 151.059 221.595 150.702 221.595 150.262C221.595 149.822 221.952 149.465 222.392 149.465C222.832 149.465 223.189 149.822 223.189 150.262C223.189 150.702 222.832 151.059 222.392 151.059Z" fill="#E4EFFD"/>
<path d="M218.851 150.874C218.411 150.874 218.054 150.518 218.054 150.077C218.054 149.637 218.411 149.28 218.851 149.28C219.291 149.28 219.648 149.637 219.648 150.077C219.648 150.518 219.291 150.874 218.851 150.874Z" fill="#E4EFFD"/>
<path d="M215.31 150.691C214.87 150.691 214.513 150.334 214.513 149.894C214.513 149.454 214.87 149.097 215.31 149.097C215.75 149.097 216.107 149.454 216.107 149.894C216.107 150.334 215.75 150.691 215.31 150.691Z" fill="#E4EFFD"/>
<path d="M211.768 150.507C211.328 150.507 210.971 150.15 210.971 149.71C210.971 149.269 211.328 148.913 211.768 148.913C212.209 148.913 212.566 149.269 212.566 149.71C212.566 150.15 212.209 150.507 211.768 150.507Z" fill="#E4EFFD"/>
<path d="M208.228 150.324C207.787 150.324 207.43 149.967 207.43 149.527C207.43 149.086 207.787 148.729 208.228 148.729C208.668 148.729 209.025 149.086 209.025 149.527C209.025 149.967 208.668 150.324 208.228 150.324Z" fill="#E4EFFD"/>
<path d="M204.685 150.139C204.245 150.139 203.888 149.782 203.888 149.342C203.888 148.902 204.245 148.545 204.685 148.545C205.125 148.545 205.482 148.902 205.482 149.342C205.482 149.782 205.125 150.139 204.685 150.139Z" fill="#E4EFFD"/>
<path d="M201.144 149.956C200.704 149.956 200.347 149.599 200.347 149.159C200.347 148.719 200.704 148.362 201.144 148.362C201.584 148.362 201.941 148.719 201.941 149.159C201.941 149.599 201.584 149.956 201.144 149.956Z" fill="#E4EFFD"/>
<path d="M197.603 149.772C197.163 149.772 196.806 149.415 196.806 148.975C196.806 148.535 197.163 148.178 197.603 148.178C198.043 148.178 198.4 148.535 198.4 148.975C198.4 149.415 198.043 149.772 197.603 149.772Z" fill="#E4EFFD"/>
<path d="M194.062 149.589C193.622 149.589 193.265 149.232 193.265 148.792C193.265 148.351 193.622 147.995 194.062 147.995C194.502 147.995 194.859 148.351 194.859 148.792C194.859 149.232 194.502 149.589 194.062 149.589Z" fill="#E4EFFD"/>
<path d="M225.934 151.242C225.494 151.242 225.137 150.885 225.137 150.445C225.137 150.005 225.494 149.648 225.934 149.648C226.375 149.648 226.732 150.005 226.732 150.445C226.732 150.885 226.375 151.242 225.934 151.242Z" fill="#E4EFFD"/>
<path d="M229.475 151.427C229.035 151.427 228.678 151.07 228.678 150.63C228.678 150.189 229.035 149.833 229.475 149.833C229.916 149.833 230.273 150.189 230.273 150.63C230.273 151.07 229.916 151.427 229.475 151.427Z" fill="#E4EFFD"/>
<path d="M232.676 151.731C232.236 151.731 231.879 151.374 231.879 150.934C231.879 150.494 232.236 150.137 232.676 150.137C233.116 150.137 233.473 150.494 233.473 150.934C233.473 151.374 233.116 151.731 232.676 151.731Z" fill="#E4EFFD"/>
<path d="M190.474 147.79C190.759 148.235 191.066 148.666 191.394 149.079C191.501 148.983 191.58 148.859 191.622 148.722C191.664 148.584 191.668 148.437 191.634 148.298C191.599 148.158 191.528 148.03 191.426 147.928C191.325 147.825 191.198 147.752 191.059 147.716C190.862 147.665 190.653 147.692 190.474 147.79Z" fill="#E4EFFD"/>
<path d="M254.012 152.773C253.571 152.773 253.214 152.416 253.214 151.976C253.214 151.536 253.571 151.179 254.012 151.179C254.452 151.179 254.809 151.536 254.809 151.976C254.809 152.416 254.452 152.773 254.012 152.773Z" fill="#E4EFFD"/>
<path d="M250.471 152.589C250.03 152.589 249.673 152.232 249.673 151.792C249.673 151.351 250.03 150.995 250.471 150.995C250.911 150.995 251.268 151.351 251.268 151.792C251.268 152.232 250.911 152.589 250.471 152.589Z" fill="#E4EFFD"/>
<path d="M246.928 152.406C246.488 152.406 246.131 152.049 246.131 151.609C246.131 151.169 246.488 150.812 246.928 150.812C247.369 150.812 247.725 151.169 247.725 151.609C247.725 152.049 247.369 152.406 246.928 152.406Z" fill="#E4EFFD"/>
<path d="M243.387 152.221C242.947 152.221 242.59 151.864 242.59 151.424C242.59 150.984 242.947 150.627 243.387 150.627C243.827 150.627 244.184 150.984 244.184 151.424C244.184 151.864 243.827 152.221 243.387 152.221Z" fill="#E4EFFD"/>
<path d="M239.846 152.038C239.406 152.038 239.049 151.681 239.049 151.241C239.049 150.801 239.406 150.444 239.846 150.444C240.286 150.444 240.643 150.801 240.643 151.241C240.643 151.681 240.286 152.038 239.846 152.038Z" fill="#E4EFFD"/>
<path d="M236.305 151.854C235.865 151.854 235.508 151.497 235.508 151.057C235.508 150.617 235.865 150.26 236.305 150.26C236.745 150.26 237.102 150.617 237.102 151.057C237.102 151.497 236.745 151.854 236.305 151.854Z" fill="#E4EFFD"/>
<path d="M220.711 148.588C220.271 148.588 219.914 148.231 219.914 147.791C219.914 147.351 220.271 146.994 220.711 146.994C221.151 146.994 221.508 147.351 221.508 147.791C221.508 148.231 221.151 148.588 220.711 148.588Z" fill="#E4EFFD"/>
<path d="M217.17 148.403C216.73 148.403 216.373 148.046 216.373 147.606C216.373 147.166 216.73 146.809 217.17 146.809C217.61 146.809 217.967 147.166 217.967 147.606C217.967 148.046 217.61 148.403 217.17 148.403Z" fill="#E4EFFD"/>
<path d="M213.627 148.22C213.187 148.22 212.83 147.863 212.83 147.423C212.83 146.983 213.187 146.626 213.627 146.626C214.068 146.626 214.425 146.983 214.425 147.423C214.425 147.863 214.068 148.22 213.627 148.22Z" fill="#E4EFFD"/>
<path d="M210.086 148.036C209.646 148.036 209.289 147.679 209.289 147.238C209.289 146.798 209.646 146.441 210.086 146.441C210.527 146.441 210.884 146.798 210.884 147.238C210.884 147.679 210.527 148.036 210.086 148.036Z" fill="#E4EFFD"/>
<path d="M206.545 147.853C206.105 147.853 205.748 147.496 205.748 147.056C205.748 146.616 206.105 146.259 206.545 146.259C206.986 146.259 207.343 146.616 207.343 147.056C207.343 147.496 206.986 147.853 206.545 147.853Z" fill="#E4EFFD"/>
<path d="M203.004 147.668C202.564 147.668 202.207 147.311 202.207 146.871C202.207 146.431 202.564 146.074 203.004 146.074C203.445 146.074 203.802 146.431 203.802 146.871C203.802 147.311 203.445 147.668 203.004 147.668Z" fill="#E4EFFD"/>
<path d="M199.463 147.485C199.023 147.485 198.666 147.128 198.666 146.688C198.666 146.247 199.023 145.891 199.463 145.891C199.903 145.891 200.26 146.247 200.26 146.688C200.26 147.128 199.903 147.485 199.463 147.485Z" fill="#E4EFFD"/>
<path d="M195.921 147.301C195.48 147.301 195.124 146.944 195.124 146.504C195.124 146.064 195.48 145.707 195.921 145.707C196.361 145.707 196.718 146.064 196.718 146.504C196.718 146.944 196.361 147.301 195.921 147.301Z" fill="#E4EFFD"/>
<path d="M192.38 147.118C191.939 147.118 191.582 146.761 191.582 146.321C191.582 145.88 191.939 145.523 192.38 145.523C192.82 145.523 193.177 145.88 193.177 146.321C193.177 146.761 192.82 147.118 192.38 147.118Z" fill="#E4EFFD"/>
<path d="M224.252 148.771C223.812 148.771 223.455 148.414 223.455 147.974C223.455 147.534 223.812 147.177 224.252 147.177C224.692 147.177 225.049 147.534 225.049 147.974C225.049 148.414 224.692 148.771 224.252 148.771Z" fill="#E4EFFD"/>
<path d="M227.793 148.955C227.353 148.955 226.996 148.598 226.996 148.158C226.996 147.718 227.353 147.361 227.793 147.361C228.234 147.361 228.591 147.718 228.591 148.158C228.591 148.598 228.234 148.955 227.793 148.955Z" fill="#E4EFFD"/>
<path d="M252.625 150.262C252.185 150.262 251.828 149.905 251.828 149.465C251.828 149.024 252.185 148.667 252.625 148.667C253.065 148.667 253.422 149.024 253.422 149.465C253.422 149.905 253.065 150.262 252.625 150.262Z" fill="#E4EFFD"/>
<path d="M249.084 150.079C248.643 150.079 248.287 149.722 248.287 149.282C248.287 148.842 248.643 148.485 249.084 148.485C249.524 148.485 249.881 148.842 249.881 149.282C249.881 149.722 249.524 150.079 249.084 150.079Z" fill="#E4EFFD"/>
<path d="M245.543 149.894C245.102 149.894 244.746 149.538 244.746 149.097C244.746 148.657 245.102 148.3 245.543 148.3C245.983 148.3 246.34 148.657 246.34 149.097C246.34 149.538 245.983 149.894 245.543 149.894Z" fill="#E4EFFD"/>
<path d="M242.002 149.711C241.561 149.711 241.204 149.354 241.204 148.914C241.204 148.474 241.561 148.117 242.002 148.117C242.442 148.117 242.799 148.474 242.799 148.914C242.799 149.354 242.442 149.711 242.002 149.711Z" fill="#E4EFFD"/>
<path d="M238.461 149.527C238.02 149.527 237.663 149.17 237.663 148.73C237.663 148.29 238.02 147.933 238.461 147.933C238.901 147.933 239.258 148.29 239.258 148.73C239.258 149.17 238.901 149.527 238.461 149.527Z" fill="#E4EFFD"/>
<path d="M234.919 149.344C234.479 149.344 234.122 148.987 234.122 148.547C234.122 148.106 234.479 147.75 234.919 147.75C235.36 147.75 235.717 148.106 235.717 148.547C235.717 148.987 235.36 149.344 234.919 149.344Z" fill="#E4EFFD"/>
<path d="M231.377 149.16C230.937 149.16 230.58 148.803 230.58 148.362C230.58 147.922 230.937 147.565 231.377 147.565C231.817 147.565 232.174 147.922 232.174 148.362C232.174 148.803 231.817 149.16 231.377 149.16Z" fill="#E4EFFD"/>
<path d="M225.614 156.223C225.174 156.223 224.817 155.866 224.817 155.426C224.817 154.986 225.174 154.629 225.614 154.629C226.055 154.629 226.412 154.986 226.412 155.426C226.412 155.866 226.055 156.223 225.614 156.223Z" fill="#E4EFFD"/>
<path d="M222.073 156.04C221.633 156.04 221.276 155.683 221.276 155.243C221.276 154.803 221.633 154.446 222.073 154.446C222.514 154.446 222.87 154.803 222.87 155.243C222.87 155.683 222.514 156.04 222.073 156.04Z" fill="#E4EFFD"/>
<path d="M218.532 155.855C218.092 155.855 217.735 155.499 217.735 155.058C217.735 154.618 218.092 154.261 218.532 154.261C218.973 154.261 219.33 154.618 219.33 155.058C219.33 155.499 218.973 155.855 218.532 155.855Z" fill="#E4EFFD"/>
<path d="M214.991 155.672C214.551 155.672 214.194 155.315 214.194 154.875C214.194 154.434 214.551 154.078 214.991 154.078C215.431 154.078 215.788 154.434 215.788 154.875C215.788 155.315 215.431 155.672 214.991 155.672Z" fill="#E4EFFD"/>
<path d="M211.45 155.488C211.01 155.488 210.653 155.131 210.653 154.691C210.653 154.251 211.01 153.894 211.45 153.894C211.89 153.894 212.247 154.251 212.247 154.691C212.247 155.131 211.89 155.488 211.45 155.488Z" fill="#E4EFFD"/>
<path d="M207.908 155.305C207.467 155.305 207.11 154.948 207.11 154.508C207.11 154.067 207.467 153.71 207.908 153.71C208.348 153.71 208.705 154.067 208.705 154.508C208.705 154.948 208.348 155.305 207.908 155.305Z" fill="#E4EFFD"/>
<path d="M204.366 155.12C203.926 155.12 203.569 154.764 203.569 154.323C203.569 153.883 203.926 153.526 204.366 153.526C204.807 153.526 205.164 153.883 205.164 154.323C205.164 154.764 204.807 155.12 204.366 155.12Z" fill="#E4EFFD"/>
<path d="M200.825 154.937C200.385 154.937 200.028 154.58 200.028 154.14C200.028 153.7 200.385 153.343 200.825 153.343C201.266 153.343 201.623 153.7 201.623 154.14C201.623 154.58 201.266 154.937 200.825 154.937Z" fill="#E4EFFD"/>
<path d="M197.284 154.753C196.844 154.753 196.487 154.396 196.487 153.956C196.487 153.516 196.844 153.159 197.284 153.159C197.725 153.159 198.082 153.516 198.082 153.956C198.082 154.396 197.725 154.753 197.284 154.753Z" fill="#E4EFFD"/>
<path d="M229.157 156.408C228.717 156.408 228.36 156.051 228.36 155.611C228.36 155.17 228.717 154.813 229.157 154.813C229.597 154.813 229.954 155.17 229.954 155.611C229.954 156.051 229.597 156.408 229.157 156.408Z" fill="#E4EFFD"/>
<path d="M232.698 156.591C232.258 156.591 231.901 156.234 231.901 155.794C231.901 155.353 232.258 154.997 232.698 154.997C233.138 154.997 233.495 155.353 233.495 155.794C233.495 156.234 233.138 156.591 232.698 156.591Z" fill="#E4EFFD"/>
<path d="M235.899 156.895C235.458 156.895 235.101 156.539 235.101 156.098C235.101 155.658 235.458 155.301 235.899 155.301C236.339 155.301 236.696 155.658 236.696 156.098C236.696 156.539 236.339 156.895 235.899 156.895Z" fill="#E4EFFD"/>
<path d="M253.693 157.753C253.253 157.753 252.896 157.396 252.896 156.956C252.896 156.516 253.253 156.159 253.693 156.159C254.133 156.159 254.49 156.516 254.49 156.956C254.49 157.396 254.133 157.753 253.693 157.753Z" fill="#E4EFFD"/>
<path d="M250.151 157.57C249.71 157.57 249.354 157.213 249.354 156.773C249.354 156.332 249.71 155.976 250.151 155.976C250.591 155.976 250.948 156.332 250.948 156.773C250.948 157.213 250.591 157.57 250.151 157.57Z" fill="#E4EFFD"/>
<path d="M246.61 157.385C246.169 157.385 245.812 157.028 245.812 156.588C245.812 156.148 246.169 155.791 246.61 155.791C247.05 155.791 247.407 156.148 247.407 156.588C247.407 157.028 247.05 157.385 246.61 157.385Z" fill="#E4EFFD"/>
<path d="M243.068 157.202C242.628 157.202 242.271 156.845 242.271 156.405C242.271 155.965 242.628 155.608 243.068 155.608C243.509 155.608 243.866 155.965 243.866 156.405C243.866 156.845 243.509 157.202 243.068 157.202Z" fill="#E4EFFD"/>
<path d="M239.527 157.017C239.087 157.017 238.73 156.661 238.73 156.22C238.73 155.78 239.087 155.423 239.527 155.423C239.968 155.423 240.325 155.78 240.325 156.22C240.325 156.661 239.968 157.017 239.527 157.017Z" fill="#E4EFFD"/>
<path d="M223.933 153.752C223.493 153.752 223.136 153.395 223.136 152.955C223.136 152.515 223.493 152.158 223.933 152.158C224.374 152.158 224.731 152.515 224.731 152.955C224.731 153.395 224.374 153.752 223.933 153.752Z" fill="#E4EFFD"/>
<path d="M220.392 153.568C219.952 153.568 219.595 153.211 219.595 152.771C219.595 152.33 219.952 151.974 220.392 151.974C220.833 151.974 221.19 152.33 221.19 152.771C221.19 153.211 220.833 153.568 220.392 153.568Z" fill="#E4EFFD"/>
<path d="M216.85 153.384C216.41 153.384 216.053 153.027 216.053 152.587C216.053 152.147 216.41 151.79 216.85 151.79C217.29 151.79 217.647 152.147 217.647 152.587C217.647 153.027 217.29 153.384 216.85 153.384Z" fill="#E4EFFD"/>
<path d="M213.309 153.2C212.869 153.2 212.512 152.843 212.512 152.403C212.512 151.963 212.869 151.606 213.309 151.606C213.749 151.606 214.106 151.963 214.106 152.403C214.106 152.843 213.749 153.2 213.309 153.2Z" fill="#E4EFFD"/>
<path d="M209.768 153.017C209.327 153.017 208.971 152.66 208.971 152.22C208.971 151.78 209.327 151.423 209.768 151.423C210.208 151.423 210.565 151.78 210.565 152.22C210.565 152.66 210.208 153.017 209.768 153.017Z" fill="#E4EFFD"/>
<path d="M206.227 152.832C205.786 152.832 205.429 152.476 205.429 152.035C205.429 151.595 205.786 151.238 206.227 151.238C206.667 151.238 207.024 151.595 207.024 152.035C207.024 152.476 206.667 152.832 206.227 152.832Z" fill="#E4EFFD"/>
<path d="M202.686 152.649C202.245 152.649 201.888 152.292 201.888 151.852C201.888 151.412 202.245 151.055 202.686 151.055C203.126 151.055 203.483 151.412 203.483 151.852C203.483 152.292 203.126 152.649 202.686 152.649Z" fill="#E4EFFD"/>
<path d="M199.143 152.465C198.703 152.465 198.346 152.108 198.346 151.668C198.346 151.228 198.703 150.871 199.143 150.871C199.584 150.871 199.94 151.228 199.94 151.668C199.94 152.108 199.584 152.465 199.143 152.465Z" fill="#E4EFFD"/>
<path d="M195.602 152.282C195.162 152.282 194.805 151.925 194.805 151.485C194.805 151.044 195.162 150.688 195.602 150.688C196.042 150.688 196.399 151.044 196.399 151.485C196.399 151.925 196.042 152.282 195.602 152.282Z" fill="#E4EFFD"/>
<path d="M227.475 153.935C227.034 153.935 226.677 153.578 226.677 153.138C226.677 152.698 227.034 152.341 227.475 152.341C227.915 152.341 228.272 152.698 228.272 153.138C228.272 153.578 227.915 153.935 227.475 153.935Z" fill="#E4EFFD"/>
<path d="M231.016 154.12C230.575 154.12 230.219 153.763 230.219 153.322C230.219 152.882 230.575 152.525 231.016 152.525C231.456 152.525 231.813 152.882 231.813 153.322C231.813 153.763 231.456 154.12 231.016 154.12Z" fill="#E4EFFD"/>
<path d="M255.806 155.425H255.863C255.734 154.962 255.595 154.465 255.444 153.944C255.296 154.031 255.181 154.163 255.114 154.321C255.047 154.478 255.033 154.653 255.074 154.819C255.115 154.986 255.208 155.134 255.34 155.243C255.472 155.352 255.635 155.416 255.806 155.425Z" fill="#E4EFFD"/>
<path d="M252.306 155.243C251.866 155.243 251.509 154.886 251.509 154.446C251.509 154.006 251.866 153.649 252.306 153.649C252.747 153.649 253.104 154.006 253.104 154.446C253.104 154.886 252.747 155.243 252.306 155.243Z" fill="#E4EFFD"/>
<path d="M248.765 155.06C248.325 155.06 247.968 154.703 247.968 154.263C247.968 153.823 248.325 153.466 248.765 153.466C249.205 153.466 249.562 153.823 249.562 154.263C249.562 154.703 249.205 155.06 248.765 155.06Z" fill="#E4EFFD"/>
<path d="M245.224 154.876C244.784 154.876 244.427 154.519 244.427 154.079C244.427 153.639 244.784 153.282 245.224 153.282C245.664 153.282 246.021 153.639 246.021 154.079C246.021 154.519 245.664 154.876 245.224 154.876Z" fill="#E4EFFD"/>
<path d="M241.683 154.692C241.243 154.692 240.886 154.335 240.886 153.895C240.886 153.455 241.243 153.098 241.683 153.098C242.123 153.098 242.48 153.455 242.48 153.895C242.48 154.335 242.123 154.692 241.683 154.692Z" fill="#E4EFFD"/>
<path d="M238.142 154.508C237.702 154.508 237.345 154.151 237.345 153.711C237.345 153.27 237.702 152.914 238.142 152.914C238.582 152.914 238.939 153.27 238.939 153.711C238.939 154.151 238.582 154.508 238.142 154.508Z" fill="#E4EFFD"/>
<path d="M234.599 154.325C234.159 154.325 233.802 153.968 233.802 153.528C233.802 153.088 234.159 152.731 234.599 152.731C235.04 152.731 235.397 153.088 235.397 153.528C235.397 153.968 235.04 154.325 234.599 154.325Z" fill="#E4EFFD"/>
<path d="M225.006 161.387C224.565 161.387 224.208 161.03 224.208 160.59C224.208 160.15 224.565 159.793 225.006 159.793C225.446 159.793 225.803 160.15 225.803 160.59C225.803 161.03 225.446 161.387 225.006 161.387Z" fill="#E4EFFD"/>
<path d="M221.463 161.204C221.023 161.204 220.666 160.847 220.666 160.407C220.666 159.967 221.023 159.61 221.463 159.61C221.904 159.61 222.26 159.967 222.26 160.407C222.26 160.847 221.904 161.204 221.463 161.204Z" fill="#E4EFFD"/>
<path d="M217.922 161.019C217.482 161.019 217.125 160.663 217.125 160.222C217.125 159.782 217.482 159.425 217.922 159.425C218.362 159.425 218.719 159.782 218.719 160.222C218.719 160.663 218.362 161.019 217.922 161.019Z" fill="#E4EFFD"/>
<path d="M214.381 160.837C213.941 160.837 213.584 160.48 213.584 160.04C213.584 159.6 213.941 159.243 214.381 159.243C214.821 159.243 215.178 159.6 215.178 160.04C215.178 160.48 214.821 160.837 214.381 160.837Z" fill="#E4EFFD"/>
<path d="M210.84 160.652C210.4 160.652 210.043 160.295 210.043 159.855C210.043 159.415 210.4 159.058 210.84 159.058C211.28 159.058 211.637 159.415 211.637 159.855C211.637 160.295 211.28 160.652 210.84 160.652Z" fill="#E4EFFD"/>
<path d="M207.299 160.469C206.858 160.469 206.501 160.112 206.501 159.672C206.501 159.231 206.858 158.875 207.299 158.875C207.739 158.875 208.096 159.231 208.096 159.672C208.096 160.112 207.739 160.469 207.299 160.469Z" fill="#E4EFFD"/>
<path d="M203.758 160.285C203.317 160.285 202.96 159.928 202.96 159.487C202.96 159.047 203.317 158.69 203.758 158.69C204.198 158.69 204.555 159.047 204.555 159.487C204.555 159.928 204.198 160.285 203.758 160.285Z" fill="#E4EFFD"/>
<path d="M200.215 160.101C199.775 160.101 199.418 159.744 199.418 159.304C199.418 158.864 199.775 158.507 200.215 158.507C200.656 158.507 201.012 158.864 201.012 159.304C201.012 159.744 200.656 160.101 200.215 160.101Z" fill="#E4EFFD"/>
<path d="M196.674 159.917C196.234 159.917 195.877 159.56 195.877 159.12C195.877 158.68 196.234 158.323 196.674 158.323C197.114 158.323 197.471 158.68 197.471 159.12C197.471 159.56 197.114 159.917 196.674 159.917Z" fill="#E4EFFD"/>
<path d="M228.547 161.572C228.106 161.572 227.75 161.215 227.75 160.775C227.75 160.334 228.106 159.978 228.547 159.978C228.987 159.978 229.344 160.334 229.344 160.775C229.344 161.215 228.987 161.572 228.547 161.572Z" fill="#E4EFFD"/>
<path d="M232.088 161.755C231.647 161.755 231.291 161.398 231.291 160.958C231.291 160.518 231.647 160.161 232.088 160.161C232.528 160.161 232.885 160.518 232.885 160.958C232.885 161.398 232.528 161.755 232.088 161.755Z" fill="#E4EFFD"/>
<path d="M235.288 162.06C234.848 162.06 234.491 161.704 234.491 161.263C234.491 160.823 234.848 160.466 235.288 160.466C235.729 160.466 236.086 160.823 236.086 161.263C236.086 161.704 235.729 162.06 235.288 162.06Z" fill="#E4EFFD"/>
<path d="M193.474 159.612C193.033 159.612 192.676 159.255 192.676 158.815C192.676 158.375 193.033 158.018 193.474 158.018C193.914 158.018 194.271 158.375 194.271 158.815C194.271 159.255 193.914 159.612 193.474 159.612Z" fill="#E4EFFD"/>
<path d="M249.299 162.694C249.364 162.716 249.432 162.729 249.501 162.732C249.626 162.739 249.752 162.716 249.867 162.664C249.982 162.612 250.083 162.534 250.161 162.436C249.882 162.525 249.597 162.611 249.299 162.694Z" fill="#E4EFFD"/>
<path d="M248.746 161.896C248.736 162.071 248.786 162.245 248.886 162.389C248.985 162.533 249.131 162.641 249.298 162.694C249.596 162.611 249.881 162.525 250.16 162.436C250.266 162.306 250.327 162.146 250.334 161.978C250.339 161.874 250.324 161.769 250.289 161.671C250.254 161.572 250.2 161.481 250.13 161.404C250.06 161.326 249.975 161.263 249.881 161.218C249.787 161.173 249.684 161.147 249.58 161.142C249.475 161.136 249.371 161.151 249.272 161.186C249.174 161.221 249.083 161.275 249.005 161.345C248.928 161.415 248.865 161.5 248.82 161.594C248.775 161.689 248.749 161.791 248.743 161.896H248.746Z" fill="#E4EFFD"/>
<path d="M246.001 162.551C245.56 162.551 245.203 162.194 245.203 161.754C245.203 161.314 245.56 160.957 246.001 160.957C246.441 160.957 246.798 161.314 246.798 161.754C246.798 162.194 246.441 162.551 246.001 162.551Z" fill="#E4EFFD"/>
<path d="M242.458 162.367C242.018 162.367 241.661 162.01 241.661 161.57C241.661 161.129 242.018 160.772 242.458 160.772C242.899 160.772 243.255 161.129 243.255 161.57C243.255 162.01 242.899 162.367 242.458 162.367Z" fill="#E4EFFD"/>
<path d="M238.917 162.183C238.477 162.183 238.12 161.826 238.12 161.386C238.12 160.946 238.477 160.589 238.917 160.589C239.358 160.589 239.714 160.946 239.714 161.386C239.714 161.826 239.358 162.183 238.917 162.183Z" fill="#E4EFFD"/>
<path d="M223.323 158.916C222.883 158.916 222.526 158.559 222.526 158.119C222.526 157.679 222.883 157.322 223.323 157.322C223.764 157.322 224.121 157.679 224.121 158.119C224.121 158.559 223.764 158.916 223.323 158.916Z" fill="#E4EFFD"/>
<path d="M219.782 158.733C219.342 158.733 218.985 158.376 218.985 157.936C218.985 157.496 219.342 157.139 219.782 157.139C220.223 157.139 220.579 157.496 220.579 157.936C220.579 158.376 220.223 158.733 219.782 158.733Z" fill="#E4EFFD"/>
<path d="M216.241 158.548C215.801 158.548 215.444 158.191 215.444 157.751C215.444 157.311 215.801 156.954 216.241 156.954C216.682 156.954 217.038 157.311 217.038 157.751C217.038 158.191 216.682 158.548 216.241 158.548Z" fill="#E4EFFD"/>
<path d="M212.7 158.366C212.26 158.366 211.903 158.009 211.903 157.569C211.903 157.128 212.26 156.771 212.7 156.771C213.14 156.771 213.497 157.128 213.497 157.569C213.497 158.009 213.14 158.366 212.7 158.366Z" fill="#E4EFFD"/>
<path d="M209.158 158.181C208.717 158.181 208.36 157.824 208.36 157.383C208.36 156.943 208.717 156.586 209.158 156.586C209.598 156.586 209.955 156.943 209.955 157.383C209.955 157.824 209.598 158.181 209.158 158.181Z" fill="#E4EFFD"/>
<path d="M205.617 157.998C205.176 157.998 204.819 157.641 204.819 157.201C204.819 156.761 205.176 156.404 205.617 156.404C206.057 156.404 206.414 156.761 206.414 157.201C206.414 157.641 206.057 157.998 205.617 157.998Z" fill="#E4EFFD"/>
<path d="M202.075 157.813C201.635 157.813 201.278 157.456 201.278 157.016C201.278 156.576 201.635 156.219 202.075 156.219C202.516 156.219 202.873 156.576 202.873 157.016C202.873 157.456 202.516 157.813 202.075 157.813Z" fill="#E4EFFD"/>
<path d="M198.534 157.63C198.094 157.63 197.737 157.273 197.737 156.833C197.737 156.393 198.094 156.036 198.534 156.036C198.974 156.036 199.331 156.393 199.331 156.833C199.331 157.273 198.974 157.63 198.534 157.63Z" fill="#E4EFFD"/>
<path d="M194.993 157.446C194.553 157.446 194.196 157.089 194.196 156.649C194.196 156.209 194.553 155.852 194.993 155.852C195.434 155.852 195.791 156.209 195.791 156.649C195.791 157.089 195.434 157.446 194.993 157.446Z" fill="#E4EFFD"/>
<path d="M226.865 159.1C226.424 159.1 226.067 158.743 226.067 158.303C226.067 157.863 226.424 157.506 226.865 157.506C227.305 157.506 227.662 157.863 227.662 158.303C227.662 158.743 227.305 159.1 226.865 159.1Z" fill="#E4EFFD"/>
<path d="M230.406 159.284C229.965 159.284 229.608 158.927 229.608 158.487C229.608 158.046 229.965 157.689 230.406 157.689C230.846 157.689 231.203 158.046 231.203 158.487C231.203 158.927 230.846 159.284 230.406 159.284Z" fill="#E4EFFD"/>
<path d="M254.443 159.753C254.436 159.88 254.46 160.007 254.512 160.123C254.564 160.239 254.644 160.341 254.743 160.42C255.179 160.158 255.598 159.871 256 159.56C255.944 159.381 255.827 159.228 255.67 159.127C255.513 159.026 255.326 158.983 255.14 159.006C254.955 159.029 254.783 159.117 254.656 159.253C254.528 159.39 254.453 159.567 254.443 159.753Z" fill="#E4EFFD"/>
<path d="M251.697 160.407C251.257 160.407 250.9 160.05 250.9 159.61C250.9 159.17 251.257 158.813 251.697 158.813C252.138 158.813 252.495 159.17 252.495 159.61C252.495 160.05 252.138 160.407 251.697 160.407Z" fill="#E4EFFD"/>
<path d="M248.155 160.224C247.715 160.224 247.358 159.867 247.358 159.427C247.358 158.987 247.715 158.63 248.155 158.63C248.595 158.63 248.952 158.987 248.952 159.427C248.952 159.867 248.595 160.224 248.155 160.224Z" fill="#E4EFFD"/>
<path d="M244.614 160.039C244.174 160.039 243.817 159.683 243.817 159.242C243.817 158.802 244.174 158.445 244.614 158.445C245.054 158.445 245.411 158.802 245.411 159.242C245.411 159.683 245.054 160.039 244.614 160.039Z" fill="#E4EFFD"/>
<path d="M241.073 159.856C240.632 159.856 240.276 159.499 240.276 159.059C240.276 158.619 240.632 158.262 241.073 158.262C241.513 158.262 241.87 158.619 241.87 159.059C241.87 159.499 241.513 159.856 241.073 159.856Z" fill="#E4EFFD"/>
<path d="M237.532 159.672C237.091 159.672 236.734 159.315 236.734 158.875C236.734 158.435 237.091 158.078 237.532 158.078C237.972 158.078 238.329 158.435 238.329 158.875C238.329 159.315 237.972 159.672 237.532 159.672Z" fill="#E4EFFD"/>
<path d="M233.991 159.489C233.55 159.489 233.193 159.132 233.193 158.692C233.193 158.251 233.55 157.895 233.991 157.895C234.431 157.895 234.788 158.251 234.788 158.692C234.788 159.132 234.431 159.489 233.991 159.489Z" fill="#E4EFFD"/>
<path d="M217.527 166.057C217.087 166.057 216.73 165.7 216.73 165.259C216.73 164.819 217.087 164.462 217.527 164.462C217.968 164.462 218.325 164.819 218.325 165.259C218.325 165.7 217.968 166.057 217.527 166.057Z" fill="#E4EFFD"/>
<path d="M213.986 165.872C213.546 165.872 213.189 165.515 213.189 165.075C213.189 164.635 213.546 164.278 213.986 164.278C214.426 164.278 214.783 164.635 214.783 165.075C214.783 165.515 214.426 165.872 213.986 165.872Z" fill="#E4EFFD"/>
<path d="M210.445 165.688C210.005 165.688 209.648 165.332 209.648 164.891C209.648 164.451 210.005 164.094 210.445 164.094C210.885 164.094 211.242 164.451 211.242 164.891C211.242 165.332 210.885 165.688 210.445 165.688Z" fill="#E4EFFD"/>
<path d="M206.904 165.505C206.464 165.505 206.107 165.148 206.107 164.708C206.107 164.267 206.464 163.911 206.904 163.911C207.344 163.911 207.701 164.267 207.701 164.708C207.701 165.148 207.344 165.505 206.904 165.505Z" fill="#E4EFFD"/>
<path d="M203.363 165.321C202.923 165.321 202.566 164.964 202.566 164.524C202.566 164.084 202.923 163.727 203.363 163.727C203.803 163.727 204.16 164.084 204.16 164.524C204.16 164.964 203.803 165.321 203.363 165.321Z" fill="#E4EFFD"/>
<path d="M199.82 165.137C199.38 165.137 199.023 164.78 199.023 164.34C199.023 163.9 199.38 163.543 199.82 163.543C200.261 163.543 200.618 163.9 200.618 164.34C200.618 164.78 200.261 165.137 199.82 165.137Z" fill="#E4EFFD"/>
<path d="M196.279 164.953C195.839 164.953 195.482 164.597 195.482 164.156C195.482 163.716 195.839 163.359 196.279 163.359C196.72 163.359 197.077 163.716 197.077 164.156C197.077 164.597 196.72 164.953 196.279 164.953Z" fill="#E4EFFD"/>
<path d="M192.738 164.769C192.298 164.769 191.941 164.412 191.941 163.972C191.941 163.532 192.298 163.175 192.738 163.175C193.179 163.175 193.536 163.532 193.536 163.972C193.536 164.412 193.179 164.769 192.738 164.769Z" fill="#E4EFFD"/>
<path d="M221.07 166.239C220.629 166.239 220.272 165.882 220.272 165.442C220.272 165.002 220.629 164.645 221.07 164.645C221.51 164.645 221.867 165.002 221.867 165.442C221.867 165.882 221.51 166.239 221.07 166.239Z" fill="#E4EFFD"/>
<path d="M224.611 166.424C224.171 166.424 223.814 166.067 223.814 165.627C223.814 165.186 224.171 164.83 224.611 164.83C225.051 164.83 225.408 165.186 225.408 165.627C225.408 166.067 225.051 166.424 224.611 166.424Z" fill="#E4EFFD"/>
<path d="M227.811 166.728C227.371 166.728 227.014 166.371 227.014 165.931C227.014 165.491 227.371 165.134 227.811 165.134C228.252 165.134 228.609 165.491 228.609 165.931C228.609 166.371 228.252 166.728 227.811 166.728Z" fill="#E4EFFD"/>
<path d="M231.44 166.85C231 166.85 230.643 166.494 230.643 166.053C230.643 165.613 231 165.256 231.44 165.256C231.88 165.256 232.237 165.613 232.237 166.053C232.237 166.494 231.88 166.85 231.44 166.85Z" fill="#E4EFFD"/>
<path d="M215.846 163.584C215.406 163.584 215.049 163.227 215.049 162.787C215.049 162.347 215.406 161.99 215.846 161.99C216.287 161.99 216.644 162.347 216.644 162.787C216.644 163.227 216.287 163.584 215.846 163.584Z" fill="#E4EFFD"/>
<path d="M212.305 163.401C211.865 163.401 211.508 163.044 211.508 162.604C211.508 162.164 211.865 161.807 212.305 161.807C212.746 161.807 213.103 162.164 213.103 162.604C213.103 163.044 212.746 163.401 212.305 163.401Z" fill="#E4EFFD"/>
<path d="M208.763 163.216C208.323 163.216 207.966 162.859 207.966 162.419C207.966 161.979 208.323 161.622 208.763 161.622C209.203 161.622 209.56 161.979 209.56 162.419C209.56 162.859 209.203 163.216 208.763 163.216Z" fill="#E4EFFD"/>
<path d="M205.222 163.033C204.781 163.033 204.424 162.676 204.424 162.236C204.424 161.796 204.781 161.439 205.222 161.439C205.662 161.439 206.019 161.796 206.019 162.236C206.019 162.676 205.662 163.033 205.222 163.033Z" fill="#E4EFFD"/>
<path d="M201.681 162.849C201.24 162.849 200.883 162.492 200.883 162.051C200.883 161.611 201.24 161.254 201.681 161.254C202.121 161.254 202.478 161.611 202.478 162.051C202.478 162.492 202.121 162.849 201.681 162.849Z" fill="#E4EFFD"/>
<path d="M198.14 162.665C197.699 162.665 197.342 162.309 197.342 161.868C197.342 161.428 197.699 161.071 198.14 161.071C198.58 161.071 198.937 161.428 198.937 161.868C198.937 162.309 198.58 162.665 198.14 162.665Z" fill="#E4EFFD"/>
<path d="M194.599 162.481C194.158 162.481 193.801 162.124 193.801 161.684C193.801 161.244 194.158 160.887 194.599 160.887C195.039 160.887 195.396 161.244 195.396 161.684C195.396 162.124 195.039 162.481 194.599 162.481Z" fill="#E4EFFD"/>
<path d="M191.056 162.298C190.616 162.298 190.259 161.941 190.259 161.501C190.259 161.061 190.616 160.704 191.056 160.704C191.496 160.704 191.853 161.061 191.853 161.501C191.853 161.941 191.496 162.298 191.056 162.298Z" fill="#E4EFFD"/>
<path d="M219.388 163.768C218.947 163.768 218.59 163.412 218.59 162.971C218.59 162.531 218.947 162.174 219.388 162.174C219.828 162.174 220.185 162.531 220.185 162.971C220.185 163.412 219.828 163.768 219.388 163.768Z" fill="#E4EFFD"/>
<path d="M222.929 163.951C222.488 163.951 222.131 163.594 222.131 163.154C222.131 162.714 222.488 162.357 222.929 162.357C223.369 162.357 223.726 162.714 223.726 163.154C223.726 163.594 223.369 163.951 222.929 163.951Z" fill="#E4EFFD"/>
<path d="M239.874 164.087C240.42 164.064 240.95 164.034 241.462 163.998C241.437 163.801 241.339 163.62 241.188 163.491C241.036 163.363 240.842 163.295 240.644 163.302C240.445 163.309 240.256 163.39 240.114 163.529C239.972 163.668 239.887 163.855 239.876 164.053C239.875 164.064 239.874 164.076 239.874 164.087Z" fill="#E4EFFD"/>
<path d="M236.341 163.869C236.335 163.956 236.345 164.043 236.368 164.127C236.892 164.135 237.403 164.139 237.902 164.137C237.919 164.079 237.929 164.02 237.932 163.959C237.937 163.855 237.922 163.75 237.887 163.652C237.852 163.553 237.798 163.462 237.728 163.385C237.658 163.307 237.574 163.244 237.479 163.199C237.385 163.154 237.283 163.128 237.178 163.122C237.074 163.117 236.969 163.132 236.871 163.167C236.772 163.202 236.681 163.255 236.604 163.325C236.526 163.395 236.463 163.48 236.418 163.574C236.372 163.669 236.346 163.771 236.341 163.875V163.869Z" fill="#E4EFFD"/>
<path d="M233.596 164.524C233.156 164.524 232.799 164.167 232.799 163.727C232.799 163.287 233.156 162.93 233.596 162.93C234.036 162.93 234.393 163.287 234.393 163.727C234.393 164.167 234.036 164.524 233.596 164.524Z" fill="#E4EFFD"/>
<path d="M230.055 164.339C229.614 164.339 229.258 163.982 229.258 163.542C229.258 163.102 229.614 162.745 230.055 162.745C230.495 162.745 230.852 163.102 230.852 163.542C230.852 163.982 230.495 164.339 230.055 164.339Z" fill="#E4EFFD"/>
<path d="M226.512 164.156C226.072 164.156 225.715 163.799 225.715 163.359C225.715 162.919 226.072 162.562 226.512 162.562C226.953 162.562 227.31 162.919 227.31 163.359C227.31 163.799 226.953 164.156 226.512 164.156Z" fill="#E4EFFD"/>
<path d="M216.599 171.33C216.158 171.33 215.801 170.973 215.801 170.533C215.801 170.093 216.158 169.736 216.599 169.736C217.039 169.736 217.396 170.093 217.396 170.533C217.396 170.973 217.039 171.33 216.599 171.33Z" fill="#E4EFFD"/>
<path d="M213.057 171.145C212.617 171.145 212.26 170.789 212.26 170.348C212.26 169.908 212.617 169.551 213.057 169.551C213.498 169.551 213.855 169.908 213.855 170.348C213.855 170.789 213.498 171.145 213.057 171.145Z" fill="#E4EFFD"/>
<path d="M209.516 170.962C209.076 170.962 208.719 170.605 208.719 170.165C208.719 169.725 209.076 169.368 209.516 169.368C209.957 169.368 210.313 169.725 210.313 170.165C210.313 170.605 209.957 170.962 209.516 170.962Z" fill="#E4EFFD"/>
<path d="M205.975 170.778C205.535 170.778 205.178 170.421 205.178 169.981C205.178 169.541 205.535 169.184 205.975 169.184C206.416 169.184 206.772 169.541 206.772 169.981C206.772 170.421 206.416 170.778 205.975 170.778Z" fill="#E4EFFD"/>
<path d="M202.434 170.595C201.994 170.595 201.637 170.238 201.637 169.798C201.637 169.358 201.994 169.001 202.434 169.001C202.874 169.001 203.231 169.358 203.231 169.798C203.231 170.238 202.874 170.595 202.434 170.595Z" fill="#E4EFFD"/>
<path d="M198.893 170.41C198.453 170.41 198.096 170.053 198.096 169.613C198.096 169.173 198.453 168.816 198.893 168.816C199.333 168.816 199.69 169.173 199.69 169.613C199.69 170.053 199.333 170.41 198.893 170.41Z" fill="#E4EFFD"/>
<path d="M220.141 171.513C219.701 171.513 219.344 171.156 219.344 170.716C219.344 170.276 219.701 169.919 220.141 169.919C220.581 169.919 220.938 170.276 220.938 170.716C220.938 171.156 220.581 171.513 220.141 171.513Z" fill="#E4EFFD"/>
<path d="M223.682 171.697C223.242 171.697 222.885 171.34 222.885 170.9C222.885 170.46 223.242 170.103 223.682 170.103C224.122 170.103 224.479 170.46 224.479 170.9C224.479 171.34 224.122 171.697 223.682 171.697Z" fill="#E4EFFD"/>
<path d="M226.883 172.002C226.442 172.002 226.085 171.645 226.085 171.205C226.085 170.765 226.442 170.408 226.883 170.408C227.323 170.408 227.68 170.765 227.68 171.205C227.68 171.645 227.323 172.002 226.883 172.002Z" fill="#E4EFFD"/>
<path d="M214.918 168.859C214.477 168.859 214.12 168.502 214.12 168.062C214.12 167.622 214.477 167.265 214.918 167.265C215.358 167.265 215.715 167.622 215.715 168.062C215.715 168.502 215.358 168.859 214.918 168.859Z" fill="#E4EFFD"/>
<path d="M211.376 168.674C210.936 168.674 210.579 168.317 210.579 167.877C210.579 167.437 210.936 167.08 211.376 167.08C211.817 167.08 212.174 167.437 212.174 167.877C212.174 168.317 211.817 168.674 211.376 168.674Z" fill="#E4EFFD"/>
<path d="M207.835 168.491C207.395 168.491 207.038 168.134 207.038 167.694C207.038 167.254 207.395 166.897 207.835 166.897C208.276 166.897 208.633 167.254 208.633 167.694C208.633 168.134 208.276 168.491 207.835 168.491Z" fill="#E4EFFD"/>
<path d="M204.293 168.307C203.853 168.307 203.496 167.95 203.496 167.51C203.496 167.07 203.853 166.713 204.293 166.713C204.733 166.713 205.09 167.07 205.09 167.51C205.09 167.95 204.733 168.307 204.293 168.307Z" fill="#E4EFFD"/>
<path d="M200.752 168.123C200.312 168.123 199.955 167.767 199.955 167.326C199.955 166.886 200.312 166.529 200.752 166.529C201.192 166.529 201.549 166.886 201.549 167.326C201.549 167.767 201.192 168.123 200.752 168.123Z" fill="#E4EFFD"/>
<path d="M197.211 167.939C196.77 167.939 196.413 167.582 196.413 167.142C196.413 166.702 196.77 166.345 197.211 166.345C197.651 166.345 198.008 166.702 198.008 167.142C198.008 167.582 197.651 167.939 197.211 167.939Z" fill="#E4EFFD"/>
<path d="M218.459 169.041C218.018 169.041 217.662 168.685 217.662 168.244C217.662 167.804 218.018 167.447 218.459 167.447C218.899 167.447 219.256 167.804 219.256 168.244C219.256 168.685 218.899 169.041 218.459 169.041Z" fill="#E4EFFD"/>
<path d="M222 169.226C221.559 169.226 221.203 168.87 221.203 168.429C221.203 167.989 221.559 167.632 222 167.632C222.44 167.632 222.797 167.989 222.797 168.429C222.797 168.87 222.44 169.226 222 169.226Z" fill="#E4EFFD"/>
<path d="M229.126 169.615C228.686 169.615 228.329 169.258 228.329 168.818C228.329 168.377 228.686 168.021 229.126 168.021C229.566 168.021 229.923 168.377 229.923 168.818C229.923 169.258 229.566 169.615 229.126 169.615Z" fill="#E4EFFD"/>
<path d="M225.583 169.43C225.143 169.43 224.786 169.073 224.786 168.633C224.786 168.193 225.143 167.836 225.583 167.836C226.024 167.836 226.381 168.193 226.381 168.633C226.381 169.073 226.024 169.43 225.583 169.43Z" fill="#E4EFFD"/>
<path d="M216.599 176.917C216.158 176.917 215.801 176.56 215.801 176.12C215.801 175.68 216.158 175.323 216.599 175.323C217.039 175.323 217.396 175.68 217.396 176.12C217.396 176.56 217.039 176.917 216.599 176.917Z" fill="#E4EFFD"/>
<path d="M213.057 176.734C212.617 176.734 212.26 176.377 212.26 175.937C212.26 175.497 212.617 175.14 213.057 175.14C213.498 175.14 213.855 175.497 213.855 175.937C213.855 176.377 213.498 176.734 213.057 176.734Z" fill="#E4EFFD"/>
<path d="M209.516 176.55C209.076 176.55 208.719 176.193 208.719 175.753C208.719 175.312 209.076 174.956 209.516 174.956C209.957 174.956 210.313 175.312 210.313 175.753C210.313 176.193 209.957 176.55 209.516 176.55Z" fill="#E4EFFD"/>
<path d="M205.975 176.367C205.535 176.367 205.178 176.01 205.178 175.57C205.178 175.129 205.535 174.772 205.975 174.772C206.416 174.772 206.772 175.129 206.772 175.57C206.772 176.01 206.416 176.367 205.975 176.367Z" fill="#E4EFFD"/>
<path d="M202.434 176.182C201.994 176.182 201.637 175.825 201.637 175.385C201.637 174.945 201.994 174.588 202.434 174.588C202.874 174.588 203.231 174.945 203.231 175.385C203.231 175.825 202.874 176.182 202.434 176.182Z" fill="#E4EFFD"/>
<path d="M220.141 176.853C219.701 176.853 219.344 176.496 219.344 176.056C219.344 175.616 219.701 175.259 220.141 175.259C220.581 175.259 220.938 175.616 220.938 176.056C220.938 176.496 220.581 176.853 220.141 176.853Z" fill="#E4EFFD"/>
<path d="M214.918 174.446C214.477 174.446 214.12 174.089 214.12 173.649C214.12 173.208 214.477 172.852 214.918 172.852C215.358 172.852 215.715 173.208 215.715 173.649C215.715 174.089 215.358 174.446 214.918 174.446Z" fill="#E4EFFD"/>
<path d="M211.376 174.263C210.936 174.263 210.579 173.906 210.579 173.466C210.579 173.026 210.936 172.669 211.376 172.669C211.817 172.669 212.174 173.026 212.174 173.466C212.174 173.906 211.817 174.263 211.376 174.263Z" fill="#E4EFFD"/>
<path d="M207.835 174.078C207.395 174.078 207.038 173.722 207.038 173.281C207.038 172.841 207.395 172.484 207.835 172.484C208.276 172.484 208.633 172.841 208.633 173.281C208.633 173.722 208.276 174.078 207.835 174.078Z" fill="#E4EFFD"/>
<path d="M204.293 173.895C203.853 173.895 203.496 173.539 203.496 173.098C203.496 172.658 203.853 172.301 204.293 172.301C204.733 172.301 205.09 172.658 205.09 173.098C205.09 173.539 204.733 173.895 204.293 173.895Z" fill="#E4EFFD"/>
<path d="M200.752 173.711C200.312 173.711 199.955 173.354 199.955 172.914C199.955 172.474 200.312 172.117 200.752 172.117C201.192 172.117 201.549 172.474 201.549 172.914C201.549 173.354 201.192 173.711 200.752 173.711Z" fill="#E4EFFD"/>
<path d="M218.459 174.631C218.018 174.631 217.662 174.274 217.662 173.834C217.662 173.393 218.018 173.037 218.459 173.037C218.899 173.037 219.256 173.393 219.256 173.834C219.256 174.274 218.899 174.631 218.459 174.631Z" fill="#E4EFFD"/>
<path d="M222 174.813C221.559 174.813 221.203 174.456 221.203 174.016C221.203 173.576 221.559 173.219 222 173.219C222.44 173.219 222.797 173.576 222.797 174.016C222.797 174.456 222.44 174.813 222 174.813Z" fill="#E4EFFD"/>
<path d="M218.729 194.476C218.729 194.476 210.75 160.738 181.531 156.843C152.312 152.948 66.3035 157.606 46.3585 162.715C26.4135 167.824 7.65785 179.283 7.53787 194.41L112.615 194.476H218.729Z" fill="#88BED7"/>
<path d="M230.586 120.17C230.586 120.17 230.339 125.48 234.574 131.719C234.574 131.719 226.097 135.442 216.62 131.848C216.62 131.848 222.297 129.948 220.114 120.176L230.586 120.17Z" fill="#E18C32"/>
<path d="M219.276 129.547C219.369 129.667 219.49 129.763 219.628 129.827C221.011 130.428 226.222 130.714 229.397 125.442C230.193 124.118 230.388 121.647 230.59 120.359C230.59 120.23 230.59 120.168 230.59 120.168H220.119C221.186 124.94 220.38 127.834 219.276 129.547Z" fill="#D97802"/>
<path d="M216.77 114.329C216.791 113.615 217.202 111.52 218.318 112.627C219.557 113.85 223.758 113.78 225.736 112.45C227.441 111.304 228.548 112.459 228.65 114.711C228.674 115.319 228.827 115.914 229.097 116.459C229.367 117.004 229.749 117.485 230.217 117.872L232.21 117.304C232.21 117.304 235.475 108.177 229.059 105.924C223.172 103.861 218.003 107.903 217.389 109.756C216.875 111.315 216.77 114.329 216.77 114.329Z" fill="#40465C"/>
<path d="M216.77 120.261C217.65 126.791 219.181 126.438 220.124 126.848C221.507 127.448 225.929 126.791 227.782 125.072C228.455 124.445 230.056 121.528 230.508 120.696V120.726C230.508 120.726 232.888 118.315 232.457 117.428C231.758 115.984 230.416 117.477 230.135 117.815C229.689 117.427 229.328 116.952 229.071 116.42C228.815 115.888 228.67 115.309 228.645 114.719C228.543 112.467 227.436 111.312 225.731 112.458C223.753 113.788 219.551 113.858 218.313 112.635C217.533 111.861 217.023 112.785 216.792 113.647C216.623 116.148 216.672 119.534 216.77 120.261Z" fill="#E18C32"/>
<path d="M191.418 168.3C191.418 168.3 191.805 169.106 192.664 168.606C193.235 168.275 194.363 167.336 195.092 166.98C194.025 168.222 192.963 169.528 192.963 169.528C193.63 170.165 194.495 170.554 195.414 170.628C196.171 170.702 197.627 169.381 198.864 168.67C200.101 167.96 201.471 169.422 203.25 169.96C204.595 170.366 206.555 168.759 207.432 167.949C210.616 170.632 221.47 179 234.21 180.138C249.544 181.507 250.097 162.654 250.097 162.654C241.196 164.697 234.707 164.073 234.707 164.073L233.515 165.885C216.691 163.219 208.73 163.397 206.452 163.541C203.294 163.541 198.299 164.559 197.348 164.75C196.463 164.814 194.703 165.352 194.06 165.815C193.386 166.295 191.418 168.3 191.418 168.3Z" fill="#E18C32"/>
<path d="M193.987 169.842C193.987 169.842 196.766 166.592 197.459 166.375C198.679 165.988 200.274 165.486 200.274 165.486" stroke="#DB7800" stroke-width="0.387007" stroke-miterlimit="10" stroke-linecap="round"/>
<path d="M194.941 170.301C194.941 170.301 197.498 167.575 198.19 167.358C199.411 166.971 201.005 166.468 201.005 166.468" stroke="#DB7800" stroke-width="0.387007" stroke-miterlimit="10" stroke-linecap="round"/>
<path d="M233.513 165.881C233.513 165.881 241.863 165.365 249.109 168.547C249.652 166.624 249.982 164.648 250.095 162.654C241.193 164.695 234.705 164.073 234.705 164.073L233.513 165.881Z" fill="#D97802"/>
<path d="M233.453 165.415C233.453 165.415 236.65 160.038 237.94 154.483" stroke="#C4D7F6" stroke-width="0.774013" stroke-miterlimit="10" stroke-linecap="round"/>
<path d="M145.405 157.249C145.405 157.249 145.746 159.537 145.89 159.926C146.035 160.316 148.115 163.667 149.417 164.193C150.719 164.719 156.274 163.722 157.365 163.532C157.441 163.519 157.516 163.504 157.589 163.487C162.172 163.458 182.057 163.722 187.664 161.836C191.112 160.676 198.14 155.671 198.386 153.249C198.386 153.249 192.748 151.458 189.827 146.626C189.827 146.626 185.133 152.232 183.764 152.122C176.909 151.575 164.801 156.894 158.94 159.253L158.918 159.23C157.112 157.387 153.474 155.949 152.912 155.973C152.349 155.998 149.416 156.119 149.416 156.119C149.416 156.142 149.416 157.226 150.154 157.712C150.639 158.033 152.514 157.872 152.683 158.644C152.852 159.417 151.943 159.911 151.457 159.971C150.288 160.116 148.015 160.035 147.287 158.166C146.68 156.597 145.405 157.249 145.405 157.249Z" fill="#E38E32"/>
<path d="M198.768 153.378C198.768 153.378 192.447 151.224 189.827 146.626L188.429 148.219C188.429 148.219 194.082 152.299 194.436 157.752C194.436 157.752 197.972 155.243 198.768 153.378Z" fill="#D97802"/>
<path d="M181.199 97.2324V153.813C181.199 156.023 182.389 156.604 183.245 156.604H183.435C184.819 156.604 185.85 155.368 185.85 154.512" stroke="#88BED7" stroke-width="0.645011" stroke-miterlimit="10"/>
<path d="M187.499 156.347L184.038 153.751L186.136 152.228L189.475 154.699L187.499 156.347Z" fill="white"/>
<path d="M202.186 148.528C202.186 148.528 199.413 155.164 192.652 159.659" stroke="#C4D7F6" stroke-width="0.774013" stroke-miterlimit="10" stroke-linecap="round"/>
<path d="M98.5488 180.138H21.7241C17.9949 180.138 14.4184 181.619 11.7814 184.255C9.14438 186.892 7.66291 190.467 7.66291 194.196V194.469H112.615V194.196C112.615 192.349 112.251 190.521 111.544 188.815C110.837 187.109 109.801 185.559 108.495 184.253C107.189 182.948 105.638 181.913 103.931 181.206C102.225 180.5 100.396 180.137 98.5488 180.138Z" fill="#E4EFFD"/>
<path d="M21.8416 147.536H98.4289C102.192 147.536 105.802 149.03 108.463 151.691C111.124 154.352 112.619 157.96 112.619 161.723V194.482H7.65907V161.723C7.65906 157.961 9.15304 154.354 11.8126 151.694C14.4721 149.033 18.0794 147.538 21.8416 147.536V147.536Z" stroke="#6562CE" stroke-width="0.774013" stroke-miterlimit="10"/>
<path d="M113.072 167.778H7.65515" stroke="#6562CE" stroke-width="0.774013" stroke-miterlimit="10"/>
<path d="M3.85866 194.476H108.33V207.577H3.85866V194.476Z" fill="white" stroke="#88BED7" stroke-width="0.645011" stroke-miterlimit="10"/>
<path d="M108.33 194.476H309.682V207.577H108.33V194.476Z" fill="white" stroke="#88BED7" stroke-width="0.645011" stroke-miterlimit="10"/>
<path d="M218.319 117.878C217.949 117.878 217.649 117.578 217.649 117.207C217.649 116.837 217.949 116.537 218.319 116.537C218.69 116.537 218.99 116.837 218.99 117.207C218.99 117.578 218.69 117.878 218.319 117.878Z" fill="#40465C"/>
<path d="M223.871 117.878C223.5 117.878 223.2 117.578 223.2 117.207C223.2 116.837 223.5 116.537 223.871 116.537C224.241 116.537 224.541 116.837 224.541 117.207C224.541 117.578 224.241 117.878 223.871 117.878Z" fill="#40465C"/>
<path d="M220.882 116.604L219.949 120.903H221.501" stroke="#40465C" stroke-width="0.620501" stroke-linecap="round" stroke-linejoin="round"/>
<path d="M220.786 122.388C220.786 122.388 222.26 121.605 224.346 122.56" stroke="#40465C" stroke-width="0.620501" stroke-linecap="round" stroke-linejoin="round"/>
<path d="M377.108 145.027V139.403H336.768V140.099L377.108 145.027Z" fill="#CBE1FD"/>
<path d="M382.709 230.947V232.46C382.709 232.953 382.905 233.426 383.254 233.775C383.603 234.124 384.076 234.32 384.57 234.32C385.688 234.32 386.76 234.765 387.551 235.555C388.342 236.346 388.786 237.418 388.787 238.536V238.944" stroke="#88BED7" stroke-width="0.645011" stroke-miterlimit="10"/>
<path d="M384.17 242.17C382.309 242.17 380.8 240.662 380.8 238.801C380.8 236.941 382.309 235.433 384.17 235.433C386.031 235.433 387.539 236.941 387.539 238.801C387.539 240.662 386.031 242.17 384.17 242.17Z" stroke="#EFAF00" stroke-width="0.645011" stroke-miterlimit="10"/>
<path d="M364.079 230.947V232.46C364.079 232.953 364.275 233.426 364.624 233.775C364.973 234.124 365.446 234.32 365.939 234.32V234.32C367.058 234.32 368.13 234.764 368.921 235.555C369.712 236.346 370.156 237.418 370.156 238.536V238.944" stroke="#88BED7" stroke-width="0.645011" stroke-miterlimit="10"/>
<path d="M365.541 242.17C363.68 242.17 362.171 240.662 362.171 238.801C362.171 236.941 363.68 235.433 365.541 235.433C367.402 235.433 368.91 236.941 368.91 238.801C368.91 240.662 367.402 242.17 365.541 242.17Z" stroke="#EFAF00" stroke-width="0.645011" stroke-miterlimit="10"/>
<path d="M330.119 230.947V232.46C330.119 232.953 329.923 233.426 329.574 233.775C329.225 234.124 328.752 234.32 328.259 234.32C327.141 234.32 326.068 234.765 325.277 235.555C324.487 236.346 324.042 237.418 324.042 238.536V238.944" stroke="#88BED7" stroke-width="0.645011" stroke-miterlimit="10"/>
<path d="M328.659 242.17C326.798 242.17 325.289 240.662 325.289 238.801C325.289 236.941 326.798 235.433 328.659 235.433C330.52 235.433 332.028 236.941 332.028 238.801C332.028 240.662 330.52 242.17 328.659 242.17Z" stroke="#EFAF00" stroke-width="0.645011" stroke-miterlimit="10"/>
<path d="M346.45 145.028H387.698C390.448 145.028 392.677 147.257 392.677 150.007V225.851C392.677 228.601 390.448 230.83 387.698 230.83H346.45C343.699 230.83 341.47 228.601 341.47 225.851V150.007C341.47 147.257 343.699 145.028 346.45 145.028Z" fill="white" stroke="#88BED7" stroke-width="0.645011" stroke-miterlimit="10"/>
<path d="M326.174 145.028H367.423C370.173 145.028 372.402 147.257 372.402 150.007V225.851C372.402 228.601 370.173 230.83 367.423 230.83H326.174C323.424 230.83 321.195 228.601 321.195 225.851V150.007C321.195 147.257 323.424 145.028 326.174 145.028Z" fill="white" stroke="#88BED7" stroke-width="0.645011" stroke-miterlimit="10"/>
<path d="M325.204 148.336H368.246C369.474 148.336 370.47 149.332 370.47 150.56V170.552C370.47 171.78 369.474 172.776 368.246 172.776H325.204C323.976 172.776 322.98 171.78 322.98 170.552V150.56C322.98 149.332 323.976 148.336 325.204 148.336Z" fill="white" stroke="#88BED7" stroke-width="0.645011" stroke-miterlimit="10"/>
<path d="M340.49 160.393H355.288C355.784 160.393 356.187 160.796 356.187 161.292V161.417C356.187 161.914 355.784 162.316 355.288 162.316H340.49C339.993 162.316 339.591 161.914 339.591 161.417V161.292C339.591 160.796 339.993 160.393 340.49 160.393Z" fill="#E4EFFD"/>
<path d="M339.331 159.567H354.139C354.633 159.567 355.033 159.967 355.033 160.461C355.033 160.954 354.633 161.354 354.139 161.354H339.331C338.837 161.354 338.437 160.954 338.437 160.461C338.437 159.967 338.837 159.567 339.331 159.567Z" stroke="#EFAF00" stroke-width="0.645011" stroke-miterlimit="10"/>
<path d="M325.204 175.52H368.246C369.474 175.52 370.47 176.516 370.47 177.744V197.736C370.47 198.964 369.474 199.959 368.246 199.959H325.204C323.976 199.959 322.98 198.964 322.98 197.736V177.744C322.98 176.516 323.976 175.52 325.204 175.52Z" fill="white" stroke="#88BED7" stroke-width="0.645011" stroke-miterlimit="10"/>
<path d="M340.49 187.576H355.288C355.784 187.576 356.187 187.978 356.187 188.475V188.6C356.187 189.096 355.784 189.499 355.288 189.499H340.49C339.993 189.499 339.591 189.096 339.591 188.6V188.475C339.591 187.978 339.993 187.576 340.49 187.576Z" fill="#E4EFFD"/>
<path d="M339.331 186.75H354.139C354.633 186.75 355.033 187.15 355.033 187.643C355.033 188.136 354.633 188.536 354.139 188.536H339.331C338.837 188.536 338.437 188.136 338.437 187.643C338.437 187.15 338.837 186.75 339.331 186.75Z" stroke="#EFAF00" stroke-width="0.645011" stroke-miterlimit="10"/>
<path d="M325.204 202.703H368.246C369.474 202.703 370.47 203.699 370.47 204.927V224.919C370.47 226.147 369.474 227.142 368.246 227.142H325.204C323.976 227.142 322.98 226.147 322.98 224.919V204.927C322.98 203.699 323.976 202.703 325.204 202.703Z" fill="white" stroke="#88BED7" stroke-width="0.645011" stroke-miterlimit="10"/>
<path d="M340.49 214.763H355.288C355.784 214.763 356.187 215.166 356.187 215.662V215.787C356.187 216.284 355.784 216.686 355.288 216.686H340.49C339.993 216.686 339.591 216.284 339.591 215.787V215.662C339.591 215.166 339.993 214.763 340.49 214.763Z" fill="#E4EFFD"/>
<path d="M339.331 213.935H354.139C354.633 213.935 355.033 214.334 355.033 214.828C355.033 215.321 354.633 215.721 354.139 215.721H339.331C338.837 215.721 338.437 215.321 338.437 214.828C338.437 214.334 338.837 213.935 339.331 213.935Z" stroke="#EFAF00" stroke-width="0.645011" stroke-miterlimit="10"/>
<path d="M332.4 120.976H327.695C323.35 120.976 319.183 122.702 316.11 125.774C313.038 128.845 311.312 133.012 311.312 137.356V175.635C311.312 178.769 310.067 181.775 307.85 183.991C305.634 186.207 302.627 187.452 299.493 187.452H242.389C242.287 187.452 242.185 187.452 242.084 187.452C234.019 187.248 229.045 178.528 232.809 171.395L236.46 164.598" stroke="#EFAF00" stroke-width="0.645011" stroke-miterlimit="10"/>
<path d="M336.768 139.403H377.108V145.027H336.768V139.403Z" stroke="#88BED7" stroke-width="0.645011" stroke-miterlimit="10"/>
<path d="M385.842 103.794H369.444V139.404H385.842C386.087 139.404 386.33 139.355 386.557 139.261C386.784 139.167 386.99 139.03 387.164 138.856C387.337 138.682 387.475 138.476 387.569 138.249C387.663 138.022 387.711 137.779 387.711 137.534V105.663C387.711 105.167 387.514 104.692 387.163 104.341C386.813 103.991 386.337 103.794 385.842 103.794Z" fill="white" stroke="#88BED7" stroke-width="0.645011" stroke-miterlimit="10"/>
<path d="M328.654 139.402H369.839C370.469 139.402 371.084 139.203 371.593 138.832C372.103 138.461 372.483 137.938 372.677 137.339L382.868 105.912C382.947 105.669 382.967 105.41 382.927 105.158C382.887 104.905 382.787 104.666 382.637 104.46C382.486 104.253 382.289 104.085 382.061 103.969C381.833 103.854 381.581 103.794 381.325 103.794H340.14C339.51 103.794 338.895 103.994 338.386 104.365C337.876 104.735 337.496 105.258 337.302 105.858L327.111 137.285C327.032 137.528 327.011 137.786 327.051 138.039C327.092 138.291 327.191 138.531 327.341 138.737C327.492 138.944 327.689 139.112 327.918 139.228C328.146 139.343 328.398 139.403 328.654 139.402Z" fill="white" stroke="#88BED7" stroke-width="0.645011" stroke-miterlimit="10"/>
<path d="M344.276 128.98H370.296C370.695 128.983 371.086 128.859 371.41 128.626C371.735 128.393 371.977 128.063 372.102 127.683L378.539 107.821C378.588 107.667 378.601 107.505 378.576 107.345C378.55 107.186 378.488 107.035 378.393 106.905C378.298 106.774 378.174 106.668 378.03 106.595C377.886 106.522 377.727 106.484 377.566 106.483H351.535C351.136 106.483 350.748 106.609 350.425 106.843C350.103 107.078 349.863 107.408 349.74 107.787L343.303 127.649C343.255 127.802 343.243 127.965 343.269 128.123C343.295 128.281 343.358 128.431 343.453 128.561C343.547 128.691 343.671 128.796 343.814 128.869C343.957 128.942 344.115 128.98 344.276 128.98Z" fill="#6562CE"/>
<path d="M351.785 129.068L353.8 122.851H344.709" stroke="white" stroke-width="0.258004" stroke-miterlimit="10"/>
<path d="M337.658 129.101H337.845C339.178 129.101 340.509 128.243 341.144 126.975C342.065 125.135 341.025 123.248 339.09 123.248H338.904C337.57 123.248 336.239 124.106 335.604 125.374C334.679 127.217 335.723 129.101 337.658 129.101Z" fill="#CBE1FD"/>
<path d="M336.715 128.767H336.901C338.235 128.767 339.566 127.909 340.201 126.641C341.122 124.801 340.082 122.914 338.147 122.914H337.96C336.627 122.914 335.296 123.773 334.661 125.04C333.74 126.88 334.78 128.767 336.715 128.767Z" stroke="#EFAF00" stroke-width="0.516009" stroke-miterlimit="10"/>
<path d="M343.991 109.065H346.984C347.03 109.065 347.074 109.05 347.111 109.023C347.148 108.996 347.176 108.958 347.19 108.914L347.929 106.632C347.935 106.614 347.936 106.595 347.934 106.577C347.931 106.559 347.923 106.542 347.913 106.527C347.902 106.512 347.888 106.5 347.871 106.491C347.855 106.483 347.837 106.478 347.818 106.478H344.825C344.78 106.478 344.735 106.492 344.698 106.519C344.661 106.546 344.633 106.584 344.619 106.628L343.879 108.91C343.873 108.928 343.871 108.947 343.874 108.965C343.877 108.984 343.885 109.001 343.896 109.016C343.906 109.031 343.921 109.044 343.937 109.052C343.954 109.061 343.972 109.065 343.991 109.065Z" fill="#CBE1FD"/>
<path d="M339.272 109.065H342.264C342.31 109.065 342.354 109.051 342.392 109.024C342.429 108.997 342.456 108.958 342.47 108.914L343.205 106.632C343.211 106.614 343.212 106.595 343.209 106.577C343.207 106.558 343.199 106.541 343.188 106.526C343.177 106.511 343.163 106.499 343.146 106.491C343.13 106.482 343.112 106.478 343.093 106.478H340.109C340.064 106.478 340.019 106.492 339.982 106.519C339.945 106.546 339.918 106.584 339.904 106.628L339.164 108.91C339.158 108.928 339.157 108.946 339.159 108.964C339.162 108.983 339.169 109 339.179 109.015C339.19 109.03 339.204 109.042 339.22 109.051C339.236 109.06 339.254 109.065 339.272 109.065Z" fill="#CBE1FD"/>
<path d="M342.796 112.965H345.785C345.831 112.965 345.876 112.951 345.913 112.924C345.95 112.896 345.978 112.858 345.991 112.814L346.735 110.529C346.741 110.511 346.742 110.493 346.739 110.474C346.737 110.456 346.73 110.439 346.719 110.424C346.708 110.409 346.694 110.396 346.677 110.388C346.66 110.38 346.642 110.375 346.624 110.375H343.631C343.585 110.376 343.54 110.39 343.503 110.417C343.466 110.444 343.439 110.482 343.424 110.525L342.684 112.808C342.678 112.826 342.676 112.845 342.679 112.864C342.681 112.882 342.688 112.9 342.699 112.916C342.71 112.931 342.725 112.943 342.742 112.952C342.759 112.961 342.777 112.965 342.796 112.965Z" fill="#CBE1FD"/>
<path d="M338.077 112.965H341.069C341.115 112.965 341.16 112.951 341.197 112.924C341.234 112.897 341.262 112.858 341.275 112.814L342.016 110.529C342.022 110.511 342.023 110.493 342.02 110.474C342.017 110.456 342.01 110.439 341.999 110.424C341.988 110.409 341.974 110.396 341.957 110.388C341.94 110.38 341.922 110.375 341.904 110.375H338.912C338.866 110.375 338.822 110.39 338.784 110.417C338.747 110.444 338.72 110.482 338.706 110.525L337.965 112.808C337.959 112.826 337.957 112.845 337.96 112.864C337.963 112.882 337.97 112.9 337.981 112.916C337.992 112.931 338.006 112.943 338.023 112.952C338.04 112.961 338.058 112.965 338.077 112.965Z" fill="#CBE1FD"/>
<path d="M341.368 117.195H344.36C344.405 117.195 344.45 117.18 344.487 117.153C344.524 117.127 344.552 117.089 344.566 117.045L345.307 114.761C345.312 114.743 345.314 114.724 345.311 114.706C345.308 114.688 345.301 114.67 345.29 114.656C345.279 114.641 345.264 114.628 345.248 114.62C345.231 114.612 345.213 114.607 345.194 114.607H342.203C342.157 114.607 342.112 114.622 342.075 114.649C342.038 114.676 342.011 114.713 341.996 114.757L341.256 117.041C341.25 117.059 341.249 117.078 341.252 117.096C341.255 117.114 341.262 117.132 341.273 117.147C341.284 117.162 341.298 117.174 341.315 117.182C341.331 117.19 341.35 117.195 341.368 117.195Z" fill="#CBE1FD"/>
<path d="M336.648 117.195H339.641C339.687 117.195 339.731 117.18 339.768 117.153C339.805 117.126 339.833 117.088 339.847 117.045L340.586 114.761C340.592 114.743 340.594 114.725 340.591 114.706C340.588 114.688 340.581 114.671 340.571 114.656C340.56 114.64 340.545 114.628 340.529 114.62C340.512 114.612 340.494 114.607 340.475 114.607H337.483C337.437 114.608 337.392 114.622 337.355 114.649C337.318 114.676 337.29 114.714 337.276 114.757L336.536 117.041C336.53 117.059 336.529 117.078 336.531 117.096C336.534 117.114 336.542 117.132 336.553 117.147C336.564 117.162 336.578 117.174 336.594 117.182C336.611 117.19 336.629 117.195 336.648 117.195Z" fill="#CBE1FD"/>
<path d="M339.928 121.598H342.921C342.967 121.598 343.012 121.583 343.049 121.556C343.086 121.529 343.114 121.491 343.128 121.447L343.867 119.17C343.873 119.152 343.874 119.133 343.871 119.115C343.868 119.097 343.861 119.08 343.85 119.065C343.84 119.05 343.825 119.038 343.809 119.029C343.793 119.021 343.774 119.016 343.756 119.016H340.763C340.717 119.016 340.672 119.03 340.635 119.057C340.598 119.084 340.571 119.122 340.557 119.166L339.816 121.449C339.811 121.466 339.811 121.484 339.814 121.502C339.818 121.52 339.825 121.536 339.836 121.551C339.847 121.565 339.861 121.577 339.877 121.585C339.893 121.593 339.91 121.598 339.928 121.598Z" fill="#CBE1FD"/>
<path d="M335.207 121.598H338.201C338.247 121.598 338.292 121.584 338.329 121.557C338.366 121.53 338.394 121.491 338.408 121.447L339.148 119.17C339.154 119.152 339.155 119.133 339.152 119.115C339.149 119.097 339.142 119.079 339.131 119.064C339.12 119.049 339.106 119.037 339.089 119.029C339.073 119.02 339.054 119.016 339.036 119.016H336.043C335.997 119.016 335.953 119.03 335.916 119.057C335.879 119.084 335.852 119.122 335.838 119.166L335.097 121.449C335.093 121.466 335.092 121.484 335.095 121.501C335.098 121.519 335.106 121.535 335.116 121.55C335.127 121.564 335.14 121.576 335.156 121.584C335.172 121.593 335.189 121.597 335.207 121.598Z" fill="#CBE1FD"/>
<path d="M377.378 111.879H374.798L374.139 109.562L372.696 113.985L372.656 111.773L369.457 111.754L368.798 109.562L367.356 113.985L367.316 111.773L364.116 111.754L363.457 109.562L362.015 113.985L361.975 111.773L358.776 111.754L358.116 109.562L356.674 113.985L356.636 111.773L353.56 111.754L352.901 109.562L351.459 113.985L351.419 111.773L348.467 111.754" stroke="white" stroke-width="0.258004" stroke-miterlimit="10"/>
<path d="M346.639 116.847L347.632 118.446L348.244 117.54V119.46L349.542 116.847L349.915 119.46L351.175 116.847L352.168 118.446L352.778 117.54V119.46L354.077 116.847L355.315 119.46L356.575 116.847L357.568 118.446L358.18 117.54V119.46L359.477 116.847L359.85 119.46L361.111 116.847L362.104 118.446L362.714 117.54V119.46L364.013 116.847V118.446L364.881 117.487L365.375 119.46L366.636 116.847L367.629 118.446L368.239 117.54V119.46L369.538 116.847L369.91 119.46L371.17 116.847L372.164 118.446L372.775 117.54V119.46L374.073 116.847L375.461 118.062" stroke="white" stroke-width="0.258004" stroke-linejoin="round"/>
<path d="M351.416 124.156H349.829C349.77 124.158 349.713 124.18 349.666 124.217C349.62 124.254 349.587 124.306 349.571 124.363L349.253 125.743" stroke="white" stroke-width="0.258004" stroke-miterlimit="10" stroke-linecap="round"/>
<path d="M349.158 126.159L348.799 127.718" stroke="white" stroke-width="0.258004" stroke-miterlimit="10" stroke-linecap="round"/>
<path d="M346.746 124.156H348.334C348.36 124.155 348.386 124.16 348.409 124.171C348.432 124.181 348.453 124.198 348.468 124.218C348.484 124.238 348.495 124.262 348.499 124.288C348.504 124.313 348.502 124.339 348.494 124.364L348.176 125.744" stroke="white" stroke-width="0.258004" stroke-miterlimit="10" stroke-linecap="round"/>
<path d="M346.114 127.746H347.505C347.564 127.743 347.622 127.722 347.668 127.685C347.714 127.647 347.748 127.596 347.763 127.538L348.081 126.159C348.089 126.135 348.091 126.109 348.086 126.084C348.082 126.058 348.071 126.034 348.056 126.014C348.04 125.994 348.019 125.977 347.996 125.967C347.973 125.956 347.947 125.951 347.921 125.952H346.53C346.474 125.954 346.42 125.974 346.376 126.009C346.333 126.044 346.302 126.092 346.288 126.147L345.963 127.554C345.957 127.577 345.956 127.601 345.96 127.624C345.965 127.648 345.975 127.67 345.99 127.688C346.004 127.707 346.023 127.722 346.045 127.732C346.067 127.742 346.09 127.747 346.114 127.746V127.746Z" stroke="white" stroke-width="0.258004" stroke-miterlimit="10" stroke-linecap="round"/>
<path d="M359.881 124.047H361.468C361.494 124.046 361.519 124.051 361.543 124.062C361.566 124.073 361.586 124.089 361.602 124.109C361.618 124.13 361.628 124.153 361.633 124.179C361.637 124.204 361.636 124.23 361.628 124.255L361.309 125.633" stroke="white" stroke-width="0.258004" stroke-miterlimit="10" stroke-linecap="round"/>
<path d="M361.054 125.841H359.662C359.606 125.843 359.552 125.863 359.508 125.898C359.465 125.934 359.434 125.982 359.421 126.037L359.097 127.44C359.09 127.463 359.088 127.488 359.092 127.512C359.096 127.536 359.106 127.558 359.121 127.577C359.136 127.597 359.155 127.612 359.177 127.622C359.199 127.633 359.224 127.637 359.248 127.636H360.887" stroke="white" stroke-width="0.258004" stroke-miterlimit="10" stroke-linecap="round"/>
<path d="M365.627 124.156L365.253 125.743" stroke="white" stroke-width="0.258004" stroke-miterlimit="10" stroke-linecap="round"/>
<path d="M365.156 126.159L364.796 127.718" stroke="white" stroke-width="0.258004" stroke-miterlimit="10" stroke-linecap="round"/>
<path d="M364.173 125.747L364.49 124.364C364.498 124.339 364.5 124.313 364.495 124.288C364.491 124.262 364.48 124.238 364.465 124.218C364.449 124.198 364.428 124.181 364.405 124.171C364.382 124.16 364.356 124.155 364.33 124.156H362.868" stroke="white" stroke-width="0.258004" stroke-miterlimit="10" stroke-linecap="round"/>
<path d="M362.372 125.625L362.63 124.363C362.647 124.156 362.801 124.156 362.915 124.156H364.373" stroke="white" stroke-width="0.258004" stroke-miterlimit="10" stroke-linecap="round"/>
<path d="M362.285 126.146L361.961 127.554C361.954 127.577 361.952 127.601 361.957 127.625C361.961 127.649 361.971 127.671 361.986 127.69C362.001 127.709 362.02 127.724 362.042 127.734C362.064 127.745 362.088 127.749 362.112 127.748H363.502C363.562 127.746 363.619 127.724 363.666 127.687C363.712 127.65 363.745 127.598 363.76 127.541L364.079 126.162" stroke="white" stroke-width="0.258004" stroke-miterlimit="10" stroke-linecap="round"/>
<path d="M353.8 122.851H373.763" stroke="white" stroke-width="0.258004" stroke-miterlimit="10"/>
</g>
<defs>
<clipPath id="clip0_62_3321">
<rect width="393" height="243.556" fill="white" transform="matrix(-1 0 0 1 393 0.126953)"/>
</clipPath>
</defs>
</svg>
