<svg width="178" height="241" viewBox="0 0 178 241" fill="none" xmlns="http://www.w3.org/2000/svg">
<path d="M168.56 9.06421H0V240.339H168.56V9.06421Z" fill="#E7F0FD"/>
<path d="M175 3H6.44031V234.274H175V3Z" stroke="#96BED5" stroke-width="5" stroke-miterlimit="10"/>
<path d="M59.2198 88.9501C77.7357 88.9501 92.7458 73.5293 92.7458 54.5068C92.7458 35.4843 77.7357 20.0635 59.2198 20.0635C40.7039 20.0635 25.6938 35.4843 25.6938 54.5068C25.6938 73.5293 40.7039 88.9501 59.2198 88.9501Z" fill="white"/>
<path d="M74.983 24.0998L59.2197 54.5065V20.0601C64.7162 20.0521 70.1296 21.4376 74.9801 24.0938L74.983 24.0998Z" fill="#D1E2FB"/>
<path d="M92.7486 54.5068H59.2197L74.983 24.1003C80.3496 27.0373 84.8378 31.4182 87.9672 36.7743C91.0966 42.1304 92.7494 48.2599 92.7486 54.5068Z" fill="#96BED5"/>
<path d="M92.7486 54.5068C92.7487 61.3813 90.7466 68.0985 86.9998 73.7942C83.253 79.4898 77.933 83.9034 71.7243 86.4668C65.5156 89.0303 58.7023 89.6264 52.1611 88.1784C45.6199 86.7305 39.6501 83.3047 35.0198 78.3419L59.2255 54.5128L92.7486 54.5068Z" fill="#C1C1E9"/>
<path d="M59.2196 54.5068L35.0138 78.3361C33.1777 76.371 31.5748 74.1891 30.2389 71.8361L59.2196 54.5068Z" fill="#8383D3"/>
<path d="M80.1648 40.5459L95.8292 28.8416H108.646" stroke="white" stroke-width="5" stroke-miterlimit="10"/>
<path d="M80.1648 66.4197L108.524 84.985" stroke="white" stroke-width="5" stroke-miterlimit="10"/>
<path d="M155.334 110.223H88.1364V204.587H155.334V110.223Z" fill="white"/>
<path d="M155.334 213.733H25.6938V219.468H155.334V213.733Z" fill="white"/>
<g style="mix-blend-mode:multiply">
<path d="M80.1648 110.223H25.6938V117.174H80.1648V110.223Z" fill="#E7F0FD"/>
</g>
<g style="mix-blend-mode:multiply">
<path d="M80.1648 124.793H25.6938V131.744H80.1648V124.793Z" fill="#E7F0FD"/>
</g>
<g style="mix-blend-mode:multiply">
<path d="M80.1648 139.361H25.6938V146.312H80.1648V139.361Z" fill="#E7F0FD"/>
</g>
<g style="mix-blend-mode:multiply">
<path d="M80.1648 153.932H25.6938V160.882H80.1648V153.932Z" fill="#E7F0FD"/>
</g>
<g style="mix-blend-mode:multiply">
<path d="M80.1648 168.501H25.6938V175.452H80.1648V168.501Z" fill="#E7F0FD"/>
</g>
<g style="mix-blend-mode:multiply">
<path d="M80.1648 183.069H25.6938V190.02H80.1648V183.069Z" fill="#E7F0FD"/>
</g>
<g style="mix-blend-mode:multiply">
<path d="M80.1648 197.639H25.6938V204.59H80.1648V197.639Z" fill="#E7F0FD"/>
</g>
<g style="mix-blend-mode:multiply">
<path d="M155.334 24.1003H111.566V28.5847H155.334V24.1003Z" fill="#E7F0FD"/>
</g>
<g style="mix-blend-mode:multiply">
<path d="M155.334 31.4209H111.566V35.9054H155.334V31.4209Z" fill="#E7F0FD"/>
</g>
<g style="mix-blend-mode:multiply">
<path d="M141.326 38.7422H111.566V43.2265H141.326V38.7422Z" fill="#E7F0FD"/>
</g>
<g style="mix-blend-mode:multiply">
<path d="M155.334 86.9524H111.566V91.4367H155.334V86.9524Z" fill="#E7F0FD"/>
</g>
<g style="mix-blend-mode:multiply">
<path d="M155.334 94.2734H111.566V98.7578H155.334V94.2734Z" fill="#E7F0FD"/>
</g>
</svg>
