<svg width="156" height="156" viewBox="0 0 156 156" fill="none" xmlns="http://www.w3.org/2000/svg">
<path fill-rule="evenodd" clip-rule="evenodd" d="M78 156C121.078 156 156 121.078 156 78C156 34.9218 121.078 0 78 0C34.9218 0 0 34.9218 0 78C0 121.078 34.9218 156 78 156ZM82.5995 113.187L92.3993 92.5953C92.6616 92.0441 93.1057 91.6 93.657 91.3377L114.249 81.5378C114.638 81.3524 114.976 81.075 115.235 80.7296C115.493 80.3842 115.663 79.9811 115.73 79.5552C115.798 79.1293 115.761 78.6933 115.622 78.285C115.484 77.8766 115.248 77.5081 114.935 77.2113L98.3775 61.5261C97.9357 61.1071 97.6511 60.549 97.5716 59.9452L94.6135 37.3342C94.5578 36.9065 94.3989 36.4988 94.1504 36.1463C93.9019 35.7938 93.5714 35.5071 93.1873 35.3109C92.8033 35.1147 92.3772 35.015 91.946 35.0203C91.5147 35.0256 91.0913 35.1359 90.7121 35.3414L70.6785 46.244C70.1427 46.5338 69.5236 46.6308 68.9248 46.5185L46.5043 42.3426C46.0799 42.2633 45.6426 42.2886 45.2302 42.4164C44.8178 42.5441 44.4427 42.7704 44.1375 43.0756C43.8322 43.3809 43.6059 43.756 43.4782 44.1684C43.3505 44.5808 43.3252 45.0181 43.4045 45.4425L47.5804 67.8631C47.6926 68.4618 47.5956 69.0809 47.3058 69.6167L36.4033 89.6505C36.1978 90.0293 36.0875 90.4524 36.0819 90.8833C36.0764 91.3143 36.1757 91.7401 36.3714 92.1241C36.5671 92.5081 36.8533 92.8387 37.2052 93.0874C37.5572 93.3361 37.9643 93.4955 38.3916 93.5518L61.007 96.5099C61.6108 96.5895 62.1689 96.874 62.5879 97.3159L78.273 113.873C78.5698 114.186 78.9383 114.422 79.3467 114.561C79.755 114.699 80.191 114.736 80.6169 114.669C81.0428 114.601 81.4459 114.431 81.7913 114.173C82.1367 113.915 82.4141 113.576 82.5995 113.187ZM102.19 94.867L95.9287 101.129L114.714 119.918L120.98 113.652L102.19 94.867Z" fill="white"/>
</svg>
