<svg width="267" height="299" viewBox="0 0 267 299" fill="none" xmlns="http://www.w3.org/2000/svg">
<path d="M30.2841 298.139C28.0729 298.139 25.9576 297.253 24.4134 295.677C22.8692 294.1 22.0194 291.972 22.0606 289.76C22.3484 274.62 22.2524 258.776 22.1656 243.457C22.1108 233.909 22.0514 224.086 22.088 214.401C20.6169 213.515 19.3971 212.208 18.625 210.613C17.0031 207.246 17.6655 203.359 20.0001 200.722C18.6935 197.173 15.1574 191.014 10.9725 185.016C8.15824 181.004 5.41707 177.541 3.64901 175.773C2.15964 174.284 1.11343 172.52 0.533211 170.524C-0.0104551 168.696 -0.138377 166.714 0.149447 164.635C1.24592 157.476 7.34503 149.458 16.5691 137.315C19.6392 133.276 23.1205 128.698 26.7068 123.755C27.3099 122.928 27.8901 122.147 28.484 121.379C28.5663 121.27 28.6531 121.164 28.7353 121.059C29.046 120.662 29.3658 120.255 29.6947 119.849C29.6993 119.844 29.882 119.611 30.2475 119.15L31.609 117.51C32.2669 116.737 32.9247 115.993 33.5826 115.271L33.8979 114.928C33.3176 108.582 32.8471 105.873 32.6186 104.827C32.4222 104.571 32.2166 104.315 32.011 104.055C29.5896 101.008 25.9302 96.3979 25.688 88.0602C25.5144 82.3494 26.5881 72.865 27.1911 68.1227C26.1495 65.9115 25.3271 62.8734 25.4825 58.8804C25.9759 46.769 34.1903 44.8273 37.699 44.5486C38.0507 44.5258 38.4254 44.4984 38.8137 44.471C38.6721 38.4267 38.5304 31.7976 38.4208 25.7168C38.0553 5.20823 38.0553 5.20823 40.7005 2.4899C42.2493 0.900019 44.3829 0 46.5986 0C48.3438 0 54.1003 0.621332 54.9866 8.62099C55.0871 9.51644 55.2105 10.8185 55.3475 12.4586C55.6171 15.5881 55.9552 20.0014 56.3344 25.132C56.6724 29.76 57.0608 35.2424 57.4948 41.5425C64.0965 42.2004 66.2894 46.3395 66.9473 48.2035C67.4498 49.6244 67.7102 50.3645 68.1123 66.3684C69.1128 66.6973 70.1042 67.177 71.059 67.8806C73.9144 69.6943 75.6825 72.9152 75.6277 76.3371C75.783 77.8722 75.6779 79.4438 75.3353 80.9149C79.5658 78.9184 84.1801 77.0315 89.2513 75.2224C104.223 69.8908 116.814 67.4054 128.87 67.4054H129.081C148.822 67.4237 169.166 74.8021 185.247 87.7221L231.212 71.1883L233.834 70.2517C237.256 69.0182 238.974 68.4014 238.983 68.3968C239.961 68.0176 240.975 67.8303 241.98 67.8303C244.434 67.8303 246.819 68.9314 248.413 70.9324L248.541 71.0878C248.669 71.2477 248.788 71.4121 248.902 71.5812L263.339 90.7237C265.609 93.739 265.541 97.9101 263.17 100.843C261.566 102.826 259.195 103.9 256.769 103.9C255.604 103.9 254.421 103.648 253.311 103.132L247.869 100.606L240.016 111.333C239.956 111.42 239.897 111.506 239.838 111.589L229.243 126.039C230.033 129.146 230.075 132.422 229.312 135.546C227.982 140.979 224.62 144.962 221.623 148.014C221.691 148.311 221.764 148.604 221.837 148.896C223.605 156.137 225.277 162.976 228.795 168.409C230.815 171.538 233.601 174.43 236.553 177.486C238.188 179.181 239.874 180.931 241.514 182.809C252.977 195.935 260.438 213.259 263.686 234.302C266.331 251.457 267.473 271.838 266.82 290.208C266.665 294.635 263.033 298.139 258.606 298.139H30.2841Z" fill="white"/>
<path d="M259.053 289.916H30.7317C31.2388 263.13 30.5764 235.161 30.7956 208.06C30.8094 203.989 30.8596 199.946 30.9373 195.921C31.2525 179.223 31.586 162.378 35.1998 146.073C35.547 144.497 35.9262 142.902 36.3511 141.34C38.0415 134.962 40.2984 128.726 43.2314 122.841C45.0315 119.177 47.1011 115.673 49.4676 112.361C51.6925 109.186 54.2053 106.189 56.983 103.457C57.3439 103.064 57.7231 102.717 58.1023 102.351C59.1896 101.328 60.2952 100.35 61.4465 99.3997C61.4648 99.386 61.4785 99.386 61.4968 99.3677C70.5244 91.9483 81.4023 86.9137 92.4629 82.9709C104.382 78.7221 116.85 75.5972 129.51 75.6291C148.643 75.6474 167.535 83.0943 182.15 95.4524C182.766 95.9732 183.383 96.5123 183.982 97.0788C185.009 97.9651 186.033 98.9109 187.015 99.8885C197.779 110.451 205.842 123.723 210.703 138.041C211.32 139.777 211.873 141.527 212.362 143.295C212.567 144.008 212.759 144.734 212.947 145.461C215.423 154.867 217.068 164.731 222.34 172.877C226.031 178.592 231.29 183.088 235.771 188.218C247.216 201.321 253.356 218.367 256.006 235.558C258.66 252.759 259.67 272.537 259.053 289.916Z" fill="#0090FF"/>
<path d="M248.651 289.915H93.3813L95.7159 251.42L99.1104 195.477C103.496 194.089 108.686 192.727 114.676 191.393C124.096 189.278 136.157 187.24 145.989 187.761C146.227 187.775 146.446 187.793 146.683 187.793C160.449 188.551 172.396 189.799 177.873 190.411C179.23 190.571 180.29 190.699 181.049 190.79C186.298 193.874 192.228 197.574 198.834 201.887C201.173 203.404 203.618 205.03 206.098 206.716C219.293 215.666 233.56 226.466 237.476 233.63C242.935 243.622 246.819 273.171 248.651 289.915Z" fill="#00467B"/>
<path d="M114.689 191.188L114.676 191.393L107.964 253.517C104.638 252.992 100.559 252.293 95.7158 251.42C77.6287 248.186 45.3331 241.776 40.536 236.6C33.811 229.336 31.1292 205.963 28.1733 197.913C26.4555 193.207 22.3529 186.308 18.168 180.31C15.171 176.033 12.1557 172.196 9.91253 169.957C9.40998 169.45 9.06277 168.865 8.87089 168.203C8.65159 167.476 8.61961 166.672 8.74297 165.772C9.80289 158.874 20.6945 146.657 33.811 128.584C34.3638 127.83 34.8983 127.104 35.4511 126.391C35.9902 125.683 36.543 125.002 37.0776 124.34C38.8776 122.115 40.6594 120.141 42.3954 118.405V118.391C42.8569 117.916 43.3274 117.473 43.7843 117.048C44.2457 116.623 44.7026 116.194 45.1458 115.801C45.6026 115.39 46.0595 115.01 46.5026 114.631C46.9412 114.252 47.3844 113.905 47.8275 113.558C48.7093 112.881 49.5773 112.251 50.4316 111.68C51.2997 111.113 52.1357 110.606 52.9581 110.136C53.7759 109.674 54.5982 109.268 55.3886 108.92C55.7175 108.76 56.0511 108.633 56.38 108.491C56.7272 108.368 57.0607 108.24 57.3759 108.13C57.5815 108.052 57.7871 107.988 57.9927 107.924C58.0247 107.906 58.0567 107.892 58.0887 107.892C58.3399 107.815 58.5912 107.733 58.8425 107.673C59.176 107.577 59.5095 107.5 59.8384 107.417C59.9344 107.404 60.0303 107.372 60.14 107.358C60.7841 107.212 61.4192 107.12 62.0314 107.056C65.965 106.659 69.1995 107.733 71.4245 109.788C72.5758 110.83 73.6174 113.699 74.5951 117.756C75.4494 121.311 76.2718 125.76 77.0576 130.717L77.2312 131.855C77.816 135.533 78.3688 139.462 78.9398 143.455C80.0135 151.112 81.0825 159.034 82.2384 166.106C83.1704 171.913 84.1618 177.139 85.2354 181.146C86.1217 184.444 87.0674 186.939 88.0908 188.236C92.7417 194.148 101.609 195.13 114.689 191.188Z" fill="#00467B"/>
<path opacity="0.431" d="M74.5951 117.756C73.7134 118.688 72.7174 119.524 71.7077 120.301C69.5285 121.973 67.2122 123.407 64.8091 124.732C59.7288 127.542 54.2967 129.831 49.2164 132.659C47.2747 133.733 45.397 134.884 43.565 136.113C30.9054 144.483 20.3473 155.863 8.74298 165.772C9.8029 158.874 20.6945 146.657 33.811 128.584C36.7304 124.559 39.6177 121.183 42.3955 118.405C49.8149 110.94 56.6039 107.609 62.0314 107.056C65.965 106.659 69.1996 107.733 71.4245 109.788C72.5758 110.83 73.6174 113.699 74.5951 117.756Z" fill="#002644"/>
<path d="M45.3376 85.3957C49.6367 79.4199 51.921 74.9884 52.186 72.0964C52.5926 67.7654 50.7789 50.9391 52.4921 50.2356C54.2053 49.532 59.0389 49.2259 59.642 50.9391C60.2496 52.6524 60.7522 88.8222 60.9532 93.7608C61.0857 97.0502 61.4923 100.509 62.1639 104.136L48.1565 102.322L45.3376 85.3957Z" fill="#DA9C8C"/>
<path d="M52.6931 86.406H48.6636C48.257 77.3373 46.4433 8.22314 47.0509 8.22314C47.4529 8.22314 49.3352 34.2826 52.6931 86.406Z" fill="#00467B"/>
<path d="M257.221 95.675L245.667 90.3068L233.67 106.69L233.656 106.722L226.315 116.732L201.598 150.476L177.417 99.4304L188.45 95.4694L205.404 89.3748L234.447 78.9264L237.051 77.9944L242.182 76.1487H242.195L242.433 76.0527L242.561 76.2126V76.2263L257.221 95.675Z" fill="#00467B"/>
<path d="M215.551 90.1786C214.843 92.6913 213.486 95.0579 211.494 97.0178C205.404 102.998 195.6 102.92 189.62 96.8122C189.19 96.3828 188.811 95.9442 188.45 95.4691L205.404 89.3745C208.607 90.7816 212.189 91.0512 215.551 90.1786Z" fill="#FFA861"/>
<path d="M233.657 106.722L226.315 116.732L222.559 118.468L230.5 109.627L223.505 98.9551L233.373 106.946L233.657 106.722Z" fill="#FFECE0"/>
<path d="M237.051 77.9941L238.865 86.1857L234.447 78.9261L237.051 77.9941Z" fill="#FFECE0"/>
<path d="M242.561 76.2126L242.195 76.1487L242.433 76.0527L242.561 76.2126Z" fill="#FFECE0"/>
<path d="M186.485 169.427L181.451 189.583L148.808 197.231L146.391 186.55L148.113 178.833L148.854 175.485L150.416 168.417L186.485 169.427Z" fill="#DA9C8C"/>
<path opacity="0.729" d="M183.548 172.487C181.638 176.261 178.12 179.02 174.25 180.697C170.367 182.351 166.141 183 161.938 183.347C158.735 183.598 155.423 183.68 152.454 182.447C150.704 181.72 149.091 180.428 148.113 178.833L148.854 175.484C150.955 175.786 153.559 175.959 155.282 175.786C164.688 174.79 174.173 173.83 183.548 172.487Z" fill="#00467B"/>
<path d="M142.357 123.498C142.394 123.503 142.439 123.508 142.49 123.512C147.054 109.057 162.203 100.596 177.001 104.539C191.465 108.395 211.101 118.514 203.718 138.876C200.141 145.688 192.63 159.709 187.591 169.102C184.293 175.247 177.896 179.076 170.925 179.085C161.605 179.089 148.612 177.956 139.406 172.515C128.793 166.242 129.775 149.905 142.357 123.498Z" fill="#DA9C8C"/>
<path d="M169.961 141.745C171.519 142.161 172.446 143.76 172.03 145.318C171.615 146.876 170.016 147.799 168.458 147.388C166.9 146.972 165.972 145.373 166.388 143.815C166.804 142.257 168.403 141.33 169.961 141.745Z" fill="#001F36"/>
<path d="M146.743 136.432C148.264 136.839 149.169 138.397 148.762 139.918C148.356 141.435 146.798 142.339 145.277 141.937C143.76 141.531 142.855 139.973 143.262 138.452C143.664 136.93 145.226 136.03 146.743 136.432Z" fill="#001F36"/>
<path d="M178.056 137.707C178.084 138.913 177.298 140.165 176.119 140.43C175.397 140.59 174.648 140.384 173.931 140.174C173.268 139.982 172.601 139.786 171.934 139.594C171.012 139.324 170.07 139.05 169.266 138.525C168.458 137.999 167.786 137.186 167.667 136.227C167.361 133.687 170.797 132.174 172.912 132.659C175.096 133.157 177.992 135.309 178.056 137.707Z" fill="#001F36"/>
<path d="M149.201 127.131C151.175 127.729 153.29 130.594 151.832 132.544C151.289 133.275 150.348 133.632 149.438 133.682C148.525 133.728 147.62 133.513 146.734 133.298C146.094 133.143 145.455 132.988 144.815 132.832C144.13 132.668 143.412 132.485 142.892 132.01C142.051 131.238 141.992 129.835 142.586 128.858C143.769 126.911 147.172 126.509 149.201 127.131Z" fill="#001F36"/>
<path d="M150.485 151.449C150.393 151.363 150.348 151.23 150.366 151.102C151.129 146.081 152.618 141.211 154.797 136.624C154.893 136.423 155.131 136.341 155.327 136.437C155.524 136.528 155.611 136.766 155.515 136.962C153.45 141.307 152.011 145.912 151.239 150.659C152.719 150.33 154.181 149.896 155.588 149.357C155.793 149.279 156.022 149.38 156.1 149.585C156.177 149.791 156.077 150.019 155.871 150.097C154.245 150.718 152.55 151.207 150.836 151.55C150.777 151.564 150.713 151.559 150.658 151.545C150.594 151.527 150.535 151.495 150.485 151.449Z" fill="#001F36"/>
<path d="M148.379 154.757C148.205 154.62 148.178 154.369 148.315 154.2C148.452 154.026 148.703 153.999 148.872 154.141C151.595 156.324 155.574 156.717 159.01 155.141C159.206 155.045 159.444 155.137 159.535 155.333C159.626 155.534 159.54 155.767 159.339 155.858C156.917 156.973 154.313 157.192 151.965 156.566C150.667 156.219 149.443 155.616 148.379 154.757Z" fill="#001F36"/>
<path d="M221.769 133.595C220.764 137.716 217.598 140.91 214.569 143.875C209.694 148.644 204.824 153.414 199.949 158.184C199.84 157.731 199.707 157.274 199.588 156.822C198.012 155.589 197.044 155.045 195.6 154.848C193.937 154.629 192.69 154.862 190.995 155.525C189.437 156.137 188.263 157.453 187.002 158.558C183.772 152.043 183.223 143.779 186.138 137.118C180.743 137.415 175.375 133.102 174.022 127.866C173.588 126.185 173.533 124.431 173.552 122.699C173.565 121.429 173.639 120.159 173.771 118.898C171.446 119.771 168.787 120.031 166.274 120.086C164.063 120.136 161.819 120.09 159.695 119.474C157.575 118.857 155.56 117.605 154.432 115.704C153.299 113.809 153.221 111.214 154.574 109.464C151.252 111.072 146.716 108.235 144.966 104.986C143.216 101.738 143.92 97.4985 146.213 94.6066C148.507 91.7192 152.157 90.1065 155.825 89.7501C159.499 89.3984 163.204 90.1933 166.676 91.4405C170.148 92.6878 173.437 94.3782 176.8 95.8995C184.028 99.1615 191.616 101.638 199.378 103.26C201.982 103.803 204.659 104.274 206.967 105.594C211.64 108.276 213.856 114.571 211.892 119.588C215.09 119.976 218.233 121.721 220.069 124.371C221.901 127.021 222.536 130.466 221.769 133.595Z" fill="#002644"/>
<path d="M184.512 153.505C187.312 151.472 191.113 150.426 194.526 151.116C197.432 151.7 200.073 153.683 201.324 156.283C201.557 156.731 201.736 157.187 201.854 157.644C201.996 158.147 202.101 158.658 202.128 159.184C202.243 160.92 201.786 162.633 201.146 164.26C200.447 166.055 199.465 167.855 197.902 168.993C196.07 170.304 193.686 170.56 191.429 170.532C188.08 170.509 184.334 169.811 182.374 167.083C181.158 165.384 180.843 163.149 181.122 161.075C181.455 158.494 182.301 155.122 184.512 153.505Z" fill="#DA9C8C"/>
<path d="M193.393 155.374C196.111 154.707 198.976 155.081 201.324 156.283C201.557 156.731 201.735 157.187 201.854 157.644C199.533 156.118 196.445 155.538 193.603 156.246C190.387 157.055 187.49 159.362 185.709 162.501C185.517 162.802 185.352 163.145 185.188 163.474C185.101 163.675 184.868 163.78 184.676 163.725C184.644 163.716 184.63 163.698 184.594 163.689C184.416 163.602 184.311 163.428 184.347 163.232C184.338 163.191 184.352 163.14 184.384 163.095C186.193 159.22 189.574 156.338 193.393 155.374Z" fill="#00467B"/>
<path d="M183.708 164.182C183.57 163.977 183.63 163.698 183.835 163.561C187.312 161.281 194.302 159.024 198.259 162.647C198.441 162.816 198.455 163.099 198.286 163.282C198.117 163.465 197.834 163.479 197.656 163.309C194.266 160.189 187.819 162.021 184.329 164.31C184.215 164.383 184.087 164.401 183.968 164.369C183.863 164.342 183.772 164.278 183.708 164.182Z" fill="#00467B"/>
<path d="M67.8518 76.3144L67.8199 76.6479C67.8199 76.6571 67.8199 76.6616 67.8199 76.6616L67.532 79.5033C67.532 79.549 67.5183 79.5993 67.5183 79.6449C67.5092 79.6449 67.5046 79.6449 67.5046 79.6449C67.4864 79.8048 67.4224 79.9465 67.3584 80.0698C67.1254 80.5267 66.664 80.8465 66.1432 80.9059L64.2198 81.1297L63.9822 81.1617V85.9131C63.9822 86.0045 63.9685 86.1004 63.9502 86.1963C63.9365 86.3517 63.8726 86.5116 63.7949 86.6532C63.5391 87.1283 63.0502 87.4573 62.4837 87.4893L60.1491 87.6172C60.1583 87.6903 60.1674 87.7954 60.1766 87.9324C60.3684 89.8421 61.4238 100.071 62.438 105.846C62.5477 106.476 62.6573 107.061 62.767 107.568C63.3974 110.488 64.4071 117.482 65.2157 123.527C60.1309 126.336 54.7033 128.625 49.6185 131.449C47.6768 132.522 45.7991 133.673 43.9671 134.907C43.7158 130.329 43.3046 123.527 42.8021 117.194C42.1533 109.368 41.3173 102.264 40.399 100.921C38.1923 97.6864 34.5603 94.8767 34.3547 87.8228C34.1674 81.5546 35.7436 69.4341 36.1091 66.7797V66.766C36.1091 66.6701 36.1228 66.5924 36.141 66.5284C36.141 66.4827 36.141 66.4005 36.1547 66.3228C36.1639 66.2909 36.1684 66.2726 36.1684 66.2589C36.1593 66.2589 36.1547 66.2543 36.1547 66.2452C36.0908 66.1812 35.9492 66.0213 35.7436 65.7563C35.1131 64.8883 34.0075 62.8324 34.1491 59.2049C34.3547 54.1703 36.1684 52.955 38.7908 52.7495C39.5035 52.6992 40.4173 52.6398 41.4132 52.5576C41.7422 52.5439 42.0757 52.5119 42.4046 52.4936C43.5879 52.4022 44.7894 52.3246 45.6712 52.2606C46.5392 52.1967 47.2976 52.8591 47.3616 53.7271L47.4392 55.0064L47.4712 55.4769L47.5215 56.1257C47.5809 57.0577 46.8407 57.8298 45.9087 57.7978C44.2823 57.7521 42.1351 58.0354 42.167 59.977C42.167 60.1049 42.1853 60.2603 42.2173 60.4202C47.4666 58.7892 52.451 60.0318 57.1658 64.1436C57.3212 64.2852 57.4628 64.4771 57.5405 64.6644C57.6044 64.8061 57.6547 64.9477 57.6684 65.0939C57.7004 65.3452 57.6684 65.5964 57.5907 65.834L56.91 67.8076C56.8643 67.995 56.8003 68.1686 56.7364 68.3422C56.7272 68.3559 56.7227 68.365 56.7227 68.3741L56.7044 68.4061L56.6587 68.5341V68.5478L56.5308 68.927L56.4211 69.2285C56.1379 70.0326 55.2836 70.4757 54.4795 70.2199C54.0409 70.0782 53.5338 69.9366 52.981 69.763C52.949 69.763 52.9353 69.763 52.9033 69.7493C52.0033 69.4935 50.9936 69.2285 49.984 69.0229C49.7921 68.9726 49.6185 68.927 49.4449 68.895C47.7727 68.566 46.224 68.3924 45.4382 68.6757C45.4062 68.7259 45.3697 68.7945 45.324 68.8813C45.027 69.4935 44.3783 71.3118 46.7128 72.2758C46.7265 72.2758 46.7357 72.2803 46.7448 72.2895C47.156 72.4631 47.6631 72.6047 48.2616 72.7006C49.2256 72.8742 50.5962 73.0478 52.1769 73.2215C52.3825 73.2352 52.5881 73.2671 52.8074 73.2854C56.9602 73.756 62.2781 74.2311 65.3711 74.5007H65.4031C65.7823 74.5327 66.1158 74.5646 66.4127 74.592C66.5726 74.6103 66.728 74.6423 66.8696 74.7063C67.5046 74.9575 67.9112 75.6063 67.8518 76.3144Z" fill="#DA9C8C"/>
<path d="M36.1093 66.7674C36.1093 66.6714 36.123 66.5937 36.1412 66.5298V66.6577C36.1412 66.6851 36.123 66.7354 36.1093 66.7674Z" fill="#00467B"/>
<path d="M57.8284 65.8809C57.7781 66.0728 57.7461 66.2601 57.7005 66.4657C57.5725 67.1464 57.4172 67.9048 57.1339 68.581L57.006 68.8505C56.6131 69.7825 55.9187 70.4906 54.6715 70.4906C54.5116 70.4906 54.3242 70.4769 54.1324 70.4587C52.8714 70.2713 51.5465 69.9241 50.2673 69.5906C48.8145 69.2114 47.4393 68.8505 46.5073 68.8505C46.0505 68.8505 45.6576 68.8642 45.3241 68.8825C44.7164 68.9236 44.2596 68.9739 43.9535 69.0378C43.8118 69.0698 43.6839 68.9921 43.6702 68.8642C43.6382 68.7409 43.7159 68.6129 43.8438 68.581C43.8758 68.5673 44.7575 68.3754 46.5073 68.3754C47.284 68.3754 48.3074 68.5992 49.445 68.8962C49.6186 68.9282 49.7922 68.9739 49.984 69.0241C50.1257 69.0561 50.249 69.1018 50.3907 69.1338C51.213 69.3531 52.0673 69.5769 52.9034 69.7505C52.9354 69.7642 52.9491 69.7642 52.9811 69.7642C53.3922 69.8602 53.8034 69.9241 54.1963 69.9881C55.3659 70.1617 56.042 69.7185 56.4852 68.9145C56.5492 68.8003 56.5948 68.6769 56.6588 68.549V68.5353C56.6908 68.485 56.7045 68.4256 56.7228 68.3754C56.7228 68.3662 56.7273 68.3571 56.7365 68.3434C56.8004 68.1698 56.8644 67.9962 56.9101 67.8089C57.038 67.384 57.1339 66.8906 57.2436 66.3697C57.2756 66.1687 57.3213 65.9768 57.3532 65.7895C57.3989 65.552 57.4309 65.3281 57.4309 65.1408V65.1225C57.4309 64.9032 57.3852 64.6976 57.3076 64.524C56.974 63.7656 55.9324 63.1854 53.6618 62.1118C53.2826 61.9199 52.9171 61.7463 52.5882 61.5727C50.1714 60.3574 48.7185 59.6173 42.6423 60.3757C36.9589 61.0838 36.2325 64.9672 36.1548 66.2464C36.0909 66.1824 35.9492 66.0225 35.7437 65.7575C35.9949 64.1311 37.1325 60.7686 42.1671 59.9782C42.3088 59.9463 42.455 59.9326 42.5966 59.9143C48.8145 59.1285 50.313 59.8823 52.7938 61.1478C53.1227 61.3214 53.4882 61.495 53.8674 61.6823C56.8964 63.1352 58.267 63.7839 57.8284 65.8809Z" fill="#00467B"/>
<path d="M56.7912 68.9875C56.773 68.9875 56.7547 68.9875 56.741 68.9829C55.48 68.7043 54.2419 68.2885 53.0678 67.754C52.3186 67.4113 51.4871 66.9636 50.9754 66.2098C50.482 65.488 50.3358 64.3275 51.0302 63.6011C51.3591 63.2539 51.848 63.0437 52.483 62.9706C54.2785 62.7559 55.9506 63.6833 57.641 64.725C57.7552 64.7935 57.7872 64.9397 57.7187 65.0494C57.6501 65.1636 57.504 65.1956 57.3943 65.127C55.777 64.1311 54.1917 63.2585 52.5379 63.4412C52.017 63.5006 51.6241 63.6651 51.3729 63.93C50.8657 64.4554 50.9754 65.3646 51.3683 65.9448C51.8114 66.5981 52.5744 67.0093 53.2643 67.32C54.3562 67.8179 55.4983 68.2063 56.6633 68.4804L56.7181 68.3708C56.7775 68.252 56.9192 68.2063 57.0334 68.2657C57.1522 68.3251 57.1978 68.4667 57.1385 68.5809L57.0014 68.8596C56.9603 68.9418 56.878 68.9875 56.7912 68.9875Z" fill="#00467B"/>
<path d="M47.4713 55.4779C46.1921 55.8114 44.8854 55.9714 43.5742 55.9714H43.1174C41.9158 55.9394 41.1574 55.6059 40.7965 54.9754C40.463 54.4089 40.527 53.6322 40.9519 53.0337C41.0798 52.8601 41.2397 52.6865 41.4133 52.5586C41.7422 52.5449 42.0757 52.5129 42.4047 52.4946C41.9341 52.7002 41.5686 52.9698 41.3493 53.3033C41.0158 53.7419 40.9701 54.3266 41.2077 54.7378C41.4727 55.213 42.1077 55.4642 43.1311 55.4962C44.5839 55.5282 46.0367 55.3683 47.4393 55.0074L47.4713 55.4779Z" fill="#00467B"/>
<path d="M53.1363 81.6882C48.4718 81.6882 44.1499 81.542 44.0859 81.5374C43.958 81.5329 43.8529 81.4232 43.8575 81.2953C43.862 81.1628 43.9488 81.076 44.1042 81.0669C44.2001 81.0714 53.9039 81.4004 59.9345 81.0669L60.5604 81.0303C64.9417 80.7928 64.9417 80.7928 65.5813 80.6283C65.732 80.5917 65.9148 80.546 66.1935 80.4821C66.559 80.4044 66.8559 80.1303 67.0798 79.6734C67.5778 78.6592 67.5823 76.9231 67.0889 75.8815C66.4265 74.4835 65.7183 74.4332 62.7396 74.2094C61.7528 74.1363 60.5238 74.0449 58.9796 73.8804C52.8074 73.218 44.1636 72.5464 44.0768 72.5372C43.9443 72.5281 43.8483 72.4139 43.8575 72.286C43.8666 72.1535 43.9945 72.053 44.1133 72.0667C44.2001 72.0713 52.8531 72.7474 59.0299 73.4099C60.5649 73.5743 61.7893 73.6657 62.7761 73.7388C65.8143 73.9627 66.7326 74.0358 67.5138 75.6759C68.0712 76.85 68.0712 78.7369 67.5047 79.8836C67.2168 80.4684 66.8011 80.8384 66.294 80.9481C66.0244 81.0029 65.8417 81.0532 65.6955 81.0897C65.0102 81.2633 65.0102 81.2633 60.5878 81.5055L59.9573 81.5374C57.9288 81.6517 55.4892 81.6882 53.1363 81.6882Z" fill="#00467B"/>
<path d="M64.1376 80.6461C63.9046 80.6461 63.6716 80.6278 63.4386 80.5958C61.9675 80.3765 61.2639 78.8278 61.2274 77.3887C61.2137 76.9501 61.2685 76.5846 61.3964 76.2648C62.0863 74.5516 64.6036 74.8439 66.2711 75.0358C66.6001 75.0769 66.897 75.1089 67.1483 75.1272C67.2808 75.1363 67.3768 75.246 67.3676 75.3785C67.3585 75.5064 67.2443 75.5886 67.1163 75.5978C66.8605 75.5841 66.5544 75.5475 66.2163 75.5064C64.6036 75.3191 62.3924 75.0632 61.835 76.443C61.7345 76.6988 61.6888 77.0049 61.698 77.375C61.7345 78.6176 62.3056 79.9471 63.5071 80.1253C64.5214 80.2806 65.5813 80.0156 66.6047 79.7644C66.8422 79.705 67.0798 79.6456 67.3128 79.5907C67.4407 79.5633 67.5686 79.6456 67.596 79.7689C67.628 79.8968 67.5458 80.0248 67.4179 80.0522C67.1894 80.107 66.9519 80.1618 66.7189 80.2212C65.8737 80.4314 65.0102 80.6461 64.1376 80.6461Z" fill="#00467B"/>
<path d="M46.9504 88.7104C46.8225 88.7104 46.7174 88.6099 46.7129 88.4774C46.7083 88.3495 46.8134 88.2399 46.9413 88.2353C54.6303 88.0388 63.0959 87.4404 63.635 86.7185C64.0371 86.184 63.9183 83.0408 63.7492 81.1813C63.7355 81.0534 63.8315 80.9392 63.9594 80.9255C64.1056 80.9027 64.2061 81.0077 64.2198 81.1402C64.2929 81.9717 64.6401 86.1657 64.0142 87.0018C63.0914 88.2353 49.6413 88.6419 46.955 88.7104H46.9504Z" fill="#00467B"/>
<path d="M61.4193 86.8506C60.9168 86.8506 60.4096 86.8232 59.866 86.7729C59.5827 86.7455 59.2812 86.7135 58.9888 86.613C58.2944 86.3755 57.7461 85.7861 57.5634 85.0688C57.3807 84.3516 57.5771 83.5703 58.0751 83.0267C58.7649 82.2774 59.8523 82.1084 60.83 82.049C61.8807 81.9805 62.9452 81.9713 63.9869 82.017C64.1194 82.0261 64.2199 82.1358 64.2153 82.2637C64.2062 82.3962 64.0874 82.4876 63.964 82.4921C62.9361 82.4465 61.8899 82.4556 60.8619 82.5196C59.9345 82.5789 58.9979 82.7206 58.4223 83.3465C58.0385 83.7668 57.8786 84.3973 58.0203 84.9501C58.1619 85.5074 58.6005 85.9826 59.1441 86.1653C59.3863 86.2475 59.6558 86.2795 59.9117 86.3024C61.3051 86.4303 62.4427 86.3937 63.8361 86.1744C63.9686 86.1516 64.0874 86.243 64.1102 86.3709C64.1285 86.4988 64.0417 86.6222 63.9138 86.6405C63.0183 86.7821 62.2325 86.8506 61.4193 86.8506Z" fill="#00467B"/>
<path d="M237.955 247.756C237.252 250.265 235.899 252.636 233.903 254.6C227.813 260.585 218.013 260.498 212.024 254.399C206.039 248.309 206.126 238.509 212.22 232.525C214.212 230.565 216.606 229.253 219.133 228.6C217.684 233.758 218.963 239.533 222.988 243.631C227.018 247.729 232.765 249.109 237.955 247.756Z" fill="#FFA861"/>
<path d="M85.2354 181.146C77.7063 181.653 70.762 176.541 69.1356 168.948C68.5508 166.216 68.7244 163.484 69.5285 161.007C72.6717 164.511 77.3454 166.485 82.2384 166.106C83.1704 171.913 84.1618 177.139 85.2354 181.146Z" fill="#FFA861"/>
<path d="M32.2805 177.929C27.5931 176.413 22.3026 177.171 18.168 180.31C15.171 176.033 12.1557 172.196 9.9125 169.957C9.40995 169.45 9.06273 168.865 8.87085 168.203C15.107 164.228 23.4859 165.206 28.6164 170.857C30.4941 172.94 31.7094 175.385 32.2805 177.929Z" fill="#FFA861"/>
<path d="M124.398 253.234C126.837 254.157 129.081 255.715 130.858 257.876C136.281 264.473 135.326 274.223 128.724 279.65C122.127 285.073 112.373 284.123 106.95 277.526C105.173 275.365 104.081 272.861 103.656 270.289C108.663 272.19 114.529 271.427 118.966 267.776C123.406 264.126 125.289 258.525 124.398 253.234Z" fill="#FFA861"/>
<path d="M74.129 219.632L74.0376 209.681L77.1443 219.083L85.9069 218.078L79.1499 221.825L83.3804 230.77L76.6234 224.26L73.5213 232.657L73.7635 223.282L65.1836 222.099L74.129 219.632Z" fill="#FFECE0"/>
<path d="M185.334 271.801L193.302 262.814L188.477 273.747L197.139 279.933L188.061 277.822L184.617 289.258L183.831 277.964L174.26 282.976L182.054 274.775L175.329 266.775L185.334 271.801Z" fill="#FFECE0"/>
<path d="M143.239 219.124L136.253 208.466L146.108 216.447L154.857 209.297L150.165 218.01L160.919 224.721L149.128 222.382L151.599 233.58L145.372 223.314L135.303 227.974L143.239 219.124Z" fill="#FFECE0"/>
<path d="M208.022 215.447L201.785 205.172L191.716 209.841L198.834 201.887C201.173 203.404 203.617 205.03 206.098 206.716L208.022 215.447Z" fill="#FFECE0"/>
<path d="M78.9397 143.455L75.23 150.591L76.6326 138.658L65.6633 142.002L75.4173 134.98L69.9715 125.304L77.0575 130.718L78.9397 143.455Z" fill="#FFECE0"/>
<path d="M219.64 185.052C221.467 186.952 227.758 188.181 231.861 188.798C232.496 188.894 232.519 189.798 231.888 189.926C229.01 190.493 225.035 191.42 222.308 192.613C219.311 193.924 218.059 199.694 217.543 203.774C217.46 204.413 216.551 204.455 216.419 203.824C215.715 200.494 214.578 196.035 213.189 193.947C211.768 191.813 206.254 190.2 202.069 189.25C201.425 189.104 201.493 188.167 202.151 188.122C205.564 187.889 209.813 187.322 211.964 185.943C214.313 184.435 215.455 179.574 216.008 175.43C216.099 174.763 217.058 174.768 217.141 175.435C217.63 179.341 218.434 183.8 219.64 185.052Z" fill="#FFECE0"/>
<path d="M118.349 96.795C120.176 98.6955 126.472 99.9199 130.57 100.541C131.205 100.637 131.228 101.542 130.597 101.665C127.719 102.236 123.749 103.159 121.017 104.356C118.024 105.667 116.773 111.437 116.256 115.517C116.174 116.157 115.26 116.198 115.128 115.563C114.429 112.237 113.291 107.778 111.898 105.69C110.477 103.557 104.967 101.944 100.778 100.994C100.134 100.847 100.207 99.9108 100.865 99.8651C104.277 99.6321 108.522 99.0656 110.678 97.6813C113.026 96.1782 114.168 91.3126 114.721 87.1689C114.808 86.5064 115.772 86.511 115.854 87.1734C116.343 91.0842 117.143 95.5386 118.349 96.795Z" fill="#FFECE0"/>
<path d="M57.4947 254.906C59.3221 256.806 65.6177 258.035 69.7157 258.652C70.3553 258.748 70.3736 259.653 69.7432 259.78C66.8649 260.347 62.8948 261.274 60.1628 262.467C57.1703 263.778 55.9185 269.548 55.4023 273.628C55.32 274.268 54.4109 274.309 54.2738 273.678C53.5748 270.348 52.4372 265.889 51.0484 263.801C49.6229 261.667 44.1132 260.055 39.9238 259.104C39.2796 258.958 39.3527 258.022 40.0106 257.976C43.4233 257.743 47.6676 257.176 49.824 255.797C52.1722 254.289 53.3144 249.428 53.8672 245.284C53.954 244.617 54.918 244.622 55.0002 245.284C55.4891 249.195 56.2886 253.654 57.4947 254.906Z" fill="#FFECE0"/>
<path d="M250.766 237.692C247.883 237.313 245.306 235.435 243.799 232.95C242.291 230.469 241.802 227.445 242.145 224.557C242.373 222.593 243.072 220.532 244.699 219.404C246.321 218.275 249.011 218.627 249.752 220.459C250.446 222.177 249.112 224.137 247.444 224.955C244.84 226.234 241.496 225.517 239.395 223.511C237.293 221.51 236.407 218.422 236.763 215.539C237.138 212.501 239.239 209.389 242.282 209.074" stroke="#FFA8DE" stroke-width="3.455" stroke-linecap="round" stroke-linejoin="round"/>
<path d="M27.1957 206.699C29.8089 205.433 32.9978 205.593 35.6202 206.84C38.2426 208.092 40.3122 210.353 41.6097 212.948C42.4914 214.717 43.0397 216.827 42.2995 218.659C41.564 220.491 39.1198 221.675 37.4979 220.551C35.972 219.495 36.0131 217.124 36.9588 215.53C38.4345 213.026 41.6234 211.793 44.4788 212.313C47.3342 212.839 49.7738 214.936 51.0576 217.54C52.4099 220.286 52.3596 224.037 49.9885 225.974" stroke="#FFA8DE" stroke-width="3.455" stroke-linecap="round" stroke-linejoin="round"/>
<path d="M117.024 129.644C117.673 132.477 116.805 135.547 115 137.822C113.195 140.097 110.527 141.605 107.704 142.29C105.78 142.756 103.606 142.815 101.984 141.682C100.362 140.554 99.7545 137.909 101.216 136.579C102.587 135.327 104.89 135.903 106.233 137.178C108.339 139.179 108.828 142.564 107.676 145.232C106.525 147.896 103.939 149.801 101.111 150.468C98.1326 151.171 94.4868 150.281 93.1345 147.535" stroke="#FFA8DE" stroke-width="3.455" stroke-linecap="round" stroke-linejoin="round"/>
</svg>
