<svg width="305" height="307" viewBox="0 0 305 307" fill="none" xmlns="http://www.w3.org/2000/svg">
<path d="M158.639 306.55C152.276 306.55 145.86 306.134 139.561 305.315C138.841 305.222 138.066 305.114 137.306 305.001C135.179 304.702 133.007 304.335 130.87 303.913C130.777 303.899 130.689 303.884 130.596 303.869C128.513 303.477 126.331 303.002 124.106 302.462C123.38 302.291 122.601 302.095 121.817 301.894C120.395 301.536 119.028 301.154 117.665 300.757C117.655 300.757 117.469 300.708 117.381 300.678C116.072 300.296 114.763 299.894 113.464 299.462L113.302 299.409C111.974 298.992 110.758 298.575 109.548 298.144L108.43 297.742C107.327 297.34 106.219 296.933 105.136 296.502C103.798 295.977 102.44 295.423 101.092 294.845C100.852 294.747 100.617 294.644 100.377 294.536C100.342 294.526 100.313 294.512 100.283 294.497C99.5972 294.213 98.9452 293.914 98.2688 293.6C98.0629 293.512 97.2492 293.159 97.1757 293.125C96.9796 293.036 94.6562 291.919 93.9651 291.585C92.9847 291.1 92.47 290.84 92.421 290.816C92.2985 290.752 92.1857 290.693 92.073 290.634C90.6858 289.924 89.2937 289.198 87.9359 288.458C87.8722 288.424 87.8085 288.389 87.7496 288.355C87.3281 288.115 86.9212 287.885 86.4997 287.654C86.4458 287.625 86.3968 287.6 86.3477 287.571C86.0634 287.409 85.784 287.238 85.5046 287.066L85.1958 286.88C83.7351 286.032 82.2891 285.159 80.8529 284.262L79.4804 283.399C77.353 282.037 75.51 280.802 73.8385 279.62C73.8042 279.596 73.5052 279.385 73.4022 279.306C68.6328 275.9 64.0203 272.17 59.692 268.214C58.6529 267.283 57.5696 266.263 56.5304 265.238C52.2071 261.082 47.9278 256.376 43.8692 251.327C43.0016 250.234 42.1781 249.166 41.3546 248.077C40.3693 246.754 39.3498 245.367 38.34 243.896C36.6881 241.558 34.9676 238.926 33.1442 235.946C32.9481 235.632 32.7177 235.245 32.4824 234.833C30.4335 237.49 27.6493 238.828 24.1494 238.828C21.2427 238.828 18.4438 237.735 15.5812 235.49C8.75796 230.127 10.9196 221.652 13.6499 214.799C8.22367 211.947 4.54736 208.859 2.49353 205.432C0.777915 202.555 -0.83476 197.83 0.48381 191.021C0.474007 190.889 0.469104 190.761 0.464203 190.629C0.439694 189.457 0.640666 188.296 1.04751 187.208C0.0867683 183.938 1.20927 181.129 2.83175 178.943C1.8514 174.389 2.46902 171.973 2.71901 171.007C3.97385 166.106 7.99819 163.748 12.2725 162.503C12.2676 161.988 12.2627 161.478 12.2627 160.968C12.2627 144.641 14.9587 128.651 20.2722 113.377C15.6498 106.02 13.1499 97.4271 13.1499 88.6971C13.1499 63.1296 33.948 42.3266 59.5156 42.3266C63.6281 42.3266 67.677 42.8658 71.6082 43.9295C80.2402 37.5719 89.5094 32.1898 99.2442 27.8909C99.6413 27.6164 100.063 27.3763 100.504 27.1704L100.641 27.1067C100.877 26.9988 101.127 26.8812 101.372 26.7733C101.955 26.5234 102.548 26.3371 103.156 26.2194C111.332 22.8765 119.866 20.2785 128.581 18.4698C129.424 17.808 130.385 17.3032 131.424 16.9797C132.057 16.7885 132.679 16.6463 133.341 16.5532C133.767 16.4895 134.189 16.4601 134.615 16.4601C135.571 16.4601 136.512 16.6169 137.404 16.911C144.424 15.9013 151.561 15.3866 158.639 15.3866C162.163 15.3866 165.79 15.5238 169.462 15.7934C190.824 1.1127 192.745 0.686244 194.774 0.235284C195.466 0.0784277 196.191 0 196.912 0C201.166 0 206.431 0.00490092 224.043 30.7291C228.219 32.8074 232.263 35.0573 236.091 37.4445C236.356 37.5964 236.616 37.7582 236.876 37.915C245.547 43.3854 253.561 49.6988 260.801 56.7524C261.071 56.9926 261.325 57.2426 261.571 57.5073C261.953 57.8749 262.335 58.2524 262.718 58.6347C262.972 58.8651 263.218 59.1151 263.458 59.3798C268.026 64.0266 272.33 69.0509 276.251 74.3252C276.359 74.4575 276.639 74.8252 276.673 74.8742C284.55 85.5404 290.903 97.1722 295.569 109.456C295.652 109.652 295.726 109.843 295.795 110.034C298.74 117.882 301.01 126.053 302.544 134.347C302.608 134.641 302.662 134.94 302.706 135.234C302.946 136.494 303.177 137.876 303.427 139.538C303.471 139.778 303.505 140.023 303.534 140.259C304.51 147.043 305 154.008 305 160.968C305 168.792 304.373 176.6 303.137 184.183C303.132 184.222 303.128 184.257 303.123 184.291C303.03 184.914 302.931 185.516 302.814 186.124C302.809 186.159 302.804 186.198 302.794 186.232C300.137 201.457 295.03 216.128 287.614 229.838C287.594 229.872 287.574 229.912 287.555 229.946C287.432 230.186 287.305 230.421 287.167 230.666L286.663 231.588C286.599 231.706 286.53 231.823 286.462 231.941C286.074 232.637 285.677 233.313 285.27 233.995L285.06 234.357C284.094 236.009 283.143 237.563 282.163 239.078C281.241 240.553 280.217 242.053 279.256 243.45C268.933 258.337 256.12 271.032 241.14 281.213C240.836 281.439 240.532 281.645 240.223 281.841C238.797 282.797 237.346 283.723 235.88 284.625C235.518 284.855 235.126 285.095 234.733 285.331C233.351 286.174 231.954 286.997 230.538 287.791L230.165 288.007C228.66 288.85 227.141 289.649 225.611 290.433L224.268 291.115C222.945 291.777 221.611 292.419 220.263 293.046L219.445 293.428C217.93 294.12 216.357 294.791 214.778 295.443C214.509 295.556 214.048 295.742 213.391 296.007C211.989 296.57 210.573 297.115 209.146 297.639L208.416 297.909C206.838 298.477 205.156 299.046 203.279 299.644L202.362 299.928C200.436 300.526 198.686 301.036 197.005 301.492C196.872 301.531 196.735 301.575 196.593 301.609C191.304 303.021 185.843 304.144 180.339 304.952C180.334 304.957 180.334 304.957 180.329 304.957C180.152 304.987 179.937 305.016 179.692 305.041C178.378 305.232 177.064 305.408 175.751 305.555C170.854 306.119 165.986 306.443 161.325 306.521H161.168C160.335 306.536 159.487 306.55 158.639 306.55Z" fill="white"/>
<path d="M296.177 160.968C296.177 168.453 295.574 175.806 294.397 182.953C294.397 182.963 294.397 182.968 294.397 182.968C294.309 183.556 294.221 184.115 294.103 184.688C294.103 184.698 294.103 184.708 294.103 184.717C291.559 199.29 286.663 213.054 279.854 225.642C279.854 225.642 279.849 225.647 279.839 225.657C279.722 225.892 279.604 226.113 279.472 226.348C279.281 226.701 279.089 227.039 278.898 227.392C278.888 227.402 278.883 227.407 278.883 227.407C278.428 228.245 277.942 229.054 277.457 229.877C276.589 231.363 275.692 232.833 274.751 234.289C273.869 235.701 272.928 237.083 271.987 238.45C262.311 252.406 250.091 264.493 236.003 274.037C235.797 274.199 235.591 274.331 235.385 274.464C223.106 282.699 209.445 289.007 194.784 292.948H194.769C194.608 293.007 194.446 293.051 194.284 293.095C189.314 294.419 184.226 295.463 179.05 296.227C178.932 296.242 178.814 296.271 178.697 296.271C177.388 296.463 176.079 296.639 174.77 296.786C170.3 297.301 165.771 297.624 161.183 297.698C160.344 297.713 159.492 297.727 158.639 297.727C152.551 297.727 146.566 297.33 140.698 296.566C139.992 296.477 139.272 296.374 138.566 296.271C136.478 295.977 134.404 295.624 132.346 295.213C132.302 295.213 132.272 295.198 132.228 295.198C130.199 294.816 128.184 294.374 126.184 293.889C125.434 293.713 124.684 293.522 123.934 293.33C122.655 293.007 121.39 292.654 120.126 292.286C120.037 292.257 119.949 292.228 119.861 292.213C118.655 291.86 117.449 291.492 116.258 291.095C116.126 291.051 115.993 291.007 115.846 290.963C114.729 290.61 113.611 290.228 112.494 289.831C112.288 289.757 112.082 289.684 111.876 289.61C110.714 289.184 109.538 288.757 108.391 288.301C107.082 287.787 105.773 287.257 104.479 286.698C103.582 286.331 102.7 285.934 101.818 285.522C101.494 285.39 101.171 285.243 100.862 285.11C100.7 285.037 100.553 284.963 100.406 284.89C100.244 284.816 100.082 284.743 99.9353 284.669C98.803 284.14 97.7001 283.596 96.5825 283.037C90.421 279.934 84.5242 276.375 78.9362 272.42C78.8186 272.331 78.701 272.258 78.5833 272.17C74.0541 268.934 69.7308 265.435 65.6427 261.699C64.6428 260.802 63.6722 259.891 62.7164 258.95C58.4518 254.847 54.4667 250.435 50.7463 245.803C49.9522 244.803 49.1728 243.788 48.3935 242.759C47.4523 241.494 46.5112 240.215 45.6142 238.906C43.8789 236.451 42.2467 233.921 40.6732 231.348C40.4232 230.951 40.1879 230.539 39.9526 230.127C39.2615 228.951 38.5851 227.774 37.9233 226.583C37.8645 226.466 37.791 226.333 37.7322 226.201C37.1145 225.113 36.541 223.995 35.9675 222.878C35.247 221.495 34.5705 220.113 33.9088 218.701C33.85 218.584 33.7911 218.466 33.747 218.348C33.6147 218.084 33.4823 217.804 33.3647 217.54C27.9385 205.658 24.1445 192.864 22.3505 179.424C22.3064 179.262 22.2916 179.1 22.2769 178.938C22.1299 177.88 22.0122 176.821 21.8946 175.747C21.8799 175.615 21.8652 175.483 21.8505 175.336C21.3358 170.615 21.0858 165.821 21.0858 160.968C21.0858 143.822 24.2621 127.426 30.056 112.309C30.1737 112.015 30.2766 111.735 30.3942 111.441C31.5265 108.544 32.7471 105.691 34.0853 102.897C34.247 102.545 34.4088 102.192 34.5705 101.853C48.8934 72.1929 73.6424 48.4734 104.097 35.4004C104.303 35.2975 104.509 35.2092 104.715 35.1357C104.95 35.0328 105.185 34.9298 105.42 34.8269C105.553 34.7681 105.685 34.7093 105.817 34.6651C114.538 31.0477 123.714 28.3125 133.228 26.5478C133.404 26.5037 133.596 26.4743 133.772 26.4596C134.654 26.2832 135.537 26.1361 136.419 25.9891C136.654 25.9449 136.904 25.9008 137.154 25.8714C144.154 24.7832 151.33 24.2097 158.639 24.2097C185.417 24.2097 210.431 31.827 231.562 45.0176C231.797 45.15 232.033 45.297 232.268 45.4441C240.429 50.5909 248.002 56.576 254.855 63.2815C254.973 63.3698 255.09 63.4874 255.208 63.6345C255.708 64.105 256.208 64.605 256.708 65.105C256.826 65.1932 256.914 65.2962 256.987 65.3844C261.414 69.8695 265.516 74.6634 269.281 79.7367C269.384 79.8544 269.472 79.9867 269.575 80.1191C276.928 90.0745 282.957 101.045 287.398 112.794C287.457 112.912 287.501 113.044 287.545 113.162C290.309 120.529 292.442 128.205 293.898 136.117V136.131C293.942 136.293 293.971 136.455 293.986 136.617C294.265 138.058 294.5 139.514 294.721 140.984C294.75 141.116 294.765 141.263 294.78 141.396C295.706 147.793 296.177 154.322 296.177 160.968Z" fill="#0090FF"/>
<g opacity="0.788">
<path opacity="0.788" d="M104.867 34.8759C102.18 39.6992 97.9992 43.9442 93.9895 47.7675C85.1419 56.1299 75.8629 64.4923 66.8878 72.5851C55.4912 82.8836 43.9721 93.29 32.8696 104.074C33.0314 103.711 33.2029 103.348 33.4039 102.991V102.971C44.2515 92.4715 55.4912 82.315 66.6084 72.2714C75.5835 64.1786 84.8576 55.8162 93.6905 47.4489C97.5433 43.802 101.553 39.7483 104.224 35.1749C104.43 35.0818 104.646 34.969 104.867 34.8759Z" fill="#FFECE0"/>
<path opacity="0.788" d="M134.61 25.2833C134.404 25.5774 134.184 25.8568 133.978 26.1509C133.904 26.2538 133.831 26.3567 133.772 26.4597C128.728 33.7388 125.875 42.4443 123.111 50.8851C119.729 61.2817 116.185 72.0165 108.538 79.9427C103.773 84.8836 97.7002 88.3394 91.8034 91.7216C85.9507 95.0597 79.8774 98.5448 75.157 103.427C69.3926 109.397 65.8633 117.191 62.4664 124.705C61.687 126.455 60.8488 128.279 60.0253 130.058C51.114 148.851 38.0998 165.762 22.3505 179.424C22.3064 179.262 22.2917 179.1 22.277 178.938C37.9087 165.321 50.8051 148.543 59.643 129.867C60.4959 128.117 61.3047 126.294 62.1135 124.529C65.5251 116.97 69.0397 109.147 74.8629 103.148C79.6274 98.2066 85.7154 94.7214 91.6122 91.3539C97.4649 88.0158 103.494 84.5307 108.244 79.6633C115.846 71.7959 119.332 61.0905 122.714 50.738C125.449 42.4002 128.258 33.7829 133.228 26.5479C133.36 26.342 133.507 26.1362 133.654 25.9303C133.772 25.7538 133.904 25.5921 134.022 25.4156C134.213 25.3568 134.404 25.3127 134.61 25.2833Z" fill="#FFECE0"/>
<path opacity="0.788" d="M255.208 63.6345C254.576 66.6785 253.517 69.6196 252.046 72.3253C248.605 78.6486 243.297 82.9131 237.076 84.3689C228.915 86.2218 220.739 83.3396 212.857 80.5603C209.239 79.2809 205.49 77.9869 201.799 77.134C185.696 73.3988 167.271 78.3104 152.551 90.2216C140.36 100.089 130.405 114.574 122.978 133.308C121.214 137.808 119.582 142.44 118.008 146.969C113.802 159.116 109.406 171.659 101.582 182.026C90.9357 196.129 74.5688 205.202 60.143 213.187C52.908 217.201 45.1583 221.481 37.9233 226.583C37.8645 226.466 37.791 226.333 37.7322 226.201C44.9819 221.113 52.7168 216.848 59.9518 212.834C74.3335 204.849 90.6564 195.82 101.244 181.776C109.053 171.453 113.42 158.939 117.626 146.822C119.185 142.322 120.802 137.646 122.596 133.176C130.066 114.353 140.037 99.7947 152.271 89.9128C167.138 77.9133 185.667 72.9871 201.887 76.7075C205.607 77.5898 209.357 78.8986 212.989 80.1779C220.812 82.9278 228.93 85.7806 236.974 83.9425C243.076 82.5602 248.297 78.3545 251.679 72.1342C253.164 69.3843 254.237 66.3844 254.855 63.2816C254.973 63.3698 255.09 63.4875 255.208 63.6345Z" fill="#FFECE0"/>
<path opacity="0.788" d="M269.575 80.1191C267.457 85.0601 265.516 90.0598 263.59 94.9861C261.017 101.545 258.37 108.338 255.429 114.823C244.797 138.322 231.18 153.66 214.974 160.395C212.725 161.321 210.372 162.116 208.092 162.88C203.813 164.351 199.357 165.836 195.519 168.321C186.196 174.409 181.711 185.203 177.329 195.688C176.785 197.011 176.241 198.349 175.653 199.643C160.565 234.951 133.757 265.199 100.862 285.11C100.7 285.037 100.553 284.963 100.406 284.89C133.331 265.023 160.183 234.804 175.27 199.482C175.844 198.173 176.388 196.849 176.947 195.511C181.329 184.982 185.873 174.1 195.284 167.968C199.166 165.439 203.637 163.939 207.975 162.483C210.239 161.733 212.577 160.954 214.813 159.998C230.9 153.307 244.444 138.058 255.032 114.647C257.987 108.162 260.634 101.383 263.193 94.8243C265.149 89.8246 267.134 84.7512 269.281 79.7368C269.384 79.8544 269.472 79.9867 269.575 80.1191Z" fill="#FFECE0"/>
<path opacity="0.788" d="M293.986 136.617C261.502 172.792 235.503 209.084 215.033 246.729C205.445 264.376 198.99 279.052 194.784 292.948H194.769C194.608 293.007 194.446 293.051 194.284 293.095C198.519 279.081 205.004 264.302 214.666 246.524C235.194 208.79 261.281 172.38 293.898 136.131C293.942 136.293 293.971 136.455 293.986 136.617Z" fill="#FFECE0"/>
<path opacity="0.788" d="M294.398 182.968C294.309 183.556 294.221 184.115 294.103 184.688C294.103 184.698 294.103 184.708 294.103 184.718C288.442 197.893 283.972 211.819 279.854 225.642C279.854 225.642 279.849 225.647 279.839 225.657C279.722 225.892 279.604 226.113 279.472 226.348C279.281 226.701 279.089 227.039 278.898 227.392C283.295 212.496 288.089 197.452 294.25 183.291C294.295 183.188 294.339 183.071 294.398 182.968Z" fill="#FFECE0"/>
</g>
<path d="M58.5549 93.3685C57.6284 100.898 54.3786 110.882 52.3787 118.235C46.7024 139.072 42.0115 158.601 37.3793 178.879C35.7029 186.217 34.0265 193.658 32.3207 201.29C30.6443 208.716 29.0267 216.157 27.4533 223.598C26.718 227.054 26.2916 232.681 21.032 228.554C16.9194 225.319 24.7034 213.202 25.7916 208.099C27.3356 200.82 28.9238 193.541 30.5414 186.276C31.2178 183.232 31.8943 180.188 32.6001 177.144C35.6441 163.645 38.8057 150.175 42.0997 136.734C45.7466 121.75 51.2611 107.338 55.7462 92.5744C56.2461 90.9421 58.7754 91.6627 58.5549 93.3685Z" fill="#00467B"/>
<path d="M162.016 102.398L164.83 126.99C145.811 137.376 135.419 141.322 133.669 138.818C131.919 136.313 131.919 127.303 133.669 111.784L162.016 102.398Z" fill="#FFB6A4"/>
<path d="M277.457 229.877C276.589 231.363 275.692 232.833 274.751 234.289C273.869 235.701 272.928 237.083 271.987 238.45C262.311 252.406 250.091 264.493 236.003 274.037C235.797 274.199 235.591 274.331 235.385 274.464C218.813 285.581 199.681 293.183 179.05 296.227C178.932 296.242 178.814 296.271 178.697 296.271C177.388 296.463 176.079 296.639 174.77 296.786C170.3 297.301 165.771 297.624 161.183 297.698C160.344 297.713 159.492 297.727 158.639 297.727C152.551 297.727 146.566 297.33 140.698 296.566C139.992 296.477 139.272 296.374 138.566 296.271C136.478 295.963 134.404 295.61 132.346 295.213C132.302 295.213 132.272 295.198 132.228 295.198C130.199 294.801 128.184 294.374 126.184 293.889C125.434 293.713 124.684 293.522 123.934 293.33C122.655 293.007 121.39 292.654 120.126 292.286C120.037 292.257 119.949 292.228 119.861 292.213C118.655 291.86 117.449 291.492 116.258 291.095C116.126 291.051 115.993 291.007 115.846 290.963C114.729 290.61 113.611 290.228 112.494 289.831C112.288 289.757 112.082 289.684 111.876 289.61C110.714 289.184 109.538 288.757 108.391 288.301C107.082 287.787 105.773 287.257 104.479 286.698C104.215 286.595 103.965 286.478 103.7 286.36H103.685C103.053 286.095 102.45 285.816 101.818 285.522C101.185 285.257 100.553 284.963 99.9353 284.669C99.2295 284.331 98.5236 283.993 97.8325 283.654C97.4207 283.448 96.9943 283.243 96.5825 283.037C96.4502 282.963 96.3179 282.904 96.1855 282.831C94.8326 282.14 93.4797 281.434 92.1563 280.713C91.671 280.434 91.2004 280.169 90.7152 279.905C86.6565 277.596 82.7302 275.096 78.9363 272.42C78.8186 272.331 78.701 272.258 78.5833 272.17C74.0541 268.934 69.7308 265.435 65.6427 261.699C64.6428 260.802 63.6722 259.891 62.7164 258.95C58.4518 254.847 54.4667 250.435 50.7463 245.803C49.9522 244.803 49.1728 243.788 48.3935 242.759C47.4523 241.494 46.5112 240.215 45.6142 238.906C43.879 236.451 42.2467 233.921 40.6732 231.348C40.4232 230.951 40.1879 230.539 39.9526 230.127C38.5557 227.76 37.2175 225.348 35.9675 222.878C39.835 196.864 44.8201 167.027 47.1876 167.027C47.2023 167.027 47.2317 167.042 47.2465 167.042C47.5259 167.101 47.8788 167.38 48.3346 167.836C50.0846 169.63 53.3785 173.615 57.2166 178.438C61.3194 183.57 66.0545 189.658 70.1866 195.026C74.0982 200.104 77.6128 204.707 80.7303 208.834C100.043 173.63 113.248 152.856 120.346 146.513C127.434 140.17 133.483 136.582 138.492 135.749C145.58 133.916 151.502 130.288 156.256 124.867C161.011 119.446 163.683 115.691 164.271 113.603C170.28 121.779 183.211 131.249 203.063 142.013C232.856 158.16 247.988 165.909 263.134 196.07C270.369 210.481 274.81 221.892 277.457 229.877Z" fill="#034172"/>
<path d="M154.918 147.636L147.968 140.484L156.918 144.891L155.487 135.019L160.139 143.847L164.786 135.019L163.359 144.891L172.31 140.484L165.359 147.636L175.182 149.332L165.359 151.028L172.31 158.175L163.359 153.773L164.786 163.64L160.139 154.817L155.487 163.64L156.918 153.773L147.968 158.179L154.918 151.028L145.095 149.332L154.918 147.636Z" fill="#FFECE0"/>
<path d="M206.357 172.414L199.407 165.262L208.352 169.669L206.926 159.802L211.578 168.625L216.225 159.802L214.798 169.669L223.744 165.262L216.793 172.414L226.621 174.11L216.793 175.806L223.744 182.958L214.798 178.551L216.225 188.423L211.578 179.595L206.926 188.423L208.357 178.551L199.407 182.958L206.357 175.806L196.529 174.11L206.357 172.414Z" fill="#FFECE0"/>
<path d="M169.187 209.584L162.237 202.432L171.187 206.839L169.756 196.972L174.408 205.795L179.055 196.972L177.628 206.839L186.574 202.432L179.623 209.584L189.451 211.28L179.623 212.976L186.574 220.128L177.628 215.721L179.055 225.593L174.408 216.765L169.756 225.593L171.187 215.721L162.237 220.128L169.187 212.976L159.359 211.28L169.187 209.584Z" fill="#FFECE0"/>
<path d="M213.288 253.685L206.338 246.533L215.283 250.94L213.857 241.068L218.504 249.896L223.156 241.068L221.724 250.94L230.675 246.533L223.724 253.685L233.552 255.381L223.724 257.077L230.675 264.229L221.729 259.822L223.156 269.689L218.504 260.866L213.857 269.689L215.283 259.822L206.338 264.229L213.288 257.077L203.46 255.381L213.288 253.685Z" fill="#FFECE0"/>
<path d="M250.458 216.515L243.508 209.364L252.453 213.77L251.027 203.898L255.674 212.726L260.325 203.898L258.894 213.77L267.845 209.364L260.894 216.515L270.722 218.211L260.894 219.907L267.845 227.059L258.894 222.652L260.325 232.524L255.674 223.696L251.027 232.524L252.453 222.652L243.508 227.059L250.458 219.907L240.63 218.211L250.458 216.515Z" fill="#FFECE0"/>
<path d="M89.3868 216.515L82.4361 209.364L91.3867 213.77L89.9554 203.898L94.6072 212.726L99.254 203.898L97.8276 213.77L106.778 209.364L99.8226 216.515L109.651 218.211L99.8226 219.907L106.778 227.059L97.8276 222.652L99.254 232.524L94.6072 223.696L89.9554 232.524L91.3867 222.652L82.4361 227.059L89.3868 219.907L79.5637 218.211L89.3868 216.515Z" fill="#FFECE0"/>
<path d="M112.214 282.816L103.274 278.405L104.479 286.698C104.215 286.595 103.965 286.478 103.7 286.36H103.685L100.053 279.449L97.8326 283.654C97.4209 283.448 96.9944 283.243 96.5827 283.037C96.4503 282.963 96.318 282.904 96.1856 282.831L96.8327 278.405L92.1564 280.713C91.6711 280.434 91.2006 280.169 90.7153 279.905L94.8328 275.669L85.0096 273.964L94.8328 272.272L87.8772 265.126L96.8327 269.523L95.4063 259.655L100.053 268.479L104.7 259.655L103.274 269.523L112.214 265.126L105.273 272.272L115.097 273.964L105.273 275.669L112.214 282.816Z" fill="#FFECE0"/>
<path d="M113.979 173.149L107.028 165.998L115.979 170.404L114.547 160.537L119.199 169.36L123.846 160.537L122.42 170.404L131.37 165.998L124.415 173.149L134.243 174.845L124.415 176.541L131.37 183.693L122.42 179.286L123.846 189.158L119.199 180.33L114.547 189.158L115.979 179.286L107.028 183.693L113.979 176.541L104.156 174.845L113.979 173.149Z" fill="#FFECE0"/>
<path d="M70.9072 200.04L66.2604 191.217L61.6135 200.04L63.0399 190.173L54.0844 194.585L61.04 187.438L51.2169 185.732L61.04 184.041L54.0844 176.894L57.2167 178.438C61.3194 183.57 66.0545 189.658 70.1867 195.026L70.9072 200.04Z" fill="#FFECE0"/>
<path d="M66.275 233.808C79.2892 211.157 88.426 195.325 93.6856 186.311C98.9403 177.301 106.822 164.601 117.337 148.204" stroke="#00467B" stroke-width="1.5" stroke-linecap="round" stroke-linejoin="round"/>
<path d="M126.184 293.889C128.184 294.374 130.199 294.801 132.228 295.198C130.199 294.816 128.184 294.374 126.184 293.889Z" fill="#CDE9FF"/>
<path d="M138.566 296.272C136.478 295.977 134.404 295.624 132.346 295.213C134.404 295.61 136.478 295.963 138.566 296.272Z" fill="#CDE9FF"/>
<path d="M174.77 296.786C170.3 297.301 165.771 297.624 161.183 297.698C160.344 297.713 159.492 297.727 158.639 297.727C152.551 297.727 146.566 297.33 140.698 296.566C139.992 296.477 139.272 296.374 138.566 296.271C136.478 295.963 134.404 295.61 132.346 295.213C132.302 295.213 132.272 295.198 132.228 295.198C130.199 294.801 128.184 294.374 126.184 293.889C125.434 293.713 124.684 293.522 123.934 293.33C122.655 293.007 121.39 292.654 120.126 292.286C120.037 292.257 119.949 292.227 119.861 292.213C118.655 291.86 117.449 291.492 116.258 291.095C116.126 291.051 115.993 291.007 115.846 290.963C114.729 290.61 113.611 290.228 112.494 289.831C112.288 289.757 112.082 289.683 111.876 289.61C110.714 289.184 109.538 288.757 108.391 288.301C118.846 238.392 130.008 188.644 141.889 139.043C144.492 193.041 158.903 245.082 174.77 296.786Z" fill="#CDE9FF"/>
<path d="M176.408 79.6828C176.408 90.3882 170.506 99.6966 161.791 104.584C161.756 104.858 161.727 105.133 161.639 105.402C157.884 117.416 122.782 117.794 119.778 111.784C118.935 110.098 118.533 106.682 118.395 102.633C113.964 102.711 107.768 102.515 107.45 100.834C107.033 98.6477 115.984 86.8344 118.988 82.9376C119.136 80.8788 119.273 79.1681 119.4 77.8054C119.42 77.8152 119.43 77.8152 119.435 77.8201C120.4 62.9335 132.743 51.1497 147.874 51.1497C163.634 51.1497 176.408 63.9237 176.408 79.6828Z" fill="#FFB6A4"/>
<path d="M115.445 102.584C115.847 101.123 116.523 99.7408 117.425 98.5252C117.616 98.2605 117.846 97.9909 118.165 97.9124C118.484 97.8389 118.827 97.986 119.062 98.2163C119.297 98.4467 119.444 98.7506 119.577 99.0546C120.185 100.456 120.557 101.942 120.93 103.422" stroke="#00467B" stroke-width="1.5" stroke-linecap="round" stroke-linejoin="round"/>
<path d="M161.139 53.0271C166.246 54.9339 171.025 58.6984 174.712 62.713C176.859 65.056 178.417 67.8794 179.692 70.7911C183.412 79.2858 184.824 88.8834 183.054 97.9859C182.466 101.01 181.451 104.103 179.236 106.25C177.06 108.353 173.942 109.284 170.913 109.294C168.104 109.304 165.026 108.387 163.565 105.986C162.614 104.427 162.501 102.51 162.516 100.687C162.555 95.6968 163.565 90.3931 165.104 85.6433C164.364 86.5502 163.545 87.3982 162.663 88.1677C162.139 88.6236 161.541 89.0746 160.845 89.0991C159.796 89.1285 158.982 88.1628 158.565 87.1972C157.575 84.9081 157.987 81.9327 158.301 79.4573C157.624 81.3347 155.712 82.516 153.781 83.0209C152.923 83.2464 152.021 83.3689 151.149 83.1974C149.242 82.8346 147.816 81.1337 147.213 79.2858C146.615 77.4427 146.683 75.4575 146.757 73.5164C146.786 72.7714 146.35 71.9283 146.379 71.1783C145.115 72.8743 143.791 74.6242 141.934 75.6291C139.277 77.0702 135.752 76.6437 133.468 74.6683C131.184 72.688 129.914 69.1539 130.792 66.2618C128.983 67.8255 127.14 69.3941 125.003 70.4626C122.866 71.5312 120.371 72.0655 118.062 71.4577C115.748 70.8499 113.709 68.9235 113.42 66.5559C113.19 64.6639 114.062 62.7718 115.342 61.3601C116.621 59.9484 118.371 59.218 120.018 58.2573C119.488 57.2328 119.077 56.1103 119.077 54.9535C119.072 52.3703 121.243 50.1155 123.753 49.4782C126.258 48.8459 128.949 49.5812 131.174 50.8998C140.63 48.7822 152.061 49.6351 161.139 53.0271Z" fill="#FFECE0"/>
<path d="M165.099 95.0939C167.614 91.1333 172.27 89.0108 176.883 88.1579C179.118 87.7462 181.888 87.8001 183.098 89.7265C183.672 90.6333 183.741 91.7656 183.706 92.8342C183.598 95.9125 182.741 99.0153 183.368 102.03C183.652 103.412 184.245 104.706 184.642 106.059C185.775 109.902 185.182 114.397 182.461 117.333C179.741 120.274 174.751 121.098 171.609 118.617C171.261 118.343 170.922 118.024 170.486 117.926C169.697 117.755 168.977 118.367 168.227 118.662C166.83 119.206 165.178 118.593 164.143 117.505C163.109 116.417 162.59 114.941 162.246 113.48C160.898 107.77 161.903 100.128 165.099 95.0939Z" fill="#FFECE0"/>
<path d="M168.07 84.9473C170.31 84.8836 172.722 85.4032 174.236 87.0551C175.579 88.5207 175.991 90.6383 175.868 92.6186C175.623 96.5449 173.305 100.368 169.751 102.045C166.197 103.721 161.531 102.932 158.997 99.9271C153.541 93.4421 161.217 85.1287 168.07 84.9473Z" fill="#FFB6A4"/>
<path d="M161.496 99.682C162.437 93.9714 166.923 89.0011 172.506 87.4766" stroke="#00467B" stroke-width="1.5" stroke-linecap="round" stroke-linejoin="round"/>
<path d="M161.639 99.677C162.202 97.7506 162.384 96.8438 163.374 96.0988C165.114 94.7949 167.227 94.0449 169.369 93.6724C170.329 93.5057 171.339 93.4175 172.261 93.7361" stroke="#00467B" stroke-width="1.5" stroke-linecap="round" stroke-linejoin="round"/>
<path d="M131.728 101.02C138.11 102.275 139.894 104.525 145.777 103.152C149.698 102.231 155.614 96.035 163.516 84.5649C156.428 97.7065 151.835 105.986 149.752 109.407C146.625 114.539 147.374 130.431 143.492 145.2C139.615 159.969 135.733 168.355 125.846 172.983C115.959 177.615 111.704 171.733 111.704 159.719C111.704 151.709 114.185 132.744 119.145 102.824C123.282 100.79 127.473 100.187 131.728 101.02Z" fill="#FFECE0"/>
<path d="M129.444 86.0208C129.444 87.3933 128.331 88.506 126.959 88.506C125.586 88.506 124.469 87.3933 124.469 86.0208C124.469 84.6483 125.586 83.5307 126.959 83.5307C128.331 83.5307 129.444 84.6483 129.444 86.0208Z" fill="#00467B"/>
<path d="M123.528 77.6633C125.179 76.629 127.924 76.8741 129.758 77.1878C130.812 77.3692 131.914 78.075 132.586 78.8985C133.184 79.6338 133.483 80.6779 133.135 81.5602C132.042 84.3199 126.679 83.9277 124.395 83.5454C123.224 83.3493 122.64 82.7856 122.41 81.6288C122.131 80.2171 122.145 78.5897 123.459 77.7123C123.479 77.6976 123.503 77.6829 123.528 77.6633Z" fill="#FFECE0"/>
<path d="M196.681 8.84764C199.686 8.181 206.779 17.862 217.96 37.8856L204.691 28.8713L183.667 100.961C178.996 88.1089 171.653 76.3447 161.639 65.6687C151.629 54.9878 142.953 49.8998 135.61 50.3998C173.319 23.3666 193.681 9.51428 196.681 8.84764Z" fill="#00467B"/>
<path d="M50.8786 220.098C50.8639 222.466 50.8492 224.775 50.8345 227.01C50.8051 233.951 50.7757 240.2 50.7463 245.803C49.9522 244.803 49.1728 243.788 48.3935 242.759C47.4523 241.494 46.5112 240.215 45.6142 238.906C43.879 236.451 42.2467 233.921 40.6732 231.348C40.4232 230.951 40.1879 230.539 39.9526 230.127C38.5557 227.76 37.2175 225.348 35.9675 222.878C36.1146 221.922 36.2616 220.951 36.394 219.981C36.9969 216.069 37.6145 212.099 38.2321 208.187C38.2763 207.878 38.3351 207.569 38.3792 207.261C39.8203 198.143 41.3055 189.35 42.7025 182.335C42.7025 182.306 42.7025 182.291 42.7172 182.262C42.7908 181.909 42.8496 181.556 42.9231 181.218C44.6289 172.674 46.1436 167.027 47.1876 167.027C47.2023 167.027 47.2317 167.042 47.2465 167.042C47.5602 166.581 47.9229 166.846 48.3346 167.836C49.0846 169.645 50.011 174.674 50.5257 188.1C50.5698 189.173 50.5992 190.291 50.6287 191.467C50.7757 196.261 50.8639 201.981 50.8933 208.805C50.9081 212.275 50.9081 216.025 50.8786 220.098Z" fill="#CDE9FF"/>
<path d="M50.8787 220.098C50.864 222.466 50.8493 224.775 50.8345 227.01C48.1141 225.642 44.5995 223.966 41.0409 222.539C40.7173 222.422 40.4085 222.275 40.0997 222.142C38.8057 221.539 37.5704 220.804 36.394 219.981C31.2766 216.393 27.512 211.393 27.2179 210.981C27.2179 210.971 27.213 210.966 27.2032 210.966C18.0369 208.025 12.3215 204.668 10.0569 200.893C8.14522 197.688 8.77755 193.511 9.68927 190.467V190.453C10.15 188.884 10.6696 187.551 11.248 186.453C10.9049 186.276 10.4834 185.869 9.98338 185.232C9.86574 185.1 9.85103 184.894 9.90985 184.717C9.90985 184.717 9.91475 184.713 9.92456 184.703C9.92456 184.688 9.92456 184.673 9.93926 184.659C9.93926 184.629 9.95397 184.585 9.98338 184.556C9.99808 184.512 10.0128 184.467 10.0569 184.423C10.0569 184.394 10.0863 184.35 10.1157 184.32C10.4245 183.879 10.998 183.379 11.5568 182.982C11.6157 182.938 11.6745 182.894 11.7333 182.835C11.7921 182.791 11.8509 182.747 11.8951 182.703C11.9539 182.659 12.0127 182.615 12.0715 182.585C12.0862 182.571 12.1009 182.556 12.1303 182.541C12.4637 182.325 12.7578 182.144 13.0127 181.997C13.0029 181.987 12.9931 181.958 12.9832 181.909C12.6891 181.188 10.5863 175.836 11.2627 173.203C11.9833 170.395 22.3211 169.806 25.4386 169.424C27.5071 169.179 31.5168 172.532 37.4675 179.482C37.5067 179.502 37.5704 179.541 37.6586 179.6C37.6881 179.629 37.7175 179.644 37.7469 179.644C37.8351 179.703 37.938 179.747 38.0263 179.806C38.0704 179.835 38.1145 179.85 38.1733 179.879C38.2322 179.894 38.2763 179.924 38.3204 179.968C39.335 180.526 41.0703 181.482 42.7025 182.335C43.7319 182.865 44.7025 183.365 45.423 183.703C45.423 183.713 45.4279 183.718 45.4377 183.718C45.4965 183.732 45.5407 183.762 45.5848 183.776C45.6142 183.791 45.6436 183.806 45.6583 183.835C45.6681 183.845 45.6779 183.85 45.6877 183.85C45.6975 183.85 45.7024 183.85 45.7024 183.85C46.5259 184.218 48.467 187.467 50.6287 191.467C50.7757 196.261 50.864 201.981 50.8934 208.805C50.9081 212.275 50.9081 216.025 50.8787 220.098Z" fill="#FFB6A4"/>
<path d="M43.0212 210.805C37.6489 207.27 34.4676 204.089 33.4824 201.271C32.4971 198.452 32.8942 195.379 34.6735 192.046L25.3014 185.477C20.4143 188.154 17.4292 189.502 16.3459 189.516C14.7185 189.541 10.4491 185.884 9.93929 184.806C9.42461 183.722 21.0614 176.512 23.2818 175.174C25.4974 173.836 28.3454 175.306 31.7521 176.733C34.0265 177.683 38.6684 180.056 45.6926 183.845" stroke="#00467B" stroke-width="1.5" stroke-linecap="round" stroke-linejoin="round"/>
<path d="M17.4586 179.169C17.5811 179.571 17.6987 179.977 17.8213 180.384C17.885 180.61 17.9536 180.845 17.9193 181.08C17.8703 181.379 17.6644 181.62 17.4537 181.835C16.4831 182.806 15.2626 183.477 14.0567 184.134C13.7528 184.301 13.4391 184.467 13.0911 184.487C12.3607 184.531 11.7774 183.909 11.3118 183.34" stroke="#00467B" stroke-width="1.5" stroke-linecap="round" stroke-linejoin="round"/>
<path d="M32.9237 197.614C29.4728 197.359 27.0121 196.893 25.5318 196.212C24.0515 195.531 20.9879 193.3 16.3459 189.516" stroke="#00467B" stroke-width="1.5" stroke-linecap="round" stroke-linejoin="round"/>
<path d="M33.9971 202.354L32.4285 205.094C30.6541 204.476 28.2327 203.624 25.1642 202.535C22.0957 201.447 16.9243 197.408 9.65503 190.418" stroke="#00467B" stroke-width="1.5" stroke-linecap="round" stroke-linejoin="round"/>
<path d="M32.4285 205.094C30.9384 208.721 29.9777 210.79 29.5512 211.295C29.1297 211.795 28.3405 211.687 27.1935 210.957" stroke="#00467B" stroke-width="1.5" stroke-linecap="round" stroke-linejoin="round"/>
<path d="M22.7427 209.094C22.8799 208.359 23.0221 207.614 23.3652 206.947C23.7132 206.285 24.2916 205.702 25.022 205.545C25.6151 205.413 26.2327 205.565 26.8111 205.746C28.3797 206.226 29.8943 206.893 31.306 207.721" stroke="#00467B" stroke-width="1.5" stroke-linecap="round" stroke-linejoin="round"/>
<path d="M25.4386 202.374C25.87 201.227 26.3699 200.001 27.4042 199.344C28.2571 198.805 29.3502 198.751 30.3256 198.996C31.306 199.237 32.1932 199.751 33.051 200.281C33.1294 200.33 33.2177 200.393 33.2226 200.486" stroke="#00467B" stroke-width="1.5" stroke-linecap="round" stroke-linejoin="round"/>
<path d="M58.5547 93.3685C57.6283 100.898 54.3784 110.882 52.3785 118.235C46.7023 139.072 42.0113 158.601 37.3792 178.879L32.6 177.144C35.644 163.645 38.8056 150.175 42.0996 136.734C45.7465 121.75 51.2609 107.338 55.746 92.5744C56.246 90.9421 58.7753 91.6627 58.5547 93.3685Z" fill="#00467B"/>
<path d="M50.8933 89.702L40.4085 78.9181L53.9079 85.5649L51.7511 70.6734L58.7655 83.9865L65.7799 70.6734L63.6232 85.5649L77.1226 78.9181L66.6377 89.702L81.4606 92.2607L66.6377 94.8194L77.1226 105.608L63.6232 98.9614L65.7799 113.853L58.7655 100.535L51.7511 113.853L53.9079 98.9614L40.4085 105.608L50.8933 94.8194L36.0704 92.2607L50.8933 89.702Z" fill="#FFA861"/>
<path opacity="0.251" d="M97.0629 88.6971C97.0629 109.431 80.2548 126.24 59.5155 126.24C38.7811 126.24 21.973 109.431 21.973 88.6971C21.973 67.9578 38.7811 51.1497 59.5155 51.1497C80.2548 51.1497 97.0629 67.9578 97.0629 88.6971Z" fill="#FFA861"/>
</svg>
