<svg width="487" height="279" viewBox="0 0 487 279" fill="none" xmlns="http://www.w3.org/2000/svg">
<g clip-path="url(#clip0_61:1936)">
<path d="M48.6285 201.619C71.8921 128.3 177.121 95.7206 208.8 114.055C240.479 132.389 237.391 160.053 276.856 157.098C316.321 154.144 326.414 108.341 370.337 120.966C414.26 133.592 429.854 200.904 429.854 200.904" fill="#D6EAF2"/>
<path d="M95.8275 36.4604V200.02" stroke="#272932" stroke-width="0.714775" stroke-miterlimit="10"/>
<path d="M132.884 54.9189V55.872C132.884 58.6934 131.763 61.3993 129.768 63.3943C127.773 65.3894 125.067 66.5102 122.246 66.5102H115.734C114.344 66.5102 113.011 67.0625 112.028 68.0455C111.045 69.0285 110.492 70.3617 110.492 71.7519" stroke="#272932" stroke-width="0.714775" stroke-miterlimit="10"/>
<path d="M122.246 66.5176H143.165C144.732 66.518 146.276 66.1473 147.672 65.4358C149.068 64.7244 150.276 63.6924 151.196 62.4243" stroke="#272932" stroke-width="0.714775" stroke-miterlimit="10"/>
<path d="M86.3186 36.4536V58.8809C86.3171 61.8838 86.9074 64.8575 88.0557 67.6322C89.2041 70.4068 90.888 72.9279 93.0113 75.0515V75.0515C93.9043 75.9444 94.6127 77.0045 95.0959 78.1712C95.5791 79.338 95.8277 80.5885 95.8275 81.8513" stroke="#272932" stroke-width="0.714775" stroke-miterlimit="10"/>
<path d="M110.535 54.9189V69.7696C110.535 73.6518 109.734 77.4922 108.182 81.0504C106.629 84.6085 104.359 87.8079 101.512 90.448L101.186 90.7506C99.4958 92.318 98.1475 94.2175 97.2255 96.3302C96.3035 98.4428 95.8275 100.723 95.8275 103.028" stroke="#272932" stroke-width="0.714775" stroke-miterlimit="10"/>
<path d="M73.5552 46.8228V88.1391C73.5552 94.3221 74.8496 100.437 77.3552 106.089C79.8608 111.742 83.522 116.807 88.1032 120.959V120.959C90.5359 123.164 92.48 125.853 93.8104 128.854C95.1408 131.856 95.8279 135.102 95.8276 138.385" stroke="#272932" stroke-width="0.714775" stroke-miterlimit="10"/>
<path d="M51.5615 36.3228C51.5615 46.4916 58.035 52.7983 66.0214 52.7983H73.5551" stroke="#272932" stroke-width="0.714775" stroke-miterlimit="10"/>
<path d="M66.9077 79.6689V90.2857C66.9077 92.3078 67.711 94.2471 69.1408 95.6769C70.5706 97.1067 72.5099 97.91 74.532 97.91H74.644" stroke="#272932" stroke-width="0.714775" stroke-miterlimit="10"/>
<path d="M68.1872 94.5152H57.6705C53.4437 94.5152 49.3901 92.8361 46.4013 89.8474C43.4125 86.8586 41.7334 82.8049 41.7334 78.5781" stroke="#272932" stroke-width="0.714775" stroke-miterlimit="10"/>
<path d="M118.043 116.016V121.217C118.042 128.933 114.977 136.334 109.52 141.79L101.198 150.103C97.7606 153.542 95.8291 158.205 95.8275 163.067" stroke="#272932" stroke-width="0.714775" stroke-miterlimit="10"/>
<path d="M126.589 114.331C126.589 116.503 125.726 118.586 124.191 120.122C122.655 121.657 120.572 122.52 118.4 122.52H118.012" stroke="#272932" stroke-width="0.714775" stroke-miterlimit="10"/>
<path d="M121.988 114.438H140.024C140.024 114.438 143.753 111.708 140.589 108.594C138.538 106.576 135.216 107.848 135.216 107.848C135.216 107.848 138.75 96.2518 127.721 95.0486C116.692 93.8454 114.567 103.04 116.27 107C117.974 110.959 94.5886 101.572 91.8034 112.718C91.5913 113.566 99.2275 114.624 106.511 113.495C106.511 113.495 108.844 120.778 117.056 119.399C122.82 118.441 121.988 114.438 121.988 114.438Z" fill="#99C9E5"/>
<path d="M44.4972 79.0805H23.5876C23.5876 79.0805 23.1635 68.4971 52.8624 72.314C52.8624 72.314 53.7011 61.8163 69.6096 62.3476C85.5181 62.8789 85.318 79.3855 84.6818 79.7738C84.0457 80.1622 70.148 79.7738 70.148 79.7738C70.148 79.7738 68.5279 87.8317 55.4451 87.8317C46.8964 87.8317 44.4972 79.0805 44.4972 79.0805Z" fill="#99C9E5"/>
<path d="M141.861 55.0385H105.803C102.556 55.0385 100.054 52.0626 100.736 48.8866C101.107 47.1497 102.375 45.551 105.482 44.8553C112.153 43.3709 115.982 45.6868 115.982 45.6868C115.982 45.6868 109.932 29.2732 130.301 29.2637C149.181 29.2637 147.132 41.6817 146.848 43.6878C146.388 46.9377 159.871 40.2831 167.496 48.7675C175.12 57.2519 161.582 65.386 153.731 63.4418C145.881 61.4976 141.861 55.0385 141.861 55.0385Z" fill="#99C9E5"/>
<path d="M84.9606 36.6923H113.93C113.93 36.6923 116.611 31.9271 111.043 29.6041C105.475 27.2811 93.2948 29.8852 93.2948 29.8852C93.2948 29.8852 94.1121 12.4185 77.708 13.6479C62.8216 14.763 63.7246 26.857 63.7246 26.857C63.7246 26.857 48.9859 23.1115 36.8514 32.3226C34.7715 33.9046 35.7388 36.2658 38.3525 36.2658C41.7882 36.2658 54.1419 36.3968 54.1419 36.3968C54.1419 36.3968 57.6323 48.548 73.2383 47.0184C84.2101 45.9462 84.9606 36.6923 84.9606 36.6923Z" fill="#99C9E5"/>
<path d="M120.873 37.719C121.597 37.719 122.184 37.1323 122.184 36.4086C122.184 35.6848 121.597 35.0981 120.873 35.0981C120.15 35.0981 119.563 35.6848 119.563 36.4086C119.563 37.1323 120.15 37.719 120.873 37.719Z" stroke="white" stroke-width="0.714775" stroke-linecap="round" stroke-linejoin="round"/>
<path d="M60.1198 24.0599C60.8211 24.0599 61.3897 23.4913 61.3897 22.7899C61.3897 22.0886 60.8211 21.52 60.1198 21.52C59.4184 21.52 58.8499 22.0886 58.8499 22.7899C58.8499 23.4913 59.4184 24.0599 60.1198 24.0599Z" stroke="#99C9E5" stroke-width="0.714775" stroke-linecap="round" stroke-linejoin="round"/>
<path d="M37.0206 84.3251C38.0377 84.3251 38.8623 83.5005 38.8623 82.4833C38.8623 81.4662 38.0377 80.6416 37.0206 80.6416C36.0034 80.6416 35.1788 81.4662 35.1788 82.4833C35.1788 83.5005 36.0034 84.3251 37.0206 84.3251Z" stroke="#99C9E5" stroke-width="0.714775" stroke-linecap="round" stroke-linejoin="round"/>
<path d="M111.993 104.568C112.717 104.568 113.304 103.981 113.304 103.257C113.304 102.533 112.717 101.947 111.993 101.947C111.27 101.947 110.683 102.533 110.683 103.257C110.683 103.981 111.27 104.568 111.993 104.568Z" stroke="#99C9E5" stroke-width="0.714775" stroke-linecap="round" stroke-linejoin="round"/>
<path d="M71.7467 24.0601C73.1495 24.0601 74.2866 22.923 74.2866 21.5203C74.2866 20.1176 73.1495 18.9805 71.7467 18.9805C70.344 18.9805 69.2069 20.1176 69.2069 21.5203C69.2069 22.923 70.344 24.0601 71.7467 24.0601Z" stroke="white" stroke-width="0.714775" stroke-linecap="round" stroke-linejoin="round"/>
<path d="M149.486 51.881C150.882 51.881 152.014 50.7492 152.014 49.3531C152.014 47.957 150.882 46.8252 149.486 46.8252C148.09 46.8252 146.958 47.957 146.958 49.3531C146.958 50.7492 148.09 51.881 149.486 51.881Z" stroke="white" stroke-width="0.714775" stroke-linecap="round" stroke-linejoin="round"/>
<path d="M79.3948 76.3527C80.4475 76.3527 81.3009 75.4993 81.3009 74.4466C81.3009 73.3939 80.4475 72.5405 79.3948 72.5405C78.3421 72.5405 77.4888 73.3939 77.4888 74.4466C77.4888 75.4993 78.3421 76.3527 79.3948 76.3527Z" stroke="white" stroke-width="0.714775" stroke-linecap="round" stroke-linejoin="round"/>
<path d="M111.993 116.787C113.046 116.787 113.899 115.934 113.899 114.881C113.899 113.828 113.046 112.975 111.993 112.975C110.941 112.975 110.087 113.828 110.087 114.881C110.087 115.934 110.941 116.787 111.993 116.787Z" stroke="white" stroke-width="0.714775" stroke-linecap="round" stroke-linejoin="round"/>
<path d="M78.3632 19.1392C78.854 19.1392 79.2519 18.7413 79.2519 18.2505C79.2519 17.7597 78.854 17.3618 78.3632 17.3618C77.8724 17.3618 77.4745 17.7597 77.4745 18.2505C77.4745 18.7413 77.8724 19.1392 78.3632 19.1392Z" stroke="white" stroke-width="0.714775" stroke-linecap="round" stroke-linejoin="round"/>
<path d="M144.139 43.778C144.646 43.778 145.056 43.3673 145.056 42.8607C145.056 42.354 144.646 41.9434 144.139 41.9434C143.632 41.9434 143.222 42.354 143.222 42.8607C143.222 43.3673 143.632 43.778 144.139 43.778Z" stroke="white" stroke-width="0.714775" stroke-linecap="round" stroke-linejoin="round"/>
<path d="M73.5551 75.9982C74.0617 75.9982 74.4724 75.5875 74.4724 75.0809C74.4724 74.5743 74.0617 74.1636 73.5551 74.1636C73.0485 74.1636 72.6378 74.5743 72.6378 75.0809C72.6378 75.5875 73.0485 75.9982 73.5551 75.9982Z" stroke="white" stroke-width="0.714775" stroke-linecap="round" stroke-linejoin="round"/>
<path d="M32.7248 77.2701C33.2314 77.2701 33.6421 76.8595 33.6421 76.3528C33.6421 75.8462 33.2314 75.4355 32.7248 75.4355C32.2182 75.4355 31.8075 75.8462 31.8075 76.3528C31.8075 76.8595 32.2182 77.2701 32.7248 77.2701Z" stroke="white" stroke-width="0.714775" stroke-linecap="round" stroke-linejoin="round"/>
<path d="M156.774 201.419C164.875 201.419 237.703 203.599 224.554 221.909C211.404 240.219 45.0212 237.396 45.0212 237.396V252.223H448.879L443.875 245.375C443.875 245.375 324.598 237.782 343.928 217.115C356.573 203.599 273.113 201.152 251.362 201.152C229.612 201.152 156.774 201.419 156.774 201.419Z" fill="#D6EAF2"/>
<path d="M168.663 212.491C175.088 212.491 180.297 211.61 180.297 210.523C180.297 209.436 175.088 208.555 168.663 208.555C162.238 208.555 157.029 209.436 157.029 210.523C157.029 211.61 162.238 212.491 168.663 212.491Z" stroke="#CDE8EC" stroke-width="0.714775" stroke-linecap="round" stroke-linejoin="round"/>
<path d="M188.77 217.454C191.214 217.454 193.196 216.946 193.196 216.32C193.196 215.694 191.214 215.186 188.77 215.186C186.325 215.186 184.343 215.694 184.343 216.32C184.343 216.946 186.325 217.454 188.77 217.454Z" stroke="#CDE8EC" stroke-width="0.714775" stroke-linecap="round" stroke-linejoin="round"/>
<path d="M360.875 204.514H445.979" stroke="#CDE8EC" stroke-width="0.714775" stroke-linecap="round" stroke-linejoin="round"/>
<path d="M357.471 59.0554C367.485 59.0554 375.602 50.9377 375.602 40.9239C375.602 30.9102 367.485 22.7925 357.471 22.7925C347.457 22.7925 339.339 30.9102 339.339 40.9239C339.339 50.9377 347.457 59.0554 357.471 59.0554Z" fill="#F6F8B9"/>
<path d="M382.185 96.5263C370.082 93.9841 369.179 101.966 369.179 101.966H458.078C459.171 89.7741 443.747 92.2281 443.747 92.2281C443.747 92.2281 445.543 83.4864 431.91 80.5082C418.277 77.53 411.067 85.7499 412.201 92.4926C412.201 92.4926 405.809 83.8486 395.142 87.22C386.941 89.8122 395.356 95.3684 393.631 97.3364C391.856 99.3545 388.332 97.8177 382.185 96.5263Z" fill="white" stroke="#CDE8EC" stroke-width="0.714775" stroke-linecap="round" stroke-linejoin="round"/>
<path d="M245.725 87.0195H173.957C173.957 87.0195 174.789 79.8241 185.444 82.2163C199.763 85.4304 205.991 83.2551 205.219 78.6424C204.218 72.6859 210.582 65.4333 222.612 68.0637C234.642 70.6941 233.064 78.4113 233.064 78.4113C233.064 78.4113 246.69 76.2431 245.725 87.0195Z" fill="white" stroke="#CDE8EC" stroke-width="0.714775" stroke-linecap="round" stroke-linejoin="round"/>
<path d="M186.392 91.2935H221.757" stroke="#CDE8EC" stroke-width="0.714775" stroke-linecap="round" stroke-linejoin="round"/>
<path d="M291.85 46.4969H357.933C357.933 46.4969 357.109 39.3492 346.53 41.7318C332.311 44.922 331.303 41.7318 332.072 37.1572C333.066 31.2484 326.745 23.007 314.794 25.616C302.843 28.2249 305.447 42.1011 305.447 42.1011C305.447 42.1011 293.772 39.3539 291.85 46.4969Z" fill="white" stroke="#CDE8EC" stroke-width="0.714775" stroke-linecap="round" stroke-linejoin="round"/>
<path d="M323.567 49.9326H358.931" stroke="#CDE8EC" stroke-width="0.714775" stroke-linecap="round" stroke-linejoin="round"/>
<path d="M481.649 200.91C481.649 200.91 481.411 179.871 459.193 180.865C459.193 180.865 451.976 134.471 410.896 129.759C360.928 124.026 351.15 179.316 351.15 179.316C351.15 179.316 303.779 165.166 297.701 200.91H481.649Z" fill="#368970"/>
<path d="M481.649 200.91C481.649 200.91 481.411 179.871 459.193 180.865C459.193 180.865 451.976 134.471 410.896 129.759C360.928 124.026 351.15 179.316 351.15 179.316C351.15 179.316 303.779 165.166 297.701 200.91H481.649Z" stroke="#0D8056" stroke-width="0.714775" stroke-linecap="round" stroke-linejoin="round"/>
<path d="M406.666 129.413C406.666 129.413 390.729 171.823 404.26 200.91" stroke="#0D8056" stroke-width="0.714775" stroke-linecap="round" stroke-linejoin="round"/>
<path d="M416.952 130.805C416.952 130.805 412.64 163.672 399.083 179.955" stroke="#0D8056" stroke-width="0.714775" stroke-linecap="round" stroke-linejoin="round"/>
<path d="M396.031 129.897C396.031 129.897 391.864 147.783 399.769 158.54" stroke="#0D8056" stroke-width="0.714775" stroke-linecap="round" stroke-linejoin="round"/>
<path d="M429.322 135.498C429.322 135.498 421.748 155.466 410.024 159.157" stroke="#0D8056" stroke-width="0.714775" stroke-linecap="round" stroke-linejoin="round"/>
<path d="M446.258 150.606C446.258 150.606 410.207 167.285 405.906 200.91" stroke="#0D8056" stroke-width="0.714775" stroke-linecap="round" stroke-linejoin="round"/>
<path d="M435.36 139.418C435.36 139.418 429.663 146.761 432.072 159.546" stroke="#0D8056" stroke-width="0.714775" stroke-linecap="round" stroke-linejoin="round"/>
<path d="M412.856 180.782C421.195 168.285 449.227 171.728 452.169 160.27" stroke="#0D8056" stroke-width="0.714775" stroke-linecap="round" stroke-linejoin="round"/>
<path d="M457.034 172.279C457.034 172.279 448.631 175.343 436.878 169.539" stroke="#0D8056" stroke-width="0.714775" stroke-linecap="round" stroke-linejoin="round"/>
<path d="M459.193 180.865C455.6 181.058 441.059 186.369 439.417 200.91" stroke="#0D8056" stroke-width="0.714775" stroke-linecap="round" stroke-linejoin="round"/>
<path d="M467.318 181.632C467.318 181.632 459.393 186.116 460.646 200.91" stroke="#0D8056" stroke-width="0.714775" stroke-linecap="round" stroke-linejoin="round"/>
<path d="M472.943 184.12C472.943 184.12 471.008 195.604 460.52 198.258" stroke="#0D8056" stroke-width="0.714775" stroke-linecap="round" stroke-linejoin="round"/>
<path d="M457.034 181.277C457.034 181.277 457.273 189.674 461.128 191.825" stroke="#0D8056" stroke-width="0.714775" stroke-linecap="round" stroke-linejoin="round"/>
<path d="M443.794 190.131C443.794 190.131 455.419 188.396 458.671 200.915" stroke="#0D8056" stroke-width="0.714775" stroke-linecap="round" stroke-linejoin="round"/>
<path d="M441.562 193.638C441.562 193.638 447.835 195.26 452.16 191.825" stroke="#0D8056" stroke-width="0.714775" stroke-linecap="round" stroke-linejoin="round"/>
<path d="M477.789 188.94C477.789 188.94 469.131 191.172 469.51 200.908C469.51 200.908 470.396 195.092 474.82 194.965C479.245 194.839 479.109 200.908 479.109 200.908" stroke="#0D8056" stroke-width="0.714775" stroke-linecap="round" stroke-linejoin="round"/>
<path d="M398.814 171.952C398.814 159.545 375.429 150.606 377.771 136.706" stroke="#0D8056" stroke-width="0.714775" stroke-linecap="round" stroke-linejoin="round"/>
<path d="M362.558 151.988C362.558 151.988 369.3 158.228 384.072 151.433" stroke="#0D8056" stroke-width="0.714775" stroke-linecap="round" stroke-linejoin="round"/>
<path d="M385.242 132.816C385.242 132.816 392.569 133.945 395.84 149.482" stroke="#0D8056" stroke-width="0.714775" stroke-linecap="round" stroke-linejoin="round"/>
<path d="M357.771 160.27C357.771 160.27 375.934 168.664 372.14 200.91" stroke="#0D8056" stroke-width="0.714775" stroke-linecap="round" stroke-linejoin="round"/>
<path d="M375.807 154.329C375.807 154.329 381.666 174.857 372.162 184.723" stroke="#0D8056" stroke-width="0.714775" stroke-linecap="round" stroke-linejoin="round"/>
<path d="M355.355 165.643C355.355 165.643 357.235 170.98 366.458 168.621" stroke="#0D8056" stroke-width="0.714775" stroke-linecap="round" stroke-linejoin="round"/>
<path d="M378.969 200.91C378.969 200.91 376.694 188.013 387.568 188.013C398.442 188.013 398.814 200.91 398.814 200.91" stroke="#0D8056" stroke-width="0.714775" stroke-linecap="round" stroke-linejoin="round"/>
<path d="M377.594 169.539C381.247 170.056 397.341 174.668 400.801 190.889" stroke="#0D8056" stroke-width="0.714775" stroke-linecap="round" stroke-linejoin="round"/>
<path d="M351.15 179.329C355.355 180.782 366.198 188.266 367.716 200.91" stroke="#0D8056" stroke-width="0.714775" stroke-linecap="round" stroke-linejoin="round"/>
<path d="M352.289 200.91C352.289 200.91 348.338 187.891 351.514 177.61" stroke="#0D8056" stroke-width="0.714775" stroke-linecap="round" stroke-linejoin="round"/>
<path d="M334.834 176.669C334.834 176.669 343.309 180.677 340.402 200.91" stroke="#0D8056" stroke-width="0.714775" stroke-linecap="round" stroke-linejoin="round"/>
<path d="M345.22 177.956C345.22 177.956 346.042 188.168 341.01 191.189" stroke="#0D8056" stroke-width="0.714775" stroke-linecap="round" stroke-linejoin="round"/>
<path d="M421.584 200.91C421.71 197.369 425.198 181.416 452.16 183.26" stroke="#0D8056" stroke-width="0.714775" stroke-linecap="round" stroke-linejoin="round"/>
<path d="M319.535 177.956C319.535 177.956 326.257 189.354 338.386 180.591" stroke="#0D8056" stroke-width="0.714775" stroke-linecap="round" stroke-linejoin="round"/>
<path d="M325.48 200.91C325.48 200.91 321.306 196.738 313.972 197.495C306.639 198.253 305.752 200.91 305.752 200.91" stroke="#0D8056" stroke-width="0.714775" stroke-linecap="round" stroke-linejoin="round"/>
<path d="M337.922 200.91C337.922 200.91 335.975 191.637 326.111 192.924C316.247 194.21 315.995 200.91 315.995 200.91" stroke="#0D8056" stroke-width="0.714775" stroke-linecap="round" stroke-linejoin="round"/>
<path d="M38.7528 252.216H140.422C140.928 234.428 119.694 235.607 119.694 235.607C119.694 235.607 119.351 212.875 88.8395 207.619C76.1022 205.427 33.6946 207.588 38.7528 252.216Z" fill="#368970"/>
<path d="M38.7528 252.216H140.422C140.928 234.428 119.694 235.607 119.694 235.607C119.694 235.607 119.351 212.875 88.8395 207.619C76.1022 205.427 33.6946 207.588 38.7528 252.216Z" stroke="#0D8056" stroke-width="0.714775" stroke-linecap="round" stroke-linejoin="round"/>
<path d="M85.7158 207.233C85.7158 207.233 75.4707 228.061 84.5722 252.216" stroke="#0D8056" stroke-width="0.714775" stroke-linecap="round" stroke-linejoin="round"/>
<path d="M77.4889 207.173C77.4889 207.173 75.8401 218.731 81.1533 224.788" stroke="#0D8056" stroke-width="0.714775" stroke-linecap="round" stroke-linejoin="round"/>
<path d="M95.9992 209.322C95.9992 209.322 91.6843 226.444 80.9198 235.161" stroke="#0D8056" stroke-width="0.714775" stroke-linecap="round" stroke-linejoin="round"/>
<path d="M104.25 212.822C104.25 212.822 95.8204 223.346 89.8806 224.123" stroke="#0D8056" stroke-width="0.714775" stroke-linecap="round" stroke-linejoin="round"/>
<path d="M62.6287 210.045C62.6287 210.045 65.2185 230.921 81.1532 237.902" stroke="#0D8056" stroke-width="0.714775" stroke-linecap="round" stroke-linejoin="round"/>
<path d="M42.7269 225.977C42.7269 225.977 54.3063 215.041 68.4279 225.977" stroke="#0D8056" stroke-width="0.714775" stroke-linecap="round" stroke-linejoin="round"/>
<path d="M83.1069 247.811C83.1069 233.191 113.256 231.748 113.392 220.359" stroke="#0D8056" stroke-width="0.714775" stroke-linecap="round" stroke-linejoin="round"/>
<path d="M107.774 215.082C107.774 215.082 103.166 219.318 106.771 228.56" stroke="#0D8056" stroke-width="0.714775" stroke-linecap="round" stroke-linejoin="round"/>
<path d="M119.684 235.607C117.063 235.776 103.414 241.087 103.161 252.216" stroke="#0D8056" stroke-width="0.714775" stroke-linecap="round" stroke-linejoin="round"/>
<path d="M124.152 252.216C123.013 250.31 114.733 232.784 92.8231 235.607" stroke="#0D8056" stroke-width="0.714775" stroke-linecap="round" stroke-linejoin="round"/>
<path d="M126.739 236.246C126.739 236.246 126.849 244.885 119.684 245.579" stroke="#0D8056" stroke-width="0.714775" stroke-linecap="round" stroke-linejoin="round"/>
<path d="M101.391 235.607C101.391 235.607 98.8916 240.089 104.25 247.227" stroke="#0D8056" stroke-width="0.714775" stroke-linecap="round" stroke-linejoin="round"/>
<path d="M89.8806 252.216C89.8806 252.216 89.8806 247.706 93.931 247.811C97.9814 247.916 98.253 252.216 98.253 252.216" stroke="#0D8056" stroke-width="0.714775" stroke-linecap="round" stroke-linejoin="round"/>
<path d="M77.2482 252.217C77.2482 252.217 73.1978 237.242 58.6497 237.902C44.1017 238.562 42.7269 252.217 42.7269 252.217" stroke="#0D8056" stroke-width="0.714775" stroke-linecap="round" stroke-linejoin="round"/>
<path d="M73.6957 252.217C73.6957 252.217 71.7897 245.341 64.213 245.047C56.6364 244.754 56.6245 252.217 56.6245 252.217" stroke="#0D8056" stroke-width="0.714775" stroke-linecap="round" stroke-linejoin="round"/>
<path d="M59.3264 221.528C59.3264 221.528 56.2481 231.919 63.0766 238.206" stroke="#0D8056" stroke-width="0.714775" stroke-linecap="round" stroke-linejoin="round"/>
<path d="M53.9775 221.181C53.9775 221.181 52.0047 234.859 38.9506 237.277" stroke="#0D8056" stroke-width="0.714775" stroke-linecap="round" stroke-linejoin="round"/>
<path d="M69.1069 208.282C69.1069 208.282 71.8922 215.982 64.6229 218.022" stroke="#0D8056" stroke-width="0.714775" stroke-linecap="round" stroke-linejoin="round"/>
<path d="M137.923 242.821C137.923 242.821 132.119 243.236 134.268 252.216" stroke="#0D8056" stroke-width="0.714775" stroke-linecap="round" stroke-linejoin="round"/>
<path d="M68.4279 201.672C68.4279 201.672 82.0848 197.796 92.3704 188.353C101.16 180.284 108.219 170.484 119.346 170.649C130.473 170.813 131.824 182.283 131.824 182.283C131.824 182.283 137.049 172.674 151.718 176.381C166.388 180.088 157.789 191.596 164.532 191.958C171.274 192.32 191.171 181.778 191.171 201.672H68.4279Z" fill="#99C9E5"/>
<path d="M132.855 202.13C155.638 181.277 152.061 161.928 152.061 161.928C127.521 174.334 131.585 201.755 131.585 201.755" stroke="white" stroke-width="0.714775" stroke-linecap="round" stroke-linejoin="round"/>
<path d="M134.14 201.756C134.14 201.756 137.53 186.336 123.115 181.53C108.701 176.724 130.713 201.756 130.713 201.756" stroke="white" stroke-width="0.714775" stroke-linecap="round" stroke-linejoin="round"/>
<path d="M167.615 187.105C168.632 187.105 169.457 186.281 169.457 185.264C169.457 184.246 168.632 183.422 167.615 183.422C166.598 183.422 165.773 184.246 165.773 185.264C165.773 186.281 166.598 187.105 167.615 187.105Z" stroke="#99C9E5" stroke-width="0.714775" stroke-linecap="round" stroke-linejoin="round"/>
<path d="M45.667 148.248C45.667 148.248 43.8825 179.66 46.2555 193.181" stroke="#272932" stroke-width="0.714775" stroke-miterlimit="10"/>
<path d="M50.823 152.229C50.823 152.229 50.4727 158.124 45.343 159.472" stroke="#272932" stroke-width="0.714775" stroke-miterlimit="10"/>
<path d="M36.2153 158.731C36.2153 158.731 38.6479 170.356 45.0309 175.597" stroke="#272932" stroke-width="0.714775" stroke-miterlimit="10"/>
<path d="M32.0101 160.163C32.0101 160.163 34.2283 163.515 37.6711 163.694" stroke="#272932" stroke-width="0.714775" stroke-miterlimit="10"/>
<path d="M41.7834 151.917C41.7834 151.917 42.8485 155.648 45.324 156.169" stroke="#272932" stroke-width="0.714775" stroke-miterlimit="10"/>
<path d="M45.7076 148.501C48.3762 148.501 50.5395 146.337 50.5395 143.669C50.5395 141 48.3762 138.837 45.7076 138.837C43.039 138.837 40.8757 141 40.8757 143.669C40.8757 146.337 43.039 148.501 45.7076 148.501Z" fill="#368970"/>
<path d="M50.9159 153.113C51.7923 153.113 52.5027 152.403 52.5027 151.526C52.5027 150.65 51.7923 149.939 50.9159 149.939C50.0395 149.939 49.3291 150.65 49.3291 151.526C49.3291 152.403 50.0395 153.113 50.9159 153.113Z" fill="#368970"/>
<path d="M41.5285 152.76C42.3023 152.76 42.9295 152.133 42.9295 151.359C42.9295 150.585 42.3023 149.958 41.5285 149.958C40.7548 149.958 40.1276 150.585 40.1276 151.359C40.1276 152.133 40.7548 152.76 41.5285 152.76Z" fill="#368970"/>
<path d="M31.7551 161.139C32.4565 161.139 33.0251 160.571 33.0251 159.87C33.0251 159.168 32.4565 158.6 31.7551 158.6C31.0538 158.6 30.4852 159.168 30.4852 159.87C30.4852 160.571 31.0538 161.139 31.7551 161.139Z" fill="#368970"/>
<path d="M36.0986 158.941C37.7355 158.941 39.0625 157.614 39.0625 155.977C39.0625 154.34 37.7355 153.013 36.0986 153.013C34.4616 153.013 33.1346 154.34 33.1346 155.977C33.1346 157.614 34.4616 158.941 36.0986 158.941Z" fill="#368970"/>
<path d="M35.3814 201.755C35.3814 201.755 18.0791 197.002 21.6411 189.025C23.7473 184.305 36.8134 197.202 36.8134 197.202C36.8134 197.202 24.8433 184.575 26.7827 161.38C26.7827 161.38 41.1401 171.575 46.2556 188.098C46.2556 188.098 49.1146 163.903 59.324 155.474C59.324 155.474 61.7685 161.037 58.6497 179.247C58.6497 179.247 68.933 167.613 75.5089 164.494C75.5089 164.494 71.3775 181.439 65.5616 189.364C65.5616 189.364 72.3901 185.906 75.5089 191.217C78.6277 196.528 68.4279 201.419 68.4279 201.419L35.3814 201.755Z" fill="#AEA61F"/>
<path d="M27.1615 162.143C27.1615 162.143 38.4144 193.495 45.6646 201.419" stroke="#9F9300" stroke-width="0.714775" stroke-linecap="round" stroke-linejoin="round"/>
<path d="M59.1953 156.11C59.1953 156.11 51.4233 196.721 48.6285 201.493" stroke="#9F9300" stroke-width="0.714775" stroke-linecap="round" stroke-linejoin="round"/>
<path d="M74.7465 165.383C74.7465 165.383 58.8166 194.319 50.6395 201.36" stroke="#9F9300" stroke-width="0.714775" stroke-linecap="round" stroke-linejoin="round"/>
<path d="M74.9729 190.434C74.9729 190.434 64.7278 199.661 57.3846 201.405" stroke="#9F9300" stroke-width="0.714775" stroke-linecap="round" stroke-linejoin="round"/>
<path d="M21.8937 189.025C21.8937 189.025 30.6592 199.099 39.5248 201.374" stroke="#9F9300" stroke-width="0.714775" stroke-linecap="round" stroke-linejoin="round"/>
<path d="M35.3815 201.374H68.4279" stroke="#9F9300" stroke-width="0.714775" stroke-linecap="round" stroke-linejoin="round"/>
<path d="M456.434 249.646C456.434 249.646 473.736 244.881 470.174 236.916C468.068 232.196 455 245.093 455 245.093C455 245.093 466.972 232.465 465.033 209.271C465.033 209.271 450.673 219.466 445.56 235.989C445.56 235.989 442.701 211.794 432.491 203.364C432.491 203.364 430.047 208.928 433.166 227.138C433.166 227.138 422.882 215.504 416.306 212.385C416.306 212.385 420.438 229.33 426.254 237.254C426.254 237.254 419.425 233.797 416.306 239.108C413.188 244.419 423.387 249.31 423.387 249.31L456.434 249.646Z" fill="#AEA61F"/>
<path d="M464.651 210.033C464.651 210.033 453.399 241.386 446.148 249.31" stroke="#9F9300" stroke-width="0.714775" stroke-linecap="round" stroke-linejoin="round"/>
<path d="M432.62 204C432.62 204 440.39 244.611 443.184 249.383" stroke="#9F9300" stroke-width="0.714775" stroke-linecap="round" stroke-linejoin="round"/>
<path d="M417.069 213.273C417.069 213.273 432.999 242.209 441.176 249.25" stroke="#9F9300" stroke-width="0.714775" stroke-linecap="round" stroke-linejoin="round"/>
<path d="M416.843 238.323C416.843 238.323 427.088 247.551 434.431 249.283" stroke="#9F9300" stroke-width="0.714775" stroke-linecap="round" stroke-linejoin="round"/>
<path d="M469.922 236.916C469.922 236.916 461.154 246.989 452.291 249.264" stroke="#9F9300" stroke-width="0.714775" stroke-linecap="round" stroke-linejoin="round"/>
<path d="M456.434 249.264H423.387" stroke="#9F9300" stroke-width="0.714775" stroke-linecap="round" stroke-linejoin="round"/>
<path d="M336.819 252.216C336.819 252.216 337.295 231.936 355.148 231.857C367.795 231.8 371.328 237.797 371.328 237.797C371.328 237.797 358.939 217.068 381.83 212.382C404.722 207.695 410.014 235.543 420.29 238.304C430.64 241.087 455.336 230.549 448.976 252.216H336.819Z" fill="#99C9E5"/>
<path d="M394.839 252.928C374.523 241.811 377.072 222.214 377.072 222.214C397.465 228.519 395.7 252.428 395.7 252.428" stroke="white" stroke-width="0.714775" stroke-linecap="round" stroke-linejoin="round"/>
<path d="M393.841 252.883C393.841 252.883 390.575 241.418 402.068 236.184C412.437 231.461 396.336 252.271 396.336 252.271" stroke="white" stroke-width="0.714775" stroke-linecap="round" stroke-linejoin="round"/>
<path d="M361.881 228.136C363.073 228.136 364.04 227.169 364.04 225.977C364.04 224.785 363.073 223.818 361.881 223.818C360.689 223.818 359.722 224.785 359.722 225.977C359.722 227.169 360.689 228.136 361.881 228.136Z" stroke="#99C9E5" stroke-width="0.714775" stroke-linecap="round" stroke-linejoin="round"/>
<path d="M455.857 242.352C456.875 242.352 457.699 241.528 457.699 240.511C457.699 239.494 456.875 238.669 455.857 238.669C454.84 238.669 454.016 239.494 454.016 240.511C454.016 241.528 454.84 242.352 455.857 242.352Z" stroke="#99C9E5" stroke-width="0.714775" stroke-linecap="round" stroke-linejoin="round"/>
<path d="M347.814 243.038C349.21 243.038 350.342 241.906 350.342 240.51C350.342 239.114 349.21 237.982 347.814 237.982C346.418 237.982 345.286 239.114 345.286 240.51C345.286 241.906 346.418 243.038 347.814 243.038Z" stroke="white" stroke-width="0.714775" stroke-linecap="round" stroke-linejoin="round"/>
<path d="M202.165 119.806C200.394 132.52 183.644 157.911 182.233 159.992C180.657 162.317 177.871 160.691 178.612 157.607C179.453 154.098 183.953 125.319 188.309 117.248C193.031 95.135 205.01 68.6133 208.604 65.5618C213.857 61.0997 217.879 62.3923 218.844 73.4738C219.804 84.4696 207.754 111.399 202.165 119.806Z" fill="#C88978"/>
<path d="M212.482 98.8155C211.892 100.273 211.301 101.719 210.682 103.133C210.682 103.133 197.195 94.6604 196.174 91.1279C196.453 90.3803 196.734 89.6425 197.015 88.9146C202.728 94.4508 211.974 97.036 211.974 97.036C212.161 97.6262 212.33 98.2194 212.482 98.8155Z" fill="#10091F"/>
<path d="M180.123 155.423C178.88 155.863 173.076 157.784 171.936 158.982C170.797 160.181 169.977 164.07 170 164.498C170.024 164.926 170.225 167.248 170.225 167.248C170.452 167.23 170.674 167.167 170.876 167.062C171.079 166.957 171.259 166.814 171.406 166.639C171.553 166.465 171.664 166.263 171.733 166.045C171.802 165.828 171.827 165.599 171.807 165.372C171.73 163.306 173.964 161.694 175.268 161.175C175.808 160.957 177.136 161.175 177.307 161.945C177.479 162.716 175.419 163.63 175.05 164.188C174.486 165.041 174.991 166.024 174.991 166.024C174.991 166.024 178.154 164.498 178.762 164.209C179.37 163.92 182.563 160.608 183.646 157.95C184.73 155.291 183.003 154.408 180.123 155.423Z" fill="#C88978"/>
<path d="M244.46 190.604C244.873 194.113 248.571 203.884 249.722 207.95C252.378 217.326 263.123 258.019 266.357 268.333C270.38 281.156 272.36 273.601 272.36 268.826C272.36 264.051 279.298 232.445 274.981 216.733C272.646 208.231 268.084 199.838 267.683 185.333L244.46 190.604Z" fill="#C88978"/>
<path d="M267.756 187.142C259.647 191.746 250.897 193.729 245.428 194.573C245.192 193.667 244.543 191.25 244.46 190.604L267.683 185.333C267.7 185.947 267.725 186.55 267.756 187.142Z" fill="#10091F"/>
<path d="M275.459 245.343C274.278 256.44 272.36 266.32 272.36 268.825C272.36 273.6 270.38 281.155 266.357 268.333C265.065 264.201 262.565 255.215 259.865 245.314C260.783 245.609 266.821 247.356 275.459 245.343Z" fill="white"/>
<path d="M249.728 277.454C249.728 277.454 248.548 273.588 252.384 272.201C255.403 271.109 264.041 269.149 265.1 265.844C265.1 265.844 267.131 267.801 272.676 266.328C274.025 267.778 275.036 269.51 275.635 271.398C276.235 273.287 276.407 275.284 276.14 277.247L249.728 277.454Z" fill="#272932"/>
<path d="M269.182 266.919C269.235 266.452 269.276 261.279 267.632 260.459C265.989 259.638 262.244 260.405 262.344 261.279C262.444 262.153 264.371 266.417 264.846 266.526C265.322 266.635 269.182 266.919 269.182 266.919Z" fill="#272932"/>
<path d="M276.371 277.263H249.539C249.151 277.263 248.837 277.577 248.837 277.965V278.219C248.837 278.607 249.151 278.921 249.539 278.921H276.371C276.759 278.921 277.073 278.607 277.073 278.219V277.965C277.073 277.577 276.759 277.263 276.371 277.263Z" fill="white"/>
<path d="M265.652 270.832C265.652 270.832 264.87 268.037 263.238 268.031C261.234 268.031 260.848 269.173 260.848 269.173" stroke="white" stroke-width="0.714775" stroke-linecap="round" stroke-linejoin="round"/>
<path d="M262.368 271.98C262.368 271.98 261.907 269.324 260.284 269.179C259.795 269.12 259.299 269.194 258.848 269.395C258.398 269.595 258.011 269.915 257.728 270.318" stroke="white" stroke-width="0.714775" stroke-linecap="round" stroke-linejoin="round"/>
<path d="M232.789 192.854C232.278 194.052 201.507 186.12 202.132 183.304C202.46 181.829 211.313 181.855 219.429 184.272C226.815 186.474 233.6 190.921 232.789 192.854Z" fill="#32323C"/>
<path d="M207.672 182.836C206.217 183.152 206.288 193.008 207.672 205.486C209.056 217.963 212.131 264.635 210.136 267.881C208.141 271.127 217.682 268.342 217.992 266.648C218.302 264.954 231.036 237.963 228.471 221.153C225.848 203.954 229.885 192.406 230.484 190.556C231.083 188.706 218.414 180.502 207.672 182.836Z" fill="#C88978"/>
<path d="M230.484 190.562C230.333 191.028 229.964 192.108 229.539 193.737C221.866 186.359 212.393 185.049 206.816 185.025C206.99 183.703 207.27 182.936 207.66 182.85C218.417 180.501 231.083 188.696 230.484 190.562Z" fill="#10091F"/>
<path d="M225.723 244.862V244.879C222.592 256.049 218.175 265.658 217.997 266.647C217.702 268.341 208.138 271.115 210.142 267.88C211.048 266.405 210.912 256.023 210.363 243.938C210.36 243.929 214.698 246.718 225.723 244.862Z" fill="white"/>
<path d="M193.565 277.453C193.565 277.453 192.385 273.587 196.221 272.2C199.24 271.108 209.519 269.149 210.578 265.843C210.578 265.843 212.609 267.8 218.154 266.327C218.154 266.327 221.852 271.805 220.96 277.246L193.565 277.453Z" fill="#272932"/>
<path d="M213.016 266.918C213.069 266.451 213.11 261.278 211.467 260.458C209.823 259.637 207.719 260.404 207.822 261.278C207.925 262.152 209.846 266.416 210.322 266.525C210.797 266.634 213.016 266.918 213.016 266.918Z" fill="#272932"/>
<path d="M221.191 277.261H193.376C192.988 277.261 192.674 277.576 192.674 277.964V278.217C192.674 278.605 192.988 278.92 193.376 278.92H221.191C221.578 278.92 221.893 278.605 221.893 278.217V277.964C221.893 277.576 221.578 277.261 221.191 277.261Z" fill="white"/>
<path d="M208.339 271.158C208.339 271.158 208.043 267.87 206.42 267.864C204.416 267.864 204.85 269.496 204.85 269.496" stroke="white" stroke-width="0.714775" stroke-linecap="round" stroke-linejoin="round"/>
<path d="M204.561 272.472C204.561 272.472 204.266 269.184 202.643 269.178C200.639 269.178 201.073 270.81 201.073 270.81" stroke="white" stroke-width="0.714775" stroke-linecap="round" stroke-linejoin="round"/>
<path d="M212.426 133.104C210.139 139.473 209.059 144.18 207.058 160.815C205.213 176.129 202.283 180.225 202.126 183.306C202.126 183.306 221.076 179.608 232.783 192.855L236.846 183.306L239.969 190.931C239.969 190.931 257.734 192.855 274.984 180.995C274.984 180.995 269.595 175.143 268.016 162.235C266.381 148.86 264.067 139.611 261.208 134.116C258.348 128.621 213.211 130.909 212.426 133.104Z" fill="#A1CBE2"/>
<path d="M236.843 183.305C235.858 180.059 231.853 163.435 231.236 162.972C230.62 162.508 226.615 160.201 226.615 160.201" stroke="#174B64" stroke-width="0.714775" stroke-linecap="round" stroke-linejoin="round"/>
<path d="M263.014 138.298C259.974 136.562 251.263 133.414 231.331 137.247C217.46 139.903 213.034 136.984 211.794 134.904C211.992 134.314 212.202 133.723 212.423 133.104C213.211 130.908 258.348 128.621 261.205 134.116C261.898 135.469 262.503 136.866 263.014 138.298Z" fill="#10091F"/>
<path d="M264.631 186.652L263.699 186.964C263.628 186.755 261.928 181.652 259.942 167.304C258.068 153.882 254.166 135.479 253.674 133.177C254.022 133.177 254.355 133.157 254.677 133.154C255.306 136.105 259.083 154.018 260.916 167.171C262.89 181.387 264.616 186.599 264.631 186.652Z" fill="white"/>
<path d="M261.839 187.635L260.907 187.951C260.836 187.738 259.136 182.639 257.15 168.29C255.314 155.134 251.543 136.368 250.914 133.352C251.254 133.323 251.584 133.296 251.906 133.275C252.591 136.649 256.309 155.137 258.124 168.158C260.107 182.37 261.825 187.585 261.839 187.635Z" fill="white"/>
<path d="M250.153 56.4717C254.674 58.0623 262.332 60.9898 265.021 62.9937C267.709 64.9975 280.431 81.0132 280.431 81.0132C280.431 81.0132 274.824 92.7203 262.043 97.1882C262.043 97.1882 256.654 110.099 261.656 134.296C261.656 134.296 258.165 130.542 232.101 136.615C214.22 140.782 209.994 132.779 210.103 131.539C210.212 130.3 216.844 112.747 211.98 97.0348C211.98 97.0348 198.759 93.337 194.167 85.3277C194.167 85.3277 202.061 68.8251 205.957 65.6762C209.852 62.5274 220.376 59.5526 224.033 58.4224C227.689 57.2921 250.153 56.4717 250.153 56.4717Z" fill="#10091F"/>
<path d="M261.293 132.904C262.131 136.676 276.964 134.002 271.672 118.402C266.381 102.803 261.996 97.4199 261.996 97.4199C261.996 97.4199 257.244 114.681 261.293 132.904Z" fill="#272932"/>
<path d="M259.053 59.3413C256.38 65.5799 250.755 82.906 261.509 111.127L259.821 119.317C259.821 119.317 243.185 95.0557 253.104 57.8451C253.629 55.859 259.053 59.3413 259.053 59.3413Z" fill="#272932"/>
<path d="M224.038 58.5767C214.728 74.2383 217.581 109.014 213.621 114.68C213.621 114.68 207.719 76.2893 216.061 61.4216C217.658 58.5738 225.116 56.7884 224.038 58.5767Z" fill="#272932"/>
<path d="M250.752 56.8014C250.752 56.8014 237.094 64.7694 225.372 58.0969C225.372 58.0969 231.865 54.47 232.729 47.9215C232.739 47.8848 232.744 47.8472 232.744 47.8093L232.771 47.5732C232.774 47.5497 232.774 47.5259 232.771 47.5024C232.771 47.3224 232.8 47.1424 232.806 46.9594C232.806 46.7292 232.806 46.4931 232.806 46.2541L244.844 43.4712C244.844 43.4712 244.844 44.3152 244.947 45.5871C245.283 48.7743 246.42 54.6707 250.752 56.8014Z" fill="#C88978"/>
<path d="M245.139 47.4045C242.138 54.4075 234.305 53.6668 231.159 52.4805C231.985 51.0812 232.523 49.531 232.741 47.921C232.75 47.8843 232.755 47.8467 232.756 47.8088C232.756 47.7321 232.777 47.6524 232.783 47.5728C232.785 47.5492 232.785 47.5255 232.783 47.5019C232.783 47.3219 232.812 47.1419 232.818 46.9589C232.818 46.7258 232.818 46.4897 232.818 46.2536L244.856 43.4707C244.856 43.4707 245.021 46.1297 245.139 47.4045Z" fill="#10091F"/>
<path d="M246.068 43.7476C245.845 44.6949 245.435 45.5879 244.861 46.3741C244.209 47.2595 243.955 47.7818 243.386 48.1448C241.91 49.1128 234.161 51.6861 231.127 47.3952C229.702 45.3737 228.875 37.6359 229.557 31.5005C230.289 24.949 243.831 27.7909 246.06 33.4541C247.458 37.0073 246.626 41.3248 246.068 43.7476Z" fill="#C88978"/>
<path d="M238.479 31.1692C237.944 31.24 229.185 33.2586 226.379 29.8294C223.572 26.4002 227.76 23.1923 231.909 23.5937C231.909 23.5937 232.204 20.2471 237.26 19.2585C242.315 18.2699 244.587 20.3032 244.608 22.2096C244.608 22.2096 248.25 20.7783 250.968 22.9739C253.686 25.1696 252.641 26.8311 252.526 29.0562C252.411 31.2813 254.119 30.6941 254.108 33.0196C254.108 35.4985 251.428 35.5014 249.268 40.3973C248.439 42.2743 246.978 43.0829 246.922 42.2241C246.866 41.3653 246.804 41.2532 246.441 40.7662C245.138 38.7244 244.41 36.3697 244.331 33.9492C244.207 30.2809 243.183 30.5583 238.479 31.1692Z" fill="#10091F"/>
<path d="M243.256 30.4907C240.993 30.6501 234.311 34.5751 227.453 31.8777" stroke="#10091F" stroke-width="0.714775" stroke-linecap="round" stroke-linejoin="round"/>
<path d="M246.679 43.0038C248.552 43.0038 250.07 41.4857 250.07 39.613C250.07 37.7403 248.552 36.2222 246.679 36.2222C244.807 36.2222 243.288 37.7403 243.288 39.613C243.288 41.4857 244.807 43.0038 246.679 43.0038Z" fill="#C88978"/>
<path d="M254.798 98.0971C254.798 98.0971 264.159 117.574 277.985 121.269C282.606 122.506 287.095 118.758 287.538 110.852C287.98 102.946 277.25 85.9326 277.25 85.9326C269.043 95.3762 262.043 97.1882 262.043 97.1882L258.262 95.2404L254.798 98.0971Z" fill="#C88978"/>
<path d="M253.547 97.552C252.281 96.829 248.562 92.6325 247.972 91.0596C247.382 89.4866 248.096 85.1573 248.267 84.7737C248.438 84.39 249.536 82.0498 249.536 82.0498C249.886 82.3933 250.139 82.8231 250.269 83.2958C250.399 83.7685 250.402 84.2671 250.277 84.7412C250.03 85.6908 250.033 86.6879 250.285 87.6361C250.536 88.5843 251.029 89.4514 251.714 90.1536C252.133 90.5756 254.243 90.7881 254.703 90.1536C255.164 89.5191 254.078 87.837 253.951 87.1759C253.759 86.1666 254.603 85.482 254.603 85.482L257.389 88.6987C257.837 89.2151 258.389 93.5533 258.369 96.4218C258.348 99.2902 256.241 99.0778 253.547 97.552Z" fill="#C88978"/>
<path d="M279.375 89.5005C279.266 89.6422 272.378 98.3539 265.676 99.068L262.046 97.1852C262.046 97.1852 269.046 95.3673 277.253 85.9326V85.9533V85.9739L279.301 89.4149L279.375 89.5005Z" fill="#10091F"/>
<path d="M265.51 98.5752C265.51 98.5752 274.051 102.137 277.61 105.478" stroke="#9E2923" stroke-width="0.476517" stroke-linecap="round" stroke-linejoin="round"/>
<path d="M237.551 33.8672C237.551 33.8672 238.78 32.8149 240.551 34.5513" stroke="#10091F" stroke-width="0.714775" stroke-linecap="round" stroke-linejoin="round"/>
<path d="M238.883 37.0497C238.905 36.558 238.616 36.1456 238.236 36.1286C237.857 36.1116 237.531 36.4963 237.509 36.9881C237.487 37.4798 237.777 37.8922 238.156 37.9093C238.536 37.9263 238.861 37.5415 238.883 37.0497Z" fill="#10091F"/>
<path d="M232.63 37.0492C232.652 36.5575 232.362 36.1451 231.983 36.1281C231.603 36.111 231.278 36.4959 231.256 36.9876C231.234 37.4793 231.523 37.8917 231.903 37.9088C232.282 37.9258 232.608 37.541 232.63 37.0492Z" fill="#10091F"/>
<path d="M234.715 37.5513L234.551 42.0054L235.551 42.5513" stroke="#10091F" stroke-width="0.714775" stroke-linecap="round" stroke-linejoin="round"/>
<path d="M238.551 42.5513C238.551 42.5513 237.483 44.7766 235.551 44.5326" stroke="#10091F" stroke-width="0.714775" stroke-linecap="round" stroke-linejoin="round"/>
</g>
<defs>
<clipPath id="clip0_61:1936">
<rect width="487" height="278.524" fill="white"/>
</clipPath>
</defs>
</svg>
