<svg width="68" height="68" viewBox="0 0 68 68" fill="none" xmlns="http://www.w3.org/2000/svg">
<path fill-rule="evenodd" clip-rule="evenodd" d="M17.0294 50.9703C26.402 60.3429 41.598 60.3429 50.9706 50.9703C60.3431 41.5977 60.3431 26.4017 50.9706 17.0292C41.598 7.65657 26.402 7.65657 17.0294 17.0292C7.65686 26.4017 7.65685 41.5977 17.0294 50.9703ZM27.345 42.6561L33.9574 40.3081C34.1344 40.2452 34.3276 40.2452 34.5046 40.3081L41.117 42.6561C41.242 42.7004 41.376 42.7137 41.5073 42.6947C41.6386 42.6757 41.7634 42.6251 41.8707 42.5471C41.9781 42.4692 42.0649 42.3662 42.1236 42.2472C42.1823 42.1282 42.2111 41.9967 42.2076 41.8641L42.0178 34.849C42.0129 34.6617 42.0724 34.4784 42.1864 34.3297L46.4623 28.7666C46.5433 28.6614 46.5974 28.5382 46.62 28.4074C46.6427 28.2766 46.6331 28.1423 46.5923 28.0161C46.5514 27.8899 46.4804 27.7755 46.3854 27.6828C46.2904 27.5901 46.1743 27.522 46.0471 27.4842L39.3163 25.4975C39.1366 25.444 38.9808 25.3304 38.875 25.1757L34.9055 19.3891C34.8304 19.2795 34.7297 19.1899 34.6122 19.1279C34.4947 19.066 34.3639 19.0336 34.231 19.0336C34.0982 19.0336 33.9674 19.066 33.8499 19.1279C33.7323 19.1899 33.6317 19.2795 33.5566 19.3891L29.5871 25.1757C29.4812 25.3304 29.3254 25.444 29.1458 25.4975L22.415 27.4842C22.2878 27.5219 22.1718 27.59 22.0768 27.6826C21.9818 27.7751 21.9108 27.8894 21.8698 28.0155C21.8289 28.1416 21.8192 28.2758 21.8417 28.4065C21.8641 28.5372 21.918 28.6605 21.9987 28.7657L26.2756 34.3297C26.3897 34.4784 26.4492 34.6617 26.4442 34.849L26.2544 41.8641C26.2509 41.9968 26.2797 42.1283 26.3384 42.2473C26.3971 42.3663 26.4839 42.4692 26.5913 42.5472C26.6986 42.6251 26.8234 42.6758 26.9547 42.6948C27.086 42.7137 27.22 42.7005 27.345 42.6561ZM35.5934 42.9326L32.8686 42.9326L32.8677 51.1077L35.5943 51.1077L35.5934 42.9326Z" fill="white"/>
</svg>
