<svg width="48" height="48" viewBox="0 0 48 48" fill="none" xmlns="http://www.w3.org/2000/svg">
<path fill-rule="evenodd" clip-rule="evenodd" d="M24 48C37.2548 48 48 37.2548 48 24C48 10.7452 37.2548 0 24 0C10.7452 0 0 10.7452 0 24C0 37.2548 10.7452 48 24 48ZM25.4152 34.8267L28.4306 28.4908C28.5113 28.3212 28.6479 28.1846 28.8175 28.1039L35.1534 25.0885C35.2732 25.0315 35.3773 24.9461 35.4568 24.8398C35.5362 24.7336 35.5886 24.6095 35.6094 24.4785C35.6302 24.3474 35.6187 24.2133 35.5761 24.0876C35.5335 23.962 35.4609 23.8486 35.3646 23.7573L30.27 18.9311C30.134 18.8022 30.0465 18.6304 30.022 18.4447L29.1118 11.4874C29.0947 11.3558 29.0458 11.2304 28.9693 11.1219C28.8929 11.0135 28.7912 10.9252 28.673 10.8649C28.5548 10.8045 28.4237 10.7738 28.2911 10.7755C28.1584 10.7771 28.0281 10.811 27.9114 10.8743L21.7472 14.2289C21.5823 14.3181 21.3919 14.3479 21.2076 14.3134L14.309 13.0285C14.1784 13.0041 14.0439 13.0119 13.917 13.0512C13.7901 13.0905 13.6747 13.1601 13.5808 13.254C13.4868 13.3479 13.4172 13.4633 13.3779 13.5902C13.3386 13.7171 13.3308 13.8517 13.3552 13.9823L14.6401 20.8809C14.6746 21.0651 14.6448 21.2556 14.5556 21.4205L11.201 27.5847C11.1378 27.7013 11.1038 27.8315 11.1021 27.9641C11.1004 28.0967 11.131 28.2277 11.1912 28.3458C11.2514 28.464 11.3395 28.5657 11.4477 28.6422C11.556 28.7188 11.6813 28.7678 11.8128 28.7851L18.7714 29.6953C18.9572 29.7198 19.1289 29.8074 19.2578 29.9433L24.084 35.0379C24.1753 35.1342 24.2887 35.2068 24.4143 35.2494C24.54 35.2921 24.6741 35.3035 24.8052 35.2827C24.9362 35.2619 25.0603 35.2095 25.1665 35.1301C25.2728 35.0507 25.3582 34.9465 25.4152 34.8267ZM31.4432 29.1898L29.5165 31.1165L35.2965 36.8978L37.2245 34.9698L31.4432 29.1898Z" fill="white"/>
</svg>
