<svg width="337" height="248" viewBox="0 0 337 248" fill="none" xmlns="http://www.w3.org/2000/svg">
<path d="M280.295 231.039H302.569V231.207H280.295V231.039Z" fill="#EBEBEB"/>
<path d="M216.907 232.864H222.753V233.032H216.907V232.864Z" fill="#EBEBEB"/>
<path d="M266.714 224.793H279.62V224.962H266.714V224.793Z" fill="#EBEBEB"/>
<path d="M35.2806 225.926H64.3292V226.094H35.2806V225.926Z" fill="#EBEBEB"/>
<path d="M70.3169 225.926H74.5762V226.094H70.3169V225.926Z" fill="#EBEBEB"/>
<path d="M88.4167 228.763H151.417V228.932H88.4167V228.763Z" fill="#EBEBEB"/>
<path fill-rule="evenodd" clip-rule="evenodd" d="M159.397 190.221H29.5328C27.4166 190.221 25.6949 188.5 25.6949 186.383V3.83787C25.6949 1.72166 27.4166 0 29.5328 0H159.397C161.513 0 163.235 1.72166 163.235 3.83787V186.383C163.235 188.5 161.513 190.221 159.397 190.221ZM29.5328 0.168131C27.5108 0.168131 25.8631 1.81357 25.8631 3.83787V186.383C25.8631 188.405 27.5108 190.053 29.5328 190.053H159.397C161.422 190.053 163.067 188.405 163.067 186.383V3.83787C163.067 1.81357 161.422 0.168131 159.397 0.168131H29.5328Z" fill="#EBEBEB"/>
<path fill-rule="evenodd" clip-rule="evenodd" d="M304.862 190.221H175C172.884 190.221 171.16 188.5 171.16 186.383V3.83787C171.16 1.72166 172.884 0 175 0H304.862C306.978 0 308.702 1.72166 308.702 3.83787V186.383C308.702 188.5 306.978 190.221 304.862 190.221ZM175 0.168131C172.975 0.168131 171.328 1.81357 171.328 3.83787V186.383C171.328 188.405 172.975 190.053 175 190.053H304.862C306.886 190.053 308.534 188.405 308.534 186.383V3.83787C308.534 1.81357 306.886 0.168131 304.862 0.168131H175Z" fill="#EBEBEB"/>
<path d="M336.262 220.384H0V220.216H336.262V220.384Z" fill="#EBEBEB"/>
<path d="M177.623 10.0879H197.115V36.2536H177.623V10.0879Z" fill="#F0F0F0"/>
<path d="M176.009 10.626H195.501V36.7916H176.009V10.626Z" fill="#F5F5F5"/>
<path d="M200.491 41.4747H194.308V12.2625H200.491V41.4747Z" fill="#E0E0E0"/>
<path d="M194.308 12.2625V41.4747H175.323V32.084L189.351 12.2625H194.308Z" fill="#EBEBEB"/>
<path d="M199.296 36.7915C199.296 37.8407 198.446 38.6903 197.399 38.6903C196.35 38.6903 195.5 37.8407 195.5 36.7915C195.5 35.7446 196.35 34.895 197.399 34.895C198.446 34.895 199.296 35.7446 199.296 36.7915Z" fill="#FAFAFA"/>
<path d="M199.296 31.4538H195.5V19.1174H199.296V31.4538Z" fill="#F0F0F0"/>
<path opacity="0.6" d="M199.296 20.857H195.5V19.1174H199.296V20.857Z" fill="#FAFAFA"/>
<path d="M170.077 35.1544C168.263 35.1544 166.45 35.1544 164.636 35.1544V28.5525C166.452 28.5637 168.265 28.5749 170.077 28.5749C170.664 28.5749 170.664 29.4873 170.077 29.4873V34.242C170.664 34.242 170.664 35.1544 170.077 35.1544Z" fill="#EBEBEB"/>
<path d="M165.851 29.4873H170.077V34.2353H165.851V29.4873Z" fill="#F5F5F5"/>
<path d="M166.739 34.6972H152.087C151.078 34.6972 150.262 33.4306 150.262 31.8636C150.262 30.2989 151.078 29.03 152.087 29.03H166.739V34.6972Z" fill="#FAFAFA"/>
<path d="M166.739 29.4876C164.497 29.4876 162.258 29.4876 160.016 29.4876C157.536 29.4876 155.059 29.4876 152.58 29.4876C152.423 29.4876 152.241 29.4607 152.087 29.4876C150.645 29.723 150.535 31.9154 150.887 32.9892C151.293 34.2311 152.046 34.2423 153.098 34.2423C157.644 34.2423 162.193 34.2423 166.739 34.2423C167.326 34.2423 167.324 35.1547 166.739 35.1547C164.127 35.1547 161.518 35.1547 158.908 35.1547C156.658 35.1547 154.346 35.3072 152.1 35.1547C148.879 34.9328 149.056 28.6357 152.34 28.5752C157.135 28.49 161.941 28.5752 166.739 28.5752C167.326 28.5752 167.324 29.4876 166.739 29.4876Z" fill="#E6E6E6"/>
<path d="M170.126 28.6291C168.514 28.6291 166.902 28.6291 165.291 28.6291V22.7625C166.902 22.7737 168.517 22.7849 170.126 22.7849C170.648 22.7849 170.648 23.5941 170.126 23.5941V27.8198C170.648 27.8198 170.648 28.6291 170.126 28.6291Z" fill="#EBEBEB"/>
<path d="M166.371 23.594H170.126V27.8152H166.371V23.594Z" fill="#F5F5F5"/>
<path d="M167.158 28.2254H154.138C153.244 28.2254 152.517 27.0978 152.517 25.7057C152.517 24.3158 153.244 23.1882 154.138 23.1882H167.158V28.2254Z" fill="#FAFAFA"/>
<path d="M167.158 23.5941C165.167 23.5941 163.177 23.5941 161.186 23.5941C158.982 23.5941 156.779 23.5941 154.577 23.5941C154.438 23.5941 154.275 23.5695 154.138 23.5941C152.858 23.8049 152.759 25.7529 153.071 26.7057C153.434 27.8109 154.102 27.8198 155.037 27.8198C159.079 27.8198 163.118 27.8198 167.158 27.8198C167.68 27.8198 167.68 28.6291 167.158 28.6291C164.84 28.6291 162.52 28.6291 160.2 28.6291C158.2 28.6291 156.147 28.7659 154.151 28.6291C151.286 28.4341 151.443 22.8364 154.364 22.7849C158.626 22.7064 162.896 22.7849 167.158 22.7849C167.68 22.7849 167.68 23.5941 167.158 23.5941Z" fill="#E6E6E6"/>
<path d="M170.077 41.6178C168.263 41.6178 166.45 41.6178 164.636 41.6178V35.0181C166.452 35.027 168.265 35.0405 170.077 35.0405C170.664 35.0405 170.664 35.9506 170.077 35.9506V40.7076C170.664 40.7076 170.664 41.6178 170.077 41.6178Z" fill="#EBEBEB"/>
<path d="M165.851 35.9507H170.077V40.7009H165.851V35.9507Z" fill="#F5F5F5"/>
<path d="M166.739 41.1625H152.087C151.078 41.1625 150.262 39.8937 150.262 38.3289C150.262 36.7642 151.078 35.4954 152.087 35.4954H166.739V41.1625Z" fill="#FAFAFA"/>
<path d="M166.739 35.9507C164.497 35.9507 162.258 35.9507 160.016 35.9507C157.536 35.9507 155.059 35.9507 152.58 35.9507C152.423 35.9507 152.241 35.9261 152.087 35.9507C150.645 36.1883 150.535 38.3808 150.887 39.4546C151.293 40.6965 152.046 40.7077 153.098 40.7077C157.644 40.7077 162.193 40.7077 166.739 40.7077C167.326 40.7077 167.324 41.6179 166.739 41.6179C164.127 41.6179 161.518 41.6179 158.908 41.6179C156.658 41.6179 154.346 41.7725 152.1 41.6179C148.879 41.3982 149.056 35.0989 152.34 35.0406C157.135 34.9531 161.941 35.0406 166.739 35.0406C167.326 35.0406 167.324 35.9507 166.739 35.9507Z" fill="#E6E6E6"/>
<path d="M250.004 41.2346V45.9714H86.2579V41.2346H250.004Z" fill="#F5F5F5"/>
<path d="M241.181 57.4918V45.9714H246.94L241.181 57.4918Z" fill="#E0E0E0"/>
<path d="M241.181 57.4918L246.94 45.9714H249.82L244.059 57.4918H241.181Z" fill="#F5F5F5"/>
<path d="M89.1385 45.9714H94.8976V57.4918L89.1385 45.9714Z" fill="#E0E0E0"/>
<path d="M92.017 57.4918L86.2579 45.9714H89.1386L94.8976 57.4918H92.017Z" fill="#F5F5F5"/>
<path d="M231.723 41.3021H219.191H206.662V28.7707V28.3358C206.662 21.4155 212.271 15.8044 219.191 15.8044C226.112 15.8044 231.723 21.4155 231.723 28.3358V28.7707V41.3021Z" fill="#F0F0F0"/>
<path d="M219.191 18.5461C224.598 18.5461 228.981 22.9288 228.981 28.3359C228.981 33.7407 224.598 38.1256 219.191 38.1256C213.786 38.1256 209.402 33.7407 209.402 28.3359C209.402 22.9288 213.786 18.5461 219.191 18.5461Z" fill="#FAFAFA"/>
<path d="M219.191 20.0907C214.047 20.0907 209.837 24.0631 209.442 29.107C209.422 28.8515 209.402 28.5959 209.402 28.3359C209.402 22.9288 213.786 18.5461 219.191 18.5461C224.598 18.5461 228.981 22.9288 228.981 28.3359C228.981 28.5959 228.963 28.8515 228.943 29.107C228.548 24.0631 224.338 20.0907 219.191 20.0907Z" fill="#E6E6E6"/>
<path d="M213.009 28.3292C213.302 28.3292 216.463 28.3292 218.156 28.3292C218.156 26.6345 218.156 23.4691 218.156 23.1822C218.156 22.6105 218.62 22.1465 219.191 22.1465C219.763 22.1465 220.227 22.6105 220.227 23.1822C220.227 23.57 220.227 28.9771 220.227 29.3649C220.227 29.9366 219.763 30.4006 219.191 30.4006C218.813 30.4006 213.388 30.4006 213.009 30.4006C212.437 30.4006 211.973 29.9366 211.973 29.3649C211.973 28.7933 212.437 28.3292 213.009 28.3292Z" fill="#E0E0E0"/>
<path d="M213.009 29.3717C212.437 29.3717 211.973 28.9076 211.973 28.336C211.973 27.7621 212.437 27.3003 213.009 27.3003C213.397 27.3003 218.804 27.3003 219.191 27.3003C219.763 27.3003 220.227 27.7621 220.227 28.336C220.227 28.9076 219.763 29.3717 219.191 29.3717C218.813 29.3717 213.388 29.3717 213.009 29.3717Z" fill="#F5F5F5"/>
<path d="M218.156 22.1531C218.156 21.5815 218.62 21.1174 219.191 21.1174C219.763 21.1174 220.227 21.5815 220.227 22.1531C220.227 22.5409 220.227 27.948 220.227 28.3359C220.227 28.9075 219.763 29.3715 219.191 29.3715C218.62 29.3715 218.156 28.9075 218.156 28.3359C218.156 27.957 218.156 22.532 218.156 22.1531Z" fill="#EBEBEB"/>
<path d="M141.878 41.3472H123.413L125.462 17.9299H143.927L141.878 41.3472Z" fill="#EBEBEB"/>
<path d="M143.927 17.9292H144.808L142.759 41.3465H141.878L143.927 17.9292Z" fill="#E0E0E0"/>
<path d="M140.203 38.959H125.504L127.134 20.3167H141.835L140.203 38.959Z" fill="#E0E0E0"/>
<path d="M139.127 37.4233H126.847L128.21 21.8499H140.49L139.127 37.4233Z" fill="#FAFAFA"/>
<path d="M133.485 24.3943C135.821 24.3943 137.713 26.2863 137.713 28.6222C137.713 30.9559 135.821 32.8502 133.485 32.8502C131.149 32.8502 131.149 24.3943 133.485 24.3943Z" fill="#E6E6E6"/>
<path d="M107.478 41.3474L108.747 26.8523H127.129L125.861 41.3474H107.478Z" fill="#F0F0F0"/>
<path d="M125.861 41.3464L127.129 26.8513H128.12L126.851 41.3464H125.861Z" fill="#E0E0E0"/>
<path d="M109.482 39.8691L110.491 28.3286H125.125L124.117 39.8691H109.482Z" fill="#FAFAFA"/>
<path d="M110.769 38.9186L111.614 29.2791H123.839L122.996 38.9186H110.769Z" fill="#EBEBEB"/>
<path d="M117.32 30.79C118.828 30.79 120.052 32.0118 120.052 33.5205C120.052 35.0314 118.828 36.2532 117.32 36.2532C115.811 36.2532 115.811 30.79 117.32 30.79Z" fill="#F5F5F5"/>
<path d="M52.7774 191.902C52.7236 191.855 52.6945 191.786 52.69 191.714C52.6294 190.394 51.8359 177.439 43.9023 168.564C37.1905 161.056 44.0749 166.414 47.0609 168.828C47.3008 169.021 47.6304 168.738 47.4734 168.474C45.3684 164.914 40.0846 155.503 41.9161 153.672C43.649 151.941 47.2246 160.534 48.8207 164.703C48.9373 165.004 49.3879 164.896 49.3543 164.576C48.8947 160.164 48.2244 150.937 50.7105 151.262C53.1719 151.582 52.4837 163.773 51.9973 169.738C51.9704 170.068 52.4411 170.157 52.5375 169.839C53.6472 166.169 55.7612 160.744 58.2428 162.181C61.9148 164.309 52.8379 171.778 53.4051 179.887C53.961 187.834 54.109 193.048 52.7774 191.902Z" fill="#F5F5F5"/>
<path d="M56.5593 194.196C56.5436 194.173 56.6041 194.066 56.6803 194.014C65.8199 187.688 63.5692 173.764 60.7917 165.129C60.1752 163.208 59.5318 161.215 59.4354 159.162C61.379 161.491 62.547 164.553 63.8449 167.322C64.0153 167.685 64.4412 167.557 64.3807 167.163C63.6858 162.706 63.4123 148.713 67.4541 148.962C69.2834 149.074 67.2501 161.247 67.1717 163.73C67.1582 164.129 67.6537 164.282 67.7568 163.91C68.9539 159.59 77.208 150.668 78.7055 152.452C79.3421 153.21 75.4863 157.404 74.1704 159.375C71.7045 163.067 70.0165 167.189 68.445 171.314C68.306 171.68 68.7544 172.061 68.9471 171.756C70.411 169.447 75.8697 163.901 77.7146 166.649C79.0552 168.642 75.4796 171.527 73.7198 173.238C70.5971 176.275 67.6178 179.62 66.1046 183.655C65.0734 186.403 57.6644 195.671 56.5593 194.196Z" fill="#F5F5F5"/>
<path d="M56.1265 178.317C56.2812 168.436 44.7676 159.964 49.0852 157.14C52.004 155.23 54.9272 161.677 56.5166 166.062C56.6534 166.441 57.2205 166.302 57.1645 165.9C56.1826 158.691 54.5439 143.936 57.5119 143.384C60.5069 142.826 60.3007 154.073 60.0339 159.46C60.0137 159.852 60.5697 159.953 60.6907 159.579C62.3541 154.414 66.1292 143.743 68.3463 145.731C70.6912 147.834 64.8963 159.608 62.5738 164.069C62.4012 164.401 62.8204 164.723 63.0984 164.472C66.5664 161.343 74.5716 154.385 66.9161 163.943C57.8684 175.242 57.7585 191.021 57.772 192.629C57.772 192.716 57.7406 192.801 57.6778 192.862C56.1378 194.339 55.9741 188 56.1265 178.317Z" fill="#E6E6E6"/>
<path d="M59.6327 220.222H56.5906C54.6448 220.222 52.9366 218.92 52.4322 217.041C49.6883 206.817 47.8837 192.416 47.8837 188.867H68.3396C68.3396 192.416 66.5328 206.817 63.7911 217.041C63.2867 218.92 61.5785 220.222 59.6327 220.222Z" fill="#E6E6E6"/>
<path d="M287.609 219.566H269.198C266.961 219.566 265.116 217.815 264.995 215.582L262.744 173.356H294.063L291.813 215.582C291.694 217.815 289.847 219.566 287.609 219.566Z" fill="#E6E6E6"/>
<path d="M274.161 175.948H282.648V184.433H274.161V175.948Z" fill="#FAFAFA"/>
<path d="M274.161 186.524H282.648V195.009H274.161V186.524Z" fill="#FAFAFA"/>
<path d="M274.161 197.101H282.648V205.586H274.161V197.101Z" fill="#FAFAFA"/>
<path d="M274.161 207.678H282.648V216.163H274.161V207.678Z" fill="#FAFAFA"/>
<path d="M295.021 173.356H261.787C261.323 173.356 260.948 172.98 260.948 172.518V171.119C260.948 170.655 261.323 170.279 261.787 170.279H295.021C295.485 170.279 295.861 170.655 295.861 171.119V172.518C295.861 172.98 295.485 173.356 295.021 173.356Z" fill="#F5F5F5"/>
<path d="M289.351 215.45C289.338 215.71 289.257 215.948 289.143 216.163H284.832V207.678H289.766L289.351 215.45Z" fill="#FAFAFA"/>
<path d="M271.975 216.163H267.667C267.55 215.948 267.47 215.71 267.456 215.45L267.041 207.678H271.975V216.163Z" fill="#FAFAFA"/>
<path d="M271.975 205.586H266.929L266.479 197.101H271.975V205.586Z" fill="#FAFAFA"/>
<path d="M271.975 195.009H266.367L265.914 186.524H271.975V195.009Z" fill="#FAFAFA"/>
<path d="M271.975 184.433H265.802L265.349 175.948H271.975V184.433Z" fill="#FAFAFA"/>
<path d="M290.331 197.101L289.878 205.586H284.832V197.101H290.331Z" fill="#FAFAFA"/>
<path d="M290.893 186.524L290.441 195.009H284.832V186.524H290.893Z" fill="#FAFAFA"/>
<path d="M291.458 175.948L291.006 184.433H284.832V175.948H291.458Z" fill="#FAFAFA"/>
<path d="M295.283 240.385C295.283 244.59 236.903 248 164.887 248C92.8734 248 34.4938 244.59 34.4938 240.385C34.4938 236.179 92.8734 232.77 164.887 232.77C236.903 232.77 295.283 236.179 295.283 240.385Z" fill="#F5F5F5"/>
<path d="M286.446 125.437V130.817H266.66C258.971 130.817 253.057 121.669 246.798 111.984C241.835 104.309 236.213 95.6106 231.451 95.6106H218.487H130.207H117.241C112.482 95.6106 106.86 104.309 101.896 111.984C95.6374 121.669 89.7237 130.817 82.0345 130.817H62.2489V125.437H82.0345C86.7937 125.437 92.4183 116.737 97.3793 109.063C100.632 104.028 103.793 99.1436 107.158 95.6106H52.912V90.2304H101.269C98.8274 87.4484 96.5162 83.8773 94.1444 80.2075C90.4187 74.4418 85.7782 67.2659 82.2318 67.2659H71.7942V61.8857H82.2318C88.7082 61.8857 93.5436 69.3664 98.6638 77.2888C102.392 83.0546 107.03 90.2304 110.576 90.2304H117.241H130.207H218.487H229.71C233.256 90.2304 237.894 83.0546 241.622 77.2888C246.742 69.3664 251.58 61.8857 258.054 61.8857H268.492V67.2659H258.054C254.508 67.2659 249.867 74.4418 246.142 80.2075C243.77 83.8773 241.459 87.4484 239.017 90.2304H252.665V95.6106H241.537C244.902 99.1436 248.063 104.028 251.316 109.063C256.277 116.739 261.901 125.437 266.66 125.437H286.446Z" fill="#263238"/>
<g opacity="0.4">
<path opacity="0.4" d="M248.531 109.099L248.108 109.375C243.969 102.986 240.221 97.4736 236.258 94.7409L236.543 94.3262C240.582 97.1127 244.362 102.665 248.531 109.099Z" fill="white"/>
<path opacity="0.4" d="M259.778 124.316L259.433 124.684C257.604 122.971 255.671 120.629 253.356 117.315L253.768 117.026C256.064 120.31 257.974 122.628 259.778 124.316Z" fill="white"/>
<path opacity="0.4" d="M249.818 111.09C250.686 112.433 251.555 113.769 252.427 115.067L252.008 115.347C251.136 114.047 250.264 112.708 249.394 111.366L249.818 111.09Z" fill="white"/>
<path opacity="0.4" d="M266.66 127.728H280.005V128.233H266.66C264.907 128.233 263.148 127.576 261.285 126.226L261.581 125.818C263.354 127.103 265.017 127.728 266.66 127.728Z" fill="white"/>
<path opacity="0.4" d="M286.446 127.728V128.233H282.411V127.728H286.446Z" fill="white"/>
<path opacity="0.4" d="M52.912 92.5215H56.9471V93.0259H52.912V92.5215Z" fill="white"/>
<path opacity="0.4" d="M76.5086 93.0259H60.859V92.5215H76.5086V93.0259Z" fill="white"/>
<path opacity="0.4" d="M108.173 92.5215C107.678 92.3153 107.178 92.0463 106.667 91.71L106.945 91.2886C108.207 92.118 109.395 92.5215 110.576 92.5215H111.715V93.0259H80.4182V92.5215H108.173Z" fill="white"/>
<path opacity="0.4" d="M193.864 92.5215H209.511V93.0259H193.864V92.5215Z" fill="white"/>
<path opacity="0.4" d="M234.086 93.0259C234.198 93.0663 234.31 93.1021 234.422 93.1492L234.229 93.6133C233.292 93.2232 232.357 93.0259 231.451 93.0259H224.901H222.523H218.487H213.423V92.5215H218.487H222.523H224.901H229.71C230.891 92.5215 232.079 92.118 233.341 91.2886L233.619 91.71C233.108 92.0463 232.608 92.3153 232.113 92.5215H244.718V93.0259H234.086Z" fill="white"/>
<path opacity="0.4" d="M182.129 92.5215H189.952V93.0259H182.129V92.5215Z" fill="white"/>
<path opacity="0.4" d="M146.922 92.5215H178.217V93.0259H146.922V92.5215Z" fill="white"/>
<path opacity="0.4" d="M248.63 92.5215H252.665V93.0259H248.63V92.5215Z" fill="white"/>
<path opacity="0.4" d="M235.904 89.8269L235.552 89.4683C238.006 87.0561 240.448 83.4223 242.544 80.2031L242.965 80.4789C240.856 83.7204 238.396 87.3812 235.904 89.8269Z" fill="white"/>
<path opacity="0.4" d="M244.554 78.0242L244.131 77.7507C248.249 71.3887 252.916 64.1792 258.052 64.1792H258.054H261.54V64.6836H258.054C253.192 64.6814 248.603 71.772 244.554 78.0242Z" fill="white"/>
<path opacity="0.4" d="M268.492 64.6836H264.457V64.1792H268.492V64.6836Z" fill="white"/>
<path opacity="0.4" d="M104.383 89.8269C101.89 87.3812 99.4305 83.7204 97.321 80.4789L97.7425 80.2031C99.8385 83.4223 102.28 87.0561 104.735 89.4683L104.383 89.8269Z" fill="white"/>
<path opacity="0.4" d="M82.2318 64.6836H78.7458V64.1792H82.2318C87.3699 64.177 92.0372 71.3887 96.1553 77.7507L95.7316 78.0242C91.683 71.772 87.0941 64.6814 82.2318 64.6836Z" fill="white"/>
<path opacity="0.4" d="M75.8295 64.6836H71.7943V64.1792H75.8295V64.6836Z" fill="white"/>
<path opacity="0.4" d="M130.208 92.5215H143.01V93.0259H130.208H127.363H126.172V92.5215H127.363H130.208Z" fill="white"/>
<path opacity="0.4" d="M112.15 94.3262L112.437 94.7409C108.474 97.4758 104.726 102.986 100.587 109.375L100.164 109.099C104.331 102.665 108.111 97.1127 112.15 94.3262Z" fill="white"/>
<path opacity="0.4" d="M123.451 92.5215H123.794V93.0259H123.451H117.241C116.336 93.0259 115.403 93.2232 114.466 93.6132L114.271 93.1492C114.724 92.9609 115.177 92.8196 115.627 92.7165V92.5215H117.241H123.451Z" fill="white"/>
<path opacity="0.4" d="M87.1144 125.818L87.4103 126.226C85.5474 127.576 83.7876 128.233 82.0346 128.233H68.6895V127.728H82.0346C83.6778 127.728 85.3389 127.103 87.1144 125.818Z" fill="white"/>
<path opacity="0.4" d="M98.8769 111.09L99.3005 111.366C98.4285 112.708 97.5587 114.047 96.6867 115.347L96.2675 115.067C97.1395 113.769 98.0071 112.433 98.8769 111.09Z" fill="white"/>
<path opacity="0.4" d="M94.9269 117.026L95.3394 117.315C93.0236 120.629 91.0912 122.971 89.262 124.684L88.9167 124.316C90.7214 122.628 92.6291 120.31 94.9269 117.026Z" fill="white"/>
<path opacity="0.4" d="M62.2489 127.728H66.284V128.233H62.2489V127.728Z" fill="white"/>
</g>
<path d="M84.7246 117.286L84.9779 119.194V141.123H56.297V121.259C56.297 120.118 57.2206 119.194 58.3616 119.194H71.0836C72.1484 119.194 73.1415 118.658 73.7288 117.771L74.4507 116.681C75.0918 115.713 76.1746 115.132 77.3335 115.132H82.2654C83.5096 115.132 84.5609 116.053 84.7246 117.286Z" fill="#0090FF"/>
<path opacity="0.2" d="M84.7246 117.286L84.9779 119.194V141.123H56.297V121.259C56.297 120.118 57.2206 119.194 58.3616 119.194H71.0836C72.1484 119.194 73.1415 118.658 73.7288 117.771L74.4507 116.681C75.0918 115.713 76.1746 115.132 77.3335 115.132H82.2654C83.5096 115.132 84.5609 116.053 84.7246 117.286Z" fill="white"/>
<path d="M82.8259 138.372H58.4469V121.703H82.8259V138.372Z" fill="#263238"/>
<path opacity="0.902" d="M82.8259 138.372H58.4469V121.703H82.8259V138.372Z" fill="white"/>
<path d="M84.9779 141.123H56.297L52.0893 125.8C51.7709 124.641 52.6452 123.496 53.8468 123.496H77.3515C78.9969 123.496 80.4384 124.594 80.8755 126.181L84.9779 141.123Z" fill="#0090FF"/>
<path opacity="0.6" d="M84.9779 141.123H56.297L52.0893 125.8C51.7709 124.641 52.6452 123.496 53.8468 123.496H77.3515C78.9969 123.496 80.4384 124.594 80.8755 126.181L84.9779 141.123Z" fill="white"/>
<path d="M50.5738 42.1091H55.8935C57.1466 42.1091 58.3145 42.7368 59.005 43.7792L59.7829 44.9561C60.4173 45.9134 61.4889 46.4895 62.6389 46.4895H76.3629C77.5936 46.4895 78.5911 47.4871 78.5911 48.7178V68.3286C78.5911 69.3329 77.7751 70.1489 76.7708 70.1489H49.4686C48.4643 70.1489 47.6483 69.3329 47.6483 68.3286V46.4895L47.9218 44.4316C48.0967 43.1022 49.231 42.1091 50.5738 42.1091Z" fill="#0090FF"/>
<path opacity="0.6" d="M50.5738 42.1091H55.8935C57.1466 42.1091 58.3145 42.7368 59.005 43.7792L59.7829 44.9561C60.4173 45.9134 61.4889 46.4895 62.6389 46.4895H76.3629C77.5936 46.4895 78.5911 47.4871 78.5911 48.7178V68.3286C78.5911 69.3329 77.7751 70.1489 76.7708 70.1489H49.4686C48.4643 70.1489 47.6483 69.3329 47.6483 68.3286V46.4895L47.9218 44.4316C48.0967 43.1022 49.231 42.1091 50.5738 42.1091Z" fill="white"/>
<path d="M73.0272 65.5468H70.2788V46.4897H73.0272V65.5468Z" fill="#263238"/>
<path opacity="0.502" d="M73.0272 65.5468H70.2788V46.4897H73.0272V65.5468Z" fill="white"/>
<path d="M71.7336 48.9645H69.6241V47.3953H71.7336V48.9645Z" fill="#263238"/>
<path d="M71.7336 52.381H69.6241V50.8118H71.7336V52.381Z" fill="#263238"/>
<path d="M71.7336 55.7975H69.6241V54.2283H71.7336V55.7975Z" fill="#263238"/>
<path d="M71.7336 59.2138H69.6241V57.6445H71.7336V59.2138Z" fill="#263238"/>
<path d="M71.7336 62.6325H69.6241V61.0632H71.7336V62.6325Z" fill="#263238"/>
<path opacity="0.702" d="M71.7336 48.9645H69.6241V47.3953H71.7336V48.9645Z" fill="white"/>
<path opacity="0.702" d="M71.7336 52.3807H69.6241V50.8115H71.7336V52.3807Z" fill="white"/>
<path opacity="0.702" d="M71.7336 55.7972H69.6241V54.228H71.7336V55.7972Z" fill="white"/>
<path opacity="0.702" d="M71.7336 59.2138H69.6241V57.6445H71.7336V59.2138Z" fill="white"/>
<path opacity="0.702" d="M71.7336 62.6325H69.6241V61.0632H71.7336V62.6325Z" fill="white"/>
<path d="M73.7804 50.5338H71.6709V48.9646H73.7804V50.5338Z" fill="#263238"/>
<path d="M73.7804 53.9501H71.6709V52.3809H73.7804V53.9501Z" fill="#263238"/>
<path d="M73.7804 57.3666H71.6709V55.7974H73.7804V57.3666Z" fill="#263238"/>
<path d="M73.7804 60.7831H71.6709V59.2139H73.7804V60.7831Z" fill="#263238"/>
<path d="M73.7804 64.2018H71.6709V62.6326H73.7804V64.2018Z" fill="#263238"/>
<g opacity="0.8">
<path opacity="0.8" d="M73.7804 50.5338H71.6709V48.9646H73.7804V50.5338Z" fill="white"/>
<path opacity="0.8" d="M73.7804 53.9501H71.6709V52.3809H73.7804V53.9501Z" fill="white"/>
<path opacity="0.8" d="M73.7804 57.3666H71.6709V55.7974H73.7804V57.3666Z" fill="white"/>
<path opacity="0.8" d="M73.7804 60.7831H71.6709V59.2139H73.7804V60.7831Z" fill="white"/>
<path opacity="0.8" d="M73.7804 64.2018H71.6709V62.6326H73.7804V64.2018Z" fill="white"/>
</g>
<path fill-rule="evenodd" clip-rule="evenodd" d="M74.7578 64.2017V70.4494H68.7096V64.2017H74.7578ZM73.7871 65.3337H69.7767V69.3151H73.7871V65.3337Z" fill="#263238"/>
<path opacity="0.702" fill-rule="evenodd" clip-rule="evenodd" d="M74.7578 64.2017V70.4494H68.7096V64.2017H74.7578ZM73.7871 65.3337H69.7767V69.3151H73.7871V65.3337Z" fill="white"/>
<path d="M76.652 84.384V90.634H48.6168L42.3757 84.393V78.1453H70.411L76.652 84.384Z" fill="#0090FF"/>
<path opacity="0.302" d="M76.652 84.384V90.634H48.6168L42.3757 84.393V78.1453H70.411L76.652 84.384Z" fill="white"/>
<path d="M76.6521 96.8774H48.6168V90.6296H76.6521V96.8774Z" fill="#0090FF"/>
<path opacity="0.302" d="M76.6521 96.8774H48.6168V90.6296H76.6521V96.8774Z" fill="white"/>
<path d="M76.6521 103.123H48.6168V96.873H76.6521V103.123Z" fill="#0090FF"/>
<path opacity="0.6" d="M76.6521 103.123H48.6168V96.873H76.6521V103.123Z" fill="white"/>
<path d="M76.6521 84.3843V90.6343H48.6168V84.3843H76.6521Z" fill="#0090FF"/>
<path d="M59.1911 84.384L52.9501 78.1453H59.2427L65.4837 84.384V103.123H59.1911V84.384Z" fill="#0090FF"/>
<path opacity="0.2" d="M59.1911 84.384L52.9501 78.1453H59.2427L65.4837 84.384V103.123H59.1911V84.384Z" fill="black"/>
<path fill-rule="evenodd" clip-rule="evenodd" d="M67.0103 88.8496V98.6573H57.5165V88.8496H67.0103ZM65.4836 90.6296H59.1911V96.8773H65.4836V90.6296Z" fill="#263238"/>
<path opacity="0.502" fill-rule="evenodd" clip-rule="evenodd" d="M67.0103 88.8496V98.6573H57.5165V88.8496H67.0103ZM65.4836 90.6296H59.1911V96.8773H65.4836V90.6296Z" fill="white"/>
<path d="M48.6168 84.384V90.634L42.3757 84.393V78.1453L48.6168 84.384Z" fill="#263238"/>
<path opacity="0.502" d="M48.6168 84.384V90.634L42.3757 84.393V78.1453L48.6168 84.384Z" fill="white"/>
<path d="M48.6168 90.6297V96.8774L42.3757 90.6387V84.3887L48.6168 90.6297Z" fill="#263238"/>
<path opacity="0.6" d="M48.6168 90.6297V96.8774L42.3757 90.6387V84.3887L48.6168 90.6297Z" fill="white"/>
<path d="M48.6168 96.8728V103.123L42.3757 96.8818V90.634L48.6168 96.8728Z" fill="#263238"/>
<path opacity="0.8" d="M48.6168 96.8728V103.123L42.3757 96.8818V90.634L48.6168 96.8728Z" fill="white"/>
<path d="M291.835 148.032H261.26V106.889H291.835V148.032Z" fill="#0090FF"/>
<path opacity="0.702" d="M291.835 148.032H261.26V106.889H291.835V148.032Z" fill="white"/>
<path opacity="0.702" d="M289.838 119.595H263.257V108.886H289.838V119.595Z" fill="white"/>
<path opacity="0.702" d="M289.838 132.815H263.257V122.104H289.838V132.815Z" fill="white"/>
<path d="M289.838 116.237L287.356 113.215L284.229 117.028L281.097 112.527L278.156 115.466L275.152 113.778L271.897 119.183L268.644 113.778L265.708 115.437L263.257 114.054V112.906L265.708 114.291L268.998 112.433L271.897 117.248L274.798 112.433L277.986 114.224L281.234 110.976L284.294 115.374L287.356 111.641L289.838 114.663V116.237Z" fill="#0090FF"/>
<path opacity="0.502" d="M289.838 116.237L287.356 113.215L284.229 117.028L281.097 112.527L278.156 115.466L275.152 113.778L271.897 119.183L268.644 113.778L265.708 115.437L263.257 114.054V112.906L265.708 114.291L268.998 112.433L271.897 117.248L274.798 112.433L277.986 114.224L281.234 110.976L284.294 115.374L287.356 111.641L289.838 114.663V116.237Z" fill="white"/>
<path d="M289.838 126.504L287.338 127.914L284.401 126.255L281.149 131.66L277.894 126.255L274.89 127.943L271.949 125.002L268.817 129.504L265.69 125.693L263.257 128.656V127.083L265.69 124.119L268.752 127.849L271.812 123.453L275.06 126.701L278.248 124.91L281.149 129.723L284.047 124.908L287.338 126.766L289.838 125.356V126.504Z" fill="#0090FF"/>
<path opacity="0.502" d="M289.838 126.504L287.338 127.914L284.401 126.255L281.149 131.66L277.894 126.255L274.89 127.943L271.949 125.002L268.817 129.504L265.69 125.693L263.257 128.656V127.083L265.69 124.119L268.752 127.849L271.812 123.453L275.06 126.701L278.248 124.91L281.149 129.723L284.047 124.908L287.338 126.766L289.838 125.356V126.504Z" fill="white"/>
<path d="M274.233 134.826C279.31 134.826 284.388 134.826 289.463 134.826C290.107 134.826 290.107 135.823 289.463 135.823C284.388 135.823 279.31 135.823 274.233 135.823C273.59 135.823 273.592 134.826 274.233 134.826Z" fill="#263238"/>
<path d="M274.233 137.542C278.645 137.542 283.056 137.542 287.466 137.542C288.109 137.542 288.109 138.542 287.466 138.542C283.056 138.542 278.645 138.542 274.233 138.542C273.59 138.542 273.592 137.542 274.233 137.542Z" fill="#263238"/>
<path d="M274.233 140.262C278.645 140.262 283.056 140.262 287.466 140.262C288.109 140.262 288.109 141.262 287.466 141.262C283.056 141.262 278.645 141.262 274.233 141.262C273.59 141.262 273.592 140.262 274.233 140.262Z" fill="#263238"/>
<path d="M274.233 142.981C278.867 142.981 283.5 142.981 288.132 142.981C288.775 142.981 288.775 143.979 288.132 143.979C283.5 143.979 278.867 143.979 274.233 143.979C273.59 143.979 273.592 142.981 274.233 142.981Z" fill="#263238"/>
<g opacity="0.4">
<g opacity="0.4">
<path opacity="0.4" d="M274.233 134.826C279.31 134.826 284.388 134.826 289.463 134.826C290.107 134.826 290.107 135.823 289.463 135.823C284.388 135.823 279.31 135.823 274.233 135.823C273.59 135.823 273.592 134.826 274.233 134.826Z" fill="white"/>
</g>
<g opacity="0.4">
<path opacity="0.4" d="M274.233 137.542C278.645 137.542 283.056 137.542 287.466 137.542C288.109 137.542 288.109 138.542 287.466 138.542C283.056 138.542 278.645 138.542 274.233 138.542C273.59 138.542 273.592 137.542 274.233 137.542Z" fill="white"/>
</g>
<g opacity="0.4">
<path opacity="0.4" d="M274.233 140.262C278.645 140.262 283.056 140.262 287.466 140.262C288.109 140.262 288.109 141.262 287.466 141.262C283.056 141.262 278.645 141.262 274.233 141.262C273.59 141.262 273.592 140.262 274.233 140.262Z" fill="white"/>
</g>
<g opacity="0.4">
<path opacity="0.4" d="M274.233 142.981C278.867 142.981 283.5 142.981 288.132 142.981C288.775 142.981 288.775 143.979 288.132 143.979C283.5 143.979 278.867 143.979 274.233 143.979C273.59 143.979 273.592 142.981 274.233 142.981Z" fill="white"/>
</g>
</g>
<path d="M290.27 81.0034H262.475V43.5999H290.27V81.0034Z" fill="#0090FF"/>
<path opacity="0.6" d="M290.27 81.0034H262.475V43.5999H290.27V81.0034Z" fill="white"/>
<path opacity="0.702" d="M288.455 55.1539H264.291V45.4158H288.455V55.1539Z" fill="white"/>
<path d="M274.343 57.1716C278.959 57.1716 283.572 57.1716 288.188 57.1716C288.773 57.1716 288.773 58.0795 288.188 58.0795C283.572 58.0795 278.959 58.0795 274.343 58.0795C273.758 58.0795 273.758 57.1716 274.343 57.1716Z" fill="#263238"/>
<path d="M274.343 59.6421C278.353 59.6421 282.361 59.6421 286.372 59.6421C286.957 59.6421 286.957 60.55 286.372 60.55C282.361 60.55 278.353 60.55 274.343 60.55C273.758 60.55 273.758 59.6421 274.343 59.6421Z" fill="#263238"/>
<path d="M274.343 62.1145C278.353 62.1145 282.361 62.1145 286.372 62.1145C286.957 62.1145 286.957 63.0224 286.372 63.0224C282.361 63.0224 278.353 63.0224 274.343 63.0224C273.758 63.0224 273.758 62.1145 274.343 62.1145Z" fill="#263238"/>
<path d="M274.343 64.585C278.555 64.585 282.765 64.585 286.977 64.585C287.562 64.585 287.562 65.4929 286.977 65.4929C282.765 65.4929 278.555 65.4929 274.343 65.4929C273.758 65.4929 273.758 64.585 274.343 64.585Z" fill="#263238"/>
<path d="M274.343 67.0579C277.748 67.0579 281.151 67.0579 284.556 67.0579C285.141 67.0579 285.141 67.9658 284.556 67.9658C281.151 67.9658 277.748 67.9658 274.343 67.9658C273.758 67.9658 273.758 67.0579 274.343 67.0579Z" fill="#263238"/>
<path d="M274.343 69.5281C278.959 69.5281 283.572 69.5281 288.188 69.5281C288.773 69.5281 288.773 70.436 288.188 70.436C283.572 70.436 278.959 70.436 274.343 70.436C273.758 70.436 273.758 69.5281 274.343 69.5281Z" fill="#263238"/>
<path d="M274.343 72.0007C278.353 72.0007 282.361 72.0007 286.372 72.0007C286.957 72.0007 286.957 72.9086 286.372 72.9086C282.361 72.9086 278.353 72.9086 274.343 72.9086C273.758 72.9086 273.758 72.0007 274.343 72.0007Z" fill="#263238"/>
<path d="M274.343 74.4712C278.353 74.4712 282.361 74.4712 286.372 74.4712C286.957 74.4712 286.957 75.3791 286.372 75.3791C282.361 75.3791 278.353 75.3791 274.343 75.3791C273.758 75.3791 273.758 74.4712 274.343 74.4712Z" fill="#263238"/>
<path d="M274.343 76.9438C278.555 76.9438 282.765 76.9438 286.977 76.9438C287.562 76.9438 287.562 77.8518 286.977 77.8518C282.765 77.8518 278.555 77.8518 274.343 77.8518C273.758 77.8518 273.758 76.9438 274.343 76.9438Z" fill="#263238"/>
<g opacity="0.4">
<path opacity="0.4" d="M274.343 57.1716C278.959 57.1716 283.572 57.1716 288.188 57.1716C288.773 57.1716 288.773 58.0795 288.188 58.0795C283.572 58.0795 278.959 58.0795 274.343 58.0795C273.758 58.0795 273.758 57.1716 274.343 57.1716Z" fill="white"/>
</g>
<g opacity="0.4">
<path opacity="0.4" d="M274.343 59.6421C278.353 59.6421 282.361 59.6421 286.372 59.6421C286.957 59.6421 286.957 60.55 286.372 60.55C282.361 60.55 278.353 60.55 274.343 60.55C273.758 60.55 273.758 59.6421 274.343 59.6421Z" fill="white"/>
</g>
<g opacity="0.4">
<path opacity="0.4" d="M274.343 62.1145C278.353 62.1145 282.361 62.1145 286.372 62.1145C286.957 62.1145 286.957 63.0224 286.372 63.0224C282.361 63.0224 278.353 63.0224 274.343 63.0224C273.758 63.0224 273.758 62.1145 274.343 62.1145Z" fill="white"/>
</g>
<g opacity="0.4">
<path opacity="0.4" d="M274.343 64.585C278.555 64.585 282.765 64.585 286.977 64.585C287.562 64.585 287.562 65.4929 286.977 65.4929C282.765 65.4929 278.555 65.4929 274.343 65.4929C273.758 65.4929 273.758 64.585 274.343 64.585Z" fill="white"/>
</g>
<g opacity="0.4">
<path opacity="0.4" d="M274.343 67.0579C277.748 67.0579 281.151 67.0579 284.556 67.0579C285.141 67.0579 285.141 67.9658 284.556 67.9658C281.151 67.9658 277.748 67.9658 274.343 67.9658C273.758 67.9658 273.758 67.0579 274.343 67.0579Z" fill="white"/>
</g>
<g opacity="0.4">
<path opacity="0.4" d="M274.343 69.5281C278.959 69.5281 283.572 69.5281 288.188 69.5281C288.773 69.5281 288.773 70.436 288.188 70.436C283.572 70.436 278.959 70.436 274.343 70.436C273.758 70.436 273.758 69.5281 274.343 69.5281Z" fill="white"/>
</g>
<g opacity="0.4">
<path opacity="0.4" d="M274.343 72.0007C278.353 72.0007 282.361 72.0007 286.372 72.0007C286.957 72.0007 286.957 72.9086 286.372 72.9086C282.361 72.9086 278.353 72.9086 274.343 72.9086C273.758 72.9086 273.758 72.0007 274.343 72.0007Z" fill="white"/>
</g>
<g opacity="0.4">
<path opacity="0.4" d="M274.343 74.4712C278.353 74.4712 282.361 74.4712 286.372 74.4712C286.957 74.4712 286.957 75.3791 286.372 75.3791C282.361 75.3791 278.353 75.3791 274.343 75.3791C273.758 75.3791 273.758 74.4712 274.343 74.4712Z" fill="white"/>
</g>
<g opacity="0.4">
<path opacity="0.4" d="M274.343 76.9438C278.555 76.9438 282.765 76.9438 286.977 76.9438C287.562 76.9438 287.562 77.8518 286.977 77.8518C282.765 77.8518 278.555 77.8518 274.343 77.8518C273.758 77.8518 273.758 76.9438 274.343 76.9438Z" fill="white"/>
</g>
<path d="M271.101 64.4347H264.291V57.6243H271.101V64.4347Z" fill="#0090FF"/>
<path opacity="0.302" d="M271.101 64.4347H264.291V57.6243H271.101V64.4347Z" fill="white"/>
<path d="M271.763 54.2707H269.92V50.583H271.763V54.2707Z" fill="#0090FF"/>
<path d="M275.45 54.2707H273.608V48.738H275.45V54.2707Z" fill="#0090FF"/>
<path d="M279.138 54.2704H277.295V49.6614H279.138V54.2704Z" fill="#0090FF"/>
<path d="M282.825 54.2706H280.983V46.8953H282.825V54.2706Z" fill="#0090FF"/>
<path d="M276.658 112.079H248.863V74.675H276.658V112.079Z" fill="#0090FF"/>
<path opacity="0.8" d="M276.658 112.079H248.863V74.675H276.658V112.079Z" fill="white"/>
<path d="M260.731 77.7773C265.347 77.7773 269.96 77.7773 274.576 77.7773C275.161 77.7773 275.161 78.6852 274.576 78.6852C269.96 78.6852 265.347 78.6852 260.731 78.6852C260.146 78.6852 260.146 77.7773 260.731 77.7773Z" fill="#263238"/>
<path d="M260.731 80.2476C264.741 80.2476 268.75 80.2476 272.76 80.2476C273.345 80.2476 273.345 81.1555 272.76 81.1555C268.75 81.1555 264.741 81.1555 260.731 81.1555C260.146 81.1555 260.146 80.2476 260.731 80.2476Z" fill="#263238"/>
<path d="M260.731 82.7202C264.741 82.7202 268.75 82.7202 272.76 82.7202C273.345 82.7202 273.345 83.6281 272.76 83.6281C268.75 83.6281 264.741 83.6281 260.731 83.6281C260.146 83.6281 260.146 82.7202 260.731 82.7202Z" fill="#263238"/>
<path d="M260.731 85.1907C264.943 85.1907 269.153 85.1907 273.365 85.1907C273.95 85.1907 273.95 86.0986 273.365 86.0986C269.153 86.0986 264.943 86.0986 260.731 86.0986C260.146 86.0986 260.146 85.1907 260.731 85.1907Z" fill="#263238"/>
<path d="M260.731 87.6633C264.136 87.6633 267.539 87.6633 270.944 87.6633C271.529 87.6633 271.529 88.5712 270.944 88.5712C267.539 88.5712 264.136 88.5712 260.731 88.5712C260.146 88.5712 260.146 87.6633 260.731 87.6633Z" fill="#263238"/>
<path d="M260.731 90.1338C265.347 90.1338 269.96 90.1338 274.576 90.1338C275.161 90.1338 275.161 91.0417 274.576 91.0417C269.96 91.0417 265.347 91.0417 260.731 91.0417C260.146 91.0417 260.146 90.1338 260.731 90.1338Z" fill="#263238"/>
<path d="M260.731 92.6064C264.741 92.6064 268.75 92.6064 272.76 92.6064C273.345 92.6064 273.345 93.5144 272.76 93.5144C268.75 93.5144 264.741 93.5144 260.731 93.5144C260.146 93.5144 260.146 92.6064 260.731 92.6064Z" fill="#263238"/>
<path d="M260.731 95.0769C264.741 95.0769 268.75 95.0769 272.76 95.0769C273.345 95.0769 273.345 95.9848 272.76 95.9848C268.75 95.9848 264.741 95.9848 260.731 95.9848C260.146 95.9848 260.146 95.0769 260.731 95.0769Z" fill="#263238"/>
<path d="M260.731 100.022C264.136 100.022 267.539 100.022 270.944 100.022C271.529 100.022 271.529 100.93 270.944 100.93C267.539 100.93 264.136 100.93 260.731 100.93C260.146 100.93 260.146 100.022 260.731 100.022Z" fill="#263238"/>
<path d="M260.731 102.495C265.347 102.495 269.96 102.495 274.576 102.495C275.161 102.495 275.161 103.403 274.576 103.403C269.96 103.403 265.347 103.403 260.731 103.403C260.146 103.403 260.146 102.495 260.731 102.495Z" fill="#263238"/>
<path d="M260.731 104.965C264.741 104.965 268.75 104.965 272.76 104.965C273.345 104.965 273.345 105.873 272.76 105.873C268.75 105.873 264.741 105.873 260.731 105.873C260.146 105.873 260.146 104.965 260.731 104.965Z" fill="#263238"/>
<path d="M260.731 107.438C264.741 107.438 268.75 107.438 272.76 107.438C273.345 107.438 273.345 108.346 272.76 108.346C268.75 108.346 264.741 108.346 260.731 108.346C260.146 108.346 260.146 107.438 260.731 107.438Z" fill="#263238"/>
<path d="M260.731 97.5496C264.943 97.5496 269.153 97.5496 273.365 97.5496C273.95 97.5496 273.95 98.4575 273.365 98.4575C269.153 98.4575 264.943 98.4575 260.731 98.4575C260.146 98.4575 260.146 97.5496 260.731 97.5496Z" fill="#263238"/>
<g opacity="0.4">
<g opacity="0.4">
<path opacity="0.4" d="M260.731 77.7773C265.347 77.7773 269.96 77.7773 274.576 77.7773C275.161 77.7773 275.161 78.6852 274.576 78.6852C269.96 78.6852 265.347 78.6852 260.731 78.6852C260.146 78.6852 260.146 77.7773 260.731 77.7773Z" fill="white"/>
</g>
<g opacity="0.4">
<path opacity="0.4" d="M260.731 80.2476C264.741 80.2476 268.75 80.2476 272.76 80.2476C273.345 80.2476 273.345 81.1555 272.76 81.1555C268.75 81.1555 264.741 81.1555 260.731 81.1555C260.146 81.1555 260.146 80.2476 260.731 80.2476Z" fill="white"/>
</g>
<g opacity="0.4">
<path opacity="0.4" d="M260.731 82.7202C264.741 82.7202 268.75 82.7202 272.76 82.7202C273.345 82.7202 273.345 83.6281 272.76 83.6281C268.75 83.6281 264.741 83.6281 260.731 83.6281C260.146 83.6281 260.146 82.7202 260.731 82.7202Z" fill="white"/>
</g>
<g opacity="0.4">
<path opacity="0.4" d="M260.731 85.1907C264.943 85.1907 269.153 85.1907 273.365 85.1907C273.95 85.1907 273.95 86.0986 273.365 86.0986C269.153 86.0986 264.943 86.0986 260.731 86.0986C260.146 86.0986 260.146 85.1907 260.731 85.1907Z" fill="white"/>
</g>
<g opacity="0.4">
<path opacity="0.4" d="M260.731 87.6633C264.136 87.6633 267.539 87.6633 270.944 87.6633C271.529 87.6633 271.529 88.5712 270.944 88.5712C267.539 88.5712 264.136 88.5712 260.731 88.5712C260.146 88.5712 260.146 87.6633 260.731 87.6633Z" fill="white"/>
</g>
<g opacity="0.4">
<path opacity="0.4" d="M260.731 90.1338C265.347 90.1338 269.96 90.1338 274.576 90.1338C275.161 90.1338 275.161 91.0417 274.576 91.0417C269.96 91.0417 265.347 91.0417 260.731 91.0417C260.146 91.0417 260.146 90.1338 260.731 90.1338Z" fill="white"/>
</g>
<g opacity="0.4">
<path opacity="0.4" d="M260.731 92.6064C264.741 92.6064 268.75 92.6064 272.76 92.6064C273.345 92.6064 273.345 93.5144 272.76 93.5144C268.75 93.5144 264.741 93.5144 260.731 93.5144C260.146 93.5144 260.146 92.6064 260.731 92.6064Z" fill="white"/>
</g>
<g opacity="0.4">
<path opacity="0.4" d="M260.731 95.0769C264.741 95.0769 268.75 95.0769 272.76 95.0769C273.345 95.0769 273.345 95.9848 272.76 95.9848C268.75 95.9848 264.741 95.9848 260.731 95.9848C260.146 95.9848 260.146 95.0769 260.731 95.0769Z" fill="white"/>
</g>
<g opacity="0.4">
<path opacity="0.4" d="M260.731 100.022C264.136 100.022 267.539 100.022 270.944 100.022C271.529 100.022 271.529 100.93 270.944 100.93C267.539 100.93 264.136 100.93 260.731 100.93C260.146 100.93 260.146 100.022 260.731 100.022Z" fill="white"/>
</g>
<g opacity="0.4">
<path opacity="0.4" d="M260.731 102.495C265.347 102.495 269.96 102.495 274.576 102.495C275.161 102.495 275.161 103.403 274.576 103.403C269.96 103.403 265.347 103.403 260.731 103.403C260.146 103.403 260.146 102.495 260.731 102.495Z" fill="white"/>
</g>
<g opacity="0.4">
<path opacity="0.4" d="M260.731 104.965C264.741 104.965 268.75 104.965 272.76 104.965C273.345 104.965 273.345 105.873 272.76 105.873C268.75 105.873 264.741 105.873 260.731 105.873C260.146 105.873 260.146 104.965 260.731 104.965Z" fill="white"/>
</g>
<g opacity="0.4">
<path opacity="0.4" d="M260.731 107.438C264.741 107.438 268.75 107.438 272.76 107.438C273.345 107.438 273.345 108.346 272.76 108.346C268.75 108.346 264.741 108.346 260.731 108.346C260.146 108.346 260.146 107.438 260.731 107.438Z" fill="white"/>
</g>
<g opacity="0.4">
<path opacity="0.4" d="M260.731 97.5496C264.943 97.5496 269.153 97.5496 273.365 97.5496C273.95 97.5496 273.95 98.4575 273.365 98.4575C269.153 98.4575 264.943 98.4575 260.731 98.4575C260.146 98.4575 260.146 97.5496 260.731 97.5496Z" fill="white"/>
</g>
</g>
<path d="M252.362 93.0595H250.809C250.809 91.9073 251.277 90.8648 252.033 90.1094L253.129 91.2056C252.656 91.6808 252.362 92.3354 252.362 93.0595Z" fill="#0090FF"/>
<path d="M254.983 97.2337C252.678 97.2337 250.809 95.3641 250.809 93.0596H252.362C252.362 94.5077 253.535 95.6824 254.983 95.6824V97.2337Z" fill="#0090FF"/>
<path opacity="0.302" d="M254.983 97.2337C252.678 97.2337 250.809 95.3641 250.809 93.0596H252.362C252.362 94.5077 253.535 95.6824 254.983 95.6824V97.2337Z" fill="white"/>
<path d="M252.033 90.1095C252.788 89.354 253.831 88.8855 254.983 88.8855V90.4368C254.259 90.4368 253.604 90.7305 253.129 91.2057L252.033 90.1095Z" fill="#0090FF"/>
<path opacity="0.502" d="M252.033 90.1095C252.788 89.354 253.831 88.8855 254.983 88.8855V90.4368C254.259 90.4368 253.604 90.7305 253.129 91.2057L252.033 90.1095Z" fill="black"/>
<path d="M254.983 90.4368V88.8855C257.29 88.8855 259.157 90.7551 259.157 93.0596C259.157 95.3641 257.29 97.2338 254.983 97.2338V95.6825C256.431 95.6825 257.606 94.5078 257.606 93.0596C257.606 91.6115 256.431 90.4368 254.983 90.4368Z" fill="#0090FF"/>
<path opacity="0.2" d="M257.606 93.0596H259.157C259.157 94.2118 258.691 95.2565 257.935 96.012L256.839 94.9135C257.312 94.4405 257.606 93.7837 257.606 93.0596Z" fill="black"/>
<path d="M254.983 84.0948V85.6461C253.831 85.6461 252.788 85.1776 252.033 84.4221L253.129 83.3259C253.604 83.8012 254.259 84.0948 254.983 84.0948Z" fill="#0090FF"/>
<path d="M259.157 81.4719C259.157 83.7764 257.29 85.6461 254.983 85.6461V84.0948C256.431 84.0948 257.606 82.9201 257.606 81.4719H259.157Z" fill="#0090FF"/>
<path opacity="0.302" d="M259.157 81.4719C259.157 83.7764 257.29 85.6461 254.983 85.6461V84.0948C256.431 84.0948 257.606 82.9201 257.606 81.4719H259.157Z" fill="white"/>
<path d="M252.033 84.4221C251.277 83.6666 250.809 82.6242 250.809 81.4719H252.362C252.362 82.196 252.656 82.8506 253.129 83.3259L252.033 84.4221Z" fill="#0090FF"/>
<path opacity="0.502" d="M252.033 84.4221C251.277 83.6666 250.809 82.6242 250.809 81.4719H252.362C252.362 82.196 252.656 82.8506 253.129 83.3259L252.033 84.4221Z" fill="black"/>
<path d="M252.362 81.4722H250.809C250.809 79.1655 252.678 77.2981 254.983 77.2981C257.29 77.2981 259.157 79.1655 259.157 81.4722H257.606C257.606 80.0241 256.431 78.8494 254.983 78.8494C253.535 78.8494 252.362 80.0241 252.362 81.4722Z" fill="#0090FF"/>
<path opacity="0.2" d="M254.983 78.8491V77.2979C256.138 77.2979 257.18 77.7641 257.935 78.5196L256.839 79.6181C256.364 79.1428 255.707 78.8491 254.983 78.8491Z" fill="black"/>
<path d="M256.839 102.793L257.935 101.697C258.691 102.452 259.157 103.495 259.157 104.649H257.606C257.606 103.925 257.312 103.268 256.839 102.793Z" fill="#0090FF"/>
<path d="M254.983 107.27C256.431 107.27 257.606 106.097 257.606 104.649H259.157C259.157 106.954 257.29 108.823 254.983 108.823V107.27Z" fill="#0090FF"/>
<path opacity="0.302" d="M254.983 107.27C256.431 107.27 257.606 106.097 257.606 104.649H259.157C259.157 106.954 257.29 108.823 254.983 108.823V107.27Z" fill="white"/>
<path d="M256.839 102.793C256.364 102.32 255.707 102.026 254.983 102.026V100.475C256.138 100.475 257.18 100.941 257.935 101.697L256.839 102.793Z" fill="#0090FF"/>
<path opacity="0.502" d="M256.839 102.793C256.364 102.32 255.707 102.026 254.983 102.026V100.475C256.138 100.475 257.18 100.941 257.935 101.697L256.839 102.793Z" fill="black"/>
<path d="M252.362 104.649C252.362 106.097 253.535 107.27 254.983 107.27V108.823C252.678 108.823 250.809 106.954 250.809 104.649C250.809 102.342 252.678 100.475 254.983 100.475V102.026C253.535 102.026 252.362 103.201 252.362 104.649Z" fill="#0090FF"/>
<path opacity="0.2" d="M253.129 106.503L252.033 107.599C251.277 106.844 250.809 105.801 250.809 104.649H252.362C252.362 105.373 252.656 106.028 253.129 106.503Z" fill="black"/>
<path d="M192.766 153.708H176.497V149.152H192.766C193.75 149.152 194.548 149.95 194.548 150.935V151.925C194.548 152.91 193.75 153.708 192.766 153.708Z" fill="#263238"/>
<path d="M179.313 153.708H144.696C143.781 153.708 143.039 152.966 143.039 152.049V150.811C143.039 149.897 143.781 149.152 144.696 149.152H179.313C180.228 149.152 180.97 149.897 180.97 150.811V152.049C180.97 152.966 180.228 153.708 179.313 153.708Z" fill="black"/>
<path opacity="0.502" d="M179.313 153.708H144.696C143.781 153.708 143.039 152.966 143.039 152.049V150.811C143.039 149.897 143.781 149.152 144.696 149.152H179.313C180.228 149.152 180.97 149.897 180.97 150.811V152.049C180.97 152.966 180.228 153.708 179.313 153.708Z" fill="white"/>
<path d="M171.707 128.176H174.861L180.476 149.152H171.707V128.176Z" fill="#263238"/>
<path d="M179.199 149.153H161.298L159.516 128.177H173.583L179.199 149.153Z" fill="black"/>
<path opacity="0.302" d="M179.199 149.153H161.298L159.516 128.177H173.583L179.199 149.153Z" fill="white"/>
<path d="M227.107 70.9645L221.348 136.802C221.198 138.506 219.696 139.887 217.992 139.887H209.854L216.156 67.8799H224.291C225.995 67.8799 227.257 69.2608 227.107 70.9645Z" fill="#263238"/>
<path d="M216.116 139.887H117.604C115.901 139.887 114.641 138.506 114.791 136.803L120.55 70.9648C120.7 69.261 122.202 67.8801 123.906 67.8801H222.415C224.119 67.8801 225.379 69.261 225.231 70.9648L219.469 136.803C219.321 138.506 217.819 139.887 216.116 139.887Z" fill="#263238"/>
<path opacity="0.702" d="M216.116 139.887H117.604C115.901 139.887 114.641 138.506 114.791 136.803L120.55 70.9648C120.7 69.261 122.202 67.8801 123.906 67.8801H222.415C224.119 67.8801 225.379 69.261 225.231 70.9648L219.469 136.803C219.321 138.506 217.819 139.887 216.116 139.887Z" fill="white"/>
<path opacity="0.902" d="M213.486 131.483H121.705C120.227 131.483 119.133 130.283 119.263 128.806L124.049 74.1029C124.179 72.6234 125.482 71.4263 126.959 71.4263H218.741C220.218 71.4263 221.312 72.6234 221.182 74.1029L216.396 128.806C216.266 130.283 214.963 131.483 213.486 131.483Z" fill="#FAFAFA"/>
<path d="M189.459 90.7434H186.247L186.809 84.3208H190.019L189.459 90.7434Z" fill="#0090FF"/>
<path opacity="0.2" d="M189.459 90.7434H186.247L186.809 84.3208H190.019L189.459 90.7434Z" fill="black"/>
<path d="M195.879 90.7436H192.669L193.512 81.1108H196.722L195.879 90.7436Z" fill="#0090FF"/>
<path d="M202.302 90.7435H199.089L199.793 82.7158H203.004L202.302 90.7435Z" fill="#0090FF"/>
<path d="M208.722 90.7436H205.512L206.635 77.9006H209.846L208.722 90.7436Z" fill="#0090FF"/>
<path opacity="0.4" d="M208.722 90.7436H205.512L206.635 77.9006H209.846L208.722 90.7436Z" fill="black"/>
<path d="M211.933 91.3353C202.302 91.3353 192.669 91.3353 183.036 91.3353C182.738 91.3353 182.415 91.0619 182.445 90.7435C182.819 86.4618 183.193 82.1801 183.568 77.9006C183.635 77.1451 184.821 77.1406 184.754 77.9006C184.397 81.9828 184.038 86.0672 183.682 90.1495C193.1 90.1495 202.515 90.1495 211.933 90.1495C212.697 90.1495 212.695 91.3353 211.933 91.3353Z" fill="#0090FF"/>
<path opacity="0.502" d="M211.933 91.3353C202.302 91.3353 192.669 91.3353 183.036 91.3353C182.738 91.3353 182.415 91.0619 182.445 90.7435C182.819 86.4618 183.193 82.1801 183.568 77.9006C183.635 77.1451 184.821 77.1406 184.754 77.9006C184.397 81.9828 184.038 86.0672 183.682 90.1495C193.1 90.1495 202.515 90.1495 211.933 90.1495C212.697 90.1495 212.695 91.3353 211.933 91.3353Z" fill="white"/>
<path d="M139.625 88.6139L139.387 91.3354C137.365 91.3354 135.608 90.5171 134.4 89.1923L136.491 87.2666C137.251 88.0983 138.356 88.6139 139.625 88.6139Z" fill="#0090FF"/>
<path opacity="0.502" d="M139.625 88.6139L139.387 91.3354C137.365 91.3354 135.608 90.5171 134.4 89.1923L136.491 87.2666C137.251 88.0983 138.356 88.6139 139.625 88.6139Z" fill="black"/>
<path d="M147.35 84.0137C146.996 88.0578 143.431 91.3352 139.387 91.3352L139.625 88.6137C142.167 88.6137 144.407 86.5536 144.629 84.0137H147.35Z" fill="#0090FF"/>
<path opacity="0.102" d="M147.35 84.0137C146.996 88.0578 143.431 91.3352 139.387 91.3352L139.625 88.6137C142.167 88.6137 144.407 86.5536 144.629 84.0137H147.35Z" fill="black"/>
<path d="M134.399 89.1921C133.189 87.8672 132.53 86.0357 132.707 84.0137H135.428C135.319 85.2847 135.731 86.4348 136.491 87.2664L134.399 89.1921Z" fill="#0090FF"/>
<path d="M135.429 84.0139H132.707C133.062 79.972 136.626 76.6946 140.67 76.6946C144.712 76.6946 147.705 79.972 147.35 84.0139H144.629C144.851 81.474 142.972 79.4161 140.43 79.4161C137.89 79.4161 135.651 81.474 135.429 84.0139Z" fill="#0090FF"/>
<path opacity="0.2" d="M135.429 84.0139H132.707C133.062 79.972 136.626 76.6946 140.67 76.6946C144.712 76.6946 147.705 79.972 147.35 84.0139H144.629C144.851 81.474 142.972 79.4161 140.43 79.4161C137.89 79.4161 135.651 81.474 135.429 84.0139Z" fill="white"/>
<path opacity="0.6" d="M140.43 79.4161L140.67 76.6946C142.689 76.6946 144.449 77.5128 145.658 78.8377L143.566 80.7611C142.806 79.9294 141.701 79.4161 140.43 79.4161Z" fill="white"/>
<path d="M160.018 88.6139L159.778 91.3354C157.758 91.3354 155.999 90.5171 154.79 89.1923L156.882 87.2666C157.642 88.0983 158.747 88.6139 160.018 88.6139Z" fill="#0090FF"/>
<path opacity="0.502" d="M160.018 88.6139L159.778 91.3354C157.758 91.3354 155.999 90.5171 154.79 89.1923L156.882 87.2666C157.642 88.0983 158.747 88.6139 160.018 88.6139Z" fill="black"/>
<path d="M167.741 84.0137C167.387 88.0578 163.822 91.3352 159.778 91.3352L160.018 88.6137C162.558 88.6137 164.797 86.5536 165.019 84.0137H167.741Z" fill="#0090FF"/>
<path opacity="0.102" d="M167.741 84.0137C167.387 88.0578 163.822 91.3352 159.778 91.3352L160.018 88.6137C162.558 88.6137 164.797 86.5536 165.019 84.0137H167.741Z" fill="black"/>
<path d="M154.79 89.1921C153.582 87.8672 152.921 86.0357 153.098 84.0137H155.819C155.71 85.2847 156.124 86.4348 156.882 87.2664L154.79 89.1921Z" fill="#0090FF"/>
<path d="M155.82 84.0139H153.098C153.453 79.972 157.017 76.6946 161.061 76.6946C165.103 76.6946 168.096 79.972 167.741 84.0139H165.02C165.242 81.474 163.363 79.4161 160.823 79.4161C158.281 79.4161 156.042 81.474 155.82 84.0139Z" fill="#0090FF"/>
<path opacity="0.2" d="M155.82 84.0139H153.098C153.453 79.972 157.017 76.6946 161.061 76.6946C165.103 76.6946 168.096 79.972 167.741 84.0139H165.02C165.242 81.474 163.363 79.4161 160.823 79.4161C158.281 79.4161 156.042 81.474 155.82 84.0139Z" fill="white"/>
<path opacity="0.6" d="M160.823 79.4161L161.061 76.6946C163.083 76.6946 164.84 77.5128 166.048 78.8377L163.957 80.7611C163.197 79.9294 162.092 79.4161 160.823 79.4161Z" fill="white"/>
<path fill-rule="evenodd" clip-rule="evenodd" d="M187.518 114.562H183.684L184.018 110.731H187.854L187.518 114.562ZM184.59 113.73H186.756L186.946 111.563H184.781L184.59 113.73Z" fill="#0090FF"/>
<path fill-rule="evenodd" clip-rule="evenodd" d="M187.007 120.398H183.173L183.507 116.566H187.343L187.007 120.398ZM184.081 119.566H186.247L186.435 117.398H184.269L184.081 119.566Z" fill="#0090FF"/>
<path fill-rule="evenodd" clip-rule="evenodd" d="M186.498 126.233H182.662L182.998 122.402H186.832L186.498 126.233ZM183.57 125.403H185.736L185.926 123.233H183.758L183.57 125.403Z" fill="#0090FF"/>
<path d="M190.177 113.668C189.661 113.668 189.278 113.251 189.322 112.733C189.369 112.217 189.825 111.798 190.34 111.798H203.165C203.681 111.798 204.062 112.217 204.017 112.733C203.972 113.251 203.517 113.668 203.002 113.668H190.177Z" fill="#0090FF"/>
<path opacity="0.702" d="M190.177 113.668C189.661 113.668 189.278 113.251 189.322 112.733C189.369 112.217 189.825 111.798 190.34 111.798H203.165C203.681 111.798 204.062 112.217 204.017 112.733C203.972 113.251 203.517 113.668 203.002 113.668H190.177Z" fill="white"/>
<path d="M189.163 125.253C188.648 125.253 188.264 124.834 188.309 124.318C188.354 123.803 188.811 123.384 189.327 123.384H200.074C200.589 123.384 200.97 123.803 200.926 124.318C200.881 124.834 200.426 125.253 199.91 125.253H189.163Z" fill="#0090FF"/>
<path opacity="0.4" d="M189.163 125.253C188.648 125.253 188.264 124.834 188.309 124.318C188.354 123.803 188.811 123.384 189.327 123.384H200.074C200.589 123.384 200.97 123.803 200.926 124.318C200.881 124.834 200.426 125.253 199.91 125.253H189.163Z" fill="white"/>
<path d="M189.674 119.418C189.156 119.418 188.775 118.999 188.82 118.483C188.865 117.965 189.32 117.548 189.838 117.548H199.753C200.269 117.548 200.65 117.965 200.605 118.483C200.56 118.999 200.105 119.418 199.59 119.418H189.674Z" fill="#0090FF"/>
<path opacity="0.2" d="M189.674 119.418C189.156 119.418 188.775 118.999 188.82 118.483C188.865 117.965 189.32 117.548 189.838 117.548H199.753C200.269 117.548 200.65 117.965 200.605 118.483C200.56 118.999 200.105 119.418 199.59 119.418H189.674Z" fill="white"/>
<path d="M176.197 120.72C175.388 119.615 174.578 118.51 173.767 117.402C172.727 118.55 171.686 119.696 170.646 120.841C170.38 121.133 169.895 121.036 169.705 120.72C168.887 119.375 168.068 118.03 167.25 116.685C166.259 117.597 165.266 118.507 164.275 119.42C164.08 119.601 163.787 119.653 163.549 119.514C162.679 118.998 161.809 118.485 160.94 117.969C159.821 119.59 158.702 121.211 157.586 122.832C157.346 123.179 156.77 123.262 156.55 122.832C155.723 121.227 154.896 119.622 154.071 118.016C153.105 118.642 151.8 119.613 150.881 119.615C149.868 119.617 148.334 118.2 147.473 117.687C146.81 117.295 147.413 116.257 148.079 116.654C148.597 116.961 149.114 117.268 149.63 117.575C149.805 117.678 150.688 118.133 150.919 118.344C151.206 118.12 152.224 117.613 152.524 117.449C153.019 117.185 153.513 116.918 154.006 116.654C154.279 116.506 154.674 116.573 154.826 116.869C155.597 118.368 156.371 119.868 157.142 121.368C158.178 119.868 159.211 118.368 160.247 116.869C160.431 116.602 160.774 116.479 161.067 116.654C161.652 116.999 162.235 117.344 162.82 117.689C163.136 117.878 163.45 118.079 163.775 118.256C164.86 117.308 165.898 116.299 166.959 115.324C167.246 115.062 167.694 115.107 167.9 115.447C168.707 116.77 169.512 118.095 170.317 119.42C171.341 118.292 172.366 117.165 173.39 116.035C173.673 115.725 174.117 115.864 174.332 116.158C175.3 117.476 176.266 118.794 177.233 120.115C177.69 120.738 176.65 121.337 176.197 120.72Z" fill="#0090FF"/>
<path d="M176.26 126.233C166.517 126.233 156.777 126.233 147.036 126.233C146.734 126.233 146.409 125.957 146.435 125.634C146.814 121.305 147.193 116.974 147.572 112.645C147.639 111.881 148.839 111.876 148.771 112.645C148.41 116.775 148.049 120.904 147.689 125.033C157.211 125.033 166.734 125.033 176.26 125.033C177.033 125.033 177.031 126.233 176.26 126.233Z" fill="#0090FF"/>
<path opacity="0.502" d="M176.26 126.233C166.517 126.233 156.777 126.233 147.036 126.233C146.734 126.233 146.409 125.957 146.435 125.634C146.814 121.305 147.193 116.974 147.572 112.645C147.639 111.881 148.839 111.876 148.771 112.645C148.41 116.775 148.049 120.904 147.689 125.033C157.211 125.033 166.734 125.033 176.26 125.033C177.033 125.033 177.031 126.233 176.26 126.233Z" fill="white"/>
<path d="M207.371 107.427H156.375L157.514 94.4155H208.51L207.371 107.427Z" fill="#0090FF"/>
<path opacity="0.902" d="M207.371 107.427H156.375L157.514 94.4155H208.51L207.371 107.427Z" fill="white"/>
<path fill-rule="evenodd" clip-rule="evenodd" d="M208.276 108.417H155.297L156.609 93.4246H209.588L208.276 108.417ZM157.454 106.436H206.467L207.431 95.4085H158.42L157.454 106.436Z" fill="#263238"/>
<path d="M167.894 102.667L167.802 103.699H163.502L163.988 98.1458H168.185L168.095 99.177H165.177L165.071 100.383H167.649L167.562 101.381H164.984L164.869 102.667H167.894Z" fill="#0090FF"/>
<path d="M172.267 103.699L171.097 101.771L169.611 103.699H168.136L170.438 100.874L168.725 98.1458H170.185L171.303 99.9459L172.713 98.1458H174.103L171.933 100.827L173.751 103.699H172.267Z" fill="#0090FF"/>
<path d="M175.74 99.1927H173.964L174.054 98.1458H178.894L178.802 99.1927H177.026L176.632 103.699H175.345L175.74 99.1927Z" fill="#0090FF"/>
<path fill-rule="evenodd" clip-rule="evenodd" d="M182.635 103.699L181.7 102.152H180.519L180.382 103.699H179.098L179.584 98.1458H181.987C182.478 98.1458 182.9 98.2265 183.247 98.3901C183.595 98.5538 183.853 98.7869 184.023 99.0895C184.191 99.3899 184.258 99.7486 184.222 100.161C184.187 100.574 184.057 100.928 183.832 101.226C183.608 101.526 183.306 101.755 182.927 101.912L184.016 103.699H182.635ZM182.682 99.4415C182.496 99.2756 182.209 99.1927 181.824 99.1927H180.777L180.609 101.127H181.656C182.041 101.127 182.342 101.042 182.557 100.874C182.774 100.704 182.895 100.466 182.922 100.161C182.949 99.8472 182.868 99.6096 182.682 99.4415Z" fill="#0090FF"/>
<path fill-rule="evenodd" clip-rule="evenodd" d="M188.688 102.508H186.112L185.516 103.699H184.198L187.159 98.1458H188.428L190.425 103.699H189.076L188.688 102.508ZM188.37 101.531L187.675 99.4056L186.61 101.531H188.37Z" fill="#0090FF"/>
<path d="M192.071 103.423C191.636 103.178 191.306 102.838 191.082 102.401C190.858 101.963 190.771 101.47 190.818 100.921C190.867 100.372 191.042 99.8786 191.34 99.4414C191.64 99.0065 192.03 98.6636 192.51 98.4192C192.988 98.1726 193.514 98.0493 194.084 98.0493C194.566 98.0493 194.994 98.1345 195.366 98.3026C195.741 98.473 196.045 98.7151 196.283 99.0334L195.391 99.7956C195.055 99.3607 194.608 99.1455 194.052 99.1455C193.709 99.1455 193.396 99.2195 193.113 99.3697C192.828 99.5199 192.6 99.7306 192.427 100.002C192.252 100.271 192.149 100.578 192.12 100.921C192.089 101.266 192.138 101.571 192.266 101.842C192.391 102.111 192.584 102.322 192.842 102.472C193.097 102.622 193.398 102.699 193.741 102.699C194.297 102.699 194.781 102.479 195.196 102.04L195.953 102.802C195.66 103.125 195.31 103.369 194.904 103.539C194.499 103.707 194.055 103.793 193.575 103.793C193.008 103.793 192.508 103.669 192.071 103.423Z" fill="#0090FF"/>
<path d="M198.229 99.1927H196.451L196.543 98.1458H201.383L201.291 99.1927H199.513L199.119 103.699H197.834L198.229 99.1927Z" fill="#0090FF"/>
<path d="M243.718 235.617H105.425V158.294H243.718V235.617Z" fill="#0090FF"/>
<path d="M95.2159 158.294H108.113V235.617H95.2159V158.294Z" fill="#0090FF"/>
<path opacity="0.302" d="M95.2159 158.294H108.113V235.617H95.2159V158.294Z" fill="white"/>
<path d="M234.117 165.136H92.5079V158.294H234.117V165.136Z" fill="#0090FF"/>
<path opacity="0.6" d="M234.117 165.136H92.5079V158.294H234.117V165.136Z" fill="white"/>
<path d="M95.216 235.617H89.7999V158.294H95.216V235.617Z" fill="#0090FF"/>
<path opacity="0.502" d="M95.216 235.617H89.7999V158.294H95.216V235.617Z" fill="white"/>
<path d="M237.892 158.294H250.789V235.617H237.892V158.294Z" fill="#0090FF"/>
<path opacity="0.302" d="M237.892 158.294H250.789V235.617H237.892V158.294Z" fill="white"/>
<path d="M242.34 153.835H254.039V159.772H242.34V153.835Z" fill="#0090FF"/>
<path opacity="0.302" d="M242.34 153.835H254.039V159.772H242.34V153.835Z" fill="white"/>
<path d="M228.786 235.616H170.364V168.828H228.786V235.616Z" fill="#0090FF"/>
<path opacity="0.502" d="M228.786 235.616H170.364V168.828H228.786V235.616Z" fill="white"/>
<path d="M232.478 235.616H228.786V168.828H232.478V235.616Z" fill="#0090FF"/>
<path opacity="0.2" d="M232.478 235.616H228.786V168.828H232.478V235.616Z" fill="white"/>
<path d="M225.094 206.218H174.054V190.768H225.094V206.218Z" fill="#0090FF"/>
<path d="M225.094 187.919H174.054V172.469H225.094V187.919Z" fill="#0090FF"/>
<path d="M225.094 224.518H174.054V209.067H225.094V224.518Z" fill="#0090FF"/>
<g opacity="0.702">
<path opacity="0.702" d="M225.094 206.218H174.054V190.768H225.094V206.218Z" fill="white"/>
<g opacity="0.702">
<path opacity="0.702" d="M225.094 187.919H174.054V172.469H225.094V187.919Z" fill="white"/>
<path opacity="0.702" d="M225.094 224.518H174.054V209.067H225.094V224.518Z" fill="white"/>
</g>
</g>
<path d="M237.892 235.617H232.478V158.294H237.892V235.617Z" fill="#0090FF"/>
<path opacity="0.102" d="M243.718 235.617H105.425V158.294H243.718V235.617Z" fill="white"/>
<path opacity="0.502" d="M237.892 235.617H232.478V158.294H237.892V235.617Z" fill="white"/>
<path d="M242.34 159.772H85.3523V153.836H242.34V159.772Z" fill="#0090FF"/>
<path opacity="0.6" d="M242.34 159.772H85.3523V153.836H242.34V159.772Z" fill="white"/>
<path d="M201.401 180.194C201.401 181.12 200.65 181.873 199.722 181.873C199.397 181.873 198.276 181.873 197.951 181.873C197.023 181.873 196.272 181.12 196.272 180.194C196.272 179.266 197.023 178.515 197.951 178.515C198.276 178.515 199.397 178.515 199.722 178.515C200.65 178.515 201.401 179.266 201.401 180.194Z" fill="#0090FF"/>
<path d="M201.401 198.493C201.401 199.421 200.65 200.172 199.722 200.172C199.397 200.172 198.276 200.172 197.951 200.172C197.023 200.172 196.272 199.421 196.272 198.493C196.272 197.565 197.023 196.814 197.951 196.814C198.276 196.814 199.397 196.814 199.722 196.814C200.65 196.814 201.401 197.565 201.401 198.493Z" fill="#0090FF"/>
<path d="M201.401 216.793C201.401 217.721 200.65 218.472 199.722 218.472C199.397 218.472 198.276 218.472 197.951 218.472C197.023 218.472 196.272 217.721 196.272 216.793C196.272 215.865 197.023 215.114 197.951 215.114C198.276 215.114 199.397 215.114 199.722 215.114C200.65 215.114 201.401 215.865 201.401 216.793Z" fill="#0090FF"/>
<path opacity="0.302" d="M199.63 180.194C199.63 181.12 198.879 181.873 197.951 181.873C197.023 181.873 196.272 181.12 196.272 180.194C196.272 179.266 197.023 178.515 197.951 178.515C198.879 178.515 199.63 179.266 199.63 180.194Z" fill="#FAFAFA"/>
<path opacity="0.302" d="M199.63 198.493C199.63 199.421 198.879 200.172 197.951 200.172C197.023 200.172 196.272 199.421 196.272 198.493C196.272 197.565 197.023 196.814 197.951 196.814C198.879 196.814 199.63 197.565 199.63 198.493Z" fill="#FAFAFA"/>
<path opacity="0.302" d="M199.63 216.793C199.63 217.721 198.879 218.472 197.951 218.472C197.023 218.472 196.272 217.721 196.272 216.793C196.272 215.865 197.023 215.114 197.951 215.114C198.879 215.114 199.63 215.865 199.63 216.793Z" fill="#FAFAFA"/>
<path d="M140.786 86.1907C140.147 87.0964 140.533 88.9884 141.945 91.8691L132.4 93.0236L134.267 82.6196C139.369 83.9311 141.542 85.1214 140.786 86.1907Z" fill="#CE7A63"/>
<path opacity="0.2" d="M136.666 83.3394C138.802 84.0567 141.492 85.1955 140.786 86.1909C140.483 86.619 140.488 87.3454 140.636 88.1367C138.598 86.9082 137.17 84.3504 136.666 83.3394Z" fill="black"/>
<path d="M163.78 228.342L164.797 238.053L160.318 238.894L157.626 229.521L163.78 228.342Z" fill="#CE7A63"/>
<path d="M165.918 236.547C167.674 237.623 168.303 238.701 172.233 238.414C173.092 238.358 173.182 240.676 171.2 241.046C167.911 241.656 168.552 241.18 165.764 241.739C163.401 242.207 161.733 242.651 159.841 243.064C159.792 243.072 159.74 243.077 159.691 243.075C159.294 243.064 158.98 242.734 158.991 242.337L159.085 237.863C159.09 237.659 159.233 237.488 159.433 237.448L164.699 236.392C165.109 236.293 165.544 236.347 165.918 236.547Z" fill="#263238"/>
<path opacity="0.2" d="M157.626 229.521L163.78 228.342L164.481 235.045L159.404 235.713L157.626 229.521Z" fill="black"/>
<path d="M125.038 226.376L121.989 238.414L117.689 237.809L118.833 226.031L125.038 226.376Z" fill="#CE7A63"/>
<path d="M123.695 237.372C125.101 238.874 125.423 240.08 129.288 240.847C130.133 241.019 129.604 243.277 127.596 243.109C124.264 242.826 125.009 242.537 122.171 242.337C119.768 242.165 118.044 242.149 116.109 242.046C116.057 242.041 116.008 242.032 115.959 242.019C115.58 241.902 115.367 241.501 115.481 241.12L116.757 236.832C116.815 236.637 116.999 236.509 117.203 236.524L122.559 236.901C122.982 236.912 123.386 237.08 123.695 237.372Z" fill="#263238"/>
<path opacity="0.2" d="M118.806 226.295C119.467 226.363 122.841 226.699 124.901 226.919L122.655 235.791L117.956 235.072L118.806 226.295Z" fill="black"/>
<path d="M152.986 134.18L137.751 181.003L123.457 233.978L117.649 233.225C118.851 218.07 119.974 206.581 121.018 198.76C121.66 193.942 122.65 189.95 123.594 186.915C124.186 185.007 124.76 183.478 125.219 182.362C125.879 180.756 126.293 179.057 126.417 177.318C126.515 175.952 126.641 174.168 126.78 172.13C127.25 165.17 127.862 155.259 127.992 149C128.136 142.017 128.701 137.089 129.689 134.222L152.986 134.18Z" fill="#263238"/>
<path opacity="0.2" d="M140.488 172.455C141.136 163.905 140.167 156.362 137.58 149.829L139.255 150.657L144.241 154.869L144.857 159.48L140.488 172.455Z" fill="black"/>
<path d="M157.55 134.433L164.537 232.828L158.624 233.832C153.347 215.681 150.264 201.587 149.372 191.553C149.213 189.755 149.146 188.132 149.199 186.749C149.276 184.697 148.975 182.653 148.397 180.694L147.567 177.885L142.905 162.105C141.925 158.794 140.405 155.665 138.289 152.995C135.863 149.935 132.864 144.007 134.11 134.148L156.001 132.633L157.55 134.433Z" fill="#263238"/>
<path d="M135.668 128.221C137.935 127.757 139.448 127.562 140.206 127.634C140.842 127.692 142.055 128.091 143.846 128.826C144.98 129.201 145.299 130.653 144.42 131.465C143.176 133.061 142.243 133.924 141.62 134.056C140.38 134.319 137.979 133.498 134.417 131.593L135.668 128.221Z" fill="#CE7A63"/>
<path d="M137.085 127.513L135.426 132.832L133.613 132.682L135.502 126.594L137.085 127.513Z" fill="#263238"/>
<path opacity="0.2" d="M137.085 127.513L135.426 132.832L133.613 132.682L135.502 126.594L137.085 127.513Z" fill="white"/>
<path d="M125.661 108.761L121.429 118.732L136.141 127.768L134.848 131.949C120.595 129.08 113.477 125.22 113.495 120.371C113.515 114.535 118.864 102.52 120.983 97.9869C121.606 96.6553 123.46 96.4087 124.325 97.5946C125.917 99.778 126.363 103.499 125.661 108.761Z" fill="#0090FF"/>
<path opacity="0.102" d="M125.661 108.761L121.429 118.732L136.141 127.768L134.848 131.949C120.595 129.08 113.477 125.22 113.495 120.371C113.515 114.535 118.864 102.52 120.983 97.9869C121.606 96.6553 123.46 96.4087 124.325 97.5946C125.917 99.778 126.363 103.499 125.661 108.761Z" fill="black"/>
<g opacity="0.4">
<path opacity="0.4" d="M125.661 108.761L122.711 115.71L121.13 99.5852L122.455 98.6347L124.762 98.3186C125.97 100.704 126.271 104.185 125.661 108.761Z" fill="black"/>
<path opacity="0.4" d="M127.759 130.102C126.549 129.73 125.273 129.304 123.995 128.824L123.108 119.763L129.214 123.516L127.759 130.102Z" fill="black"/>
</g>
<path d="M157.225 134.382C150.208 136.679 140.954 136.897 129.459 135.038C129.459 135.038 126.706 123.428 121.198 100.206C120.579 97.6036 121.891 94.8911 124.233 93.5976C127.782 91.6383 134.799 89.7911 148.648 90.5555C152.062 90.7438 154.95 93.1649 155.734 96.4939L157.225 134.382Z" fill="#0090FF"/>
<path d="M129.58 92.0258L130.633 89.5554C133.395 88.1588 137.125 87.7912 141.817 88.448L143.49 90.3826C138.237 90.5104 133.601 91.0597 129.58 92.0258Z" fill="#263238"/>
<path d="M145.774 73.9395C145.868 74.3318 145.738 74.6995 145.474 74.7578C145.211 74.8183 144.9 74.5358 144.819 74.1502C144.736 73.7669 144.853 73.3925 145.117 73.3365C145.384 73.2804 145.673 73.5495 145.774 73.9395Z" fill="#263238"/>
<path d="M145.418 75.1277L148.108 77.755C147.532 78.3984 146.722 78.6562 145.678 78.5217L145.418 75.1277Z" fill="#BA4D3C"/>
<path d="M130.192 72.3366C131.268 68.4427 135.379 66.1606 139.376 67.2389C144.983 68.7543 146.754 76.5309 146.209 81.4404C145.608 86.899 139.091 87.9033 134.534 85.6235C131.434 83.2226 131.113 80.9651 130.084 75.6948C129.853 74.5806 129.889 73.4306 130.192 72.3366Z" fill="#CE7A63"/>
<path d="M143.674 72.6662V72.664C143.575 72.599 143.548 72.4645 143.613 72.3681C143.974 71.7987 144.599 71.4445 145.288 71.4243C145.406 71.4288 145.501 71.523 145.503 71.6418C145.501 71.7561 145.404 71.848 145.288 71.8458C144.745 71.8749 144.256 72.1596 143.974 72.6102C143.931 72.6685 143.864 72.7021 143.792 72.7021C143.75 72.6999 143.709 72.6887 143.674 72.6662Z" fill="#263238"/>
<path opacity="0.4" d="M147.193 97.4645L149.117 96.1172L151.614 98.4284L156.174 104.463L156.877 117.221C150.598 108.736 147.372 102.152 147.193 97.4645Z" fill="black"/>
<path d="M158.361 99.0897C160.886 103.728 161.865 106.472 162.731 107.624C162.845 107.779 163.035 107.855 163.224 107.828L177.986 105.683C178.239 105.647 178.481 105.797 178.56 106.039L179.75 109.695C179.837 109.969 179.692 110.263 179.418 110.354L165.578 115.046C163.074 116.019 160.227 115.528 158.209 113.753C154.398 110.397 151.468 106.667 148.803 101.396C147.74 99.2959 145.272 95.4109 149.325 91.9945C152.685 89.161 156.685 96.0095 158.361 99.0897Z" fill="#0090FF"/>
<path opacity="0.102" d="M158.361 99.0897C160.886 103.728 161.865 106.472 162.731 107.624C162.845 107.779 163.035 107.855 163.224 107.828L177.986 105.683C178.239 105.647 178.481 105.797 178.56 106.039L179.75 109.695C179.837 109.969 179.692 110.263 179.418 110.354L165.578 115.046C163.074 116.019 160.227 115.528 158.209 113.753C154.398 110.397 151.468 106.667 148.803 101.396C147.74 99.2959 145.272 95.4109 149.325 91.9945C152.685 89.161 156.685 96.0095 158.361 99.0897Z" fill="white"/>
<path d="M178.412 106.032L181.456 102.457C181.785 102.069 182.223 101.786 182.714 101.643L189.874 99.5603C190.116 99.4908 190.374 99.6029 190.488 99.827C190.627 100.101 190.501 100.435 190.219 100.551L187.26 101.762C187.047 101.849 186.917 102.062 186.935 102.291L187.083 104.08C187.172 105.176 186.563 106.212 185.561 106.669L183.408 107.648C183.326 107.68 183.243 107.713 183.16 107.745L179.465 108.987C179.172 109.085 178.858 108.911 178.788 108.608L178.3 106.49C178.264 106.328 178.304 106.158 178.412 106.032Z" fill="#CE7A63"/>
<path d="M177.934 104.952L178.625 104.844C178.867 104.808 179.102 104.943 179.192 105.171L180.931 109.585C181.032 109.839 180.92 110.128 180.674 110.249L180.068 110.545C179.795 110.677 179.463 110.549 179.351 110.267L177.526 105.662C177.403 105.349 177.602 105.001 177.934 104.952Z" fill="#263238"/>
<path d="M165.161 231.202L165.356 233.787L158.382 234.863L157.465 232.433L165.161 231.202Z" fill="#0090FF"/>
<path opacity="0.2" d="M165.161 231.202L165.356 233.787L158.382 234.863L157.465 232.433L165.161 231.202Z" fill="black"/>
<path d="M124.455 232.406L123.913 234.942L116.918 234.007L117.028 231.454L124.455 232.406Z" fill="#0090FF"/>
<path opacity="0.2" d="M124.455 232.406L123.913 234.942L116.918 234.007L117.028 231.454L124.455 232.406Z" fill="black"/>
<path d="M129.089 78.9342C127.056 75.7913 127.21 72.9958 129.555 70.5501C130.447 65.6138 137.419 65.3649 138.574 65.1475C139.728 64.93 139.97 62.9237 142.008 64.6095C144.048 66.293 141.649 70.0883 141.4 71.5342C141.152 72.9801 142.326 75.0672 142.533 76.6611C142.672 77.7237 141.916 78.4074 140.271 78.7123C140.201 81.0482 139.053 83.4626 136.827 85.9576C135.258 85.1013 134.211 85.043 133.691 85.7828C132.655 84.3615 131.122 82.0772 129.089 78.9342Z" fill="#263238"/>
<path d="M140.378 75.4213L146.48 72.0317C147.502 74.6949 147.769 76.0915 147.278 76.2261C146.79 76.3606 146.222 75.3809 145.577 73.2916L141.232 75.3652L140.378 75.4213Z" fill="#0090FF"/>
<path opacity="0.702" d="M145.729 73.397L146.191 73.1235C147.032 75.0044 147.337 76.0288 147.106 76.1947C146.875 76.3606 146.415 75.4281 145.729 73.397Z" fill="white"/>
<path d="M141.21 75.5446C142.138 76.1655 142.777 77.1183 142.988 78.1965C143.254 79.6268 141.909 80.2096 140.598 79.7052C139.412 79.2457 137.856 77.95 138.184 76.5623C138.511 75.1747 140.064 74.7981 141.21 75.5446Z" fill="#CE7A63"/>
</svg>
