<svg width="31" height="32" viewBox="0 0 31 32" fill="none" xmlns="http://www.w3.org/2000/svg">
<path d="M21.1656 7.16455H18.1656C16.8396 7.16455 15.5678 7.665 14.6301 8.55579C13.6924 9.44659 13.1656 10.6548 13.1656 11.9146V14.7646H10.1656V18.5646H13.1656V26.1646H17.1656V18.5646H20.1656L21.1656 14.7646H17.1656V11.9146C17.1656 11.6626 17.271 11.421 17.4585 11.2428C17.6461 11.0646 17.9004 10.9646 18.1656 10.9646H21.1656V7.16455Z" stroke="#08263E" stroke-width="1.7" stroke-linecap="round" stroke-linejoin="round"/>
<path d="M22.249 1.99805H8.08236C4.17034 1.99805 0.999023 5.16936 0.999023 9.08138V23.248C0.999023 27.1601 4.17034 30.3314 8.08236 30.3314H22.249C26.161 30.3314 29.3324 27.1601 29.3324 23.248V9.08138C29.3324 5.16936 26.161 1.99805 22.249 1.99805Z" stroke="#08263E" stroke-width="2" stroke-linecap="round" stroke-linejoin="round"/>
</svg>
