<svg width="34" height="35" viewBox="0 0 34 35" fill="none" xmlns="http://www.w3.org/2000/svg">
<g clip-path="url(#clip0_146_1337)">
<path d="M31.9307 10.093C31.7624 9.42067 31.4197 8.80465 30.9372 8.30716C30.4546 7.80968 29.8493 7.44835 29.1824 7.25967C26.7457 6.66467 16.9991 6.66467 16.9991 6.66467C16.9991 6.66467 7.25239 6.66467 4.81573 7.31634C4.14883 7.50502 3.54353 7.86635 3.06097 8.36383C2.57841 8.86132 2.23568 9.47734 2.06739 10.1497C1.62145 12.6225 1.40331 15.1311 1.41573 17.6438C1.39983 20.1755 1.61798 22.7032 2.06739 25.1947C2.25292 25.8461 2.60333 26.4387 3.08476 26.9152C3.5662 27.3917 4.16239 27.7359 4.81573 27.9147C7.25239 28.5663 16.9991 28.5663 16.9991 28.5663C16.9991 28.5663 26.7457 28.5663 29.1824 27.9147C29.8493 27.726 30.4546 27.3647 30.9372 26.8672C31.4197 26.3697 31.7624 25.7537 31.9307 25.0813C32.3732 22.6271 32.5914 20.1376 32.5824 17.6438C32.5983 15.1122 32.3801 12.5845 31.9307 10.093V10.093Z" stroke="#08263E" stroke-width="2" stroke-linecap="round" stroke-linejoin="round"/>
<path d="M13.8115 22.2764L21.9574 17.6439L13.8115 13.0114V22.2764Z" stroke="#08263E" stroke-width="2" stroke-linecap="round" stroke-linejoin="round"/>
</g>
<defs>
<clipPath id="clip0_146_1337">
<rect width="34" height="34" fill="white" transform="translate(-0.000976562 0.998047)"/>
</clipPath>
</defs>
</svg>
