<svg width="34" height="35" viewBox="0 0 34 35" fill="none" xmlns="http://www.w3.org/2000/svg">
<path d="M24.0824 3.83142H9.91573C6.00371 3.83142 2.8324 7.00274 2.8324 10.9148V25.0814C2.8324 28.9934 6.00371 32.1648 9.91573 32.1648H24.0824C27.9944 32.1648 31.1657 28.9934 31.1657 25.0814V10.9148C31.1657 7.00274 27.9944 3.83142 24.0824 3.83142Z" stroke="#08263E" stroke-width="2" stroke-linecap="round" stroke-linejoin="round"/>
<path d="M22.6657 17.1056C22.8406 18.2846 22.6392 19.4887 22.0902 20.5467C21.5413 21.6047 20.6727 22.4626 19.608 22.9985C18.5434 23.5343 17.3369 23.7209 16.1601 23.5315C14.9833 23.3422 13.8962 22.7866 13.0534 21.9438C12.2106 21.1009 11.655 20.0138 11.4657 18.8371C11.2763 17.6603 11.4628 16.4538 11.9987 15.3891C12.5346 14.3245 13.3925 13.4559 14.4505 12.9069C15.5084 12.358 16.7125 12.1566 17.8916 12.3314C19.0942 12.5098 20.2076 13.0702 21.0673 13.9299C21.927 14.7896 22.4874 15.903 22.6657 17.1056Z" stroke="#08263E" stroke-width="2" stroke-linecap="round" stroke-linejoin="round"/>
<path d="M24.7906 10.2064H24.8048" stroke="#08263E" stroke-width="2" stroke-linecap="round" stroke-linejoin="round"/>
</svg>
