<svg width="507" height="508" viewBox="0 0 507 508" fill="none" xmlns="http://www.w3.org/2000/svg">
<path d="M444.257 329.181C419.251 378.997 333.118 399.56 245.644 387.793C157.948 375.804 69.1345 332.149 54.7172 265.489C40.7428 198.83 101.386 109.389 170.909 81.0691C240.654 52.9705 319.056 86.2145 376.208 142.924C433.36 199.19 469.262 278.922 444.257 329.181Z" fill="#B9E0FF"/>
<path d="M229.808 277.488C227.665 292.773 207.569 323.304 205.868 325.807C203.974 328.604 200.626 326.649 201.516 322.94C202.529 318.728 207.935 284.115 213.165 274.411C218.826 247.824 233.228 215.93 237.546 212.26C243.858 206.896 248.687 208.448 249.844 221.775C250.992 234.996 236.525 267.377 229.808 277.488Z" fill="#B57E6F"/>
<path d="M242.202 252.249C241.501 254 240.777 255.738 240.041 257.438C240.041 257.438 223.839 247.249 222.61 242.998C222.947 242.102 223.284 241.216 223.623 240.339C230.487 246.993 241.595 250.104 241.595 250.104C241.823 250.817 242.021 251.53 242.202 252.249Z" fill="#3A193F"/>
<path d="M203.334 320.314C201.832 320.843 194.865 323.15 193.498 324.591C192.13 326.032 191.145 330.713 191.172 331.228C191.199 331.742 191.454 334.537 191.454 334.537C191.454 334.537 193.432 334.383 193.354 332.28C193.26 329.787 195.944 327.861 197.51 327.233C198.162 326.974 199.755 327.215 199.962 328.159C200.17 329.104 197.693 330.187 197.258 330.867C196.578 331.892 197.185 333.075 197.185 333.075C197.185 333.075 200.984 331.24 201.714 330.891C202.445 330.542 206.282 326.562 207.581 323.37C208.879 320.178 206.793 319.095 203.334 320.314Z" fill="#B57E6F"/>
<path d="M311.888 273.73C314.025 288.973 334.066 319.42 335.762 321.916C337.651 324.706 340.989 322.756 340.102 319.057C339.092 314.857 333.7 280.339 328.486 270.661C322.839 244.147 308.477 212.341 304.171 208.681C297.877 203.332 293.061 204.88 291.907 218.17C290.762 231.355 305.19 263.647 311.888 273.73Z" fill="#B57E6F"/>
<path d="M299.528 248.56C300.227 250.306 300.949 252.04 301.683 253.735C301.683 253.735 317.84 243.574 319.066 239.335C318.73 238.441 318.394 237.557 318.056 236.683C311.211 243.319 300.134 246.421 300.134 246.421C299.906 247.132 299.708 247.843 299.528 248.56Z" fill="#3A193F"/>
<path d="M338.289 316.438C339.787 316.966 346.735 319.267 348.098 320.704C349.462 322.141 350.445 326.809 350.418 327.322C350.391 327.835 350.136 330.622 350.136 330.622C350.136 330.622 348.164 330.469 348.242 328.372C348.335 325.885 345.659 323.965 344.097 323.338C343.447 323.08 341.858 323.32 341.652 324.262C341.445 325.204 343.914 326.284 344.349 326.962C345.026 327.985 344.421 329.164 344.421 329.164C344.421 329.164 340.633 327.334 339.904 326.986C339.176 326.638 335.349 322.669 334.054 319.486C332.759 316.303 334.839 315.223 338.289 316.438Z" fill="#B57E6F"/>
<path d="M280.618 362.62C281.114 366.831 285.556 378.564 286.93 383.476C290.109 394.748 303.029 443.681 306.915 456.084C311.744 471.501 314.127 462.416 314.127 456.685C314.127 450.955 322.464 412.939 317.277 394.047C314.473 383.819 308.991 373.732 308.511 356.291L280.618 362.62Z" fill="#B57E6F"/>
<path d="M308.604 358.455C298.864 364.003 288.345 366.376 281.778 367.39C281.496 366.301 280.709 363.392 280.618 362.616L308.514 356.277C308.534 357.015 308.564 357.741 308.604 358.455Z" fill="#3A193F"/>
<path d="M317.854 428.44C316.423 441.781 314.13 453.661 314.13 456.672C314.13 462.415 311.753 471.5 306.918 456.071C305.364 451.11 302.362 440.295 299.119 428.395C300.225 428.759 307.477 430.858 317.854 428.44Z" fill="white"/>
<path d="M286.945 467.051C286.945 467.051 285.529 462.4 290.136 460.734C293.764 459.419 304.138 457.064 305.412 453.09C305.412 453.09 307.849 455.442 314.512 453.673C314.512 453.673 319.792 458.788 318.671 466.787L286.945 467.051Z" fill="#EF6565"/>
<path d="M310.314 454.383C310.377 453.824 310.428 447.599 308.453 446.613C306.479 445.626 301.977 446.553 302.1 447.599C302.223 448.646 304.535 453.775 305.106 453.917C305.677 454.058 310.314 454.383 310.314 454.383Z" fill="#EF6565"/>
<path d="M318.951 466.819H286.716C286.251 466.819 285.875 467.196 285.875 467.662V467.972C285.875 468.437 286.251 468.814 286.716 468.814H318.951C319.416 468.814 319.792 468.437 319.792 467.972V467.662C319.792 467.196 319.416 466.819 318.951 466.819Z" fill="white"/>
<path d="M306.076 459.085C306.076 459.085 305.139 455.725 303.179 455.716C300.775 455.716 300.306 457.087 300.306 457.087" stroke="white" stroke-width="1.14371" stroke-linecap="round" stroke-linejoin="round"/>
<path d="M302.127 460.466C302.127 460.466 301.574 457.28 299.624 457.1C299.036 457.028 298.44 457.119 297.9 457.36C297.359 457.602 296.895 457.986 296.555 458.471" stroke="white" stroke-width="1.14371" stroke-linecap="round" stroke-linejoin="round"/>
<path d="M266.584 365.323C265.983 366.764 229.017 357.228 229.763 353.841C230.153 352.069 240.789 352.099 250.538 355.005C259.422 357.652 267.572 363.001 266.584 365.323Z" fill="#32323C"/>
<path d="M236.425 353.275C234.676 353.654 234.764 365.509 236.425 380.512C238.087 395.514 241.79 451.636 239.383 455.526C236.975 459.415 248.45 456.082 248.822 454.046C249.195 452.009 264.492 419.553 261.411 399.34C258.259 378.659 263.106 364.772 263.816 362.549C264.525 360.326 249.33 350.465 236.425 353.275Z" fill="#B57E6F"/>
<path d="M263.828 362.549C263.648 363.109 263.206 364.406 262.695 366.367C253.484 357.481 242.097 355.922 235.41 355.88C235.62 354.295 235.957 353.368 236.426 353.266C249.33 350.465 264.549 360.323 263.828 362.549Z" fill="#3A193F"/>
<path d="M258.109 427.85C258.109 427.856 258.109 427.862 258.109 427.868C254.343 441.303 249.039 452.854 248.822 454.04C248.453 456.076 236.981 459.409 239.389 455.52C240.477 453.757 240.314 441.264 239.653 426.734C239.659 426.74 244.867 430.094 258.109 427.85Z" fill="white"/>
<path d="M219.479 467.05C219.479 467.05 218.063 462.4 222.67 460.733C226.298 459.419 238.643 457.063 239.918 453.089C239.918 453.089 242.358 455.442 249.018 453.673C249.018 453.673 253.459 460.255 252.39 466.786L219.479 467.05Z" fill="#EF6565"/>
<path d="M242.848 454.383C242.911 453.823 242.962 447.599 240.988 446.612C239.013 445.626 236.48 446.552 236.609 447.599C236.738 448.646 239.04 453.775 239.614 453.916C240.188 454.058 242.848 454.383 242.848 454.383Z" fill="#EF6565"/>
<path d="M252.669 466.819H219.25C218.786 466.819 218.409 467.196 218.409 467.661V467.971C218.409 468.436 218.786 468.813 219.25 468.813H252.669C253.134 468.813 253.511 468.436 253.511 467.971V467.661C253.511 467.196 253.134 466.819 252.669 466.819Z" fill="white"/>
<path d="M237.225 459.479C237.225 459.479 236.879 455.526 234.92 455.52C232.516 455.52 233.036 457.481 233.036 457.481" stroke="white" stroke-width="1.14371" stroke-linecap="round" stroke-linejoin="round"/>
<path d="M232.69 461.058C232.69 461.058 232.341 457.105 230.385 457.099C227.981 457.099 228.498 459.064 228.498 459.064" stroke="white" stroke-width="1.14371" stroke-linecap="round" stroke-linejoin="round"/>
<path d="M242.133 293.477C239.383 301.136 238.087 306.794 235.683 326.799C233.468 345.213 229.946 350.137 229.763 353.841C229.763 353.841 252.522 349.394 266.584 365.323L271.47 353.841L275.221 363.01C275.221 363.01 296.559 365.323 317.28 351.061C317.28 351.061 310.81 344.025 308.913 328.499C306.948 312.417 304.165 301.298 300.733 294.692C297.301 288.086 243.079 290.836 242.133 293.477Z" fill="#E2DFA1"/>
<path d="M271.47 353.841C270.286 349.951 265.46 329.946 264.735 329.393C264.011 328.839 259.194 326.056 259.194 326.056" stroke="#174B64" stroke-width="1.14371" stroke-linecap="round" stroke-linejoin="round"/>
<path d="M302.906 299.722C299.254 297.634 288.781 293.847 264.844 298.459C248.173 301.665 242.872 298.158 241.378 295.643C241.616 294.93 241.868 294.211 242.133 293.477C243.079 290.836 297.301 288.086 300.736 294.695C301.567 296.322 302.292 298.001 302.906 299.722Z" fill="#19243F"/>
<path d="M304.85 357.863L303.726 358.239C303.642 357.986 301.622 351.837 299.218 334.603C296.97 318.463 292.282 296.335 291.705 293.567C292.126 293.552 292.525 293.54 292.907 293.534C293.661 297.093 298.199 318.626 300.402 334.446C302.77 351.533 304.829 357.803 304.85 357.863Z" fill="white"/>
<path d="M301.496 359.048L300.366 359.424C300.282 359.172 298.262 353.023 295.858 335.788C293.655 319.968 289.108 297.403 288.372 293.775C288.781 293.739 289.177 293.709 289.574 293.682C290.395 297.737 294.86 319.971 297.042 335.626C299.414 352.719 301.475 358.988 301.496 359.048Z" fill="white"/>
<path d="M287.444 201.331C292.877 203.244 302.076 206.767 305.304 209.174C308.532 211.58 323.814 230.833 323.814 230.833C323.814 230.833 317.1 244.918 301.74 250.291C301.74 250.291 295.263 265.816 301.274 294.912C301.274 294.912 297.082 290.4 265.772 297.701C244.294 302.713 239.215 293.08 239.347 291.597C239.479 290.114 247.443 268.999 241.601 250.104C241.601 250.104 225.718 245.661 220.2 236.028C220.2 236.028 229.688 216.174 234.364 212.401C239.04 208.629 251.687 205.034 256.08 203.678C260.474 202.321 287.444 201.331 287.444 201.331Z" fill="#08263E"/>
<path d="M300.168 293.581C301.175 298.117 318.99 294.901 312.637 276.133C306.284 257.364 301.013 250.902 301.013 250.902C301.013 250.902 295.306 271.665 300.168 293.581Z" fill="#EF6565"/>
<path d="M297.475 205.126C294.263 212.625 287.504 233.461 300.427 267.397L298.395 277.246C298.395 277.246 278.413 248.066 290.326 203.33C290.963 200.938 297.475 205.126 297.475 205.126Z" fill="#EF6565"/>
<path d="M255.416 204.208C244.231 223.037 247.66 264.852 242.896 271.666C242.896 271.666 235.801 225.507 245.827 207.626C247.75 204.205 256.697 202.054 255.416 204.208Z" fill="#EF6565"/>
<path d="M288.174 201.725C288.174 201.725 271.768 211.309 257.691 203.283C257.691 203.283 265.505 198.924 266.53 191.049C266.539 191.004 266.545 190.959 266.548 190.913C266.548 190.82 266.569 190.724 266.578 190.63C266.581 190.601 266.581 190.572 266.578 190.543C266.599 190.327 266.614 190.11 266.623 189.89C266.623 189.614 266.623 189.331 266.623 189.042H266.641L281.132 185.694C281.132 185.694 281.114 186.708 281.256 188.239C281.607 192.074 282.972 199.165 288.174 201.725Z" fill="#B57E6F"/>
<path d="M281.433 190.426C277.826 198.849 268.42 197.947 264.639 196.53C265.632 194.848 266.278 192.984 266.542 191.049C266.55 191.004 266.556 190.959 266.56 190.913C266.56 190.82 266.584 190.727 266.59 190.63C266.593 190.601 266.593 190.572 266.59 190.543C266.611 190.327 266.626 190.11 266.635 189.89C266.647 189.61 266.647 189.327 266.635 189.042L281.132 185.694C281.132 185.694 281.292 188.895 281.433 190.426Z" fill="#3A193F"/>
<path d="M282.542 186.031C282.275 187.171 281.782 188.245 281.09 189.19C280.309 190.264 280.005 190.883 279.329 191.329C277.559 192.493 268.249 195.603 264.603 190.426C262.893 187.998 261.898 178.694 262.719 171.318C263.596 163.436 279.867 166.853 282.554 173.664C284.222 177.927 283.236 183.116 282.542 186.031Z" fill="#B57E6F"/>
<path d="M273.43 170.908C272.79 170.993 262.272 173.42 258.909 169.296C255.546 165.172 260.565 161.315 265.553 161.799C265.553 161.799 265.914 157.774 271.979 156.583C278.094 155.38 280.781 157.844 280.805 160.136C280.805 160.136 285.178 158.412 288.445 161.038C291.711 163.665 290.455 165.677 290.317 168.351C290.179 171.026 292.231 170.322 292.216 173.116C292.198 176.098 288.998 176.101 286.401 181.97C285.406 184.226 283.651 185.201 283.582 184.166C283.513 183.131 283.444 182.999 283.008 182.415C282.572 181.831 280.631 178.61 280.472 174.218C280.312 169.825 279.08 170.171 273.43 170.908Z" fill="#3A193F"/>
<path d="M279.173 170.09C276.453 170.283 268.423 175.003 260.185 171.757" stroke="#3A193F" stroke-width="1.14371" stroke-linecap="round" stroke-linejoin="round"/>
<path d="M283.281 185.135C285.53 185.135 287.353 183.31 287.353 181.058C287.353 178.807 285.53 176.982 283.281 176.982C281.032 176.982 279.209 178.807 279.209 181.058C279.209 183.31 281.032 185.135 283.281 185.135Z" fill="#B57E6F"/>
<path d="M271.858 174.593C271.858 174.593 273.376 173.742 275.564 175.147" stroke="#3A193F" stroke-width="1.14371" stroke-linecap="round" stroke-linejoin="round"/>
<path d="M273.918 177.974C273.944 177.383 273.596 176.888 273.14 176.867C272.684 176.847 272.293 177.309 272.266 177.9C272.24 178.491 272.588 178.986 273.044 179.007C273.5 179.027 273.891 178.565 273.918 177.974Z" fill="#3A193F"/>
<path d="M266.404 177.976C266.431 177.385 266.083 176.889 265.627 176.869C265.171 176.848 264.779 177.311 264.753 177.902C264.726 178.492 265.075 178.988 265.531 179.009C265.987 179.029 266.378 178.567 266.404 177.976Z" fill="#3A193F"/>
<path d="M268.874 178.002L268.573 183.42L270.403 184.085" stroke="#3A193F" stroke-width="1.14371" stroke-linecap="round" stroke-linejoin="round"/>
<path d="M273.343 185.162C273.343 185.162 272.3 187.331 270.416 187.09" stroke="#3A193F" stroke-width="1.14371" stroke-linecap="round" stroke-linejoin="round"/>
<path d="M460.843 223.319C451.26 217.833 443.798 199.266 441.742 180.482C439.713 161.651 442.988 142.649 453.596 139.695C464.224 136.837 482.157 150.075 490.163 165.087C498.142 180.146 496.146 196.932 489.198 209.097C482.325 221.263 470.5 228.807 460.843 223.319Z" fill="white"/>
</svg>
