<svg width="944" height="721" viewBox="0 0 944 721" fill="none" xmlns="http://www.w3.org/2000/svg">
<path d="M815.653 439.798C758.421 515.272 592.251 558.303 430.192 555.104C267.76 551.62 109.72 502.825 96.2808 409.332C83.6743 315.77 216.04 177.794 352.568 126.223C489.467 74.9356 630.066 110.406 725.898 182.912C821.82 254.782 872.975 363.688 815.653 439.798Z" fill="#B9E0FF"/>
<path d="M211.998 303.761C245.918 242.196 363.312 192.754 482.654 177.7C602.298 162.815 723.584 181.672 743.492 248.879C762.796 316.226 680.42 431.755 585.708 484.284C490.693 536.644 383.644 525.697 305.49 482.749C227.338 440.277 178.081 365.803 211.998 303.761Z" fill="white"/>
<path d="M899.094 463.968C898.386 471.481 888.939 481.369 877.831 487.953C866.685 494.534 853.935 497.862 849.101 492.095C844.321 486.288 847.494 471.39 854.575 462.168C861.693 452.949 872.703 449.451 882.236 450.339C891.747 451.18 899.782 456.409 899.094 463.968Z" fill="white"/>
<path d="M67.0501 306.874C73.8467 302.595 76.6244 292.651 74.9844 283.59C73.3141 274.511 67.317 266.317 58.2046 266.878C49.0924 267.487 36.8952 276.868 33.0518 285.267C29.2386 293.682 33.8094 301.083 41.5783 305.448C49.2866 309.826 60.1929 311.167 67.0501 306.874Z" fill="white"/>
<path d="M77.564 207.615C89.0171 223.017 113.224 227.794 134.511 222.209C155.833 216.549 174.246 200.743 171.222 179.136C168.084 157.538 143.474 130.213 122.753 122.61C101.997 115.083 85.2078 127.343 76.2475 146.661C67.2426 165.838 66.0662 192.072 77.564 207.615Z" fill="white"/>
</svg>
