<svg width="601" height="463" viewBox="0 0 601 463" fill="none" xmlns="http://www.w3.org/2000/svg">
<path d="M73.0427 212.842C102.538 159.307 204.621 116.313 308.397 103.223C412.437 90.279 517.904 106.677 535.216 165.119C552.002 223.682 480.37 324.142 398.011 369.82C315.388 415.352 222.301 405.833 154.341 368.485C86.3819 331.553 43.5491 266.792 73.0427 212.842Z" fill="white"/>
<path d="M471.051 72.829C477.848 68.5501 480.625 58.6062 478.985 49.5444C477.315 40.4656 471.318 32.2717 462.206 32.833C453.093 33.4421 440.896 42.8233 437.053 51.2216C433.24 59.6368 437.81 67.0383 445.579 71.4025C453.288 75.7808 464.194 77.1219 471.051 72.829Z" fill="#B9E0FF"/>
</svg>
